<?xml version="1.0" encoding="UTF-8"?><svg id="_レイヤー_2" xmlns="http://www.w3.org/2000/svg" viewBox="0 0 224 49"><defs><style>.cls-1{fill:#c11f1f;}.cls-2{fill:#fff;}</style></defs><g id="_レイヤー_9"><rect class="cls-1" y="0" width="224" height="49" rx="13.6" ry="13.6"/><circle class="cls-2" cx="197.72" cy="24.5" r="13"/><polygon points="191.35 19.08 204.09 19.08 197.72 31.08 191.35 19.08"/><path class="cls-2" d="m19.38,20.83c-1.27.91-2.66,1.73-4.06,2.4-.34-.7-1.08-1.78-1.68-2.4,4.08-1.8,7.9-5.21,9.7-8.04h2.98c2.54,3.53,6.36,6.26,10.15,7.61-.72.74-1.34,1.78-1.85,2.62-1.32-.62-2.71-1.42-4.03-2.33v1.9h-11.21v-1.75Zm-4.25,3.74h19.85v2.64h-10.75c-.7,1.42-1.49,2.9-2.21,4.25,2.3-.07,4.78-.17,7.22-.26-.74-.86-1.56-1.73-2.35-2.45l2.52-1.32c2.14,1.87,4.37,4.37,5.5,6.17l-2.66,1.61c-.24-.46-.58-.96-.96-1.49-5.64.31-11.57.55-15.65.74l-.38-2.78,3.62-.12c.65-1.34,1.32-2.93,1.82-4.34h-5.57v-2.64Zm14.43-4.61c-1.85-1.39-3.5-2.95-4.61-4.44-1.03,1.46-2.57,3.02-4.39,4.44h9Z"/><path class="cls-2" d="m52.22,24.79c-.19.38-.43.77-.67,1.15h9.74s-.02.65-.05.98c-.34,4.68-.72,6.6-1.37,7.3-.46.55-.98.74-1.58.82-.55.07-1.46.1-2.42.05-.05-.67-.29-1.63-.65-2.23.77.07,1.39.07,1.7.07.34,0,.53-.05.72-.26.34-.36.62-1.58.89-4.49h-.94c-.98,2.69-2.86,5.59-4.8,7.1-.48-.55-1.3-1.2-2.02-1.58,1.82-1.15,3.43-3.29,4.46-5.52h-1.42c-1.3,2.3-3.53,4.7-5.62,6.02-.46-.55-1.2-1.27-1.87-1.68,1.78-.89,3.62-2.57,4.9-4.34h-1.42c-.89.94-1.82,1.73-2.81,2.35-.36-.46-1.27-1.3-1.87-1.68-1.73.86-3.46,1.73-4.92,2.45l-1.06-2.88c.82-.31,1.82-.72,2.95-1.18v-6.77h-2.4v-2.69h2.4v-4.73h2.64v4.73h2.26v2.69h-2.26v5.66l1.92-.84.5,2.04c.86-.74,1.61-1.61,2.21-2.54h-2.71v-2.4h15.1v2.4h-9.55Zm7.92-3.31h-11.35v-8.11h11.35v8.11Zm-2.64-6.14h-6.19v1.15h6.19v-1.15Zm0,3.02h-6.19v1.15h6.19v-1.15Z"/><path class="cls-2" d="m67.35,30.58v-13.01c0-.91-.12-2.04-.26-2.74h3.77c-.14.94-.24,1.8-.24,2.74v12.48c3.91-1.13,9.26-4.2,12.34-7.94l1.7,2.71c-3.29,3.94-8.26,6.79-13.92,8.64-.34.12-.86.29-1.42.65l-2.28-1.97c.29-.6.31-1.01.31-1.56Z"/><path class="cls-2" d="m98.98,19.47c2.47-1.54,5.21-3.94,6.77-5.83l2.59,2.47c-1.82,1.8-4.13,3.67-6.46,5.21v9.7c0,1.06.05,2.54.22,3.14h-3.79c.1-.58.17-2.09.17-3.14v-7.68c-2.47,1.3-5.52,2.59-8.47,3.46l-1.51-3.02c4.3-1.1,7.82-2.66,10.49-4.3Z"/><path class="cls-2" d="m132.68,18.1c-1.13,1.87-3.41,4.9-5.76,6.58l-2.5-1.99c1.92-1.18,3.79-3.29,4.42-4.46h-12.5c-1.01,0-1.8.07-2.93.17v-3.34c.91.14,1.92.24,2.93.24h12.94c.67,0,1.99-.07,2.45-.22l1.9,1.78c-.26.31-.72.89-.94,1.25Zm-15.51,16.35l-2.81-2.28c.77-.26,1.63-.67,2.52-1.32,3.05-2.11,3.62-4.66,3.62-8.59,0-.74-.05-1.39-.17-2.16h3.48c0,5.95-.12,10.85-6.65,14.35Z"/><path class="cls-2" d="m148.68,15.7v1.85h4.18c1.01,0,1.58-.12,1.99-.26l2.09,1.27c-.19.53-.38,1.44-.48,1.92-.41,2.3-1.06,4.61-2.23,6.79-1.92,3.55-5.52,6.1-9.79,7.2l-2.5-2.88c1.08-.19,2.4-.55,3.38-.94,1.99-.74,4.1-2.16,5.45-4.1,1.22-1.75,1.85-4.03,2.14-6.17h-11.91v3.5c0,.55.02,1.3.07,1.78h-3.31c.07-.6.12-1.37.12-2.02v-4.15c0-.53-.02-1.49-.12-2.06.82.1,1.54.12,2.45.12h5.14v-1.85c0-.67-.02-1.18-.19-2.21h3.7c-.12,1.03-.17,1.54-.17,2.21Z"/><path class="cls-2" d="m164.1,16.99c0-.84-.07-2.04-.24-2.88h3.74c-.1.84-.22,1.9-.22,2.88v3.55c3.22.94,7.82,2.64,10.03,3.72l-1.37,3.31c-2.47-1.3-6.07-2.69-8.67-3.58v6.79c0,.7.12,2.38.22,3.36h-3.74c.14-.96.24-2.4.24-3.36v-13.8Z"/></g></svg>