<?xml version="1.0" encoding="UTF-8"?><svg id="_レイヤー_2" xmlns="http://www.w3.org/2000/svg" viewBox="0 0 81.71 13.08"><defs><style>.cls-1{fill:#fff;}.cls-2{fill:none;stroke:#fff;}</style></defs><g id="_白"><g><g><path class="cls-1" d="m14.76,5.8c0-3.66,2.36-5.8,5.16-5.8,1.41,0,2.54.68,3.25,1.43l-1.16,1.41c-.57-.54-1.21-.93-2.05-.93-1.68,0-2.94,1.44-2.94,3.83s1.14,3.87,2.89,3.87c.96,0,1.7-.45,2.29-1.1l1.17,1.38c-.92,1.07-2.1,1.64-3.54,1.64-2.8,0-5.08-2.01-5.08-5.71Z"/><path class="cls-1" d="m25.82.19h2.22v4.38h4.2V.19h2.2v11.11h-2.2v-4.8h-4.2v4.8h-2.22V.19Z"/><path class="cls-1" d="m37.81.19h6.81v1.86h-4.59v2.56h3.9v1.86h-3.9v2.97h4.75v1.86h-6.97V.19Z"/><path class="cls-1" d="m46.86,5.8c0-3.66,2.36-5.8,5.16-5.8,1.41,0,2.54.68,3.25,1.43l-1.16,1.41c-.57-.54-1.21-.93-2.05-.93-1.68,0-2.94,1.44-2.94,3.83s1.14,3.87,2.89,3.87c.96,0,1.7-.45,2.29-1.1l1.17,1.38c-.92,1.07-2.1,1.64-3.54,1.64-2.8,0-5.08-2.01-5.08-5.71Z"/><path class="cls-1" d="m57.92.19h2.22v4.83h.04L63.85.19h2.45l-3.39,4.38,3.99,6.73h-2.43l-2.88-4.99-1.46,1.88v3.12h-2.22V.19Z"/></g><line class="cls-2" x1="9.13" y1="12.97" x2="6.45" y2=".37"/><line class="cls-2" x1="5.29" y1="12.64" x2=".46" y2=".7"/><line class="cls-2" x1="72.58" y1="12.97" x2="75.26" y2=".37"/><line class="cls-2" x1="76.42" y1="12.64" x2="81.24" y2=".7"/></g></g></svg>