<?xml version="1.0" encoding="UTF-8"?><svg id="_レイヤー_2" xmlns="http://www.w3.org/2000/svg" viewBox="0 0 88.98 14.24"><defs><style>.cls-1{fill:#c11f1f;}.cls-2{fill:none;stroke:#c11f1f;stroke-width:1.09px;}</style></defs><g id="_レイヤー_9"><path class="cls-1" d="m16.1,6.32c0-3.99,2.57-6.32,5.62-6.32,1.54,0,2.76.74,3.55,1.55l-1.26,1.54c-.62-.59-1.32-1.01-2.24-1.01-1.83,0-3.2,1.57-3.2,4.17s1.24,4.22,3.15,4.22c1.05,0,1.85-.49,2.5-1.19l1.27,1.5c-1,1.16-2.29,1.78-3.86,1.78-3.06,0-5.54-2.19-5.54-6.23Z"/><path class="cls-1" d="m28.12.21h2.42v4.77h4.58V.21h2.4v12.11h-2.4v-5.23h-4.58v5.23h-2.42V.21Z"/><path class="cls-1" d="m41.18.21h7.42v2.03h-5v2.79h4.25v2.03h-4.25v3.24h5.18v2.03h-7.6V.21Z"/><path class="cls-1" d="m51.03,6.32c0-3.99,2.57-6.32,5.62-6.32,1.54,0,2.76.74,3.55,1.55l-1.26,1.54c-.62-.59-1.32-1.01-2.24-1.01-1.83,0-3.2,1.57-3.2,4.17s1.24,4.22,3.15,4.22c1.05,0,1.85-.49,2.5-1.19l1.27,1.5c-1,1.16-2.29,1.78-3.86,1.78-3.06,0-5.54-2.19-5.54-6.23Z"/><path class="cls-1" d="m63.05.21h2.42v5.26h.05L69.53.21h2.66l-3.69,4.77,4.35,7.34h-2.65l-3.14-5.44-1.59,2.04v3.4h-2.42V.21Z"/><line class="cls-2" x1="9.94" y1="14.12" x2="7.02" y2=".4"/><line class="cls-2" x1="5.76" y1="13.77" x2=".5" y2=".76"/><line class="cls-2" x1="79.04" y1="14.12" x2="81.96" y2=".4"/><line class="cls-2" x1="83.22" y1="13.77" x2="88.48" y2=".76"/></g></svg>