<?xml version="1.0" encoding="UTF-8"?><svg id="_レイヤー_2" xmlns="http://www.w3.org/2000/svg" viewBox="0 0 224 224"><defs><style>.cls-1{fill:#c11f1f;}.cls-2{fill:none;stroke:#fff;stroke-miterlimit:10;stroke-width:.79px;}.cls-3{fill:#fff;}</style></defs><g id="_テキスト"><circle cx="112" cy="112" r="112"/><circle class="cls-3" cx="149.64" cy="191.65" r="13"/><polygon class="cls-1" points="144.22 198.02 144.22 185.28 156.22 191.65 144.22 198.02"/><path class="cls-3" d="m73.9,187.15h-6.26v-1.5h6.26v1.5Zm-.59,9.96h-3.35v.62h-1.62v-5.46h4.96v4.83Zm-4.91-9.24h4.93v1.46h-4.93v-1.46Zm0,2.19h4.93v1.42h-4.93v-1.42Zm4.9-5.12h-4.83v-1.44h4.83v1.44Zm-3.33,8.84v1.84h1.7v-1.84h-1.7Zm12.66.51h-3.49v3.67h-1.87v-3.67h-3.57v-1.73h3.57v-1.62h-2.74v-1.68h2.74v-1.52h-3.06v-1.73h1.46c-.19-.72-.58-1.65-.98-2.37l1.54-.58c.51.83.98,1.9,1.15,2.64l-.77.3h3.12l-.72-.24c.38-.77.86-1.95,1.1-2.8l1.86.53c-.45.91-.93,1.84-1.33,2.51h1.73v1.73h-3.23v1.52h2.9v1.68h-2.9v1.62h3.49v1.73Z"/><path class="cls-3" d="m88.66,186c-.06,1.73-.19,5.31-.19,7.3,0,1.62.96,2.15,2.21,2.15,2.64,0,4.32-1.52,5.47-3.27l1.46,1.76c-1.02,1.54-3.3,3.68-6.95,3.68-2.62,0-4.32-1.15-4.32-3.89,0-2.14.16-6.35.16-7.73,0-.75-.06-1.52-.21-2.16l2.58.03c-.1.67-.18,1.49-.21,2.13Z"/><path class="cls-3" d="m107.67,186.13c-1.04.83-3.15,2.47-4.23,3.38-.85.74-.83.91.03,1.66,1.2,1.01,4.24,3.41,5.87,4.99l-1.87,1.71c-.45-.5-.91-1.01-1.39-1.49-.98-1.01-3.33-3.01-4.79-4.26-1.6-1.36-1.47-2.21.13-3.55,1.26-1.02,3.46-2.8,4.53-3.84.46-.46.98-.98,1.23-1.36l1.87,1.65c-.5.38-1.02.8-1.39,1.1Z"/><path class="cls-3" d="m116.22,185.63c-.24,1.07-.77,4.59-.77,6.19,0,.32.02.72.06,1.04.21-.56.48-1.1.72-1.65l.98.8c-.45,1.31-.96,2.95-1.15,3.81-.05.22-.08.58-.08.75,0,.16.02.43.03.66l-1.81.14c-.34-1.12-.64-2.95-.64-5.12,0-2.42.48-5.44.66-6.67.06-.45.14-1.06.16-1.57l2.21.19c-.13.32-.32,1.14-.37,1.42Zm8.08-.56c-.02.35-.03.94-.05,1.65.88-.08,1.71-.21,2.48-.37v2c-.77.11-1.6.21-2.48.27.03,1.55.11,2.83.18,3.92,1.33.54,2.34,1.36,3.1,2.06l-1.1,1.68c-.67-.62-1.31-1.18-1.95-1.62-.1,1.54-.96,2.62-3.12,2.62s-3.59-.93-3.59-2.61,1.38-2.74,3.55-2.74c.37,0,.72.02,1.04.06-.03-.99-.1-2.16-.11-3.3-.38.02-.77.02-1.14.02-.94,0-1.86-.03-2.8-.1v-1.9c.91.1,1.84.14,2.8.14.37,0,.75,0,1.12-.02,0-.78-.02-1.44-.02-1.78,0-.24-.05-.74-.11-1.06h2.29c-.05.3-.08.69-.1,1.04Zm-3.17,10.34c.98,0,1.31-.51,1.31-1.46v-.29c-.42-.11-.85-.18-1.28-.18-.91,0-1.52.38-1.52.99,0,.66.64.93,1.49.93Z"/><path class="cls-2" d="m151.6,151.6c-21.87,21.87-57.33,21.87-79.2,0"/><path class="cls-2" d="m72.4,72.4c21.87-21.87,57.33-21.87,79.2,0"/><path class="cls-3" d="m71.58,46.04l2.89,5.12-1.75.99-2.51-4.44c-.56.68-1.11,1.32-1.53,1.79l-1.48-1.43c.51-.51,1.26-1.3,2.02-2.11l-1.42-2.52-.66.37c.27.7.47,1.38.63,2.02l-1.66.4c-.36-1.56-1.05-3.34-1.98-5.02l1.57-.6c.26.49.5.97.73,1.46l.45-.26-1.42-2.52,1.75-.99,1.42,2.52.87-.49.92,1.62-.87.49,1.1,1.94c.2-.22.39-.44.57-.63l1.08,1.4c-.23.27-.47.58-.72.88Zm5.12,1.74c-.78-.52-1.77-.96-2.96-1.32l.72-1.55-1.71.96-.91-1.61,4.5-2.54-.54-.96-4.53,2.56-.89-1.58,2.94-1.66-.61-1.09-2.15,1.21-.87-1.54,2.15-1.21-.75-1.33,1.79-1.01.75,1.33,2.41-1.36.87,1.54-2.41,1.36.61,1.09,3.16-1.79.89,1.58-1.6.9.54.96,1.51-.86.91,1.61-1.51.86,1.76,3.11c.53.94.54,1.62-.21,2.23-.36.29-1.28.82-1.96,1.16l-1.34-1.53c.5-.23,1.19-.62,1.39-.75.21-.14.23-.29.12-.49l-1.54-2.72-2.64,1.49c1.23.32,2.21.67,3.02,1.13l-.93,1.83Z"/><path class="cls-3" d="m86.33,32.42l.48,1.55-6.17,1.91-.48-1.55,6.17-1.91Zm-1.46-1.82l.45,1.46-4.48,1.39-.45-1.46,4.48-1.39Zm1.48,4.19l.45,1.45-4.82,1.49-.45-1.45,4.82-1.49Zm.64,2.07l.45,1.45-4.82,1.49-.45-1.45,4.82-1.49Zm-2.57,3.06l3.35-1.04,1.16,3.74c.96-.64,1.74-1.37,2.38-2.16-.88-.54-1.71-1.24-2.44-2.12l1.35-1-1.95.6-.55-1.77.81-.25-1.72-.48c.79-1.19.78-2.19.44-3.28l-.69-2.22.8-.25.97-.3,1.54-.48,1.16-.36.63-.2.94,3.03c.18.59.23.67.39.62.09-.03.24-.07.32-.1.15-.05.15-.11-.09-.92l1.62-.22c.48,2.1.26,2.44-.86,2.83-.21.07-.5.15-.66.21-1.5.4-1.93.02-2.51-1.87l-.39-1.27-1.54.48.15.48c.42,1.36.52,2.75-.24,4.19l4.05-1.25.3-.09.27-.08,1.6-.08c.13,1.98-.17,3.71-.89,5.26,1.06.28,2.21.36,3.4.25l-.69,2.05c-1.31,0-2.56-.18-3.72-.58-.67.92-1.51,1.76-2.5,2.51l-1.64-1.06.27.86-3.35,1.04.18.57-1.74.54-1.65-5.31.89-.28.85-.26Zm2.55,2.63l-.47-1.51-1.59.49.47,1.51,1.59-.49Zm5.31-3.73c.31-.71.52-1.48.59-2.3l-2.39.74c.53.65,1.14,1.15,1.79,1.56Z"/><path class="cls-3" d="m109.37,28.18l1.03,10.86-11.08,1.05-.21-2.16,8.75-.83-.63-6.59-8.75.83-.2-2.11,11.08-1.05Z"/><path class="cls-3" d="m126.77,33.17l-.24,2.3-12.89-1.33.24-2.3,12.89,1.34Z"/><path class="cls-3" d="m136.38,33.59l1.09-3.44,2.22.7-1.09,3.44,4.63,1.47-.63,1.99-4.64-1.47c-1.27,3.49-3.07,5.5-7.3,6.19l-1.11-2.26c3.83-.43,5.1-1.64,6.2-4.64l-5.88-1.86.63-1.99,5.89,1.87Z"/><path class="cls-3" d="m156.66,45.38l-1.13,2.01-11.31-6.33,1.13-2.01,11.31,6.33Z"/><path class="cls-3" d="m53.6,97.95l-1.45-1.63c2.17-1.28,4.32-3.4,5.56-5.82h-5.34v-1.94h6.29v-2.86h2.13v2.86h6.37v1.94h-5.33c1.28,2.31,3.43,4.39,5.55,5.63l-1.57,1.77c-1.85-1.34-3.68-3.35-5.03-5.6v3.56h2.5v1.91h-2.5v2.69h-2.13v-2.69h-2.47v-1.91h2.47v-3.35c-1.36,2.21-3.19,4.14-5.06,5.44Z"/><path class="cls-3" d="m79.86,91.63c-4.25,1.17-8.24,2.66-8.24,4.52,0,1.06,1.09,1.66,4.33,1.66,1.46,0,3.08-.13,4.49-.36l.21,2.18c-1.58.21-3.08.27-4.71.27-4.35,0-6.56-1.15-6.56-3.65,0-1.71,1.31-3.04,3.4-4.19-.82-1.5-.93-3.27-.93-5.88h2.26c0,2.29.06,3.84.58,4.96,1.31-.55,2.8-1.07,4.38-1.58l.79,2.07Z"/><path class="cls-3" d="m87.09,100.47h-2.07v-5.14c-.52.52-1.07,1.01-1.66,1.47-.38-.57-.77-1.12-1.22-1.72,1.93-1.42,3.51-3.32,4.36-5.36h-.47v-1.06h-3.79v-1.71h3.79v-1.28h2.07v1.28h2.97v-1.28h2.09v1.28h3.87v1.71h-3.87v1.12h-2.09v-1.12h-2.97v1.06h-1.6l2.01.57c-.38.87-.85,1.72-1.42,2.55v7.64Zm9.61-7.84c-1.19,1.03-3.19,2.2-4.9,2.85v1.5c0,1.12.14,1.26.71,1.28.54,0,1.31.02,1.85,0,.55-.02.63-.11.66-1.53l2.02.33c-.24,2.83-.6,3.19-2.53,3.24-.66.02-1.57.02-2.18,0-2.15-.06-2.66-.62-2.66-3.3v-6.91h2.12v3.34c1.39-.65,2.78-1.53,3.59-2.32l1.31,1.53Z"/><path class="cls-3" d="m111.67,92.8c-1.19.4-2.7.92-4.11,1.47.08.77.13,1.69.13,2.75h-2.04c.02-.32.03-.58.03-.85,0-.38-.02-.73-.03-1.03-1.22.62-2.07,1.28-2.07,1.93,0,.7,1.01,1.03,3.08,1.03,1.14,0,2.92-.13,4.01-.4l.19,1.99c-1.15.22-2.94.28-4.19.28-3.27,0-5.23-.95-5.23-2.81,0-1.58,1.77-2.85,3.87-3.9-.19-.4-.43-.57-.7-.57-.96,0-1.98.46-2.85,1.28-.36.35-1.17,1.23-1.69,1.93l-1.71-1.38c1.23-1.12,2.42-2.83,3.3-4.6h-2.75v-1.9h3.59c.25-.68.46-1.34.6-1.96l2.2.44c-.14.52-.3,1.03-.47,1.52h4.51v1.9h-5.3c-.3.63-.62,1.19-.92,1.58.63-.32,1.3-.52,1.94-.52,1.01,0,1.66.46,2.07,1.44,1.39-.58,2.77-1.11,3.73-1.55l.79,1.93Z"/><path class="cls-3" d="m116.49,97.07c-.28,1.19-.84,2.47-1.41,3.41l-1.57-.65c.55-.9,1.04-2.07,1.33-3.26h-.74v-10.46h5.11v10.46h-.54c.46.89.79,1.64,1,2.37l-1.69.58c-.16-.76-.44-1.58-.85-2.47.73-.27,1.11-.41,1.3-.49h-3.32l1.39.49Zm-.55-7.9h1.38v-1.23h-1.38v1.23Zm0,2.8h1.38v-1.25h-1.38v1.25Zm0,2.81h1.38v-1.26h-1.38v1.26Zm5-6.75c-.22-.55-.52-1.14-.85-1.66l1.66-.68c.49.81.9,1.66,1.15,2.34h2.04c.44-.81.85-1.69,1.09-2.32l1.94.65c-.27.49-.63,1.07-1.01,1.68h1.28v5.52h-8.55v-5.52h1.25Zm1.19,12.09v.35h-1.94v-6.42h7.56v6.42h-2.02v-.35h-3.59Zm-.49-9.96h1.31v-.66h-1.31v.66Zm0,1.9h1.31v-.66h-1.31v.66Zm4.08,4.28v-.66h-3.59v.66h3.59Zm0,2.15v-.71h-3.59v.71h3.59Zm.51-8.33v-.66h-1.36v.66h1.36Zm0,1.9v-.66h-1.36v.66h1.36Z"/><path class="cls-3" d="m130.6,91.25c0-1.6.24-3.24.65-4.65l2.18.44c-.51,1.39-.77,2.89-.77,4.03,0,.51.03.95.13,1.25.24-.41.71-1.2,1.01-1.64l1.34,1.19c-.57.84-1.52,2.55-1.86,3.51l-1.87.3c-.55-1.19-.81-2.78-.81-4.41v-.02Zm9.83-4.87c.4,1.99.55,3.56.55,5.64,0,3.7-.98,6.51-6.09,8.09l-1.23-2.07c4.46-1.15,5.06-2.89,5.06-5.99,0-1.82-.16-3.51-.63-5.3l2.34-.38Z"/><path class="cls-3" d="m154.39,92.18h-7.52v-.96c-.82.6-1.68,1.09-2.56,1.5l-1.25-1.74c2.36-.92,4.62-2.64,6.53-5.3h1.98c1.98,2.67,4.28,4.3,6.69,5.26l-1.36,1.79c-.85-.41-1.69-.9-2.5-1.47v.92Zm-6.96,7.71v.57h-2.07v-6.97h10.54v6.97h-2.13v-.57h-6.34Zm6.34-1.82v-2.75h-6.34v2.75h6.34Zm-.47-7.65c-.93-.77-1.85-1.71-2.75-2.85-.87,1.14-1.77,2.07-2.69,2.85h5.44Z"/><path class="cls-3" d="m166.1,90.11c3.07,0,4.79,1.44,4.79,4.36,0,3.46-3.05,5.23-8.68,5.72l-.6-2.15c4.55-.28,6.99-1.17,6.99-3.48,0-1.71-.96-2.4-2.53-2.4-1.45,0-3.97.44-5.91,1.01l-.49-2.15c2.2-.51,4.7-.92,6.43-.92Zm-3.4-4.22c1.74.58,4.33,1.07,6.67,1.39l-.33,2.04c-2.36-.35-5.19-.85-7-1.38l.66-2.06Z"/><path class="cls-3" d="m21.49,118.05v-3.82h2.96v3.82h5.42v-3.86h3.03v3.86h3.61v2.75h-3.61v1.51c0,4.91-1.81,8.23-6.78,10.62l-2-2.41c4.69-2.01,5.76-4.52,5.76-8.11v-1.62h-5.42v4.95h-2.96v-4.95h-3.63v-2.75h3.63Z"/><path class="cls-3" d="m46.6,119.5l-1.98,2.5c-1.19-1.09-3.61-2.79-5.42-3.73l1.88-2.45c1.88,1.07,4.18,2.56,5.52,3.69Zm7.44.02l1.96,2.32c-3.01,4.71-8.98,9.07-14.65,10.9l-1.58-2.92c5.61-1.41,11.35-5.55,14.27-10.3Z"/><path class="cls-3" d="m63.01,125.79c-1.24,0-2.26-1.02-2.26-2.28s1.02-2.28,2.28-2.28,2.28,1.02,2.28,2.28-1.02,2.28-2.28,2.28h-.02Z"/><path class="cls-3" d="m76.49,122.21l-1.41,2.47c-1.56-.85-3.67-1.81-5.42-2.41l1.41-2.52c1.73.62,4.14,1.71,5.42,2.45Zm8.49-2.62l1.96,2.26c-3.01,4.71-8.98,9.07-14.65,10.9l-1.58-2.88c5.61-1.39,11.35-5.52,14.27-10.28Zm-6.23-2.07l-1.43,2.43c-1.54-.9-3.54-1.88-5.25-2.54l1.43-2.43c1.79.73,3.97,1.79,5.25,2.54Zm4.39-2.05c1,.77,1.6,1.37,2.41,2.37l-1.34,1.22c-.77-.98-1.41-1.62-2.37-2.37l1.3-1.22Zm2.39-1.94c1,.77,1.58,1.37,2.39,2.37l-1.32,1.22c-.77-.98-1.43-1.6-2.39-2.39l1.32-1.19Z"/><path class="cls-3" d="m91.79,126.97v-2.45h7.47v-2.39h-8.4v-2.5h11.18v12.46h-11.22v-2.54h8.45v-2.58h-7.47Z"/><path class="cls-3" d="m113.45,115.58v6.87c0,4.12-1.3,7.38-5.27,10.17l-2.37-2.18c3.92-2.43,4.61-4.88,4.61-8.13v-6.74h3.03Zm6.12-.34v12.56c1.71-1.07,3.97-3.11,5.31-5.08l1.32,2.88c-1.96,2.43-4.67,4.78-7.38,6.51l-2.35-1.43v-15.44h3.09Z"/><path class="cls-3" d="m132.97,132.96l-2.28-2.39c4.29-1.79,5.18-3.67,5.31-7.19h-7.85v-2.71h17.81v2.71h-6.89c-.17,4.2-1.28,7.12-6.1,9.58Zm10-17.45v.53l1.19-.98c.83.77,1.32,1.34,1.94,2.28l-1.22.98c-.62-.92-1.15-1.56-1.92-2.26v2.15h-12.44v-2.71h12.44Zm2.73-2.65c.85.75,1.32,1.34,2,2.28l-1.24.98c-.62-.92-1.13-1.54-1.96-2.26l1.19-1Z"/><path class="cls-3" d="m157.74,132.81h-2.75v-7.1c-1.62.98-3.26,1.83-4.78,2.43l-1.41-2.28c3.82-1.17,9.11-4.82,11.18-7.51l2.07,1.64c-1.04,1.24-2.58,2.6-4.31,3.86v8.96Z"/><path class="cls-3" d="m165.83,125.13c0-4.93,3.99-9.66,9.68-9.66,6.38,0,8.68,3.82,8.68,8.04s-1.81,7.76-8.08,9.17l-1.41-2.82c5.14-.85,6.44-3.33,6.44-6.29s-1.41-4.95-4.71-5.25c-.32,7.93-2.75,13.31-6.29,13.31-2.62,0-4.31-3.18-4.31-6.48v-.02Zm2.82-.06c0,1.96.68,3.33,1.56,3.33,1.28,0,3.07-3.35,3.29-9.85-3.09.83-4.84,3.54-4.84,6.53Z"/><path class="cls-3" d="m191.54,132.34v1.04h-2.77v-18.81h15.19v18.81h-2.9v-1.04h-9.51Zm9.51-15.1h-9.51v4.76h9.51v-4.76Zm0,12.44v-5.08h-9.51v5.08h9.51Z"/></g></svg>