<?xml version="1.0" encoding="UTF-8"?><svg id="_レイヤー_2" xmlns="http://www.w3.org/2000/svg" viewBox="0 0 33.18 33.18"><defs><style>.cls-1{fill:#f7c600;}</style></defs><g id="_テキスト"><g id="Icon_-_Instagram"><g id="_グループ_1486"><path id="_パス_784" class="cls-1" d="m23.29,4c3.25,0,5.88,2.63,5.88,5.88v13.41c0,3.25-2.63,5.88-5.88,5.88h-13.41c-3.25,0-5.88-2.63-5.88-5.88v-13.41c0-3.25,2.63-5.88,5.88-5.88h13.41m0-4h-13.41C4.43.02.02,4.43,0,9.88v13.41c.02,5.45,4.43,9.87,9.88,9.88h13.41c5.45-.02,9.87-4.43,9.88-9.88v-13.41c-.02-5.45-4.43-9.87-9.88-9.88Z"/><path id="_パス_785" class="cls-1" d="m25.41,5.65c-1.17,0-2.12.95-2.12,2.12s.95,2.12,2.12,2.12,2.12-.95,2.12-2.12-.95-2.12-2.12-2.12Z"/><g id="_グループ_1485"><path id="_パス_786" class="cls-1" d="m16.59,11.77c2.66,0,4.82,2.16,4.82,4.82,0,2.66-2.16,4.82-4.82,4.82-2.66,0-4.82-2.16-4.82-4.82,0-2.66,2.16-4.82,4.82-4.82m0-4c-4.87,0-8.82,3.95-8.82,8.82h0c0,4.87,3.95,8.82,8.82,8.82h0c4.87,0,8.83-3.94,8.83-8.82h0c0-4.88-3.95-8.83-8.82-8.83h-.01Z"/></g></g></g></g></svg>