<?xml version="1.0" encoding="UTF-8"?><svg id="_レイヤー_2" xmlns="http://www.w3.org/2000/svg" viewBox="0 0 171.21 65.91"><defs><style>.cls-1{fill:#fff;}.cls-2{fill:#ffe100;}.cls-3{fill:#231815;}</style></defs><g id="_レイヤー"><path class="cls-3" d="m83.76,12.7c-1.03-.76-2.38-.69-3.45-.55-6.48.87-12.74,3.39-18.11,7.28-.33.24-.53.55-.56.85-.02.23.05.45.23.65.53.59,1.61.57,1.99.33.21-.13.39-.31.61-.52.34-.33.77-.75,1.52-1.21,4.04-2.49,8.54-4.17,13.37-5.01.79-.14,2.15-.16,2.47-.05.44.16.57.51.41,1.08-.11.39-.53,1.3-.87,1.95-1.21,2.33-2.56,4.74-4.11,7.37-3.55,6.03-7.49,11.94-11.29,17.67-1.94,2.92-3.95,5.94-5.88,8.94-1.25,1.93-2.27,3.57-3.22,5.26-.44.78-.81,1.49-1.13,2.17-.39.83-.25,1.72.09,2.15.27.33.67.63,1.09.64.19,0,.39-.05.58-.19.46-.33.3-1.2.25-1.46-.05-.22-.04-.61.31-1.22.41-.72.94-1.64,1.39-2.33.55-.84,1.09-1.68,1.63-2.51.54-.83,1.09-1.68,1.63-2.51,1.49-2.28,3.03-4.59,4.51-6.81,1.29-1.93,2.62-3.92,3.91-5.89,2.58-3.93,5.95-9.14,9.1-14.64l.27-.48c1.31-2.28,2.66-4.63,3.81-7.03h0c.47-.98,1.03-2.8-.52-3.95Z"/><path class="cls-3" d="m89.37,23.51s0,0,0,0c.38,0,.57-.05.87-.15.22-.07.49-.16.96-.26.3-.07.79-.16,1.39-.28,1.58-.31,3.98-.79,5.67-1.27.55-.16.97-.35.99-1.27,0-.33-.1-.59-.32-.75-.33-.25-.82-.22-1.14-.13-2.97.91-5.98,1.41-8.8,1.86-.38.06-.68.25-.84.53-.13.24-.15.52-.03.8.26.63.81.91,1.24.92Z"/><path class="cls-3" d="m99.46,26c-3.44-.11-8.34,1.14-12.19,3.12-.73.38-1.01.8-.83,1.27.17.43.65.74,1.04.83.21.06.47.02.77-.14,3.45-1.77,7.07-2.84,10.18-3.02.07,0,.12.01.14.04.05.08.02.31-.21.74-2.85,5.34-6.43,10.36-9.55,14.64-.87,1.2-1.82,2.46-2.86,3.62-.6.67-.72,1.23-.35,1.59.23.22.61.34.97.35.14,0,.28-.01.4-.05.17-.04.32-.13.43-.25,2.1-2.35,3.9-4.93,5.54-7.36,2.17-3.22,4.1-6.12,5.87-9.1.1-.17.21-.34.31-.52.61-1.01,1.23-2.06,1.65-2.95.34-.73.34-1.45,0-2.01-.29-.48-.82-.81-1.32-.82Z"/><path class="cls-3" d="m128.09,27.37h0c-.24.04-.9.25-1.4.42-.56.19-2.34.52-2.85.57-.28.03-1.01.05-1.27.04-.19,0-.62,0-.88.14-.28.14-.4.4-.38.8.03.56.49,1.2,1.1,1.23.12,0,.24.01.36.01,1.97.03,4.44-.52,6.01-1.36.53-.28.75-.92.6-1.29-.22-.55-.5-.67-1.29-.55Z"/><path class="cls-3" d="m129.57,34.47c-1.19.37-2.41.76-3.66,1.04-1.73.39-3.27.6-4.73.63-.48.01-1.2.03-1.24.72-.02.36.12.73.38,1.01.23.25.53.4.82.4,0,0,.02,0,.02,0,2.43.04,5.98-.59,8.64-1.55.33-.12.8-.32.99-.73.24-.5.19-1-.14-1.35-.25-.27-.62-.33-1.08-.19Z"/><path class="cls-3" d="m151.12,30.07c-1.8-1.07-3.82-2.43-5.98-4.05,0,0-.03-.03,0-.09.41-.85.81-1.6,1.19-2.33.66-1.23,1.28-2.4,1.85-3.89.09-.23.45-.99-.19-1.72-.3-.34-1.38-.33-1.86-.17-2.92.99-4.47,1.33-6.77,1.55-.34.03-1.12.11-1.08.89.03.5.36,1.06,1.04,1.17.68.11,1.97-.11,1.98-.12,1.42-.24,2.81-.61,3.86-.9.25-.07.25-.06.28-.03s.03.11-.16.5c-2.19,4.47-4.77,8.46-7.64,11.87-.34.4-.66.78-.17,1.33.18.21.48.32.84.33.02,0,.03,0,.05,0,.45,0,.89-.17,1.09-.42,1.58-1.87,3.06-3.87,4.39-5.95.07-.11.11-.14.12-.14.01,0,.07,0,.17.08,1.46,1.03,2.85,1.92,4.33,2.85.48.31.98.62,1.47.94.62.41,1.21.49,1.54.11.2-.24.32-.55.29-.88-.04-.39-.28-.74-.64-.95Z"/><path class="cls-3" d="m121.6,22.95c.33.2.61.26,1.2.27.13,0,.27,0,.44,0,.88,0,3.55-.4,5.72-1.31.17-.07.48-.33.55-.55.13-.35.07-.74-.15-1.06-.34-.49-.78-.61-1.35-.37-.24.1-.89.36-1.29.47-.55.16-1.03.28-1.48.36-.5.1-1.01.17-1.52.21-.28.03-1.13.05-1.38.05-.38,0-1.16-.02-1.31.62-.11.46.14,1.04.58,1.31Z"/><path class="cls-3" d="m112.99,22.93c-.75-.11-.95.65-1,.98-.45,2.9-1.76,5.77-3.12,8.43-1.41,2.77-2.88,5.14-4.27,6.85-.32.4-.77.95-.29,1.54.18.22.56.37.95.38,0,0,0,0,0,0,.32,0,.58-.09.73-.27,1.95-2.27,3.29-4.59,4.71-7.38,1.42-2.8,2.81-5.82,3.34-8.95.06-.37-.14-.83-.3-1.05-.08-.11-.39-.48-.77-.53Z"/><path class="cls-3" d="m170.72,18.38c.52-1.35.63-2.32.28-3.03-.23-.46-.67-.88-1.25-1.05-.87-.26-1.94-.24-3.31.11-.46.12-1.78.45-3.17.81-.55.14-1.11.29-1.64.42-.16.04-.13-.11-.1-.19.32-.91.6-1.8.83-2.64.05-.19.01-.41-.11-.62-.2-.33-.61-.62-.97-.69-.33-.07-.79-.05-1.04.86-.94,3.38-3,8.29-4.69,11.19-.21.36-.14.64-.05.8.16.28.54.46.96.47.01,0,.03,0,.04,0,.51,0,.95-.25,1.18-.67.95-1.72,1.89-3.73,2.72-5.74.03-.08.11-.24.35-.31.45-.13.91-.24,1.36-.37.67-.18,1.36-.37,2-.53.69-.17,1.37-.34,2.06-.5.61-.15,1.35-.27,1.77-.29s.51.28.56.44c.2.61-.48,2.16-.88,2.89-.89,1.68-1.81,3.37-2.72,5.04-.05.1-.16.04-.21.01-1.34-.88-2.64-1.64-3.33-1.88-.31-.11-.71-.08-1.1.06-.37.14-.67.37-.78.61-.13.28-.03.55.27.74.33.21.76.47,1.38.85.76.47,1.65,1.02,2.46,1.54.02.01.04.03.06.04.06.03.08.08.05.15,0,.02-.03.06-.04.08-.24.42-.48.84-.72,1.26l-.49.86c-1.78,3.13-2.89,5.09-3.88,6.83-1.33,2.35-2.48,4.37-4.82,8.46-.69,1.2-1.27,2.42-1.74,3.62-.14.37-.17.76-.09,1.25.15.89.63,1.08,1.01,1.09,0,0,0,0,0,0,.6.01.75-.53.84-.89.02-.06.03-.12.05-.17.19-.62.72-1.83.8-1.97.19-.39.48-.9.75-1.4.17-.32.34-.61.47-.86,1.26-2.38,3.83-6.82,6.09-10.73,1.04-1.79,2.02-3.48,2.73-4.74.18-.32.36-.63.54-.95.09-.16.18-.33.28-.49.07-.1.1-.16.25-.05.02.01.04.03.06.04,1.18.79,1.81,1.3,3.12,2.44.23.2.49.32.72.32.04,0,.08,0,.12,0,.19-.03.34-.14.45-.31.35-.58.34-1.21-.03-1.65-.3-.35-1.91-1.62-3.49-2.76,0,0,0,0-.01,0-.03-.02-.04-.05-.02-.09,0-.01.02-.03.02-.04,1.02-1.82,2.04-3.67,2.97-5.53.1-.2.87-1.63,1.05-2.12Z"/><path class="cls-1" d="m43.63,10.01c-.22-.97-.7-1.83-1.41-2.48-.66-.61-1.63-1.02-2.72-1.15-.35-.04-.6-.09-.71-.2-.19-.18-.28-.41-.37-.64-.02-.04-.03-.09-.05-.13-.13-.32-.24-.66-.35-.99-.17-.5-.34-1.01-.58-1.5-.49-1.01-1.17-1.71-2.12-2.19-1.15-.57-2.48-.82-3.85-.7-.96.08-2,.37-3.48.96-.32.13-.63.26-.94.4h-.01c-.32.14-.57.21-.74.19-.3-.03-.51-.14-.75-.25-.1-.05-.2-.1-.31-.15-.1-.04-.2-.09-.31-.14-.32-.15-.66-.3-1.01-.36-1.2-.21-2.49.06-3.64.76-.84.51-1.45,1.23-1.87,2.22,0,.01-.02.04-.03.08-.05.13-.15.37-.2.47-.02.04-.07.12-.21.14-.09,0-.43.03-.52.03-1.02.04-2.04.36-2.93.94-.93.6-1.52,1.43-1.75,2.47-.2.87-.08,1.86.32,2.74.42.91,1.11,1.6,1.93,1.95.36.15.64.21,1.03.23.05,0,.06.08.06.12-.01.36.01.66.07.94,0,.03.02.07.02.1.02.08.06.38.05.45,0,.05-.01.09-.02.14-.27,2.41-.67,5.31-1,8.14-.42,3.66-.83,7.11-1.02,9.29-.04.49-.08.91-.11,1.28-.15,1.71-.21,2.35-.33,4.66-.05.95,0,3.64.31,4.68.26.86.84,2.01,1.56,2.75,1.74,1.78,3.8,2.97,9.95,3.22,1.97.08,4.28-.2,5.49-.53,1.63-.45,2.81-1.03,3.59-1.85,1.51-1.59,1.98-4.57,2.22-6.99.24-2.41,1.43-17.06,1.51-21.63,0-.47.01-.79,0-1.18,0-.05.04-.13.11-.14.49,0,.98-.03,1.75-.22,1.18-.29,1.89-.96,2.39-1.5.51-.57.85-1.27.99-2.09.14-.82.13-1.6-.03-2.32Z"/><path class="cls-3" d="m41.19,23.48c-.02-.08-.02-.4.17-.6.18-.19.55-.14.8-.04,1.22.49,2.34,1.82,2.92,2.7,1.46,2.22,1.63,5.02,1.07,7.36-.54,2.24-1.58,3.42-3.35,5.18-1.24,1.32-2.68,1.97-4.25,1.94-.67-.01-.79-.98-.42-1.06,2.71-.64,4.51-3.4,4.8-6.05.3-2.73-.77-5.83-3.21-7.22-.38-.22-.26-.88-.08-1.16.2-.31.71-.04,1.02.15,1.18.71,2.12,1.8,2.74,3.03.51,1.02.84,2.12.95,3.23.05.52.12.52.11,0-.09-2.58-1.25-5.13-3.48-6.53-.31-.19-.24-.56-.14-.72.08-.11.22-.12.25-.13.06-.01.11-.03.1-.08Z"/><path class="cls-2" d="m17.59,41.14c.74,2.97,5.76,3.67,8.07,3.83,1.85.13,4.5-.23,5.45-.8,2.33-1.41,2.22-3.18,2.49-6.53.28-3.43.56-5.91,1.08-12.15.04-.55-.16-.64-.57-.62-1.89.11-3.57-.38-4.88-1.17-1.89-1.12-2.62-1.83-3.85-2.5-1.92-1.05-6.18-1.18-6.45.95-.28,2.13-.87,7.86-1.12,10.34-.25,2.48-.62,6.99-.2,8.65Z"/><path class="cls-3" d="m.12,63.36c-.37-.69.2-.91.36-.98.43-.16,1.13-.26,2.61.07s2.66,1,3.5,1.97c.02.03.05.06.07.07s.08,0,.12,0c.99-.13,1.88-.26,3.55-1.06,4.82-2.3,8.47-7.02,10.62-11.94.21-.47.26-.71.44-1.19.15-.41.43-.46.84-.39s1.16.5,1.01.91c-.66,1.74-1.17,2.77-2.22,4.3-2.59,3.79-5.93,7.51-10.45,9.5-1.23.54-2.88,1.07-4.26,1.24-1.85.23-5.06-.39-6.18-2.51Z"/><path class="cls-3" d="m39.35,58.79c-.32.46-.95,1.38-1.15,1.93-.21.59-.37,1.49-.06,2.11.04.07.2.08.25.08.26,0,.59-.09.74-.15s.36-.15.49-.22c1.97-1.1,2.59-2.6,2.74-4.56.1-1.38-1.1-.87-.92-.93s-.69.27-1.01.36c-2.43.72-5.04.19-7.3-.93-.96-.48-1.91-.99-2.74-1.68-.88-.73-1.52-1.68-2.22-2.58-.39-.5-1.1-.22-1.39.04s-.27.58-.05.9c.84,1.23,1.42,1.71,2.42,2.52.98.79,2.11,1.38,3.23,1.91,1.62.76,4.67,1.52,6.93,1.14.03,0,.04,0,.05.02s0,.04-.01.05Z"/><path class="cls-3" d="m43.63,10.01c-.22-.97-.7-1.83-1.41-2.48-.66-.61-1.63-1.02-2.72-1.15-.35-.04-.6-.09-.71-.2-.19-.18-.28-.41-.37-.64-.02-.04-.03-.09-.05-.13-.13-.32-.24-.66-.35-.99-.17-.5-.34-1.01-.58-1.5-.49-1.01-1.17-1.71-2.12-2.19-1.15-.57-2.48-.82-3.85-.7-.96.08-2,.37-3.48.96-.32.13-.63.26-.94.4h-.01c-.32.14-.57.21-.74.19-.3-.03-.51-.14-.75-.25-.1-.05-.2-.1-.31-.15-.1-.04-.2-.09-.31-.14-.32-.15-.66-.3-1.01-.36-1.2-.21-2.49.06-3.64.76-.84.51-1.45,1.23-1.87,2.22,0,.01-.02.04-.03.08-.05.13-.15.37-.2.47-.02.04-.07.12-.21.14-.09,0-.43.03-.52.03-1.02.04-2.04.36-2.93.94-.93.6-1.52,1.43-1.75,2.47-.2.87-.08,1.86.32,2.74.42.91,1.11,1.6,1.93,1.95.36.15.64.21,1.03.23.05,0,.06.08.06.12-.01.36.01.66.07.94,0,.03.02.07.02.1.02.08.06.38.05.45,0,.05-.01.09-.02.14-.27,2.41-.67,5.31-1,8.14-.42,3.66-.83,7.11-1.02,9.29-.04.49-.08.91-.11,1.28-.15,1.71-.21,2.35-.33,4.66-.05.95,0,3.64.31,4.68.26.86.84,2.01,1.56,2.75,1.74,1.78,3.8,2.97,9.95,3.22,1.97.08,4.28-.2,5.49-.53,1.63-.45,2.81-1.03,3.59-1.85,1.51-1.59,1.98-4.57,2.22-6.99.24-2.41,1.43-17.06,1.51-21.63,0-.47.01-.79,0-1.18,0-.05.04-.13.11-.14.49,0,.98-.03,1.75-.22,1.18-.29,1.89-.96,2.39-1.5.51-.57.85-1.27.99-2.09.14-.82.13-1.6-.03-2.32Zm-8.56,30.4c-.16,1.51-.53,2.85-.83,3.49-.39.81-.79,1.5-1.96,2.28-1.1.72-2.61,1.08-4.1,1.27-1.32.17-3.11.07-4.33-.05-2.84-.27-5.11-1.37-6.56-2.97-1.31-1.45-1.66-2.64-1.71-5.79-.02-1.27.11-2.83.26-4.65.05-.55.09-1.12.14-1.72.23-3.06.55-6.14.88-9.41.23-2.2.46-4.47.68-6.87,0-.04,0-.07,0-.11,0-.06.03-.14.15-.07.05.03.09.06.13.09.62.38,1.35.59,2.11.59.35,0,1.16-.13,1.97-.47.65-.27.95-.12,1.59.5l.03.03c.07.07.14.13.21.19.44.34,1.09.56,1.68.59h0s.63-.03,1.06-.17c.24-.07.47.03,1.03.81.83,1.16,1.82,1.67,2.49,1.96.51.22,1.05.33,1.81.37.11,0,.22,0,.34,0,.84-.02,1.92-.24,2.62-.84.94-.81,1.36-1.41,1.76-2.17.07-.14.15-.27.24-.38.04-.05.11-.02.1.11,0,.05,0,.1,0,.15-.33,6.74-1.48,20.47-1.77,23.24Zm6.67-27.08c-.57,1.14-1.21,1.69-3.3,1.72-.7.01-1.26.03-1.65.17-.5.18-.96.52-1.27.93-.1.14-.2.3-.3.47-.2.35-.43.75-.86,1.18-.61.61-1.46.92-2.6.96-.9.03-1.67-.24-2.35-.82-.54-.46-.78-.74-1.24-1.32-.4-.51-.87-.78-1.34-.79-.01,0-.03,0-.04,0-.13,0-.35.03-.56.05-.24.02-.48.05-.59.05-.62-.02-1.05-.32-1.51-.64-.5-.35-.96-.59-1.6-.62-.38-.02-.71.09-1.1.24-.21.08-.61.22-.87.24-.55.05-1.38-.02-1.9-.29-.29-.15-1.06-.54-1.08-2.09,0-.35-.09-.62-.24-.8-.15-.17-.34-.28-.59-.35l-.07-.02c-.52-.13-1-.26-1.4-.68-.63-.66-1.02-1.79-.95-2.75.06-.88.49-1.67,1.15-2.1.63-.43,1.45-.53,2.16-.57.74-.05,1.49-.19,1.96-.92.16-.24.27-.51.38-.77.14-.33.29-.68.54-.97.61-.73,1.59-1.15,2.48-1.09.63.05,1.22.29,1.79.53.17.07.35.14.53.21.79.3,1.41.28,2.07-.06.18-.09,1.62-.71,2.27-.91,1.06-.32,2.17-.43,3.13-.3,1.17.16,2.07.64,2.68,1.43.5.65.77,1.44,1.03,2.21v.03c.04.09.07.17.09.26.19.58.38,1.17.75,1.65.43.56.95.62,1.55.7.1.01.22.03.33.04.7.1,1.35.46,1.83,1.01.53.59.89,1.4,1.03,2.29.14.91.03,1.79-.32,2.48Z"/></g></svg>