<?xml version="1.0" encoding="utf-8"?>
<!-- Generator: Adobe Illustrator 27.4.0, SVG Export Plug-In . SVG Version: 6.00 Build 0)  -->
<svg version="1.1" id="_レイヤー_2" xmlns="http://www.w3.org/2000/svg" xmlns:xlink="http://www.w3.org/1999/xlink" x="0px"
	 y="0px" viewBox="0 0 238.4 110" style="enable-background:new 0 0 238.4 110;" xml:space="preserve">
<style type="text/css">
	.st0{fill:#FFFFFF;}
	.st1{fill:#BF0000;}
</style>
<g id="_レイヤー">
	<path class="st0" d="M10.9,110C4.9,110,0,105.2,0,99.2V10.9C0,4.9,4.9,0,10.9,0h216.7c6,0,10.9,4.9,10.9,10.9v88.3
		c0,6-4.9,10.9-10.9,10.9L10.9,110L10.9,110z"/>
	<path class="st1" d="M210.4,36.7l-15,45.5c-1.6,4.8-5.1,7.6-9.6,7.6c-2.9,0-5.4-1.1-7.4-3l2.8-4.3c1.3,1.2,2.6,1.7,4.2,1.7
		c2.3,0,3.4-1,4.6-4.1l0.9-2.5l-14.5-40.8h6.2l11.1,32.5l10.5-32.5L210.4,36.7L210.4,36.7z"/>
	<path class="st1" d="M164.6,74c-3.2,3.8-7,5.6-11.8,5.6c-11,0-18.5-9-18.5-22s7.6-21.9,18.6-21.9c5,0,8.4,1.5,11.8,4.9l0.9-3.9h5.3
		v41.8h-5.3L164.6,74L164.6,74z M140.7,57.7c0,9.5,5.2,16.4,12.2,16.4s12.1-6.8,12.1-16.3s-5.1-16.4-12.2-16.4
		S140.7,48.3,140.7,57.7z"/>
	<path class="st1" d="M115.9,26.3c9.4,0,16,6.4,16,15.7s-6.6,15.7-16,15.7h-11.4v20.8h-6V26.3H115.9L115.9,26.3z M115.5,52.2
		c5.8,0,10-4.2,10-10.2s-4.1-10.1-10-10.1h-11v20.3L115.5,52.2L115.5,52.2z"/>
	<polygon class="st1" points="37.2,92.1 28,84.4 92.4,84.4 	"/>
	<path class="st1" d="M47.7,78.6V61.5h7.4l12.8,17.1h13.1L65.5,58c4.8-3.5,8-9.1,8-15.5c0-10.5-8.5-19-19-19H37.2v55H47.7L47.7,78.6
		z M47.7,34h6.8c4.7,0,8.5,3.8,8.5,8.5s-3.8,8.5-8.5,8.5h-6.8V34z"/>
</g>
</svg>
