<?xml version="1.0" encoding="UTF-8"?><svg xmlns="http://www.w3.org/2000/svg" xmlns:xlink="http://www.w3.org/1999/xlink" viewBox="0 0 205.19 53.9"><defs><style>.cls-1{fill:#f29600;}.cls-2{isolation:isolate;}.cls-3{fill:#d93915;}.cls-4{fill:#f9bf3d;}.cls-5{fill:url(#_名称未設定グラデーション_144);mix-blend-mode:multiply;}.cls-6{fill:url(#_名称未設定グラデーション_23);}</style><linearGradient id="_名称未設定グラデーション_144" x1="155.37" y1="36.7" x2="166.79" y2="25.29" gradientUnits="userSpaceOnUse"><stop offset=".17" stop-color="#040000"/><stop offset=".88" stop-color="#221714" stop-opacity="0"/></linearGradient><linearGradient id="_名称未設定グラデーション_23" x1="2.56" y1="51.34" x2="36.67" y2="17.23" gradientUnits="userSpaceOnUse"><stop offset=".25" stop-color="#e95504"/><stop offset="1" stop-color="#c6000b"/></linearGradient></defs><g class="cls-2"><g id="_レイヤー_2"><g id="_レイヤー"><path d="m68.1,39.19c-3.29,0-4.68-2.33-4.68-4.62v-8h-1.71v-3.07h1.71v-4.78h4.03v4.78h2.85v3.07h-2.85v7.75c0,.93.43,1.46,1.4,1.46h1.46v3.41h-2.2Z"/><path d="m81.26,39.19v-1.4c-1.09,1.09-2.11,1.55-3.97,1.55s-3.16-.47-4.13-1.43c-.87-.9-1.33-2.2-1.33-3.63,0-2.57,1.77-4.68,5.52-4.68h3.81v-.81c0-1.77-.87-2.54-3.01-2.54-1.55,0-2.26.37-3.1,1.33l-2.57-2.51c1.58-1.74,3.13-2.23,5.83-2.23,4.53,0,6.89,1.92,6.89,5.71v10.64h-3.94Zm-.09-6.82h-3.19c-1.46,0-2.26.68-2.26,1.83s.74,1.86,2.33,1.86c1.12,0,1.83-.09,2.54-.78.43-.4.59-1.05.59-2.05v-.87Z"/><path d="m133.39,39.19v-1.4c-1.09,1.09-2.11,1.55-3.97,1.55s-3.16-.47-4.13-1.43c-.87-.9-1.33-2.2-1.33-3.63,0-2.57,1.77-4.68,5.52-4.68h3.81v-.81c0-1.77-.87-2.54-3.01-2.54-1.55,0-2.26.37-3.1,1.33l-2.57-2.51c1.58-1.74,3.13-2.23,5.83-2.23,4.53,0,6.89,1.92,6.89,5.71v10.64h-3.94Zm-.09-6.82h-3.19c-1.46,0-2.26.68-2.26,1.83s.74,1.86,2.33,1.86c1.12,0,1.83-.09,2.54-.78.43-.4.59-1.05.59-2.05v-.87Z"/><path d="m143.43,38.93h-4.03v-22.08h4.03v22.08Z"/><path d="m194.32,39.19v-9.86c0-2.14-1.36-2.85-2.64-2.85s-2.61.74-2.61,2.85v9.86h-4.03v-22.08h4.03v7.41c1.09-1.12,2.45-1.67,3.88-1.67,3.54,0,5.4,2.48,5.4,5.89v10.45h-4.03Z"/><path d="m200.69,39.19v-16.16h4.03v16.16h-4.03Z"/><polygon points="149.17 38.93 143.43 30.8 149.17 22.67 154 22.67 148.27 30.8 154 38.93 149.17 38.93"/><path class="cls-3" d="m205.19,18.63c0,1.37-1.11,2.48-2.48,2.48s-2.48-1.11-2.48-2.48,1.11-2.48,2.48-2.48,2.48,1.11,2.48,2.48Z"/><path d="m178.55,29.36l-2.54-.25c-1.43-.12-1.67-.81-1.67-1.4,0-.81.68-1.55,2.3-1.55,1.4,0,2.82.25,3.75,1.09l2.48-2.51c-1.55-1.46-3.66-1.89-6.17-1.89-3.29,0-6.23,1.8-6.23,5.15,0,2.98,1.8,4.25,4.71,4.53l2.54.25c1.27.12,1.71.68,1.71,1.49,0,1.21-1.46,1.67-2.85,1.67-1.09,0-2.57-.15-3.81-1.09l-2.65,2.65c1.92,1.64,4.06,1.88,6.4,1.88,3.81,0,6.85-1.71,6.85-5.27,0-2.73-1.61-4.44-4.81-4.75Z"/><path class="cls-3" d="m198.69,14.48c-.4-.34-10.09-8.28-34.12-8.28-27.2,0-43.19,12.43-47.6,17.37-1.32-.72-2.83-1.13-4.45-1.13-1.76,0-3.34.5-4.68,1.32-1.33-.83-2.95-1.32-4.86-1.32-1.73,0-3.49.34-5.05,1.13-1-.57-2.2-.9-3.6-.9-2.01,0-4.03,1.21-5.52,3.33-1.31,1.86-2.1,4.23-2.1,6.34,0,.82.67,1.49,1.49,1.49s1.49-.67,1.49-1.49c0-3.19,2.43-6.69,4.64-6.69.31,0,.6.03.88.08-1.27,1.55-2.08,3.71-2.08,6.61,0,4.32,1.92,7.46,4.56,7.46,3,0,4.4-4.45,4.4-7.46,0-2.35-.57-4.71-1.79-6.51,1.01-.32,1.99-.4,2.67-.4.95,0,1.77.17,2.46.45-1.51,1.84-2.36,4.19-2.36,6.46,0,4.25,1.96,7.46,4.56,7.46,2.87,0,4.58-3.79,4.58-7.46,0-2.29-.69-4.6-2.04-6.4.76-.33,1.56-.51,2.34-.51.89,0,1.73.17,2.5.5-.9,1.29-1.93,3.43-1.93,6.42,0,5.15,2.25,7.46,4.48,7.46.74,0,4.42-.36,4.42-7.41,0-2.75-1.02-5.21-2.68-6.99,4.01-4.52,19.09-16.21,45.26-16.21,22.81,0,32.11,7.51,32.2,7.58.63.53,1.57.45,2.1-.18.53-.63.45-1.57-.18-2.1Zm-101.03,22.32c-.42-.08-1.54-1.44-1.54-4.48,0-2.37.69-3.93,1.66-4.97,1.24,1.73,1.34,4.25,1.34,4.97,0,2.37-.99,4.23-1.46,4.48Zm9.98,0c-.39,0-1.58-1.59-1.58-4.48,0-1.86.68-3.45,1.71-4.63,1.1,1.48,1.47,3.36,1.47,4.63,0,2.77-1.2,4.43-1.6,4.48Zm9.93,0c-.43,0-1.5-1.33-1.5-4.48,0-2.2.72-3.74,1.33-4.64,1.01,1.22,1.61,2.85,1.61,4.69,0,3.35-.97,4.43-1.44,4.43Z"/><path class="cls-3" d="m161.18,26.39c2.48,0,4.5,2.02,4.5,4.5s-2.02,4.5-4.5,4.5-4.5-2.02-4.5-4.5,2.02-4.5,4.5-4.5m0-3.72c-4.54,0-8.22,3.68-8.22,8.22s3.68,8.22,8.22,8.22,8.22-3.68,8.22-8.22-3.68-8.22-8.22-8.22h0Z"/><path class="cls-5" d="m161.18,26.39c2.48,0,4.5,2.02,4.5,4.5s-2.02,4.5-4.5,4.5-4.5-2.02-4.5-4.5,2.02-4.5,4.5-4.5m0-3.72c-4.54,0-8.22,3.68-8.22,8.22s3.68,8.22,8.22,8.22,8.22-3.68,8.22-8.22-3.68-8.22-8.22-8.22h0Z"/><circle class="cls-4" cx="22.65" cy="31.25" r="22.65"/><circle class="cls-1" cx="25.78" cy="28.12" r="24.22"/><circle class="cls-6" cx="28.9" cy="25" r="25"/></g></g></g></svg>