<?xml version="1.0" encoding="UTF-8"?><svg id="_レイヤー_2" xmlns="http://www.w3.org/2000/svg" viewBox="0 0 224 49"><defs><style>.cls-1{fill:#fff;}.cls-2{fill:#c01f1f;}</style></defs><g id="_レイヤー_9"><rect class="cls-2" width="224" height="49" rx="13.6" ry="13.6"/><circle class="cls-1" cx="197.72" cy="24.5" r="13"/><polygon points="191.35 19.08 204.09 19.08 197.72 31.08 191.35 19.08"/><path class="cls-1" d="m68.72,25.01v10.15h-2.98v-1.37h-13.3v1.39h-2.9v-10.18h2.9v5.98h5.02v-7.25h-6.96v-8.71h2.83v5.93h4.13v-7.94h2.93v7.94h4.37v-5.93h3v8.71h-7.37v7.25h5.35v-5.98h2.98Z"/><path class="cls-1" d="m94.98,15.55v2.71h-17.4v3.34c0,3.86-.36,9.79-2.52,13.54-.53-.48-1.8-1.3-2.47-1.61,1.97-3.43,2.14-8.47,2.14-11.93v-6.05h8.54v-2.76h2.98v2.76h8.74Zm-7.8,5.33h7.49v2.52h-7.49v2.62h6.07v9.14h-2.93v-.86h-8.52v.89h-2.78v-9.17h5.26v-7.39h2.9v2.26Zm3.14,7.66h-8.52v3.26h8.52v-3.26Z"/><path class="cls-1" d="m120.64,22.2v3.1h-22.08v-3.1h22.08Z"/><path class="cls-1" d="m142.27,32.74c.74,0,.91-.26,1.01-1.94.55.36,1.66.74,2.35.89-.26,2.59-.96,3.26-3.1,3.26h-3.5c-2.86,0-3.55-.67-3.55-2.83v-1.08h-2.62c-.7,2.42-2.52,3.62-8.35,4.18-.17-.62-.74-1.63-1.22-2.16,4.66-.26,6.12-.79,6.72-2.02h-3.12v-8.18h15.19v8.18h-3.82v1.06c0,.58.17.65,1.15.65h2.86Zm-7.39-10.49h-10.35v-8.69h9.96v1.58h-3.43v.77h3.1v2.3c1.22-1.37,2.21-3.41,2.74-5.45l2.54.55c-.17.6-.36,1.2-.6,1.78h6.5v2.21h-7.49c-.5.96-1.06,1.85-1.63,2.54-.46-.41-1.44-1.06-2.06-1.39v1.32h-3.1v.86h3.82v1.61Zm-7.8-7.1v.77h1.7v-.77h-1.7Zm4.58,2.28h-4.58v.84h4.58v-.84Zm-4.58,3.22h1.7v-.86h-1.7v.86Zm2.5,4.49h9.67v-.77h-9.67v.77Zm0,2.18h9.67v-.77h-9.67v.77Zm0,2.23h9.67v-.79h-9.67v.79Zm7.22-7.94v-2.16h7.97v2.16h-7.97Z"/></g></svg>