<?xml version="1.0" encoding="UTF-8"?><svg id="_レイヤー_2" xmlns="http://www.w3.org/2000/svg" viewBox="0 0 224 49"><defs><style>.cls-1{fill:#c11f1f;}.cls-2{fill:#fff;}</style></defs><g id="_レイヤー_9"><rect class="cls-1" y="0" width="224" height="49" rx="13.6" ry="13.6"/><circle class="cls-2" cx="197.72" cy="24.5" r="13"/><polygon points="191.35 19.08 204.09 19.08 197.72 31.08 191.35 19.08"/><path class="cls-2" d="m37.01,15.48c2.4-.34,4.85-.89,6.05-1.44l1.97,2.64c-.82.19-1.44.36-1.85.46-1.18.31-2.59.58-4.03.79v3.82h6.05c.53,0,1.66-.1,2.18-.14v3.1c-.65-.05-1.46-.1-2.11-.1h-6.22c-.36,4.03-2.09,7.44-6.14,9.89l-3.05-2.09c3.65-1.68,5.57-4.25,6.02-7.8h-6.6c-.74,0-1.63.05-2.26.1v-3.1c.65.07,1.46.14,2.21.14h6.77v-3.41c-2.3.19-4.82.26-6.43.31l-.74-2.78c1.82.05,5.54,0,8.18-.38Z"/><path class="cls-2" d="m60.15,16.25c-.19.5-.41,1.13-.67,1.75h10.34c.62,0,1.7-.02,2.5-.17v3.29c-.89-.1-1.94-.1-2.5-.1h-3.36c-.43,6.36-2.93,10.66-7.27,13.39l-3.24-2.18c.86-.34,1.7-.84,2.28-1.32,2.52-1.92,4.51-4.87,4.9-9.89h-5.06c-.96,1.75-2.45,3.79-3.89,5.04l-3-1.82c1.7-1.27,3.24-3.43,4.15-4.94.67-1.1,1.1-2.35,1.39-3.26.29-.79.46-1.73.5-2.47l3.72.74c-.29.6-.6,1.44-.79,1.94Z"/><path class="cls-2" d="m82.55,25.59l-2.93,1.1c-.41-1.3-1.61-4.49-2.18-5.54l2.88-1.03c.6,1.22,1.75,4.13,2.23,5.47Zm11.62-3.24c-.62,2.42-1.63,4.92-3.26,7.03-2.23,2.88-5.23,4.9-8.04,5.95l-2.52-2.57c2.64-.7,5.98-2.52,7.97-5.02,1.63-2.04,2.78-5.23,3.07-8.23l3.36,1.08c-.29.77-.43,1.27-.58,1.75Zm-6.31,1.75l-2.88,1.01c-.29-1.18-1.34-4.08-1.94-5.33l2.86-.94c.46,1.03,1.63,4.15,1.97,5.26Z"/><path class="cls-2" d="m102.33,16.99c0-.84-.07-2.04-.24-2.88h3.74c-.1.84-.22,1.9-.22,2.88v3.55c3.22.94,7.82,2.64,10.03,3.72l-1.37,3.31c-2.47-1.3-6.07-2.69-8.67-3.58v6.79c0,.7.12,2.38.22,3.36h-3.74c.14-.96.24-2.4.24-3.36v-13.8Z"/><path class="cls-2" d="m124.36,29.91c-.67,2.02-1.8,4.08-2.98,5.38-.53-.46-1.61-1.18-2.23-1.54,1.13-1.1,2.09-2.78,2.59-4.44l2.62.6Zm3.96-.79h-7.75v-15.41h7.75v15.41Zm-2.64-13.15h-2.57v2.18h2.57v-2.18Zm0,4.3h-2.57v2.23h2.57v-2.23Zm0,4.34h-2.57v2.23h2.57v-2.23Zm15.36-4.32c-.46,4.06-1.42,7.25-2.88,9.72,1.08,1.25,2.4,2.26,3.94,2.95-.6.53-1.44,1.56-1.82,2.28-1.46-.77-2.71-1.8-3.77-3-1.08,1.18-2.35,2.14-3.79,2.9-.34-.67-.96-1.66-1.54-2.23-.34.84-.74,1.66-1.25,2.35-.48-.43-1.63-1.18-2.28-1.46.29-.38.53-.82.74-1.25l-1.94.96c-.31-.91-1.1-2.3-1.8-3.34l2.21-.94c.65.84,1.34,1.97,1.78,2.81,1.2-2.78,1.32-6.24,1.32-9.02v-9h11.23v2.57h-8.62v3.38h6.34l.46-.05,1.68.36Zm-6.22,9.65c-.94-1.58-1.68-3.38-2.28-5.35-.07,2.62-.36,5.59-1.3,8.14,1.37-.65,2.57-1.58,3.58-2.78Zm-.41-7.49c.48,1.85,1.13,3.58,1.99,5.09.74-1.46,1.32-3.17,1.68-5.09h-3.67Z"/><path class="cls-2" d="m154.73,25.83c-.38,4.82-1.44,7.87-7.99,9.43-.26-.74-.98-1.87-1.56-2.47,5.69-1.1,6.29-3.26,6.58-6.96h2.98Zm.07-8.54h-8.98v-2.59h8.98v-1.9h2.95v1.9h9.22v2.59h-9.22v1.56h7.01v2.5h-16.66v-2.5h6.7v-1.56Zm8.98,10.34v-2.54h-14.88v2.54h-2.76v-5.11h20.52v5.11h-2.88Zm.14,4.7c.79,0,.94-.41,1.03-2.86.58.46,1.8.89,2.57,1.08-.31,3.46-1.06,4.34-3.31,4.34h-3.1c-2.78,0-3.48-.82-3.48-3.38v-5.69h2.88v5.66c0,.74.14.84,1.01.84h2.4Z"/></g></svg>