<svg xmlns="http://www.w3.org/2000/svg" width="285.901" height="45.836" viewBox="0 0 285.901 45.836">
  <g id="check" transform="translate(0.005)">
    <path id="パス_4025" data-name="パス 4025" d="M16.122,20.465C16.122,7.545,24.444,0,34.321,0a16.1,16.1,0,0,1,11.5,5.019l-4.08,4.987a10.257,10.257,0,0,0-7.253-3.271c-5.926,0-10.362,5.084-10.362,13.5S28.136,33.9,34.321,33.9a10.778,10.778,0,0,0,8.1-3.853l4.112,4.857a15.878,15.878,0,0,1-12.5,5.764c-9.909,0-17.939-7.091-17.939-20.174Z" transform="translate(34.892)" fill="#c11f1f"/>
    <path id="パス_4026" data-name="パス 4026" d="M28.12.21h7.836V15.656H50.787V.21h7.772V39.424H50.787V22.488H35.956V39.424H28.12Z" transform="translate(61.817 0.47)" fill="#c11f1f"/>
    <path id="パス_4027" data-name="パス 4027" d="M41.18.21H65.207V6.783H49.016v9.034H62.778v6.573H49.016V32.883H65.79v6.573H41.18Z" transform="translate(91.047 0.47)" fill="#c11f1f"/>
    <path id="パス_4028" data-name="パス 4028" d="M51.052,20.465C51.052,7.545,59.374,0,69.251,0a16.1,16.1,0,0,1,11.5,5.019l-4.08,4.987a10.257,10.257,0,0,0-7.253-3.271c-5.926,0-10.362,5.084-10.362,13.5S63.066,33.9,69.251,33.9a10.778,10.778,0,0,0,8.1-3.853l4.112,4.857a15.878,15.878,0,0,1-12.5,5.764c-9.909,0-17.939-7.091-17.939-20.174Z" transform="translate(113.07)" fill="#c11f1f"/>
    <path id="パス_4029" data-name="パス 4029" d="M63.05.21h7.836V17.243h.162L84.033.21h8.613L80.7,15.656,94.784,39.424H86.2L76.035,21.808l-5.149,6.606v11.01H63.05V.21Z" transform="translate(139.995 0.47)" fill="#c11f1f"/>
    <line id="線_50" data-name="線 50" x1="9.455" y1="44.427" transform="translate(21.613 1.295)" fill="none" stroke="#c11f1f" stroke-width="1.09"/>
    <line id="線_51" data-name="線 51" x1="17.033" y1="42.128" transform="translate(0.5 2.461)" fill="none" stroke="#c11f1f" stroke-width="1.09"/>
    <line id="線_52" data-name="線 52" y1="44.427" x2="9.455" transform="translate(254.822 1.295)" fill="none" stroke="#c11f1f" stroke-width="1.09"/>
    <line id="線_53" data-name="線 53" y1="42.128" x2="17.033" transform="translate(268.358 2.461)" fill="none" stroke="#c11f1f" stroke-width="1.09"/>
  </g>
</svg>
