<?xml version="1.0" encoding="UTF-8"?><svg id="_レイヤー_2" xmlns="http://www.w3.org/2000/svg" viewBox="0 0 36.13 29.59"><defs><style>.cls-1{fill:#c11f1f;}.cls-2{fill:#c31f1f;}</style></defs><g id="_レイヤー_9"><g id="Icon_-_Twitter"><path id="_パス_779" class="cls-2" d="m18.09,8.94c-.8-3.63,1.23-7.28,4.74-8.5,3.71-1.68,7.49,1.91,7.49,1.91l4.52-1.81c0,1.94-3.23,3.87-3.23,3.87,1.53,0,3.05-.21,4.52-.65,0,.65-3.87,3.87-3.87,3.87,0,15.48-11.61,21.94-21.29,21.94S0,25.72,0,25.72c7.74,0,10.32-3.23,10.32-3.23-1.94,1.29-6.45-4.52-6.45-4.52,1.27.34,2.6.34,3.87,0-3.87-.65-6.45-7.74-6.45-7.74.65,1.29,3.87,1.29,3.87,1.29C2.17,8.99,1.13,4.83,2.58,1.2c3.86,6.45,15.51,7.75,15.51,7.75Z"/><path id="_パス_779-2" class="cls-1" d="m18.09,8.94c-.8-3.63,1.23-7.28,4.74-8.5,3.71-1.68,7.49,1.91,7.49,1.91l4.52-1.81c0,1.94-3.23,3.87-3.23,3.87,1.53,0,3.05-.21,4.52-.65,0,.65-3.87,3.87-3.87,3.87,0,15.48-11.61,21.94-21.29,21.94S0,25.72,0,25.72c7.74,0,10.32-3.23,10.32-3.23-1.94,1.29-6.45-4.52-6.45-4.52,1.27.34,2.6.34,3.87,0-3.87-.65-6.45-7.74-6.45-7.74.65,1.29,3.87,1.29,3.87,1.29C2.17,8.99,1.13,4.83,2.58,1.2c3.86,6.45,15.51,7.75,15.51,7.75Z"/></g></g></svg>