<?xml version="1.0" encoding="UTF-8"?><svg id="_レイヤー_2" xmlns="http://www.w3.org/2000/svg" viewBox="0 0 36.13 36.13"><defs><style>.cls-1{fill:#c11f1f;}.cls-2{fill:#c31f1f;}</style></defs><g id="_レイヤー_9"><g id="Icon_-_Instagram"><g id="_グループ_1486"><path id="_パス_784" class="cls-2" d="m25.37,4.36c3.54,0,6.4,2.87,6.4,6.4v14.61c0,3.54-2.87,6.4-6.4,6.4h-14.61c-3.54,0-6.4-2.87-6.4-6.4v-14.61c0-3.54,2.87-6.4,6.4-6.4h14.61m0-4.36h-14.61C4.83.02.02,4.83,0,10.76v14.61c.02,5.94,4.83,10.74,10.76,10.76h14.61c5.94-.02,10.74-4.83,10.76-10.76v-14.61c-.02-5.94-4.83-10.74-10.76-10.76Z"/><path id="_パス_785" class="cls-2" d="m27.67,6.15c-1.27,0-2.31,1.03-2.31,2.31s1.03,2.31,2.31,2.31,2.31-1.03,2.31-2.31-1.03-2.31-2.31-2.31Z"/><g id="_グループ_1485"><path id="_パス_786" class="cls-2" d="m18.06,12.81c2.9,0,5.25,2.35,5.25,5.25,0,2.9-2.35,5.25-5.25,5.25-2.9,0-5.25-2.35-5.25-5.25,0-2.9,2.35-5.25,5.25-5.25m0-4.36c-5.31,0-9.61,4.3-9.61,9.61h0c0,5.31,4.3,9.61,9.61,9.61h0c5.31,0,9.61-4.29,9.62-9.6h0c0-5.31-4.3-9.62-9.61-9.62h-.01Z"/></g></g><g id="_グループ_1486-2"><path id="_パス_784-2" class="cls-1" d="m25.37,4.36c3.54,0,6.4,2.87,6.4,6.4v14.61c0,3.54-2.87,6.4-6.4,6.4h-14.61c-3.54,0-6.4-2.87-6.4-6.4v-14.61c0-3.54,2.87-6.4,6.4-6.4h14.61m0-4.36h-14.61C4.83.02.02,4.83,0,10.76v14.61c.02,5.94,4.83,10.74,10.76,10.76h14.61c5.94-.02,10.74-4.83,10.76-10.76v-14.61c-.02-5.94-4.83-10.74-10.76-10.76Z"/><path id="_パス_785-2" class="cls-1" d="m27.67,6.15c-1.27,0-2.31,1.03-2.31,2.31s1.03,2.31,2.31,2.31,2.31-1.03,2.31-2.31-1.03-2.31-2.31-2.31Z"/><g id="_グループ_1485-2"><path id="_パス_786-2" class="cls-1" d="m18.06,12.81c2.9,0,5.25,2.35,5.25,5.25,0,2.9-2.35,5.25-5.25,5.25-2.9,0-5.25-2.35-5.25-5.25,0-2.9,2.35-5.25,5.25-5.25m0-4.36c-5.31,0-9.61,4.3-9.61,9.61h0c0,5.31,4.3,9.61,9.61,9.61h0c5.31,0,9.61-4.29,9.62-9.6h0c0-5.31-4.3-9.62-9.61-9.62h-.01Z"/></g></g></g></g></svg>