<?xml version="1.0" encoding="UTF-8"?><svg id="_レイヤー_2" xmlns="http://www.w3.org/2000/svg" viewBox="0 0 33.18 27.17"><defs><style>.cls-1{fill:#f7c600;}</style></defs><g id="_テキスト"><g id="Icon_-_Twitter"><path id="_パス_779" class="cls-1" d="m16.62,8.21c-.74-3.33,1.13-6.68,4.35-7.8,3.4-1.54,6.88,1.76,6.88,1.76l4.15-1.66c0,1.78-2.96,3.55-2.96,3.55,1.4,0,2.8-.2,4.15-.59,0,.59-3.55,3.55-3.55,3.55,0,14.22-10.66,20.14-19.55,20.14S0,23.61,0,23.61c7.11,0,9.48-2.96,9.48-2.96-1.78,1.18-5.92-4.15-5.92-4.15,1.16.32,2.39.32,3.55,0-3.55-.59-5.92-7.11-5.92-7.11.59,1.18,3.55,1.18,3.55,1.18C1.99,8.26,1.04,4.44,2.37,1.1c3.55,5.92,14.25,7.11,14.25,7.11Z"/></g></g></svg>