<svg xmlns="http://www.w3.org/2000/svg" width="247.353" height="442.617" viewBox="0 0 247.353 442.617">
  <g id="info_sp" transform="translate(-626.325 -15337.5)">
    <g id="グループ_841" data-name="グループ 841" transform="translate(175.225 15469.5)">
      <g id="グループ_603" data-name="グループ 603" transform="translate(456.775 -132)">
        <g id="_白" transform="translate(0)">
          <g id="グループ_556" data-name="グループ 556" transform="translate(0)">
            <g id="グループ_554" data-name="グループ 554" transform="translate(0.007)">
              <path id="パス_3822" data-name="パス 3822" d="M0,62.2v-6.58H2.406c.91,0,1.362-.481,1.362-1.443V8.024c0-.962-.452-1.443-1.362-1.443H0V0H17.654q7.861,0,11.88,5.936t4.012,16.292V39.4q.078,11.314-4.056,17.054T17.328,62.193H0Zm16.373-6.825H17.98a3.794,3.794,0,0,0,3.449-1.606,7.385,7.385,0,0,0,1.044-4.093V12.517a7.33,7.33,0,0,0-1.044-4.13A3.832,3.832,0,0,0,17.98,6.825H16.373a1.79,1.79,0,0,0-1.725.8A4.1,4.1,0,0,0,14.2,9.63V52.644a3.914,3.914,0,0,0,.444,1.925,1.79,1.79,0,0,0,1.725.8Z" fill="#fff"/>
              <path id="パス_3823" data-name="パス 3823" d="M71.823,68.89a11.22,11.22,0,0,1-9.43-4.456q-3.409-4.452-3.412-12.961V40.317q0-7.95,3.331-12.48a11.024,11.024,0,0,1,9.43-4.537,10.413,10.413,0,0,1,8.668,3.849Q83.463,31,83.459,38.141v8.268H68.373V57.727a6.573,6.573,0,0,0,.962,3.849,3.42,3.42,0,0,0,5.463,0,6.589,6.589,0,0,0,.962-3.849V51.546h7.787V55.4a15.686,15.686,0,0,1-2.887,9.549q-2.887,3.931-8.831,3.931ZM68.373,40.717h6.344v-6.58q0-4.9-3.213-4.893c-2.139,0-3.131,1.636-3.131,4.893Z" transform="translate(-15.322 -6.053)" fill="#fff"/>
              <path id="パス_3824" data-name="パス 3824" d="M124.567,55.619h2.569c.8,0,1.207-.452,1.207-1.362V7.868c0-.859-.4-1.281-1.207-1.281h-2.569V0h18.7V6.58h-3.213c-.8,0-1.207.429-1.207,1.281V53.206q0,2.487,2.006,2.487h2.169q5.141,0,5.056-10.837v-7.38h5.7V62.193H124.56v-6.58Z" transform="translate(-32.359)" fill="#fff"/>
              <path id="パス_3825" data-name="パス 3825" d="M183.634,68.739a7.554,7.554,0,0,1-6.136-2.768q-2.287-2.765-2.287-7.824A13.664,13.664,0,0,1,177.5,49.96a20.29,20.29,0,0,1,5.9-5.455,16.464,16.464,0,0,0,4.856-4.375,9.5,9.5,0,0,0,1.562-5.5v-.081a6.113,6.113,0,0,0-1.125-4.13,3.466,3.466,0,0,0-2.65-1.244,2.592,2.592,0,0,0-2.887,2.324,4.692,4.692,0,0,1,1.925,4.093,4.391,4.391,0,0,1-1.244,3.25,4.191,4.191,0,0,1-3.087,1.244,4.3,4.3,0,0,1-3.568-1.843,7.854,7.854,0,0,1-1.406-4.893,9.136,9.136,0,0,1,1.488-5.093,10.465,10.465,0,0,1,4.012-3.612,12.207,12.207,0,0,1,5.737-1.325,11.09,11.09,0,0,1,8.068,3.013,10.962,10.962,0,0,1,3.087,8.224V59.835a2.162,2.162,0,0,0,2.487,2.406h.881v6.018c-.533.052-1.044.1-1.525.163a13.476,13.476,0,0,1-1.443.081,9.78,9.78,0,0,1-4.575-1.044,5.13,5.13,0,0,1-2.65-3.294,9.027,9.027,0,0,1-3.294,3.412,8.619,8.619,0,0,1-4.412,1.162Zm3.05-5.936a2.786,2.786,0,0,0,2.287-1.044,4.21,4.21,0,0,0,.844-2.731V44.9a20.385,20.385,0,0,1-1.325,1.769c-.452.533-.9,1.073-1.325,1.606a16.417,16.417,0,0,0-2.45,3.612,11.943,11.943,0,0,0-1.007,5.3q0,5.618,2.968,5.618Z" transform="translate(-45.518 -6.058)" fill="#fff"/>
              <path id="パス_3826" data-name="パス 3826" d="M0,165.122H2.569c.8,0,1.207-.429,1.207-1.281v-46.47c0-.859-.4-1.281-1.207-1.281H0v-6.58H30.016v24.716h-5.7V126.6a19.2,19.2,0,0,0-1.162-7.905,4.049,4.049,0,0,0-3.812-2.768h-2.65a2.124,2.124,0,0,0-2.406,2.406v18.779h.962a1.542,1.542,0,0,0,1.562-.762,5.009,5.009,0,0,0,.363-2.124v-6.344H21.5v25.041H17.41v-6.181a6.535,6.535,0,0,0-.4-2.532,1.72,1.72,0,0,0-1.769-.925h-.962v19.579A2.157,2.157,0,0,0,15,164.552a2.788,2.788,0,0,0,1.925.644h2.805a3.747,3.747,0,0,0,3.649-2.687,20.922,20.922,0,0,0,1.007-7.824l.081-7.706H30.09V171.7H0v-6.58Z" transform="translate(0 -28.449)" fill="#fff"/>
              <path id="パス_3827" data-name="パス 3827" d="M67.545,172.123a12.343,12.343,0,0,1-5.374-1.007q-2.087-1-3.294-1.643a.623.623,0,0,0-.762.037.907.907,0,0,0-.363.762v1.207H51.971V146.763h5.618l.081,4.819a26.279,26.279,0,0,0,2.406,10.074q2.01,3.975,5.455,3.975,4.575,0,4.575-6.5a13.651,13.651,0,0,0-2.65-8.068q-2.654-3.731-5.855-7.506a50.361,50.361,0,0,1-7.306-9.874A22.408,22.408,0,0,1,51.49,122.61a16.432,16.432,0,0,1,1.643-7.706,11.267,11.267,0,0,1,4.375-4.693,11.724,11.724,0,0,1,5.936-1.562,11.09,11.09,0,0,1,4.856.925,23.363,23.363,0,0,1,2.931,1.643c.7.318,1.044.081,1.044-.725v-1.207h6.262V134h-5.7v-4.893q-.322-6.817-1.969-10.393c-1.1-2.383-2.635-3.568-4.612-3.568a4.264,4.264,0,0,0-3.331,1.488,6.14,6.14,0,0,0-1.325,4.212,13.153,13.153,0,0,0,1.244,5.737,22.75,22.75,0,0,0,3.213,4.937c1.31,1.554,2.687,3.1,4.13,4.656a57.928,57.928,0,0,1,5.056,6.1,29.273,29.273,0,0,1,3.612,6.743,22.759,22.759,0,0,1,1.362,8.105q0,6.906-3.531,10.955a11.571,11.571,0,0,1-9.149,4.056Z" transform="translate(-13.377 -28.226)" fill="#fff"/>
              <path id="パス_3828" data-name="パス 3828" d="M100.51,165.122h2.406c.91,0,1.362-.481,1.362-1.443V117.534c0-.962-.452-1.443-1.362-1.443H100.51v-6.58h16.773a15.028,15.028,0,0,1,8.142,2.087,13.386,13.386,0,0,1,5.056,5.7,18.418,18.418,0,0,1,1.725,8.024v7.461a18.6,18.6,0,0,1-1.725,8.105,13.435,13.435,0,0,1-5.056,5.7,15.046,15.046,0,0,1-8.142,2.087h-2.731v15A1.276,1.276,0,0,0,116,165.122h3.213v6.58h-18.7v-6.58ZM116.8,142.168q4.652,0,4.656-5.137V121.139a5.788,5.788,0,0,0-1.162-3.849,3.855,3.855,0,0,0-3.087-1.362h-.881a1.631,1.631,0,0,0-1.406.518,2.4,2.4,0,0,0-.363,1.406v24.316h2.25Z" transform="translate(-26.111 -28.449)" fill="#fff"/>
              <path id="パス_3829" data-name="パス 3829" d="M148.535,171.7v-6.58h1.606c.748,0,1.177-.452,1.281-1.362l9.712-54.25h8.986l9.63,54.25a3.342,3.342,0,0,0,.4,1.007.974.974,0,0,0,.881.363h1.606v6.58h-17.5v-6.58h3.131c1.014,0,1.443-.563,1.281-1.688l-1.044-6.662h-9.149l-.962,6.662c-.215,1.125.215,1.688,1.281,1.688h3.131v6.58H148.52Zm11.718-21.185h7.306l-3.694-22.791-3.612,22.791Z" transform="translate(-38.584 -28.449)" fill="#fff"/>
              <path id="パス_3830" data-name="パス 3830" d="M204.26,166.237v-6.58h2.406c.911,0,1.362-.481,1.362-1.443V112.068c0-.962-.452-1.443-1.362-1.443H204.26v-6.58h15.493l10.755,39.89-.081-8.505V112.075a1.276,1.276,0,0,0-1.443-1.443h-3.05v-6.58h14.449v6.58h-1.843a1.276,1.276,0,0,0-1.443,1.443v54.169h-9.712l-12.761-43.576V158.22a1.276,1.276,0,0,0,1.443,1.443H219.2v6.58h-14.93Zm9.149-66.449q-.244-5.618,1.562-8.468a5.345,5.345,0,0,1,4.612-2.85,5.4,5.4,0,0,1,2.768.681,7.154,7.154,0,0,1,2.124,1.969c.7.8,1.31,1.473,1.843,2.006a2.377,2.377,0,0,0,1.688.8,1.81,1.81,0,0,0,1.725-1.406,11.555,11.555,0,0,0,.6-3.568h2.805q.244,5.618-1.725,8.468a5.651,5.651,0,0,1-4.693,2.85,4.845,4.845,0,0,1-2.731-.8,11.776,11.776,0,0,1-2.324-2.087c-.592-.748-1.11-1.362-1.562-1.843a2.1,2.1,0,0,0-1.562-.725,1.8,1.8,0,0,0-1.725,1.362,11.463,11.463,0,0,0-.6,3.612Z" transform="translate(-53.064 -22.983)" fill="#fff"/>
              <path id="パス_3831" data-name="パス 3831" d="M260.745,171.7v-6.58h1.606c.748,0,1.177-.452,1.281-1.362l9.712-54.25h8.986l9.63,54.25a3.345,3.345,0,0,0,.4,1.007.974.974,0,0,0,.881.363h1.606v6.58h-17.5v-6.58h3.131c1.014,0,1.443-.563,1.281-1.688l-1.044-6.662h-9.149l-.962,6.662c-.215,1.125.215,1.688,1.281,1.688h3.131v6.58H260.73Zm11.718-21.185h7.306l-3.694-22.791Z" transform="translate(-67.735 -28.449)" fill="#fff"/>
            </g>
            <g id="グループ_555" data-name="グループ 555" transform="translate(0 190.56)">
              <path id="パス_3832" data-name="パス 3832" d="M13.114,276.3a31.255,31.255,0,0,0-4.153-5.766,17.684,17.684,0,0,1-7.173,5.87l-1.8-2.539a14.379,14.379,0,0,0,9.46-11.155l-7.58.081V259.98H12.9a24.266,24.266,0,0,1-2.435,8.165,34.67,34.67,0,0,1,4.811,5.618L13.107,276.3Z" transform="translate(0.01 -258.1)" fill="#fff"/>
              <path id="パス_3833" data-name="パス 3833" d="M37.627,276.248c-2.354-3.76-5.122-9.112-6.758-11.8-.311-.518-.659-.844-1.036-.844-.266,0-.577.229-.807.762-.725,1.614-1.821,4.752-2.931,7.336L23.8,269.431c1.014-2.043,2.5-5.374,3.412-7.069a2.927,2.927,0,0,1,2.583-1.777,3.444,3.444,0,0,1,2.791,1.628c1.651,2.421,4.73,8.017,7.047,11.2l-2.006,2.828Zm-3.472-14.175a2.568,2.568,0,1,1,2.539,2.953A2.7,2.7,0,0,1,34.156,262.073Zm3.657,0a1.143,1.143,0,1,0-1.118,1.384A1.243,1.243,0,0,0,37.812,262.073Z" transform="translate(-6.176 -257.876)" fill="#fff"/>
              <path id="パス_3834" data-name="パス 3834" d="M55.585,276.3l.044-9.134a32.921,32.921,0,0,1-5.6,3.427l-2.043-2.48A23.145,23.145,0,0,0,60.263,257.57l2.687,1.547a34.024,34.024,0,0,1-4.486,5.788c0,2.006.022,5.8.022,11.407l-2.894-.022Z" transform="translate(-12.46 -257.474)" fill="#fff"/>
              <path id="パス_3835" data-name="パス 3835" d="M78.06,265.859a19.8,19.8,0,0,0-5.1-3.99l1.925-2.169a20.265,20.265,0,0,1,5.122,3.657l-1.939,2.5Zm-4.626,7.891c7.461-1.466,10.289-5.788,11.444-12.791l2.628,1.547c-.933,4.6-2.828,11.57-12.332,13.968l-1.732-2.724Z" transform="translate(-18.947 -258.027)" fill="#fff"/>
              <path id="パス_3836" data-name="パス 3836" d="M105.622,276.847a37.182,37.182,0,0,0-7.543-8.9l2.272-1.569a33.392,33.392,0,0,1,3.242,3.116,12.779,12.779,0,0,0,4.071-6.469l-11.155.126V260.4H111.3a17.238,17.238,0,0,1-5.8,11.133,38.212,38.212,0,0,1,2.524,3.412Z" transform="translate(-25.065 -258.209)" fill="#fff"/>
              <path id="パス_3837" data-name="パス 3837" d="M120.73,271.148V268.38h14.419v2.768Z" transform="translate(-31.357 -260.282)" fill="#fff"/>
              <path id="パス_3838" data-name="パス 3838" d="M145.626,274.186c5.663-1.636,7.047-5.559,7.313-10.245h-3.657a11.858,11.858,0,0,1-3.035,4.486l-2.457-1.754c2.828-2.317,3.864-6.136,4.2-8.883l2.828.348a21.05,21.05,0,0,1-.659,3.116h9.09v2.687h-3.494c-.244,5.041-1.569,10.415-8.179,12.746l-1.939-2.5Z" transform="translate(-37.348 -257.531)" fill="#fff"/>
              <path id="パス_3839" data-name="パス 3839" d="M172,270.584a33.644,33.644,0,0,0-1.51-5.826l2.169-.54a32.545,32.545,0,0,1,1.488,5.581Zm-.185,5.167c5.352-1.591,7.6-5.1,7.772-12.021l2.606.348c-.6,6.84-2.147,11.488-8.512,13.8l-1.858-2.124Zm3.738-5.788a31.508,31.508,0,0,0-1.2-5.744l2.25-.437a37.769,37.769,0,0,1,1.221,5.559l-2.272.622Z" transform="translate(-44.284 -259.074)" fill="#fff"/>
              <path id="パス_3840" data-name="パス 3840" d="M206.543,270.066a44.7,44.7,0,0,0-7.868-4.012v10.311l-2.894-.022V257.69h2.894v5.33a65.023,65.023,0,0,1,9.3,4.175Z" transform="translate(-50.854 -257.505)" fill="#fff"/>
              <path id="パス_3841" data-name="パス 3841" d="M218.121,274.075c7.335-1.939,9.341-6.758,9.734-11.7-2.85.059-10.245.163-10.245.163v-2.85s12.213-.022,13.45-.022c-.207,8.757-3.368,14.5-10.829,16.9l-2.11-2.5Z" transform="translate(-56.525 -258.019)" fill="#fff"/>
              <path id="パス_3842" data-name="パス 3842" d="M242.38,277.04v-2.376h4.6v-7.395l-4.027.022V264.96h10.726v2.332l-4.071-.022v7.395h4.708v2.376Z" transform="translate(-62.96 -259.393)" fill="#fff"/>
              <path id="パス_3843" data-name="パス 3843" d="M277.134,276.3a31.254,31.254,0,0,0-4.153-5.766,17.684,17.684,0,0,1-7.173,5.87l-1.8-2.539a14.379,14.379,0,0,0,9.46-11.155l-7.58.081V259.98h11.029a24.267,24.267,0,0,1-2.435,8.165,34.666,34.666,0,0,1,4.811,5.618l-2.169,2.539Z" transform="translate(-68.579 -258.1)" fill="#fff"/>
              <path id="パス_3844" data-name="パス 3844" d="M288.967,274.154a13.066,13.066,0,0,0,7.624-4.212,32.32,32.32,0,0,0-3.679-2.724l1.673-1.925a34.614,34.614,0,0,1,3.509,2.48,14.676,14.676,0,0,0,1.717-5.189h-4.856a19.721,19.721,0,0,1-4.811,6.077l-2.124-2.006a16.589,16.589,0,0,0,6.055-9.216l2.791.577c-.229.7-.5,1.443-.785,2.169,1.962,0,5.825-.044,6.736-.044-.54,5.825-2.435,13.76-11.8,16.322l-2.043-2.317Z" transform="translate(-74.817 -257.44)" fill="#fff"/>
            </g>
            <rect id="長方形_649" data-name="長方形 649" width="227.985" height="11.377" transform="translate(0.007 160.248)" fill="#fff"/>
          </g>
        </g>
      </g>
    </g>
    <g id="グループ_842" data-name="グループ 842" transform="translate(531 15278.672)">
      <g id="グループ_728" data-name="グループ 728" transform="translate(94.485 274.467)">
        <path id="パス_3908" data-name="パス 3908" d="M212.042,304.38v18H210.05v-18Z" transform="translate(-113.866 -272.318)" fill="#fff"/>
        <path id="パス_3909" data-name="パス 3909" d="M269.012,304.38v18H267.02v-18Z" transform="translate(-139.662 -272.318)" fill="#fff"/>
        <path id="パス_3911" data-name="パス 3911" d="M431.692,304.38v18H429.7v-18Z" transform="translate(-213.326 -272.318)" fill="#fff"/>
        <path id="パス_3912" data-name="パス 3912" d="M486.2,304.38v18H484.21v-18Z" transform="translate(-238.009 -272.318)" fill="#fff"/>
        <path id="パス_3951" data-name="パス 3951" d="M311.609,297.957,294.69,288.19v19.54Z" transform="translate(-152.192 -264.986)" fill="#fff"/>
        <path id="パス_4803" data-name="パス 4803" d="M13.48,0V-17.4q0-1.32.08-3.12t.16-3.12h-.2Q13-22.48,12.4-21.32t-1.24,2.36l-4.6,7.28H22.48v4.52H.84V-11.2L11.88-28.84h7.08V0ZM24.16,7.24l9.96-39.48H38L28.08,7.24ZM42.36,0V-4.8h6.4V-22.68h-5.4v-3.68a25.221,25.221,0,0,0,3.86-1.04,18.013,18.013,0,0,0,3.02-1.44H54.6V-4.8h5.56V0ZM72.8.56a10.437,10.437,0,0,1-4.72-1A12.133,12.133,0,0,1,64.76-2.8l3.12-3.56A5.8,5.8,0,0,0,69.9-4.84a5.858,5.858,0,0,0,2.54.6A5.561,5.561,0,0,0,75.7-5.26a6.815,6.815,0,0,0,2.32-3.42,19.913,19.913,0,0,0,.86-6.52,19.027,19.027,0,0,0-.7-5.74,6.436,6.436,0,0,0-1.86-3.08,4.079,4.079,0,0,0-2.64-.94,3.776,3.776,0,0,0-2,.56,3.846,3.846,0,0,0-1.46,1.7,6.674,6.674,0,0,0-.54,2.86,6.023,6.023,0,0,0,.52,2.66,3.367,3.367,0,0,0,1.48,1.56,4.783,4.783,0,0,0,2.24.5,5.066,5.066,0,0,0,2.52-.76,6.948,6.948,0,0,0,2.4-2.6l.28,3.96a7.564,7.564,0,0,1-1.88,1.92,10.247,10.247,0,0,1-2.26,1.24,6.051,6.051,0,0,1-2.18.44,9.545,9.545,0,0,1-4.4-.98,7.129,7.129,0,0,1-3.02-2.94,10.133,10.133,0,0,1-1.1-5,9.753,9.753,0,0,1,1.28-5.1,8.874,8.874,0,0,1,3.4-3.3A9.508,9.508,0,0,1,73.6-29.4a9.832,9.832,0,0,1,4.02.84A9.71,9.71,0,0,1,81.02-26a12.339,12.339,0,0,1,2.36,4.4,21.062,21.062,0,0,1,.86,6.4,24.216,24.216,0,0,1-.92,7.1,13.637,13.637,0,0,1-2.56,4.9,10.492,10.492,0,0,1-3.7,2.84A10.34,10.34,0,0,1,72.8.56Z" transform="translate(0 46)" fill="#fff"/>
        <path id="パス_4802" data-name="パス 4802" d="M9.424-13.965a17.284,17.284,0,0,1-1.966,2.242A25.466,25.466,0,0,1,4.836-9.5,24.319,24.319,0,0,1,1.843-7.6a6.382,6.382,0,0,0-.39-.627q-.237-.342-.513-.665t-.523-.57a17.628,17.628,0,0,0,3.135-1.929,22.693,22.693,0,0,0,2.688-2.4,14.541,14.541,0,0,0,1.891-2.413h2.375a20.318,20.318,0,0,0,1.71,2.071,18.118,18.118,0,0,0,2,1.824,20.3,20.3,0,0,0,2.185,1.5A16.293,16.293,0,0,0,18.658-9.69a7.062,7.062,0,0,0-.817.988q-.38.551-.7,1.064a24.723,24.723,0,0,1-2.195-1.311,26.286,26.286,0,0,1-2.137-1.587q-1.026-.845-1.9-1.719A14.529,14.529,0,0,1,9.424-13.965ZM4.674-10.45h9.557v1.995H4.674ZM2.394-6.574H16.473V-4.6H2.394ZM1.444-.8h16.15V1.159H1.444ZM8.189-9.652H10.6V.19H8.189Zm-4.6,5.776,1.824-.76q.361.475.712,1.045T6.764-2.47a6,6,0,0,1,.418.988L5.225-.608a6.332,6.332,0,0,0-.38-1.016Q4.579-2.2,4.256-2.793A12.253,12.253,0,0,0,3.591-3.876Zm9.652-.741,2.185.8q-.57.874-1.178,1.739T13.129-.608l-1.71-.722q.323-.456.665-1.016t.646-1.159Q13.034-4.1,13.243-4.617Z" transform="translate(103.064 46.928)" fill="#fff"/>
        <path id="パス_4801" data-name="パス 4801" d="M1.806,0V-3.57q4.032-3.864,7.056-6.993a39.448,39.448,0,0,0,4.7-5.712,8.955,8.955,0,0,0,1.68-4.809A5.867,5.867,0,0,0,14.7-23.73a3.891,3.891,0,0,0-1.575-1.68A5.054,5.054,0,0,0,10.584-26a5.339,5.339,0,0,0-3.087.966,15.611,15.611,0,0,0-2.583,2.226L1.47-26.166a17.242,17.242,0,0,1,4.473-3.507,11.591,11.591,0,0,1,5.439-1.2,10.774,10.774,0,0,1,5.145,1.176,8.442,8.442,0,0,1,3.423,3.3,9.822,9.822,0,0,1,1.218,4.977,11.337,11.337,0,0,1-1.449,5.334A31.189,31.189,0,0,1,15.9-10.563Q13.524-7.77,10.71-4.83,11.886-5,13.314-5.1t2.52-.1h6.8V0ZM28.224,0V-5.04h6.72V-23.814h-5.67v-3.864a26.482,26.482,0,0,0,4.053-1.092A18.914,18.914,0,0,0,36.5-30.282h4.578V-5.04h5.838V0Z" transform="translate(160.588 49)" fill="#fff"/>
        <path id="パス_4800" data-name="パス 4800" d="M2.926-14.991H16.188V1.444H13.737V-12.692H5.263V1.482H2.926Zm1.6,6.384H14.744v2.242H4.522Zm0,6.536H14.763v2.3H4.522Z" transform="translate(222.906 46.928)" fill="#fff"/>
      </g>
    </g>
    <path id="パス_4799" data-name="パス 4799" d="M-83.781,0V-3.24h4.32V-15.309h-3.645v-2.484a17.024,17.024,0,0,0,2.605-.7,12.159,12.159,0,0,0,2.038-.972h2.943V-3.24h3.753V0Zm15.93,0V-3.24h4.32V-15.309h-3.645v-2.484a17.024,17.024,0,0,0,2.605-.7,12.159,12.159,0,0,0,2.039-.972h2.943V-3.24h3.753V0Zm18.117-9.882a2.346,2.346,0,0,1-1.782-.743,2.553,2.553,0,0,1-.7-1.822,2.576,2.576,0,0,1,.7-1.863,2.368,2.368,0,0,1,1.782-.729,2.336,2.336,0,0,1,1.755.729,2.576,2.576,0,0,1,.7,1.863,2.553,2.553,0,0,1-.7,1.822A2.315,2.315,0,0,1-49.734-9.882Zm0,10.26a2.326,2.326,0,0,1-1.782-.756,2.6,2.6,0,0,1-.7-1.836,2.576,2.576,0,0,1,.7-1.863,2.368,2.368,0,0,1,1.782-.729,2.336,2.336,0,0,1,1.755.729,2.576,2.576,0,0,1,.7,1.863,2.6,2.6,0,0,1-.7,1.836A2.3,2.3,0,0,1-49.734.378Zm12.339,0A5.7,5.7,0,0,1-40.972-.8a7.468,7.468,0,0,1-2.362-3.443A16.158,16.158,0,0,1-44.172-9.8a15.9,15.9,0,0,1,.837-5.548,7.2,7.2,0,0,1,2.362-3.362,5.831,5.831,0,0,1,3.577-1.134,5.831,5.831,0,0,1,3.577,1.134,7.2,7.2,0,0,1,2.362,3.362A15.9,15.9,0,0,1-30.618-9.8a16.158,16.158,0,0,1-.837,5.562A7.468,7.468,0,0,1-33.817-.8,5.7,5.7,0,0,1-37.395.378Zm0-3.105a2.217,2.217,0,0,0,1.566-.635,4.419,4.419,0,0,0,1.053-2.187A18.8,18.8,0,0,0-34.4-9.8a18.4,18.4,0,0,0-.378-4.239,4.1,4.1,0,0,0-1.053-2.106,2.3,2.3,0,0,0-1.566-.594,2.281,2.281,0,0,0-1.526.594,4.174,4.174,0,0,0-1.093,2.106A17.216,17.216,0,0,0-40.419-9.8a17.59,17.59,0,0,0,.405,4.253A4.5,4.5,0,0,0-38.92-3.362,2.2,2.2,0,0,0-37.395-2.727ZM-21.465.378A5.7,5.7,0,0,1-25.042-.8,7.468,7.468,0,0,1-27.4-4.239,16.158,16.158,0,0,1-28.242-9.8a15.9,15.9,0,0,1,.837-5.548,7.2,7.2,0,0,1,2.363-3.362,5.831,5.831,0,0,1,3.577-1.134,5.831,5.831,0,0,1,3.577,1.134,7.2,7.2,0,0,1,2.363,3.362A15.9,15.9,0,0,1-14.688-9.8a16.158,16.158,0,0,1-.837,5.562A7.468,7.468,0,0,1-17.887-.8,5.7,5.7,0,0,1-21.465.378Zm0-3.105A2.217,2.217,0,0,0-19.9-3.362a4.419,4.419,0,0,0,1.053-2.187A18.8,18.8,0,0,0-18.468-9.8a18.4,18.4,0,0,0-.378-4.239A4.1,4.1,0,0,0-19.9-16.146a2.3,2.3,0,0,0-1.566-.594,2.281,2.281,0,0,0-1.526.594,4.174,4.174,0,0,0-1.093,2.106A17.216,17.216,0,0,0-24.489-9.8a17.59,17.59,0,0,0,.405,4.253A4.5,4.5,0,0,0-22.99-3.362,2.2,2.2,0,0,0-21.465-2.727ZM-1.215-9.1A8.643,8.643,0,0,0-2.97-10.53a4.408,4.408,0,0,0-2.268-.513,3.774,3.774,0,0,0-2.417.9A7.38,7.38,0,0,0-9.531-7.8l-2.97-1.62a10.137,10.137,0,0,1,3.267-3.74,7.341,7.341,0,0,1,4.077-1.228,7.95,7.95,0,0,1,3.47.729,9.529,9.529,0,0,1,2.9,2.241A8.457,8.457,0,0,0,2.984-9.99a4.423,4.423,0,0,0,2.255.513,3.774,3.774,0,0,0,2.417-.9,7.38,7.38,0,0,0,1.876-2.335L12.5-11.1a10.137,10.137,0,0,1-3.267,3.74A7.341,7.341,0,0,1,5.157-6.129,7.974,7.974,0,0,1,1.7-6.858,9.467,9.467,0,0,1-1.215-9.1ZM14.661,0V-2.3q2.592-2.484,4.536-4.5a25.36,25.36,0,0,0,3.024-3.672,5.757,5.757,0,0,0,1.08-3.091,3.771,3.771,0,0,0-.351-1.7,2.5,2.5,0,0,0-1.013-1.08,3.249,3.249,0,0,0-1.633-.378,3.432,3.432,0,0,0-1.985.621,10.036,10.036,0,0,0-1.66,1.431l-2.214-2.16a11.084,11.084,0,0,1,2.875-2.254,7.452,7.452,0,0,1,3.5-.77,6.926,6.926,0,0,1,3.308.756,5.427,5.427,0,0,1,2.2,2.12,6.314,6.314,0,0,1,.783,3.2,7.288,7.288,0,0,1-.931,3.429,20.05,20.05,0,0,1-2.457,3.55Q22.194-5,20.385-3.105q.756-.108,1.674-.175t1.62-.068h4.374V0ZM31.644,0V-3.24h4.32V-15.309H32.319v-2.484a17.024,17.024,0,0,0,2.605-.7,12.159,12.159,0,0,0,2.039-.972h2.943V-3.24h3.753V0ZM49.761-9.882a2.346,2.346,0,0,1-1.782-.743,2.553,2.553,0,0,1-.7-1.822,2.576,2.576,0,0,1,.7-1.863,2.368,2.368,0,0,1,1.782-.729,2.336,2.336,0,0,1,1.755.729,2.576,2.576,0,0,1,.7,1.863,2.553,2.553,0,0,1-.7,1.822A2.315,2.315,0,0,1,49.761-9.882Zm0,10.26a2.326,2.326,0,0,1-1.782-.756,2.6,2.6,0,0,1-.7-1.836,2.576,2.576,0,0,1,.7-1.863,2.368,2.368,0,0,1,1.782-.729,2.336,2.336,0,0,1,1.755.729,2.576,2.576,0,0,1,.7,1.863,2.6,2.6,0,0,1-.7,1.836A2.3,2.3,0,0,1,49.761.378ZM62.1.378A5.7,5.7,0,0,1,58.523-.8,7.468,7.468,0,0,1,56.16-4.239,16.158,16.158,0,0,1,55.323-9.8a15.9,15.9,0,0,1,.837-5.548,7.2,7.2,0,0,1,2.362-3.362A5.831,5.831,0,0,1,62.1-19.845a5.831,5.831,0,0,1,3.578,1.134,7.2,7.2,0,0,1,2.362,3.362A15.9,15.9,0,0,1,68.877-9.8a16.158,16.158,0,0,1-.837,5.562A7.468,7.468,0,0,1,65.678-.8,5.7,5.7,0,0,1,62.1.378Zm0-3.105a2.217,2.217,0,0,0,1.566-.635,4.419,4.419,0,0,0,1.053-2.187A18.8,18.8,0,0,0,65.1-9.8a18.4,18.4,0,0,0-.378-4.239,4.1,4.1,0,0,0-1.053-2.106A2.3,2.3,0,0,0,62.1-16.74a2.281,2.281,0,0,0-1.526.594,4.174,4.174,0,0,0-1.093,2.106,17.216,17.216,0,0,0-.4,4.239,17.59,17.59,0,0,0,.4,4.253,4.5,4.5,0,0,0,1.093,2.187A2.2,2.2,0,0,0,62.1-2.727ZM78.03.378A5.7,5.7,0,0,1,74.452-.8,7.468,7.468,0,0,1,72.09-4.239,16.158,16.158,0,0,1,71.253-9.8a15.9,15.9,0,0,1,.837-5.548,7.2,7.2,0,0,1,2.362-3.362,5.831,5.831,0,0,1,3.577-1.134,5.831,5.831,0,0,1,3.578,1.134,7.2,7.2,0,0,1,2.362,3.362A15.9,15.9,0,0,1,84.807-9.8a16.158,16.158,0,0,1-.837,5.562A7.468,7.468,0,0,1,81.608-.8,5.7,5.7,0,0,1,78.03.378Zm0-3.105A2.217,2.217,0,0,0,79.6-3.362a4.419,4.419,0,0,0,1.053-2.187A18.8,18.8,0,0,0,81.027-9.8a18.4,18.4,0,0,0-.378-4.239A4.1,4.1,0,0,0,79.6-16.146a2.3,2.3,0,0,0-1.566-.594,2.281,2.281,0,0,0-1.525.594,4.174,4.174,0,0,0-1.093,2.106,17.216,17.216,0,0,0-.4,4.239,17.59,17.59,0,0,0,.4,4.253A4.5,4.5,0,0,0,76.5-3.362,2.2,2.2,0,0,0,78.03-2.727Z" transform="translate(742 15636.146)" fill="#fff"/>
    <path id="パス_4798" data-name="パス 4798" d="M7.5-8.85a1.084,1.084,0,0,1-.8-.33,1.084,1.084,0,0,1-.33-.8,1.084,1.084,0,0,1,.33-.795,1.084,1.084,0,0,1,.8-.33,1.084,1.084,0,0,1,.8.33,1.084,1.084,0,0,1,.33.795,1.084,1.084,0,0,1-.33.8A1.084,1.084,0,0,1,7.5-8.85Zm0,2.715,4.95-4.95.435.435L7.935-5.7l4.95,4.95-.435.435L7.5-5.265,2.535-.3,2.1-.735,7.065-5.7l-4.95-4.95.435-.435ZM4.35-5.7a1.084,1.084,0,0,1-.33.8,1.084,1.084,0,0,1-.795.33,1.084,1.084,0,0,1-.8-.33,1.084,1.084,0,0,1-.33-.8,1.084,1.084,0,0,1,.33-.8,1.084,1.084,0,0,1,.8-.33,1.084,1.084,0,0,1,.795.33A1.084,1.084,0,0,1,4.35-5.7Zm6.3,0a1.084,1.084,0,0,1,.33-.8,1.084,1.084,0,0,1,.8-.33,1.084,1.084,0,0,1,.795.33,1.084,1.084,0,0,1,.33.8,1.084,1.084,0,0,1-.33.8,1.084,1.084,0,0,1-.795.33,1.084,1.084,0,0,1-.8-.33A1.084,1.084,0,0,1,10.65-5.7ZM7.5-2.55a1.084,1.084,0,0,1,.8.33,1.084,1.084,0,0,1,.33.8A1.084,1.084,0,0,1,8.3-.63a1.084,1.084,0,0,1-.8.33,1.084,1.084,0,0,1-.8-.33,1.084,1.084,0,0,1-.33-.795,1.084,1.084,0,0,1,.33-.8A1.084,1.084,0,0,1,7.5-2.55ZM20.055,0V-6.825q0-.48.03-1.147t.06-1.163H20.07q-.195.45-.42.9t-.465.915L17.46-4.56h5.97v1.68H15.315v-1.5l4.14-6.735H22.11V0Zm4,2.715L27.8-12.09H29.25L25.53,2.715ZM30.885,0V-1.8h2.4V-8.805H31.26v-1.38a9.064,9.064,0,0,0,1.448-.367,5.317,5.317,0,0,0,1.132-.562h1.635V-1.8H37.56V0ZM42.33.21a4,4,0,0,1-1.792-.375,4.517,4.517,0,0,1-1.253-.885l1.17-1.335a2.32,2.32,0,0,0,.78.57,2.276,2.276,0,0,0,.975.225,2.02,2.02,0,0,0,.915-.217,1.982,1.982,0,0,0,.757-.705,3.988,3.988,0,0,0,.51-1.3A9.009,9.009,0,0,0,44.58-5.8a7.85,7.85,0,0,0-.263-2.265,2.536,2.536,0,0,0-.7-1.208,1.492,1.492,0,0,0-.99-.368,1.346,1.346,0,0,0-.75.225,1.524,1.524,0,0,0-.548.675,2.787,2.787,0,0,0-.2,1.14,2.587,2.587,0,0,0,.195,1.073,1.383,1.383,0,0,0,.548.637,1.6,1.6,0,0,0,.833.21,1.922,1.922,0,0,0,.96-.285,2.628,2.628,0,0,0,.9-.96l.1,1.485a3.01,3.01,0,0,1-.7.7,3.631,3.631,0,0,1-.847.465,2.363,2.363,0,0,1-.84.165,3.431,3.431,0,0,1-1.635-.383,2.716,2.716,0,0,1-1.132-1.155A4.13,4.13,0,0,1,39.1-7.605a3.882,3.882,0,0,1,.48-1.972A3.378,3.378,0,0,1,40.86-10.86a3.472,3.472,0,0,1,1.74-.45,3.614,3.614,0,0,1,1.507.323,3.617,3.617,0,0,1,1.275.99,4.841,4.841,0,0,1,.885,1.71A8.45,8.45,0,0,1,46.59-5.8,9.356,9.356,0,0,1,46.245-3.1a5.337,5.337,0,0,1-.953,1.867A3.9,3.9,0,0,1,43.92-.142,3.758,3.758,0,0,1,42.33.21ZM57.3-5.7a10.1,10.1,0,0,1,.405-2.94,9.739,9.739,0,0,1,1.08-2.4,10.768,10.768,0,0,1,1.47-1.86l1.425.63a11.042,11.042,0,0,0-1.358,1.778,9.166,9.166,0,0,0-.967,2.168,9.006,9.006,0,0,0-.36,2.625,9.027,9.027,0,0,0,.36,2.617,8.988,8.988,0,0,0,.967,2.167A11.814,11.814,0,0,0,61.68.87l-1.425.63a10.768,10.768,0,0,1-1.47-1.86,9.739,9.739,0,0,1-1.08-2.4A10.1,10.1,0,0,1,57.3-5.7Zm12.495-5.325a13.645,13.645,0,0,1-1.552,1.77A20.105,20.105,0,0,1,66.173-7.5,19.2,19.2,0,0,1,63.81-6a5.039,5.039,0,0,0-.308-.495q-.187-.27-.4-.525t-.412-.45A13.917,13.917,0,0,0,65.16-8.993a17.915,17.915,0,0,0,2.123-1.9,11.48,11.48,0,0,0,1.493-1.9H70.65A16.04,16.04,0,0,0,72-11.16a14.3,14.3,0,0,0,1.575,1.44A16.029,16.029,0,0,0,75.3-8.535a12.863,12.863,0,0,0,1.785.885,5.574,5.574,0,0,0-.645.78q-.3.435-.555.84a19.518,19.518,0,0,1-1.733-1.035,20.753,20.753,0,0,1-1.687-1.253q-.81-.667-1.5-1.357A11.47,11.47,0,0,1,69.795-11.025ZM66.045-8.25H73.59v1.575H66.045Zm-1.8,3.06H75.36v1.56H64.245Zm-.75,4.56h12.75V.915H63.495ZM68.82-7.62h1.9V.15h-1.9ZM65.19-3.06l1.44-.6q.285.375.563.825t.5.885a4.735,4.735,0,0,1,.33.78L66.48-.48a5,5,0,0,0-.3-.8q-.21-.458-.465-.922A9.673,9.673,0,0,0,65.19-3.06Zm7.62-.585,1.725.63q-.45.69-.93,1.373T72.72-.48l-1.35-.57q.255-.36.525-.8t.51-.915Q72.645-3.24,72.81-3.645ZM82.41-5.7a10.1,10.1,0,0,1-.4,2.94,9.914,9.914,0,0,1-1.073,2.4A10.122,10.122,0,0,1,79.455,1.5L78.03.87A11.814,11.814,0,0,0,79.388-.915a8.988,8.988,0,0,0,.967-2.167,9.027,9.027,0,0,0,.36-2.617,9.006,9.006,0,0,0-.36-2.625,9.166,9.166,0,0,0-.967-2.168A11.042,11.042,0,0,0,78.03-12.27l1.425-.63a10.122,10.122,0,0,1,1.478,1.86,9.914,9.914,0,0,1,1.073,2.4A10.1,10.1,0,0,1,82.41-5.7ZM98.22-9.21q.645.06,1.3.1t1.327.037q1.38,0,2.745-.12a19.731,19.731,0,0,0,2.52-.375V-7.7q-1.17.165-2.535.263t-2.73.1q-.66,0-1.312-.023T98.22-7.425Zm5.7-2.535q-.03.21-.053.465t-.037.51q-.015.24-.03.645t-.015.908V-8.16q0,1.02.03,1.913t.075,1.65l.083,1.387q.038.63.037,1.17a3.545,3.545,0,0,1-.158,1.08,2.3,2.3,0,0,1-.5.87,2.235,2.235,0,0,1-.908.577,4.075,4.075,0,0,1-1.373.2A4.226,4.226,0,0,1,98.61.06a2.08,2.08,0,0,1-.9-1.815,2.279,2.279,0,0,1,.4-1.342A2.642,2.642,0,0,1,99.27-4a4.457,4.457,0,0,1,1.77-.322,7.729,7.729,0,0,1,1.935.225,7.49,7.49,0,0,1,1.59.6,8.178,8.178,0,0,1,1.283.817q.563.442,1.012.847L105.825-.255A16.422,16.422,0,0,0,104.16-1.65a7.365,7.365,0,0,0-1.613-.9,4.5,4.5,0,0,0-1.658-.315,1.966,1.966,0,0,0-1.027.24.75.75,0,0,0-.4.675.7.7,0,0,0,.4.66,2.131,2.131,0,0,0,.99.21,1.459,1.459,0,0,0,.735-.158.863.863,0,0,0,.382-.465,2.168,2.168,0,0,0,.113-.742q0-.39-.03-1.02t-.068-1.41q-.038-.78-.067-1.628T101.9-8.16q0-.855-.007-1.552t-.007-1.043q0-.165-.03-.465t-.075-.525Zm-7.32.165q-.045.15-.128.42t-.135.525q-.052.255-.082.39-.075.315-.165.848T95.9-8.2q-.1.668-.187,1.365t-.135,1.32q-.045.623-.045,1.073,0,.225.007.487a2.912,2.912,0,0,0,.052.487q.1-.27.217-.525t.233-.51q.12-.255.225-.51l.915.75q-.21.615-.427,1.29t-.39,1.275q-.172.6-.262,1-.03.15-.052.36a3.362,3.362,0,0,0-.022.345q0,.12.007.293T96.06.63L94.365.765a14.391,14.391,0,0,1-.42-2.033,19.34,19.34,0,0,1-.18-2.767q0-.84.075-1.763t.173-1.777q.1-.855.2-1.568t.165-1.148q.045-.315.09-.713t.06-.757ZM108.585,0V-1.8h2.4V-8.805H108.96v-1.38a9.064,9.064,0,0,0,1.447-.367,5.317,5.317,0,0,0,1.132-.562h1.635V-1.8h2.085V0ZM120.36.21A5.411,5.411,0,0,1,118.785,0a4.947,4.947,0,0,1-1.23-.555,6.136,6.136,0,0,1-.96-.75l1.02-1.41a4.97,4.97,0,0,0,.682.57,3.233,3.233,0,0,0,.81.4,2.948,2.948,0,0,0,.953.15,2.09,2.09,0,0,0,1.012-.24,1.734,1.734,0,0,0,.7-.7,2.232,2.232,0,0,0,.255-1.1,2.025,2.025,0,0,0-.518-1.485,1.821,1.821,0,0,0-1.357-.525,2.384,2.384,0,0,0-.825.127,4.645,4.645,0,0,0-.84.443l-1-.645.3-5.4h5.94v1.86h-4.035l-.21,2.355a3.547,3.547,0,0,1,.645-.225,2.978,2.978,0,0,1,.69-.075,3.961,3.961,0,0,1,1.71.367,2.838,2.838,0,0,1,1.245,1.148,3.85,3.85,0,0,1,.465,1.995,3.9,3.9,0,0,1-.548,2.108,3.649,3.649,0,0,1-1.425,1.335A4.043,4.043,0,0,1,120.36.21Zm7.14-5.7a1.3,1.3,0,0,1-.99-.413,1.418,1.418,0,0,1-.39-1.012,1.431,1.431,0,0,1,.39-1.035,1.315,1.315,0,0,1,.99-.4,1.3,1.3,0,0,1,.975.4,1.431,1.431,0,0,1,.39,1.035,1.418,1.418,0,0,1-.39,1.012A1.286,1.286,0,0,1,127.5-5.49Zm0,5.7a1.292,1.292,0,0,1-.99-.42,1.445,1.445,0,0,1-.39-1.02,1.431,1.431,0,0,1,.39-1.035,1.315,1.315,0,0,1,.99-.405,1.3,1.3,0,0,1,.975.405,1.431,1.431,0,0,1,.39,1.035,1.445,1.445,0,0,1-.39,1.02A1.275,1.275,0,0,1,127.5.21Zm6.855,0a3.142,3.142,0,0,1-1.973-.653,4.19,4.19,0,0,1-1.32-1.95,9.481,9.481,0,0,1-.473-3.218,9.166,9.166,0,0,1,.473-3.173,4.043,4.043,0,0,1,1.32-1.9,3.216,3.216,0,0,1,1.973-.63,3.182,3.182,0,0,1,1.98.638,4.12,4.12,0,0,1,1.313,1.9,9.1,9.1,0,0,1,.473,3.165,9.481,9.481,0,0,1-.473,3.218,4.218,4.218,0,0,1-1.312,1.95A3.133,3.133,0,0,1,134.355.21Zm0-1.725a1.194,1.194,0,0,0,.87-.375,2.65,2.65,0,0,0,.585-1.268,11.219,11.219,0,0,0,.21-2.453,10.917,10.917,0,0,0-.21-2.423,2.471,2.471,0,0,0-.585-1.23,1.231,1.231,0,0,0-.87-.352,1.223,1.223,0,0,0-.848.352,2.513,2.513,0,0,0-.607,1.23,10.212,10.212,0,0,0-.225,2.423,10.494,10.494,0,0,0,.225,2.453,2.7,2.7,0,0,0,.607,1.268A1.186,1.186,0,0,0,134.355-1.515ZM143.205.21a3.142,3.142,0,0,1-1.973-.653,4.19,4.19,0,0,1-1.32-1.95,9.481,9.481,0,0,1-.473-3.218,9.166,9.166,0,0,1,.473-3.173,4.043,4.043,0,0,1,1.32-1.9,3.216,3.216,0,0,1,1.973-.63,3.182,3.182,0,0,1,1.98.638,4.12,4.12,0,0,1,1.313,1.9,9.1,9.1,0,0,1,.473,3.165,9.481,9.481,0,0,1-.473,3.218,4.218,4.218,0,0,1-1.312,1.95A3.133,3.133,0,0,1,143.205.21Zm0-1.725a1.194,1.194,0,0,0,.87-.375,2.65,2.65,0,0,0,.585-1.268,11.219,11.219,0,0,0,.21-2.453,10.917,10.917,0,0,0-.21-2.423,2.471,2.471,0,0,0-.585-1.23,1.231,1.231,0,0,0-.87-.352,1.223,1.223,0,0,0-.848.352,2.513,2.513,0,0,0-.607,1.23,10.212,10.212,0,0,0-.225,2.423,10.494,10.494,0,0,0,.225,2.453,2.7,2.7,0,0,0,.607,1.268A1.186,1.186,0,0,0,143.205-1.515Zm11.25-3.54a4.8,4.8,0,0,0-.975-.795,2.449,2.449,0,0,0-1.26-.285,2.1,2.1,0,0,0-1.342.5,4.1,4.1,0,0,0-1.042,1.3l-1.65-.9A5.632,5.632,0,0,1,150-7.312a4.078,4.078,0,0,1,2.265-.682,4.417,4.417,0,0,1,1.928.405,5.294,5.294,0,0,1,1.613,1.245,4.7,4.7,0,0,0,.982.8,2.457,2.457,0,0,0,1.253.285,2.1,2.1,0,0,0,1.342-.5,4.1,4.1,0,0,0,1.042-1.3l1.65.9a5.632,5.632,0,0,1-1.815,2.077A4.078,4.078,0,0,1,158-3.4a4.43,4.43,0,0,1-1.92-.405A5.26,5.26,0,0,1,154.455-5.055ZM7.5,15.15a1.127,1.127,0,1,1,.8-.33A1.084,1.084,0,0,1,7.5,15.15Zm0,2.715,4.95-4.95.435.435L7.935,18.3l4.95,4.95-.435.435L7.5,18.735,2.535,23.7,2.1,23.265,7.065,18.3l-4.95-4.95.435-.435ZM4.35,18.3a1.127,1.127,0,0,1-1.125,1.125,1.125,1.125,0,0,1,0-2.25A1.127,1.127,0,0,1,4.35,18.3Zm6.3,0a1.127,1.127,0,1,1,.33.8A1.084,1.084,0,0,1,10.65,18.3ZM7.5,21.45a1.127,1.127,0,1,1-.8.33A1.084,1.084,0,0,1,7.5,21.45ZM19.275,14.6v.615h6.39V14.6Zm0-1.7v.6h6.39v-.6ZM17.55,11.73h9.915v4.65H17.55Zm-1.77,5.19H29.19v1.425H15.78Zm6.885,1.98H27.57v1.38H22.665Zm-4.575.045h3.4V20.19h-3.4Zm0,1.89h3.4V22.08h-3.4Zm6.4-.69a6.2,6.2,0,0,0,1.928,2.37,8.049,8.049,0,0,0,3.1,1.41q-.165.165-.375.413a5.6,5.6,0,0,0-.39.517q-.18.27-.3.48a8.446,8.446,0,0,1-3.278-1.8,8.694,8.694,0,0,1-2.122-2.985ZM27.03,18.9h.33l.3-.045,1.11.42a9.147,9.147,0,0,1-1.275,2.738,8.471,8.471,0,0,1-1.942,1.995,10.351,10.351,0,0,1-2.468,1.327,4.928,4.928,0,0,0-.435-.742,4.843,4.843,0,0,0-.54-.668,8.273,8.273,0,0,0,1.657-.72A7.354,7.354,0,0,0,25.2,22.14a7.133,7.133,0,0,0,1.117-1.365,6.076,6.076,0,0,0,.712-1.6ZM15.645,23.01q.765-.045,1.71-.113t2-.15q1.05-.082,2.115-.172v1.47q-1.515.135-3.007.278t-2.678.247Zm4.935-5.625h1.71V25.35H20.58Zm-3.615.03H18.6V23.55H16.965ZM38.385,20.4l1.02-1.125a11.484,11.484,0,0,1,1.125.48q.585.285,1.1.585t.893.57L41.49,22.155a9.641,9.641,0,0,0-.877-.608q-.517-.323-1.1-.63A10.987,10.987,0,0,0,38.385,20.4Zm-1.62,2.685,1.035-1.26q.735.195,1.515.465t1.538.57q.758.3,1.432.615t1.2.6l-1.05,1.41a14.854,14.854,0,0,0-1.612-.87q-.952-.45-2.017-.847T36.765,23.085ZM38.61,11.25l1.755.3a17.81,17.81,0,0,1-1.522,2.722A11.683,11.683,0,0,1,36.57,16.74a3,3,0,0,0-.338-.4q-.218-.225-.45-.435a2.254,2.254,0,0,0-.428-.315A9.5,9.5,0,0,0,36.81,14.22a10.456,10.456,0,0,0,1.08-1.5A9.9,9.9,0,0,0,38.61,11.25Zm.285,1.44h3.72v1.53H38.13Zm3.24,0h.345l.285-.075,1.11.63A11.453,11.453,0,0,1,42.12,16.26a12.973,12.973,0,0,1-2.445,2.332,13.525,13.525,0,0,1-2.805,1.583,3.577,3.577,0,0,0-.3-.48q-.2-.27-.412-.532a3.192,3.192,0,0,0-.4-.413,12.781,12.781,0,0,0,2.677-1.343,10.618,10.618,0,0,0,2.235-1.957,8.039,8.039,0,0,0,1.463-2.46Zm-3.42,1.17a9.588,9.588,0,0,0,1.507,2.048,10.971,10.971,0,0,0,2.1,1.71,11.933,11.933,0,0,0,2.482,1.193,4.352,4.352,0,0,0-.4.427q-.218.263-.42.533a3.9,3.9,0,0,0-.322.495A12.171,12.171,0,0,1,38.94,16.83a13.56,13.56,0,0,1-1.65-2.46ZM32.7,11.265l1.56.585q-.3.57-.63,1.185t-.645,1.17q-.315.555-.6.96l-1.2-.51q.27-.465.555-1.05t.54-1.2Q32.535,11.79,32.7,11.265Zm1.725,1.785,1.47.66q-.54.855-1.185,1.792t-1.29,1.8q-.645.863-1.215,1.508l-1.05-.585q.42-.51.87-1.148t.892-1.335q.443-.7.833-1.395T34.425,13.05ZM30.39,14.82l.87-1.23q.39.345.8.758t.765.825a4.506,4.506,0,0,1,.533.743l-.915,1.395a4.921,4.921,0,0,0-.517-.8q-.338-.435-.743-.885T30.39,14.82Zm3.6,1.8,1.185-.495q.285.51.555,1.08t.472,1.118a5.641,5.641,0,0,1,.278.983l-1.275.57a5.109,5.109,0,0,0-.255-1.005q-.2-.555-.443-1.147T33.99,16.62Zm-3.615,1.245q1.035-.03,2.475-.09l2.925-.12L35.76,19.08q-1.4.1-2.768.195t-2.468.165Zm3.93,2.49,1.26-.4q.285.645.548,1.4t.4,1.327l-1.335.48a10.976,10.976,0,0,0-.36-1.358Q34.56,21.015,34.305,20.355Zm-3.27-.285,1.485.27a18.935,18.935,0,0,1-.36,2.13,10.061,10.061,0,0,1-.555,1.77,3.293,3.293,0,0,0-.4-.233q-.255-.128-.517-.247a3.858,3.858,0,0,0-.458-.18,6.86,6.86,0,0,0,.525-1.612A17.189,17.189,0,0,0,31.035,20.07Zm1.68-1.41H34.29v6.69H32.715Zm14.6-6.495H57.78V25.14H55.845V13.98h-6.69V25.17H47.31Zm1.26,5.04h8.07v1.77H48.57Zm0,5.16h8.085V24.18H48.57ZM65.055,24V17.175q0-.48.03-1.147t.06-1.163H65.07q-.195.45-.42.9t-.465.915L62.46,19.44h5.97v1.68H60.315v-1.5l4.14-6.735H67.11V24Zm4,2.715L72.795,11.91H74.25L70.53,26.715ZM75.3,24V22.725q1.515-1.35,2.588-2.505a12.022,12.022,0,0,0,1.643-2.152,3.776,3.776,0,0,0,.57-1.853,2.155,2.155,0,0,0-.195-.945,1.419,1.419,0,0,0-.562-.622,1.755,1.755,0,0,0-.908-.217,1.936,1.936,0,0,0-1.1.337,4.991,4.991,0,0,0-.923.8l-1.23-1.185a6.027,6.027,0,0,1,1.6-1.267,4.14,4.14,0,0,1,1.943-.428,3.793,3.793,0,0,1,1.837.428A3.051,3.051,0,0,1,81.78,14.31a3.581,3.581,0,0,1,.435,1.8,4.693,4.693,0,0,1-.5,2.048,10.661,10.661,0,0,1-1.343,2.077,24.88,24.88,0,0,1-1.86,2.04q.435-.06.938-.1t.892-.038h2.4V24Zm9.435,0V22.2h2.4V15.195H85.11v-1.38a9.064,9.064,0,0,0,1.447-.367,5.317,5.317,0,0,0,1.132-.562h1.635V22.2H91.41V24ZM102.3,18.3a10.1,10.1,0,0,1,.4-2.94,9.738,9.738,0,0,1,1.08-2.4,10.768,10.768,0,0,1,1.47-1.86l1.425.63a11.042,11.042,0,0,0-1.357,1.778,9.166,9.166,0,0,0-.967,2.168A9.006,9.006,0,0,0,104,18.3a8.887,8.887,0,0,0,1.327,4.785,11.814,11.814,0,0,0,1.357,1.785l-1.425.63a10.768,10.768,0,0,1-1.47-1.86,9.738,9.738,0,0,1-1.08-2.4A10.1,10.1,0,0,1,102.3,18.3Zm7.365-6.135h10.47V25.14H118.2V13.98h-6.69V25.17h-1.845Zm1.26,5.04H119v1.77h-8.07Zm0,5.16h8.085V24.18h-8.085ZM127.41,18.3a10.1,10.1,0,0,1-.4,2.94,9.914,9.914,0,0,1-1.073,2.4,10.122,10.122,0,0,1-1.478,1.86l-1.425-.63a11.814,11.814,0,0,0,1.357-1.785,9.441,9.441,0,0,0,.967-7.41,9.166,9.166,0,0,0-.967-2.168,11.042,11.042,0,0,0-1.357-1.778l1.425-.63a10.122,10.122,0,0,1,1.478,1.86,9.914,9.914,0,0,1,1.073,2.4A10.1,10.1,0,0,1,127.41,18.3Zm15.81-3.51q.645.06,1.3.1t1.327.037q1.38,0,2.745-.12a19.731,19.731,0,0,0,2.52-.375v1.875q-1.17.165-2.535.263t-2.73.1q-.66,0-1.312-.023t-1.312-.067Zm5.7-2.535q-.03.21-.053.465t-.037.51q-.015.24-.03.645t-.015.908V15.84q0,1.02.03,1.913t.075,1.65l.083,1.388q.037.63.037,1.17a3.546,3.546,0,0,1-.158,1.08,2.3,2.3,0,0,1-.5.87,2.235,2.235,0,0,1-.908.577,4.075,4.075,0,0,1-1.372.2,4.226,4.226,0,0,1-2.46-.63,2.08,2.08,0,0,1-.9-1.815,2.279,2.279,0,0,1,.4-1.343,2.642,2.642,0,0,1,1.155-.9,4.457,4.457,0,0,1,1.77-.323,7.729,7.729,0,0,1,1.935.225,7.49,7.49,0,0,1,1.59.6,8.179,8.179,0,0,1,1.283.817q.562.443,1.012.847l-1.035,1.575a16.422,16.422,0,0,0-1.665-1.4,7.365,7.365,0,0,0-1.613-.9,4.5,4.5,0,0,0-1.658-.315,1.966,1.966,0,0,0-1.027.24.75.75,0,0,0-.4.675.7.7,0,0,0,.4.66,2.131,2.131,0,0,0,.99.21,1.459,1.459,0,0,0,.735-.157.863.863,0,0,0,.382-.465,2.169,2.169,0,0,0,.113-.743q0-.39-.03-1.02t-.068-1.41q-.037-.78-.068-1.628t-.03-1.658q0-.855-.007-1.552t-.008-1.043q0-.165-.03-.465t-.075-.525Zm-7.32.165q-.045.15-.127.42t-.135.525q-.053.255-.083.39-.075.315-.165.848t-.187,1.2q-.1.668-.187,1.365t-.135,1.32q-.045.623-.045,1.073,0,.225.008.488a2.913,2.913,0,0,0,.053.487q.1-.27.217-.525t.232-.51q.12-.255.225-.51l.915.75q-.21.615-.428,1.29t-.39,1.275q-.173.6-.262,1-.03.15-.053.36a3.362,3.362,0,0,0-.022.345q0,.12.007.293t.023.322l-1.7.135a14.4,14.4,0,0,1-.42-2.032,19.34,19.34,0,0,1-.18-2.767q0-.84.075-1.763t.173-1.778q.1-.855.2-1.567t.165-1.148q.045-.315.09-.713t.06-.757Zm17.58,6.525a4.8,4.8,0,0,0-.975-.8,2.449,2.449,0,0,0-1.26-.285,2.1,2.1,0,0,0-1.342.5,4.1,4.1,0,0,0-1.042,1.3l-1.65-.9a5.632,5.632,0,0,1,1.815-2.077,4.078,4.078,0,0,1,2.265-.682,4.417,4.417,0,0,1,1.928.4,5.294,5.294,0,0,1,1.613,1.245,4.7,4.7,0,0,0,.982.8,2.457,2.457,0,0,0,1.253.285,2.1,2.1,0,0,0,1.342-.5,4.1,4.1,0,0,0,1.042-1.3l1.65.9a5.632,5.632,0,0,1-1.815,2.078,4.078,4.078,0,0,1-2.265.682,4.43,4.43,0,0,1-1.92-.4A5.26,5.26,0,0,1,159.18,18.945ZM168,24V22.725q1.515-1.35,2.587-2.505a12.023,12.023,0,0,0,1.643-2.152,3.776,3.776,0,0,0,.57-1.853,2.155,2.155,0,0,0-.2-.945,1.419,1.419,0,0,0-.562-.622,1.755,1.755,0,0,0-.908-.217,1.936,1.936,0,0,0-1.1.337,4.99,4.99,0,0,0-.923.8l-1.23-1.185a6.027,6.027,0,0,1,1.6-1.267,4.14,4.14,0,0,1,1.943-.428,3.793,3.793,0,0,1,1.837.428,3.051,3.051,0,0,1,1.223,1.192,3.581,3.581,0,0,1,.435,1.8,4.692,4.692,0,0,1-.5,2.048,10.661,10.661,0,0,1-1.342,2.077,24.879,24.879,0,0,1-1.86,2.04q.435-.06.938-.1t.893-.038h2.4V24Zm12.63.21a3.142,3.142,0,0,1-1.973-.652,4.19,4.19,0,0,1-1.32-1.95,9.481,9.481,0,0,1-.473-3.218,9.166,9.166,0,0,1,.473-3.172,4.043,4.043,0,0,1,1.32-1.9,3.216,3.216,0,0,1,1.973-.63,3.182,3.182,0,0,1,1.98.638,4.12,4.12,0,0,1,1.313,1.9,9.1,9.1,0,0,1,.473,3.165,9.481,9.481,0,0,1-.473,3.218,4.218,4.218,0,0,1-1.312,1.95A3.133,3.133,0,0,1,180.63,24.21Zm0-1.725a1.194,1.194,0,0,0,.87-.375,2.65,2.65,0,0,0,.585-1.267,11.219,11.219,0,0,0,.21-2.453,10.917,10.917,0,0,0-.21-2.422,2.471,2.471,0,0,0-.585-1.23,1.222,1.222,0,0,0-1.717,0,2.513,2.513,0,0,0-.607,1.23,10.212,10.212,0,0,0-.225,2.422,10.494,10.494,0,0,0,.225,2.453,2.7,2.7,0,0,0,.607,1.267A1.186,1.186,0,0,0,180.63,22.485Zm6.87-3.975a1.3,1.3,0,0,1-.99-.413,1.539,1.539,0,0,1,0-2.048,1.315,1.315,0,0,1,.99-.4,1.3,1.3,0,0,1,.975.4,1.539,1.539,0,0,1,0,2.048A1.286,1.286,0,0,1,187.5,18.51Zm0,5.7a1.292,1.292,0,0,1-.99-.42,1.548,1.548,0,0,1,0-2.055,1.315,1.315,0,0,1,.99-.405,1.3,1.3,0,0,1,.975.405,1.548,1.548,0,0,1,0,2.055A1.275,1.275,0,0,1,187.5,24.21Zm6.855,0a3.142,3.142,0,0,1-1.973-.652,4.19,4.19,0,0,1-1.32-1.95,9.481,9.481,0,0,1-.473-3.218,9.166,9.166,0,0,1,.473-3.172,4.043,4.043,0,0,1,1.32-1.9,3.216,3.216,0,0,1,1.973-.63,3.182,3.182,0,0,1,1.98.638,4.12,4.12,0,0,1,1.313,1.9,9.1,9.1,0,0,1,.473,3.165,9.481,9.481,0,0,1-.473,3.218,4.218,4.218,0,0,1-1.312,1.95A3.133,3.133,0,0,1,194.355,24.21Zm0-1.725a1.194,1.194,0,0,0,.87-.375,2.65,2.65,0,0,0,.585-1.267,11.219,11.219,0,0,0,.21-2.453,10.917,10.917,0,0,0-.21-2.422,2.471,2.471,0,0,0-.585-1.23,1.222,1.222,0,0,0-1.717,0,2.513,2.513,0,0,0-.607,1.23,10.212,10.212,0,0,0-.225,2.422,10.494,10.494,0,0,0,.225,2.453,2.7,2.7,0,0,0,.607,1.267A1.186,1.186,0,0,0,194.355,22.485Zm8.85,1.725a3.142,3.142,0,0,1-1.973-.652,4.19,4.19,0,0,1-1.32-1.95,9.481,9.481,0,0,1-.473-3.218,9.166,9.166,0,0,1,.473-3.172,4.043,4.043,0,0,1,1.32-1.9,3.216,3.216,0,0,1,1.973-.63,3.182,3.182,0,0,1,1.98.638,4.12,4.12,0,0,1,1.313,1.9,9.1,9.1,0,0,1,.473,3.165,9.481,9.481,0,0,1-.473,3.218,4.218,4.218,0,0,1-1.312,1.95A3.133,3.133,0,0,1,203.205,24.21Zm0-1.725a1.194,1.194,0,0,0,.87-.375,2.65,2.65,0,0,0,.585-1.267,11.219,11.219,0,0,0,.21-2.453,10.917,10.917,0,0,0-.21-2.422,2.471,2.471,0,0,0-.585-1.23,1.222,1.222,0,0,0-1.717,0,2.513,2.513,0,0,0-.607,1.23,10.212,10.212,0,0,0-.225,2.422,10.494,10.494,0,0,0,.225,2.453,2.7,2.7,0,0,0,.607,1.267A1.186,1.186,0,0,0,203.205,22.485Zm13.38-10.62q-.03.225-.053.5t-.037.563q-.015.3-.03.8t-.015,1.1v2.25q0,.63.03,1.4t.082,1.56q.053.787.09,1.47t.037,1.132a2.09,2.09,0,0,1-.33,1.148,2.23,2.23,0,0,1-.982.817,3.936,3.936,0,0,1-1.643.3,4.7,4.7,0,0,1-2.73-.66,2.28,2.28,0,0,1-.488-3.187,2.907,2.907,0,0,1,1.275-.907,5.388,5.388,0,0,1,1.987-.33,9.664,9.664,0,0,1,2.3.262,10.228,10.228,0,0,1,1.958.683,12.108,12.108,0,0,1,1.575.885q.69.465,1.17.84l-1.08,1.68a13.256,13.256,0,0,0-1.208-1.005,10.493,10.493,0,0,0-1.455-.9,8.931,8.931,0,0,0-1.665-.653,6.794,6.794,0,0,0-1.852-.247,2.263,2.263,0,0,0-1.208.27.778.778,0,0,0-.428.66.736.736,0,0,0,.18.495,1.088,1.088,0,0,0,.525.315,3.041,3.041,0,0,0,.87.1,2.387,2.387,0,0,0,.7-.09.835.835,0,0,0,.458-.33,1.181,1.181,0,0,0,.165-.675q0-.33-.022-.945t-.053-1.358q-.03-.743-.06-1.462t-.03-1.275q0-.54.007-1.132t.008-1.178q0-.585.007-1.073t.008-.8q0-.21-.023-.517a3.87,3.87,0,0,0-.068-.517Zm-6.225,1.41q.405.06.9.12t1.012.113q.518.053.982.075t.81.023q1.53,0,3.053-.1t3.158-.367l-.015,1.725q-.765.105-1.77.195t-2.137.143q-1.133.052-2.273.052-.465,0-1.147-.038t-1.357-.1q-.675-.068-1.17-.128Zm-.075,3.24q.36.06.855.12t1.013.09q.517.03.982.052t.765.022q1.395,0,2.527-.06t2.122-.15q.99-.09,1.9-.21l-.015,1.77q-.78.09-1.507.15t-1.485.105q-.758.045-1.628.06t-1.95.015q-.435,0-1.08-.022t-1.312-.068q-.668-.045-1.178-.1Zm13.38-2.8q.45-.015.855-.037t.615-.038q.465-.03,1.147-.1t1.53-.143q.848-.075,1.808-.15t1.995-.165q.78-.075,1.553-.128t1.47-.09q.7-.038,1.222-.052l.015,1.92q-.405,0-.93.015T233.9,14.8a5.189,5.189,0,0,0-.923.143,3.766,3.766,0,0,0-1.26.608,4.708,4.708,0,0,0-1.012,1,4.828,4.828,0,0,0-.667,1.245,3.943,3.943,0,0,0-.24,1.342,3.037,3.037,0,0,0,.262,1.3,2.855,2.855,0,0,0,.72.96,4.037,4.037,0,0,0,1.073.66,6.412,6.412,0,0,0,1.327.4,11.586,11.586,0,0,0,1.477.18l-.705,2.055a9.336,9.336,0,0,1-1.837-.3,7.769,7.769,0,0,1-1.673-.66,5.367,5.367,0,0,1-1.357-1.028,4.685,4.685,0,0,1-.915-1.395,4.432,4.432,0,0,1-.337-1.763,5.55,5.55,0,0,1,.345-1.988,6.345,6.345,0,0,1,.863-1.59,5.2,5.2,0,0,1,1.027-1.057q-.42.06-1.012.12t-1.275.142q-.683.083-1.387.172t-1.357.2q-.652.112-1.178.217ZM233.73,16.2q.195.27.412.637t.428.735q.21.367.36.667l-1.14.51q-.285-.63-.548-1.11a9.03,9.03,0,0,0-.622-.975Zm1.68-.69q.2.27.428.622t.457.72q.225.368.375.653l-1.125.54q-.3-.6-.577-1.065a10.559,10.559,0,0,0-.652-.96Z" transform="translate(628 15661.146)" fill="#fff"/>
    <path id="パス_4797" data-name="パス 4797" d="M-77.868-12.564q.36.036.846.072t.864.036h9.792q.414,0,.864-.036t.828-.072V-10.1q-.4-.036-.846-.054t-.846-.018h-9.792q-.36,0-.864.018t-.846.054Zm5.184,11.07v-9.684h2.52v9.684ZM-79.038-2.97q.432.072.9.108t.882.036h11.862a8.874,8.874,0,0,0,.918-.045q.432-.045.774-.1V-.36q-.4-.054-.882-.072t-.81-.018H-77.256q-.4,0-.864.018t-.918.072Zm20.052-10.62q.432.072.954.108t.972.036h5.886q.468,0,.972-.036t.972-.108v2.322q-.468-.036-.972-.045t-.972-.009H-57.06q-.468,0-.99.009t-.936.045Zm-2.088,4.608q.4.054.855.081t.873.027h11.79q.288,0,.783-.027t.855-.081v2.34q-.324-.036-.792-.045t-.846-.009h-11.79q-.4,0-.873.018t-.855.054Zm9.216,1.26a14.712,14.712,0,0,1-.306,3.141,10.233,10.233,0,0,1-.882,2.511A6.414,6.414,0,0,1-53.9-.81,9.682,9.682,0,0,1-55.152.414a7.726,7.726,0,0,1-1.512.972L-58.77-.144a6.692,6.692,0,0,0,1.836-1.071,7.064,7.064,0,0,0,1.422-1.5A6.074,6.074,0,0,0-54.594-5a14.893,14.893,0,0,0,.234-2.718Zm3.708-7.11q.234.324.495.774t.5.9q.243.45.423.792l-1.44.63q-.288-.558-.675-1.269a13.842,13.842,0,0,0-.747-1.233Zm2.124-.81q.234.342.5.8l.531.9q.261.441.423.747l-1.44.63q-.27-.576-.675-1.278t-.765-1.206ZM-43.7-5.13a18.271,18.271,0,0,0,2.385-.693,24.279,24.279,0,0,0,2.277-.954Q-37.98-7.29-37.26-7.7a17.83,17.83,0,0,0,1.737-1.215q.855-.675,1.575-1.359a10.81,10.81,0,0,0,1.17-1.278L-31-9.81a12.413,12.413,0,0,1-1.377,1.305q-.855.711-1.845,1.422T-36.2-5.8q-.612.378-1.4.765t-1.665.756q-.873.369-1.746.693t-1.629.576Zm6.228-1.17,2.448-.468V-.36q0,.306.009.7t.045.729q.036.333.072.513h-2.664a3.229,3.229,0,0,0,.045-.513q.009-.333.027-.729t.018-.7Zm22.158-8.118q-.054.414-.081.9t-.027.918q.018.756.036,1.638t.045,1.872q.027.99.045,2.025l.036,2.07q.018,1.035.036,2.034t.036,1.917A1.705,1.705,0,0,1-15.678.3a2.155,2.155,0,0,1-1.53.477q-.81,0-1.584-.027T-20.34.666l-.2-2.34q.612.108,1.278.162t1.116.054a.588.588,0,0,0,.486-.18.923.923,0,0,0,.144-.576V-3.627q0-.8-.009-1.71t-.027-1.872q-.018-.963-.036-1.917t-.045-1.836q-.027-.882-.063-1.638-.036-.594-.081-1.035t-.1-.783ZM-25.6-11.43q.4.054.963.09t1.035.036h10.44q.432,0,.99-.045t.882-.1v2.394L-12.2-9.09q-.477-.018-.837-.018H-23.544q-.486,0-1.026.018t-1.026.054Zm-.954,8.568a23.258,23.258,0,0,0,2.682-1.494,22.729,22.729,0,0,0,2.34-1.728,20.938,20.938,0,0,0,1.881-1.791,11.175,11.175,0,0,0,1.3-1.683l1.17.018.018,1.908A12.654,12.654,0,0,1-18.54-5.9q-.846.9-1.872,1.8A24.562,24.562,0,0,1-22.59-2.4a22.683,22.683,0,0,1-2.3,1.413ZM-5.292-13.68q.468.324,1.1.792t1.305,1.017q.675.549,1.269,1.071a12.556,12.556,0,0,1,.972.936L-2.484-7.992q-.342-.378-.9-.9T-4.59-9.972q-.648-.558-1.278-1.062t-1.116-.846ZM-7.542-1.692A19.063,19.063,0,0,0-4.9-2.25a18.449,18.449,0,0,0,2.3-.828A20.949,20.949,0,0,0-.648-4.05,17.407,17.407,0,0,0,2.16-6.138,17.9,17.9,0,0,0,4.392-8.577,13.8,13.8,0,0,0,5.9-11.052l1.4,2.538A16.759,16.759,0,0,1,5.625-6.1,19.37,19.37,0,0,1,3.366-3.807,18.815,18.815,0,0,1,.648-1.854,20.41,20.41,0,0,1-1.332-.8,20.245,20.245,0,0,1-3.573.081a16.894,16.894,0,0,1-2.457.6ZM14.022-15.3l2.358.558A26.466,26.466,0,0,1,14.9-11.061,22.638,22.638,0,0,1,12.978-7.83,15.148,15.148,0,0,1,10.71-5.292a5.249,5.249,0,0,0-.549-.54q-.351-.306-.729-.6a7.8,7.8,0,0,0-.666-.477,11.47,11.47,0,0,0,2.223-2.223,16.934,16.934,0,0,0,1.764-2.871A20.681,20.681,0,0,0,14.022-15.3Zm5.256,7.542a14.084,14.084,0,0,0,1.539,3.024,12.667,12.667,0,0,0,2.268,2.565A10.823,10.823,0,0,0,25.974-.378a6.082,6.082,0,0,0-.558.558q-.306.342-.576.711t-.45.675A12.326,12.326,0,0,1,21.33-.567a14.867,14.867,0,0,1-2.385-2.961A20.2,20.2,0,0,1,17.19-7.146Zm-5.31-4.806h5.688v2.178h-6.75Zm4.878,0h.432l.4-.108,1.584.72a22.686,22.686,0,0,1-2.412,6.084,18.766,18.766,0,0,1-3.663,4.536,17.764,17.764,0,0,1-4.527,2.97A5.4,5.4,0,0,0,10.2.972Q9.9.594,9.567.243a4.671,4.671,0,0,0-.6-.549,16.777,16.777,0,0,0,4.374-2.6,15.824,15.824,0,0,0,3.4-3.924,17.3,17.3,0,0,0,2.106-5.247Zm9.99-1.89h2.178v5.22q0,1.17-.072,2.592a28.94,28.94,0,0,1-.3,2.9,18.458,18.458,0,0,1-.666,2.853A11.29,11.29,0,0,1,28.836,1.62a4.217,4.217,0,0,0-.549-.405Q27.936.99,27.567.8A6.4,6.4,0,0,0,26.91.5a9.071,9.071,0,0,0,1.071-2.286,15.807,15.807,0,0,0,.567-2.547q.18-1.3.234-2.565t.054-2.34Zm1.206,0H42.588v4.608H30.042v-1.746H40.41v-1.116H30.042Zm.594,5.382H43.074v1.71H30.636Zm.864,5.6H42.192v1.71H31.5ZM30.276-.522H43.47v1.71H30.276Zm5.472-4.3h2.088V.648H35.748Zm-4.626-1.17,2.925-.081q1.647-.045,3.492-.108T41.2-6.3l-.054,1.566q-1.764.072-3.564.153t-3.438.144q-1.638.063-2.934.117Zm3.294-2.7,2.178.72q-.576.864-1.179,1.71a18.21,18.21,0,0,1-1.125,1.44L32.634-5.49q.306-.432.639-.99t.639-1.143Q34.218-8.208,34.416-8.694Zm3.546,1.782,1.674-.99q.612.414,1.3.936t1.287,1.053a11.186,11.186,0,0,1,1,.981L41.418-3.8a8.689,8.689,0,0,0-.918-1q-.576-.549-1.242-1.107T37.962-6.912Zm10.3,5.526Q49.7-1.44,51.6-1.521t4.032-.18q2.133-.1,4.221-.207L59.814.054Q57.8.2,55.746.351t-3.924.27Q49.95.738,48.456.846Zm4.5-8.694,2.466.5q-.306,1.224-.675,2.484t-.765,2.475q-.4,1.215-.8,2.313T52.2-.324L50.148-.846q.378-.918.747-2.052t.729-2.367q.36-1.233.648-2.466T52.758-10.08Zm3.312,4.9L58.1-6.048q.756,1.026,1.53,2.223t1.4,2.358A13.848,13.848,0,0,1,61.992.648L59.76,1.656a13.216,13.216,0,0,0-.855-2.1q-.585-1.179-1.323-2.43T56.07-5.184ZM47.466-13H61.6v2.07H47.466Zm-1.044,0H48.6v4.554q0,1.08-.081,2.385T48.24-3.375A17.252,17.252,0,0,1,47.646-.72a9.627,9.627,0,0,1-1.044,2.3,5.932,5.932,0,0,0-.54-.423q-.342-.243-.7-.468a3.32,3.32,0,0,0-.612-.315,9.108,9.108,0,0,0,.918-2.088,15.09,15.09,0,0,0,.5-2.322q.162-1.188.207-2.322t.045-2.088Zm6.39-2.3h2.25v3.312h-2.25ZM68.436-8.028H79.848V-6.21H68.436ZM70.4-5.364h7.4v1.71H70.4Zm.684-2,1.854.468a10.772,10.772,0,0,1-1.809,2.853A12.159,12.159,0,0,1,68.706-1.89q-.162-.18-.423-.441t-.54-.5a5.787,5.787,0,0,0-.5-.378,8.939,8.939,0,0,0,2.277-1.773A7.976,7.976,0,0,0,71.082-7.362Zm6.39,2h2l-.009.279a3.309,3.309,0,0,1-.045.477q-.108,1.746-.261,2.871A12.83,12.83,0,0,1,78.822.009,2.232,2.232,0,0,1,78.39.9a1.458,1.458,0,0,1-.549.432,2.7,2.7,0,0,1-.657.18q-.306.036-.783.054a10.18,10.18,0,0,1-1.035-.018,4.458,4.458,0,0,0-.144-.873,2.651,2.651,0,0,0-.342-.819q.432.036.774.045t.522.009a1.029,1.029,0,0,0,.3-.036A.5.5,0,0,0,76.7-.288,1.773,1.773,0,0,0,77-.981a11.746,11.746,0,0,0,.252-1.5q.117-.99.225-2.574ZM71.946-11.07v.864H76.59v-.864Zm0-2.268v.846H76.59v-.846ZM70.02-14.832h8.568v6.12H70.02ZM63.18-11.5h5.49v2.034H63.18ZM65-15.066h2.016v11.2H65ZM62.766-3.51q.7-.252,1.629-.63t1.971-.819q1.044-.441,2.07-.891L68.9-4q-1.35.7-2.754,1.4T63.576-1.314ZM75.4-5l1.458.792a12.314,12.314,0,0,1-.918,2.2A15.18,15.18,0,0,1,74.61.09a8.593,8.593,0,0,1-1.548,1.6,5.45,5.45,0,0,0-.7-.648,5.393,5.393,0,0,0-.846-.558,7.319,7.319,0,0,0,1.638-1.44A11.506,11.506,0,0,0,74.493-2.9,11.336,11.336,0,0,0,75.4-5Zm-2.718.018,1.4.828a10.935,10.935,0,0,1-1.179,1.89A15.5,15.5,0,0,1,71.316-.486,10.766,10.766,0,0,1,69.588.882,5.9,5.9,0,0,0,68.949.2,4.992,4.992,0,0,0,68.184-.4a9.239,9.239,0,0,0,1.755-1.188,12.024,12.024,0,0,0,1.593-1.629A9.464,9.464,0,0,0,72.684-4.986ZM-98.109,21.16a12.114,12.114,0,0,1,.486-3.528,11.686,11.686,0,0,1,1.3-2.88,12.921,12.921,0,0,1,1.764-2.232l1.71.756a13.251,13.251,0,0,0-1.629,2.133,11,11,0,0,0-1.161,2.6,10.807,10.807,0,0,0-.432,3.15,10.832,10.832,0,0,0,.432,3.141,10.786,10.786,0,0,0,1.161,2.6,14.177,14.177,0,0,0,1.629,2.142l-1.71.756a12.921,12.921,0,0,1-1.764-2.232,11.686,11.686,0,0,1-1.3-2.88A12.114,12.114,0,0,1-98.109,21.16Zm11.718-8.46,2.358.558a26.465,26.465,0,0,1-1.476,3.681,22.638,22.638,0,0,1-1.926,3.231A15.148,15.148,0,0,1-89.7,22.708a5.248,5.248,0,0,0-.549-.54q-.351-.306-.729-.6a7.8,7.8,0,0,0-.666-.477,11.47,11.47,0,0,0,2.223-2.223,16.935,16.935,0,0,0,1.764-2.871A20.681,20.681,0,0,0-86.391,12.7Zm5.256,7.542A14.084,14.084,0,0,0-79.6,23.266a12.667,12.667,0,0,0,2.268,2.565,10.823,10.823,0,0,0,2.889,1.791A6.081,6.081,0,0,0-75,28.18q-.306.342-.576.711t-.45.675a12.326,12.326,0,0,1-3.06-2.133,14.867,14.867,0,0,1-2.385-2.961,20.2,20.2,0,0,1-1.755-3.618Zm-5.31-4.806h5.688v2.178h-6.75Zm4.878,0h.432l.4-.108,1.584.72a22.686,22.686,0,0,1-2.412,6.084,18.766,18.766,0,0,1-3.663,4.536,17.764,17.764,0,0,1-4.527,2.97,5.405,5.405,0,0,0-.459-.666q-.3-.378-.63-.729a4.671,4.671,0,0,0-.6-.549,16.777,16.777,0,0,0,4.374-2.6,15.824,15.824,0,0,0,3.4-3.924,17.3,17.3,0,0,0,2.106-5.247Zm9.99-1.89H-69.4v5.22q0,1.17-.072,2.592a28.938,28.938,0,0,1-.3,2.9,18.459,18.459,0,0,1-.666,2.853,11.29,11.29,0,0,1-1.143,2.511,4.217,4.217,0,0,0-.549-.405q-.351-.225-.72-.414a6.4,6.4,0,0,0-.657-.3,9.071,9.071,0,0,0,1.071-2.286,15.806,15.806,0,0,0,.567-2.547q.18-1.3.234-2.565t.054-2.34Zm1.206,0h12.546v4.608H-70.371V16.408H-60V15.292H-70.371Zm.594,5.382h12.438v1.71H-69.777Zm.864,5.6h10.692v1.71H-68.913Zm-1.224,2.952h13.194v1.71H-70.137Zm5.472-4.3h2.088v5.472h-2.088Zm-4.626-1.17,2.925-.081q1.647-.045,3.492-.108t3.663-.117l-.054,1.566q-1.764.072-3.564.153t-3.438.144q-1.638.063-2.934.117Zm3.294-2.7,2.178.72q-.576.864-1.179,1.71a18.211,18.211,0,0,1-1.125,1.44l-1.656-.666q.306-.432.639-.99t.639-1.143Q-66.195,19.792-66,19.306Zm3.546,1.782,1.674-.99q.612.414,1.3.936t1.287,1.053a11.186,11.186,0,0,1,1,.981l-1.8,1.134a8.689,8.689,0,0,0-.918-1q-.576-.549-1.242-1.107T-62.451,21.088Zm7.416-3.528h16.02v2.232h-16.02Zm9.252.9a17.557,17.557,0,0,0,1.494,3.834,12.074,12.074,0,0,0,2.367,3.114,10.644,10.644,0,0,0,3.3,2.106,4.983,4.983,0,0,0-.567.594q-.3.36-.576.747t-.459.693a12.011,12.011,0,0,1-3.555-2.5,13.942,13.942,0,0,1-2.493-3.573,25.694,25.694,0,0,1-1.692-4.509Zm-2.484-5.742h2.358q-.018,1.368-.081,2.889t-.279,3.087a19.451,19.451,0,0,1-.693,3.1,13.28,13.28,0,0,1-1.332,2.952,11.964,11.964,0,0,1-2.2,2.637,13.672,13.672,0,0,1-3.267,2.16,6.58,6.58,0,0,0-.7-.954,5.548,5.548,0,0,0-.918-.864A12.312,12.312,0,0,0-52.3,25.813a10.428,10.428,0,0,0,2.025-2.358,11.123,11.123,0,0,0,1.2-2.646,15.456,15.456,0,0,0,.567-2.781q.153-1.4.189-2.754T-48.267,12.718Zm15.174,7v6.642h-2.07V21.718h-2.3v-2Zm0,5.778a3.162,3.162,0,0,0,1.485,1.332,6.4,6.4,0,0,0,2.313.468q.81.036,1.944.045t2.385-.009q1.251-.018,2.457-.063t2.142-.135a4.406,4.406,0,0,0-.261.621q-.135.387-.243.783t-.18.7q-.828.054-1.908.072t-2.232.027q-1.152.009-2.223,0t-1.9-.045a8.429,8.429,0,0,1-2.745-.522,4.59,4.59,0,0,1-1.935-1.494q-.63.54-1.287,1.071t-1.413,1.107L-37.7,27.3q.648-.36,1.368-.828t1.368-.972Zm-4.1-11.034,1.476-1.386a13.8,13.8,0,0,1,1.179.873q.6.495,1.143.99a6.017,6.017,0,0,1,.846.927l-1.62,1.548a6,6,0,0,0-.774-.954q-.5-.522-1.1-1.053T-37.2,14.464Zm7.272,1.746,1.386-1.152q.792.27,1.746.657t1.845.8q.891.414,1.485.756l-1.476,1.3a11.956,11.956,0,0,0-1.4-.774q-.855-.414-1.809-.837T-29.925,16.21Zm-1.62,1.008h9.162v1.566h-7.146v7.758h-2.016Zm8.154,0h2.052v7.47a2.788,2.788,0,0,1-.153,1.035,1.155,1.155,0,0,1-.585.585,2.608,2.608,0,0,1-1.017.261q-.6.045-1.413.045a6.966,6.966,0,0,0-.225-.873,8.035,8.035,0,0,0-.315-.837q.414.018.828.018h.558a.285.285,0,0,0,.207-.063.285.285,0,0,0,.063-.207Zm-7.992-3.906h8.568V14.95h-8.568Zm.954,6.444h7.74v1.512h-7.74Zm0,2.52h7.74v1.566h-7.74Zm2.97-4.32h1.926V26.47h-1.926Zm3.87-4.644h.5l.414-.108,1.278,1.026q-.63.594-1.413,1.206a19.332,19.332,0,0,1-1.629,1.143,16.744,16.744,0,0,1-1.674.927,5.291,5.291,0,0,0-.513-.63q-.333-.36-.549-.576a11.12,11.12,0,0,0,1.377-.783,14.7,14.7,0,0,0,1.278-.945,7.946,7.946,0,0,0,.927-.882Zm10.764,5.976,2.574.63q-.432,1.044-.945,2.142t-1.053,2.16q-.54,1.062-1.071,2.025t-1.035,1.737l-2.016-.63q.486-.828.99-1.827t.981-2.07q.477-1.071.882-2.142T-12.825,19.288Zm-5.616,7.4q1.26-.054,2.844-.117t3.348-.144q1.764-.081,3.591-.171l3.609-.18L-5.121,28.2q-2.3.144-4.662.288t-4.509.261q-2.151.117-3.879.225Zm9.108-3.438,2.088-.954q.792.972,1.584,2.088t1.467,2.187a21.247,21.247,0,0,1,1.107,1.953l-2.25,1.188A15.618,15.618,0,0,0-6.363,27.7q-.666-1.125-1.44-2.295T-9.333,23.248Zm-5.4-10.134,2.466.684a21.475,21.475,0,0,1-1.377,2.79,25.059,25.059,0,0,1-1.7,2.547,16.78,16.78,0,0,1-1.818,2.043,4.035,4.035,0,0,0-.6-.549q-.387-.3-.792-.594t-.693-.477a12.081,12.081,0,0,0,1.791-1.764A16.235,16.235,0,0,0-15.9,15.562,16.266,16.266,0,0,0-14.733,13.114Zm7.254.036a16.937,16.937,0,0,0,.945,1.638,20.468,20.468,0,0,0,1.206,1.665Q-4.671,17.272-4,18t1.278,1.305a6.6,6.6,0,0,0-.63.549q-.342.333-.666.684a4.968,4.968,0,0,0-.522.657q-.648-.684-1.332-1.539t-1.359-1.8q-.675-.945-1.3-1.917t-1.125-1.908Zm9.36,5H11.943v1.224H1.881ZM2.745,16.3h8.442v1.17H2.745Zm3.15-.756H7.857v3.33H5.9Zm-.2,7.524h1.89v3.564H5.7Zm1.98-.342A6.118,6.118,0,0,0,8.883,23.8a9.005,9.005,0,0,0,1.629.891,12.325,12.325,0,0,0,1.827.612,4.918,4.918,0,0,0-.594.639q-.324.405-.522.711a10.311,10.311,0,0,1-1.9-.819,9.792,9.792,0,0,1-1.7-1.188,9.142,9.142,0,0,1-1.314-1.395Zm-.846-.738,1.62.576A9.751,9.751,0,0,1,6.8,24.058a15.68,15.68,0,0,1-2.043,1.26,19.556,19.556,0,0,1-2.142.954,3.783,3.783,0,0,0-.324-.441q-.216-.261-.432-.513a4.51,4.51,0,0,0-.4-.414,18.231,18.231,0,0,0,2.043-.747,14.024,14.024,0,0,0,1.89-.99A6.556,6.556,0,0,0,6.831,21.988Zm3.924.486,1.3.828a10.761,10.761,0,0,1-1.233.864q-.657.4-1.2.684l-1.062-.738q.342-.216.756-.5t.792-.585Q10.485,22.726,10.755,22.474ZM4.6,21.016v.9H9.243v-.9Zm-1.8-1.1h8.334v3.1H2.8ZM-.765,13.4H14.661V29.62H12.555V15.328H1.269V29.62H-.765Zm1.3,13.626H13.689v1.944H.531ZM25.695,12.7l2.358.558a26.466,26.466,0,0,1-1.476,3.681,22.638,22.638,0,0,1-1.926,3.231,15.148,15.148,0,0,1-2.268,2.538,5.249,5.249,0,0,0-.549-.54q-.351-.306-.729-.6a7.8,7.8,0,0,0-.666-.477,11.47,11.47,0,0,0,2.223-2.223,16.934,16.934,0,0,0,1.764-2.871A20.681,20.681,0,0,0,25.695,12.7Zm5.256,7.542a14.084,14.084,0,0,0,1.539,3.024,12.667,12.667,0,0,0,2.268,2.565,10.823,10.823,0,0,0,2.889,1.791,6.082,6.082,0,0,0-.558.558q-.306.342-.576.711t-.45.675A12.326,12.326,0,0,1,33,27.433a14.867,14.867,0,0,1-2.385-2.961,20.2,20.2,0,0,1-1.755-3.618Zm-5.31-4.806h5.688v2.178h-6.75Zm4.878,0h.432l.4-.108,1.584.72a22.686,22.686,0,0,1-2.412,6.084,18.766,18.766,0,0,1-3.663,4.536,17.764,17.764,0,0,1-4.527,2.97,5.4,5.4,0,0,0-.459-.666q-.3-.378-.63-.729a4.671,4.671,0,0,0-.6-.549,16.777,16.777,0,0,0,4.374-2.6,15.824,15.824,0,0,0,3.4-3.924,17.3,17.3,0,0,0,2.106-5.247Zm9.99-1.89h2.178v5.22q0,1.17-.072,2.592a28.941,28.941,0,0,1-.3,2.9,18.459,18.459,0,0,1-.666,2.853,11.29,11.29,0,0,1-1.143,2.511,4.216,4.216,0,0,0-.549-.405q-.351-.225-.72-.414a6.4,6.4,0,0,0-.657-.3,9.071,9.071,0,0,0,1.071-2.286,15.806,15.806,0,0,0,.567-2.547q.18-1.3.234-2.565t.054-2.34Zm1.206,0H54.261v4.608H41.715V16.408H52.083V15.292H41.715Zm.594,5.382H54.747v1.71H42.309Zm.864,5.6H53.865v1.71H43.173Zm-1.224,2.952H55.143v1.71H41.949Zm5.472-4.3h2.088v5.472H47.421Zm-4.626-1.17,2.925-.081q1.647-.045,3.492-.108t3.663-.117l-.054,1.566q-1.764.072-3.564.153t-3.438.144q-1.638.063-2.934.117Zm3.294-2.7,2.178.72q-.576.864-1.179,1.71a18.209,18.209,0,0,1-1.125,1.44l-1.656-.666q.306-.432.639-.99t.639-1.143Q45.891,19.792,46.089,19.306Zm3.546,1.782,1.674-.99q.612.414,1.3.936t1.287,1.053a11.186,11.186,0,0,1,1,.981l-1.8,1.134a8.689,8.689,0,0,0-.918-1q-.576-.549-1.242-1.107T49.635,21.088Zm10.3,5.526q1.44-.054,3.339-.135T67.3,26.3q2.133-.1,4.221-.207l-.036,1.962q-2.016.144-4.068.3t-3.924.27q-1.872.117-3.366.225Zm4.5-8.694,2.466.5q-.306,1.224-.675,2.484t-.765,2.475q-.4,1.215-.8,2.313t-.783,1.98l-2.052-.522q.378-.918.747-2.052t.729-2.367q.36-1.233.648-2.466T64.431,17.92Zm3.312,4.9,2.034-.864q.756,1.026,1.53,2.223t1.4,2.358a13.847,13.847,0,0,1,.954,2.115l-2.232,1.008a13.216,13.216,0,0,0-.855-2.1q-.585-1.179-1.323-2.43T67.743,22.816ZM59.139,15h14.13v2.07H59.139ZM58.1,15h2.178v4.554q0,1.08-.081,2.385t-.279,2.682a17.252,17.252,0,0,1-.594,2.655,9.627,9.627,0,0,1-1.044,2.3,5.932,5.932,0,0,0-.54-.423q-.342-.243-.7-.468a3.32,3.32,0,0,0-.612-.315,9.108,9.108,0,0,0,.918-2.088,15.09,15.09,0,0,0,.5-2.322q.162-1.188.207-2.322t.045-2.088Zm6.39-2.3h2.25v3.312h-2.25Zm15.624,7.272H91.521V21.79H80.109Zm1.962,2.664h7.4v1.71h-7.4Zm.684-2,1.854.468A10.772,10.772,0,0,1,82.8,23.959a12.159,12.159,0,0,1-2.421,2.151q-.162-.18-.423-.441t-.54-.5a5.788,5.788,0,0,0-.5-.378A8.939,8.939,0,0,0,81.2,23.023,7.976,7.976,0,0,0,82.755,20.638Zm6.39,2h2l-.009.279a3.312,3.312,0,0,1-.045.477q-.108,1.746-.261,2.871a12.828,12.828,0,0,1-.333,1.746,2.232,2.232,0,0,1-.432.891,1.459,1.459,0,0,1-.549.432,2.7,2.7,0,0,1-.657.18q-.306.036-.783.054a10.18,10.18,0,0,1-1.035-.018,4.459,4.459,0,0,0-.144-.873,2.651,2.651,0,0,0-.342-.819q.432.036.774.045t.522.009a1.029,1.029,0,0,0,.3-.036.5.5,0,0,0,.225-.162,1.773,1.773,0,0,0,.3-.693,11.746,11.746,0,0,0,.252-1.5q.117-.99.225-2.574ZM83.619,16.93v.864h4.644V16.93Zm0-2.268v.846h4.644v-.846Zm-1.926-1.494h8.568v6.12H81.693Zm-6.84,3.33h5.49v2.034h-5.49Zm1.818-3.564h2.016v11.2H76.671ZM74.439,24.49q.7-.252,1.629-.63t1.971-.819q1.044-.441,2.07-.891L80.577,24q-1.35.7-2.754,1.4t-2.574,1.278ZM87.075,23l1.458.792a12.314,12.314,0,0,1-.918,2.2,15.182,15.182,0,0,1-1.332,2.1,8.593,8.593,0,0,1-1.548,1.6,5.45,5.45,0,0,0-.7-.648,5.393,5.393,0,0,0-.846-.558,7.319,7.319,0,0,0,1.638-1.44A11.506,11.506,0,0,0,86.166,25.1,11.336,11.336,0,0,0,87.075,23Zm-2.718.018,1.4.828a10.935,10.935,0,0,1-1.179,1.89,15.5,15.5,0,0,1-1.593,1.782,10.766,10.766,0,0,1-1.728,1.368,5.9,5.9,0,0,0-.639-.684,4.992,4.992,0,0,0-.765-.594,9.24,9.24,0,0,0,1.755-1.188,12.024,12.024,0,0,0,1.593-1.629A9.463,9.463,0,0,0,84.357,23.014ZM98.109,21.16a12.114,12.114,0,0,1-.486,3.528,11.9,11.9,0,0,1-1.287,2.88A12.146,12.146,0,0,1,94.563,29.8l-1.71-.756A14.177,14.177,0,0,0,94.482,26.9a11.329,11.329,0,0,0,1.161-8.892,11,11,0,0,0-1.161-2.6,13.251,13.251,0,0,0-1.629-2.133l1.71-.756a12.146,12.146,0,0,1,1.773,2.232,11.9,11.9,0,0,1,1.287,2.88A12.114,12.114,0,0,1,98.109,21.16Z" transform="translate(747 15722.617)" fill="#fff"/>
    <path id="パス_4796" data-name="パス 4796" d="M3.435-11.91H7.7v1.83H3.435Zm3.375,0H8.67q0,.72.06,1.628a16.113,16.113,0,0,0,.255,1.935A13.772,13.772,0,0,0,9.57-6.24,11.531,11.531,0,0,0,10.612-4.1,10.892,10.892,0,0,0,12.255-2.07a12.49,12.49,0,0,0,2.37,1.8,5.226,5.226,0,0,0-.48.435Q13.86.45,13.6.758a6.792,6.792,0,0,0-.427.547A12.179,12.179,0,0,1,10.725-.652a12.168,12.168,0,0,1-1.74-2.31,14.431,14.431,0,0,1-1.14-2.475,17.154,17.154,0,0,1-.66-2.445,19.775,19.775,0,0,1-.3-2.228Q6.81-11.145,6.81-11.91Zm-.645,3.3,2.055.375A19.906,19.906,0,0,1,6.855-4.2,13.933,13.933,0,0,1,4.807-1,11.47,11.47,0,0,1,2.055,1.32,5.658,5.658,0,0,0,1.59.847Q1.29.57.967.293A6.79,6.79,0,0,0,.405-.15a9.428,9.428,0,0,0,3.75-3.337A14.876,14.876,0,0,0,6.165-8.61Zm13.89,1.92h9.51v1.515h-9.51ZM21.69-4.47h6.165v1.425H21.69Zm.57-1.665,1.545.39A8.977,8.977,0,0,1,22.3-3.368,10.132,10.132,0,0,1,20.28-1.575q-.135-.15-.352-.368t-.45-.413a4.824,4.824,0,0,0-.413-.315,7.45,7.45,0,0,0,1.9-1.477A6.646,6.646,0,0,0,22.26-6.135ZM27.585-4.47H29.25l-.007.233a2.758,2.758,0,0,1-.038.4q-.09,1.455-.218,2.393A10.691,10.691,0,0,1,28.71.008a1.86,1.86,0,0,1-.36.742,1.215,1.215,0,0,1-.457.36,2.253,2.253,0,0,1-.547.15q-.255.03-.653.045a8.483,8.483,0,0,1-.863-.015,3.715,3.715,0,0,0-.12-.728,2.209,2.209,0,0,0-.285-.683q.36.03.645.038t.435.008a.857.857,0,0,0,.247-.03A.415.415,0,0,0,26.94-.24a1.478,1.478,0,0,0,.247-.577A9.79,9.79,0,0,0,27.4-2.07q.1-.825.188-2.145Zm-4.6-4.755v.72h3.87v-.72Zm0-1.89v.7h3.87v-.7Zm-1.6-1.245h7.14v5.1h-7.14Zm-5.7,2.775H20.25V-7.89H15.675Zm1.515-2.97h1.68v9.33H17.19Zm-1.86,9.63q.585-.21,1.358-.525t1.642-.683q.87-.367,1.725-.742l.39,1.545q-1.125.585-2.3,1.17T16-1.1ZM25.86-4.17l1.215.66a10.262,10.262,0,0,1-.765,1.837A12.651,12.651,0,0,1,25.2.075,7.161,7.161,0,0,1,23.91,1.41a4.541,4.541,0,0,0-.585-.54,4.494,4.494,0,0,0-.7-.465A6.1,6.1,0,0,0,23.985-.8,9.589,9.589,0,0,0,25.1-2.415,9.447,9.447,0,0,0,25.86-4.17ZM23.6-4.155l1.17.69a9.112,9.112,0,0,1-.982,1.575A12.913,12.913,0,0,1,22.455-.405a8.972,8.972,0,0,1-1.44,1.14,4.916,4.916,0,0,0-.532-.57,4.16,4.16,0,0,0-.637-.495,7.7,7.7,0,0,0,1.462-.99,10.02,10.02,0,0,0,1.327-1.358A7.886,7.886,0,0,0,23.6-4.155Zm9.255-8.52H34.5V1.3H32.85ZM30.57-7.74h6.15v1.68H30.57Zm1.95.885,1.005.495q-.2.75-.45,1.582t-.57,1.658q-.315.825-.66,1.553A8.07,8.07,0,0,1,31.11-.3a4.677,4.677,0,0,0-.218-.623q-.142-.338-.3-.668T30.3-2.16a8.261,8.261,0,0,0,.878-1.372q.427-.818.788-1.7A12.835,12.835,0,0,0,32.52-6.855Zm1.965.87q.12.12.353.375t.517.577q.285.323.548.645t.48.577a4.634,4.634,0,0,1,.307.39L35.6-2.01q-.15-.33-.39-.773T34.68-3.7q-.285-.472-.555-.893t-.465-.69Zm-3.93-5.535,1.26-.33a12.064,12.064,0,0,1,.352,1.17q.157.63.263,1.23t.15,1.08l-1.35.36A8.644,8.644,0,0,0,31.118-9.1q-.1-.607-.24-1.245A12.028,12.028,0,0,0,30.555-11.52Zm4.935-.4,1.515.33q-.18.615-.39,1.26T36.195-9.1q-.21.593-.39,1.043l-1.14-.33q.165-.48.322-1.1t.292-1.267Q35.415-11.4,35.49-11.925Zm5.685-.825h1.68V1.335h-1.68ZM36.69-3.36,44.4-4.74l.27,1.665L36.96-1.68Zm.84-7.35.885-1.215q.42.24.877.555t.87.645a4.673,4.673,0,0,1,.653.615l-.93,1.35a4.307,4.307,0,0,0-.622-.645q-.4-.345-.847-.69T37.53-10.71Zm-.675,3.78.84-1.29a10.127,10.127,0,0,1,.93.532q.48.307.915.615a4.752,4.752,0,0,1,.705.593L39.33-5.04a4.794,4.794,0,0,0-.66-.622q-.42-.337-.892-.675A10.5,10.5,0,0,0,36.855-6.93ZM52.5-7.74a1.39,1.39,0,0,1-1.013-.4,1.334,1.334,0,0,1-.412-.99,1.364,1.364,0,0,1,.412-1.028,1.4,1.4,0,0,1,1.013-.4,1.4,1.4,0,0,1,1.013.4,1.364,1.364,0,0,1,.412,1.028,1.334,1.334,0,0,1-.412.99A1.39,1.39,0,0,1,52.5-7.74Zm0,7.155a1.39,1.39,0,0,1-1.013-.4,1.334,1.334,0,0,1-.412-.99,1.364,1.364,0,0,1,.412-1.027A1.4,1.4,0,0,1,52.5-3.4a1.4,1.4,0,0,1,1.013.4,1.364,1.364,0,0,1,.412,1.027,1.334,1.334,0,0,1-.412.99A1.39,1.39,0,0,1,52.5-.585ZM63.525-12.75l1.77.525a12.3,12.3,0,0,1-.96,1.62,12.842,12.842,0,0,1-1.192,1.47A13.043,13.043,0,0,1,61.875-7.95a3.317,3.317,0,0,0-.42-.4q-.27-.225-.555-.435t-.5-.345a8.86,8.86,0,0,0,1.8-1.59A8.181,8.181,0,0,0,63.525-12.75Zm-.12,1.59H73.74v1.575H62.97Zm-2.67,3.5h13.56v1.6H60.735Zm.24,3.51h13.1V-2.55h-13.1Zm4.455-6.45h1.5v7.29h-1.5Zm-2.67,0h1.6V-3.3h-1.6Zm5.28,0h1.5V-3.3h-1.5Zm2.64,0h1.65V-3.3H70.68Zm-5.7,8.9,1.665-.18q.15.675.263,1.47A12.248,12.248,0,0,1,67.035.93l-1.77.255q0-.36-.037-.855T65.13-.7Q65.07-1.245,64.98-1.71Zm2.985.045,1.68-.285q.195.435.375.945t.315.99a7.41,7.41,0,0,1,.195.87l-1.8.345a11.241,11.241,0,0,0-.293-1.365Q68.22-.975,67.965-1.665Zm2.97-.09L72.66-2.3q.36.465.72,1t.69,1.073a7.34,7.34,0,0,1,.51.952l-1.845.615a9.791,9.791,0,0,0-.458-.945q-.292-.54-.645-1.1T70.935-1.755Zm-8.655-.48,1.74.435a9.507,9.507,0,0,1-.7,1.71,6.776,6.776,0,0,1-1,1.455L60.585.66A5.674,5.674,0,0,0,61.56-.615,7.723,7.723,0,0,0,62.28-2.235Zm15.57-10.44H79.5V1.3H77.85ZM75.57-7.74h6.15v1.68H75.57Zm1.95.885,1.005.495q-.195.75-.45,1.582T77.5-3.12q-.315.825-.66,1.553A8.07,8.07,0,0,1,76.11-.3a4.676,4.676,0,0,0-.217-.623q-.143-.338-.3-.668T75.3-2.16a8.261,8.261,0,0,0,.877-1.372q.428-.818.787-1.7A12.835,12.835,0,0,0,77.52-6.855Zm1.965.87q.12.12.353.375t.518.577q.285.323.547.645t.48.577a4.636,4.636,0,0,1,.308.39L80.6-2.01q-.15-.33-.39-.773T79.68-3.7q-.285-.472-.555-.893t-.465-.69Zm-3.93-5.535,1.26-.33a12.065,12.065,0,0,1,.353,1.17q.157.63.262,1.23t.15,1.08l-1.35.36A8.646,8.646,0,0,0,76.118-9.1q-.1-.607-.24-1.245A12.028,12.028,0,0,0,75.555-11.52Zm4.935-.4L82-11.6q-.18.615-.39,1.26T81.195-9.1q-.21.593-.39,1.043l-1.14-.33q.165-.48.323-1.1t.292-1.267Q80.415-11.4,80.49-11.925Zm5.685-.825h1.68V1.335h-1.68ZM81.69-3.36,89.4-4.74l.27,1.665L81.96-1.68Zm.84-7.35.885-1.215q.42.24.877.555t.87.645a4.673,4.673,0,0,1,.653.615l-.93,1.35a4.306,4.306,0,0,0-.623-.645q-.4-.345-.847-.69T82.53-10.71Zm-.675,3.78.84-1.29a10.127,10.127,0,0,1,.93.532q.48.307.915.615a4.751,4.751,0,0,1,.705.593L84.33-5.04a4.794,4.794,0,0,0-.66-.622q-.42-.337-.893-.675A10.5,10.5,0,0,0,81.855-6.93ZM99.945-5.7a10.1,10.1,0,0,1,.4-2.94,9.738,9.738,0,0,1,1.08-2.4,10.767,10.767,0,0,1,1.47-1.86l1.425.63a11.042,11.042,0,0,0-1.357,1.778A9.166,9.166,0,0,0,102-8.325a9.006,9.006,0,0,0-.36,2.625A9.027,9.027,0,0,0,102-3.082a8.988,8.988,0,0,0,.967,2.167A11.814,11.814,0,0,0,104.325.87L102.9,1.5a10.767,10.767,0,0,1-1.47-1.86,9.738,9.738,0,0,1-1.08-2.4A10.1,10.1,0,0,1,99.945-5.7ZM113.4-10.125h4.815V-8.49H113.4Zm.12-2.64,1.755.27a22.123,22.123,0,0,1-.937,3.69A9.9,9.9,0,0,1,112.83-5.94a4.339,4.339,0,0,0-.435-.33q-.285-.2-.57-.383a3.3,3.3,0,0,0-.495-.278,7.574,7.574,0,0,0,1.41-2.542A17.118,17.118,0,0,0,113.52-12.765Zm2.085,3.285h.87v2.505a8.773,8.773,0,0,0,.083,1.08A9.832,9.832,0,0,0,116.85-4.5a9.978,9.978,0,0,0,.57,1.522,7.94,7.94,0,0,0,.908,1.485A6.328,6.328,0,0,0,119.64-.225l-.368.48q-.217.285-.412.585t-.33.525A5.039,5.039,0,0,1,117.518.45a7.657,7.657,0,0,1-.78-1.11,8.982,8.982,0,0,1-.57-1.17,10.383,10.383,0,0,1-.375-1.11,8.5,8.5,0,0,1-.2-.915,6.277,6.277,0,0,1-.322,1.155,10.6,10.6,0,0,1-.653,1.418,8.088,8.088,0,0,1-1,1.433,6.808,6.808,0,0,1-1.4,1.215,5.623,5.623,0,0,0-.292-.5q-.187-.292-.39-.563a4.115,4.115,0,0,0-.368-.435,6.892,6.892,0,0,0,1.5-1.283A7.589,7.589,0,0,0,113.677-2.9,8.774,8.774,0,0,0,114.3-4.44a9.749,9.749,0,0,0,.315-1.425,8.453,8.453,0,0,0,.09-1.11V-9.48Zm2.175-.645h.27l.27-.06,1.215.285q-.12.735-.293,1.493t-.375,1.448a10.89,10.89,0,0,1-.427,1.215L117-6.195a8.776,8.776,0,0,0,.323-1.1q.142-.615.262-1.29t.195-1.26Zm-9.375.24h1.605v1.74H108.4Zm-1.89,1.17h1.605v8.37h-1.605Zm.975,1.95h3.465v1.2H107.49ZM105.435-.84q.675-.15,1.538-.367t1.83-.48q.967-.262,1.928-.517l.21,1.425q-1.275.435-2.558.84T106.02.81Zm3.84-2.175,1.455-.51q.255.495.51,1.058t.465,1.087a7.446,7.446,0,0,1,.315.945L110.475.18a8.592,8.592,0,0,0-.285-.96q-.195-.555-.428-1.14T109.275-3.015Zm-1.785-5.7h4.23V-3.57h-4.23V-4.815h2.64V-7.47h-2.64Zm.6-4.035h.975v.345h.525v.465q-.33.57-.795,1.253a12.44,12.44,0,0,1-1.1,1.38,12.236,12.236,0,0,1-1.478,1.358,3.536,3.536,0,0,0-.285-.435q-.18-.24-.382-.465a2.479,2.479,0,0,0-.368-.345,8.705,8.705,0,0,0,1.793-1.733A9.343,9.343,0,0,0,108.09-12.75Zm.465,0h1.23q.45.4.93.885t.93.952a8.866,8.866,0,0,1,.735.863l-1.23,1.17q-.24-.36-.63-.855t-.832-.983a11.267,11.267,0,0,0-.848-.848h-.285ZM127.44-11.2a11.854,11.854,0,0,1-1.605,1.515,19.137,19.137,0,0,1-2.1,1.448,20.721,20.721,0,0,1-2.34,1.207,5.162,5.162,0,0,0-.285-.487q-.18-.277-.375-.54a4.125,4.125,0,0,0-.39-.458A15.424,15.424,0,0,0,122.76-9.7a16.964,16.964,0,0,0,2.13-1.507,10.255,10.255,0,0,0,1.56-1.583h1.815a11.762,11.762,0,0,0,1.387,1.343,16.13,16.13,0,0,0,1.583,1.148,15.263,15.263,0,0,0,1.7.937,14.823,14.823,0,0,0,1.762.7,6.218,6.218,0,0,0-.615.765q-.3.435-.525.825a21.389,21.389,0,0,1-2.235-1.133A20.28,20.28,0,0,1,129.15-9.66,12.627,12.627,0,0,1,127.44-11.2Zm-3.3,4.77h6.6v1.29h-6.6Zm2.4-3.33h1.86V-7.74h-1.86ZM121.455-.45q.855-.075,1.927-.158t2.257-.18q1.185-.1,2.355-.2l.03,1.59q-1.11.1-2.242.218t-2.175.21q-1.042.1-1.912.173Zm6.51-3.015A5.62,5.62,0,0,0,130.417-1.3,12.264,12.264,0,0,0,134.4-.225q-.18.195-.39.472t-.39.57q-.18.293-.3.533a12.345,12.345,0,0,1-2.97-.84,8.172,8.172,0,0,1-2.265-1.448A8.027,8.027,0,0,1,126.45-3.06Zm4.425-.315L133.7-2.7q-.57.39-1.215.773t-1.29.705q-.645.323-1.215.577L128.91-1.62q.555-.27,1.185-.637t1.245-.765A11.151,11.151,0,0,0,132.39-3.78Zm-8.25-4.845h7.815v5.7H124.14V-4.32h5.985v-2.9H124.14Zm-1.125,0H124.8V-.24l-1.785.18Zm19.485,1a1.811,1.811,0,0,1,.967.263,2.069,2.069,0,0,1,.69.69,1.811,1.811,0,0,1,.262.968,1.823,1.823,0,0,1-.262.96,2.047,2.047,0,0,1-.69.7,1.811,1.811,0,0,1-.967.263,1.823,1.823,0,0,1-.96-.263,2.025,2.025,0,0,1-.7-.7,1.823,1.823,0,0,1-.262-.96,1.811,1.811,0,0,1,.262-.968,2.047,2.047,0,0,1,.7-.69A1.823,1.823,0,0,1,142.5-7.62Zm15.24-5.13,1.635.315a23.707,23.707,0,0,1-.69,2.422,16.2,16.2,0,0,1-.93,2.19,10.661,10.661,0,0,1-1.14,1.777,2.625,2.625,0,0,0-.39-.338q-.255-.187-.518-.375t-.443-.307a7.456,7.456,0,0,0,1.072-1.56,13.151,13.151,0,0,0,.825-1.958A18.42,18.42,0,0,0,157.74-12.75Zm5.04,2.34h1.71l-.008.158q-.007.158-.007.352a2.269,2.269,0,0,1-.015.3q-.105,2.535-.218,4.3T164-2.378a14.05,14.05,0,0,1-.292,1.8,2.809,2.809,0,0,1-.375.938,1.964,1.964,0,0,1-.54.54,1.968,1.968,0,0,1-.645.24,4.571,4.571,0,0,1-.765.067q-.45.007-.945-.022A5.193,5.193,0,0,0,160.283.3a3.627,3.627,0,0,0-.337-.87q.42.045.78.053t.57.007a.62.62,0,0,0,.292-.06.887.887,0,0,0,.248-.225,2.039,2.039,0,0,0,.285-.757,15.087,15.087,0,0,0,.255-1.658q.12-1.08.217-2.753t.188-4.057Zm-4.59,0h5.355v1.665H157.38Zm1.065.54,1.3.645a19.139,19.139,0,0,1-.825,2.633,16.952,16.952,0,0,1-1.223,2.512,8.929,8.929,0,0,1-1.507,1.935,7.649,7.649,0,0,0-.645-.533,4.959,4.959,0,0,0-.75-.472,6.6,6.6,0,0,0,1.23-1.268,11.431,11.431,0,0,0,1.035-1.665,15.588,15.588,0,0,0,.81-1.875A18.354,18.354,0,0,0,159.255-9.87Zm2.085.18,1.4.645q-.285,1.455-.712,2.91A22.514,22.514,0,0,1,161-3.345a15.359,15.359,0,0,1-1.357,2.452A8.774,8.774,0,0,1,157.935.99a5.667,5.667,0,0,0-.667-.555,6.27,6.27,0,0,0-.788-.5,8.329,8.329,0,0,0,1.762-1.748,12.937,12.937,0,0,0,1.388-2.325,19.3,19.3,0,0,0,1.02-2.7A28.61,28.61,0,0,0,161.34-9.69ZM150.4-4.56q.735-.18,1.673-.42t1.98-.533q1.043-.292,2.077-.577l.225,1.575q-1.41.45-2.872.892t-2.648.788Zm2.685-8.175h1.65V1.35h-1.65Zm-1.98.855,1.515.24q-.1.99-.255,1.988t-.36,1.882a11.162,11.162,0,0,1-.48,1.56q-.135-.105-.375-.262l-.48-.315a2.653,2.653,0,0,0-.42-.233,9.413,9.413,0,0,0,.412-1.4q.173-.787.285-1.68T151.11-11.88Zm.42,2.04H156v1.71h-4.815ZM172.6-11.97h6.525v1.635H172.6Zm-.525,0h1.65V-6.3q0,.9-.06,1.92t-.225,2.063a11.64,11.64,0,0,1-.5,1.995,6.844,6.844,0,0,1-.87,1.718,4.4,4.4,0,0,0-.42-.322q-.27-.188-.548-.352a5.322,5.322,0,0,0-.473-.255,6.129,6.129,0,0,0,.975-2.1A13.176,13.176,0,0,0,172-4.02q.083-1.215.083-2.28Zm5.295,3.75h.315l.3-.045,1.065.24a17.9,17.9,0,0,1-.945,4.26,9.938,9.938,0,0,1-1.74,3.052A8.612,8.612,0,0,1,173.82,1.3q-.12-.21-.293-.487T173.16.27a2.874,2.874,0,0,0-.375-.435,6.349,6.349,0,0,0,2.235-1.65,8.755,8.755,0,0,0,1.545-2.625,13.668,13.668,0,0,0,.81-3.48Zm-2.6,1.11a15.273,15.273,0,0,0,1.02,2.97,9.248,9.248,0,0,0,1.62,2.422A7.323,7.323,0,0,0,179.73-.06a4.144,4.144,0,0,0-.42.42q-.225.255-.427.525a3.9,3.9,0,0,0-.323.5,8.442,8.442,0,0,1-2.43-1.965,10.888,10.888,0,0,1-1.7-2.767,20.287,20.287,0,0,1-1.11-3.443Zm-1.71-1.11h4.74v1.575h-4.74Zm-6.15,5.865,1.65.39a11,11,0,0,1-.818,1.852A7.722,7.722,0,0,1,166.7,1.395q-.165-.135-.42-.315T165.75.72q-.27-.18-.465-.285a5.382,5.382,0,0,0,.967-1.26A7.6,7.6,0,0,0,166.92-2.355Zm1.815.555,1.4-.6a11.313,11.313,0,0,1,.682,1,7.985,7.985,0,0,1,.518.975l-1.455.705a7.007,7.007,0,0,0-.48-1.013Q169.065-1.32,168.735-1.8Zm-.945-6.225v1.4H169.4v-1.4Zm0,2.715V-3.9H169.4V-5.31Zm0-5.415V-9.36H169.4v-1.365Zm-1.6-1.44h4.875v9.69h-4.875Zm19.68,2.955q.645.06,1.3.1t1.327.037q1.38,0,2.745-.12a19.731,19.731,0,0,0,2.52-.375V-7.7q-1.17.165-2.535.263t-2.73.1q-.66,0-1.312-.023t-1.312-.068Zm5.7-2.535q-.03.21-.053.465t-.037.51q-.015.24-.03.645t-.015.908V-8.16q0,1.02.03,1.913t.075,1.65l.082,1.387q.038.63.038,1.17A3.546,3.546,0,0,1,191.5-.96a2.3,2.3,0,0,1-.5.87,2.235,2.235,0,0,1-.908.577,4.075,4.075,0,0,1-1.372.2,4.226,4.226,0,0,1-2.46-.63,2.08,2.08,0,0,1-.9-1.815,2.279,2.279,0,0,1,.4-1.342,2.642,2.642,0,0,1,1.155-.9,4.457,4.457,0,0,1,1.77-.322,7.729,7.729,0,0,1,1.935.225,7.49,7.49,0,0,1,1.59.6,8.179,8.179,0,0,1,1.282.817q.563.442,1.013.847L193.47-.255A16.421,16.421,0,0,0,191.8-1.65a7.365,7.365,0,0,0-1.612-.9,4.5,4.5,0,0,0-1.658-.315,1.966,1.966,0,0,0-1.027.24.75.75,0,0,0-.4.675.7.7,0,0,0,.4.66,2.131,2.131,0,0,0,.99.21,1.459,1.459,0,0,0,.735-.158.863.863,0,0,0,.382-.465,2.169,2.169,0,0,0,.113-.742q0-.39-.03-1.02t-.068-1.41q-.037-.78-.067-1.628t-.03-1.658q0-.855-.007-1.552t-.008-1.043q0-.165-.03-.465t-.075-.525Zm-7.32.165q-.045.15-.128.42t-.135.525q-.053.255-.083.39-.075.315-.165.848t-.187,1.2q-.1.668-.187,1.365t-.135,1.32q-.045.623-.045,1.073,0,.225.008.487a2.913,2.913,0,0,0,.053.487q.1-.27.217-.525t.232-.51q.12-.255.225-.51l.915.75q-.21.615-.428,1.29t-.39,1.275q-.173.6-.262,1-.03.15-.053.36a3.362,3.362,0,0,0-.022.345q0,.12.007.293t.023.322l-1.7.135a14.4,14.4,0,0,1-.42-2.033,19.34,19.34,0,0,1-.18-2.767q0-.84.075-1.763t.173-1.777q.1-.855.2-1.568t.165-1.148q.045-.315.09-.713t.06-.757Zm11.58.645h13.38V-9.24h-13.38Zm4.05,5.415h6.51v1.5h-6.51ZM198.54-8.055h7.575V-6.48H200.31V1.335h-1.77Zm7.215,0h1.77V-.6a2.866,2.866,0,0,1-.158,1.05,1.129,1.129,0,0,1-.622.6,3.13,3.13,0,0,1-1.11.255q-.66.045-1.575.045a4.985,4.985,0,0,0-.2-.878,5.868,5.868,0,0,0-.337-.863l.78.03q.39.015.7.015h.428a.467.467,0,0,0,.262-.075.271.271,0,0,0,.068-.21Zm-5.28-4.695,1.86.42a25.5,25.5,0,0,1-1.312,3.337,16.807,16.807,0,0,1-1.89,3.083,11.587,11.587,0,0,1-2.573,2.445q-.135-.195-.352-.457t-.435-.51a5.4,5.4,0,0,0-.4-.412,9.718,9.718,0,0,0,1.807-1.56,12.505,12.505,0,0,0,1.455-1.958,15.814,15.814,0,0,0,1.1-2.175A17.428,17.428,0,0,0,200.475-12.75Zm-.6,9.705h6.51v1.5h-6.51Zm12.975-9.63h1.65V1.3h-1.65ZM210.57-7.74h6.15v1.68h-6.15Zm1.95.885,1,.495q-.195.75-.45,1.582t-.57,1.658q-.315.825-.66,1.553A8.07,8.07,0,0,1,211.11-.3a4.677,4.677,0,0,0-.217-.623q-.143-.338-.3-.668t-.292-.57a8.261,8.261,0,0,0,.878-1.372q.427-.818.787-1.7A12.835,12.835,0,0,0,212.52-6.855Zm1.965.87q.12.12.352.375t.518.577q.285.323.548.645t.48.577a4.632,4.632,0,0,1,.307.39l-1.1,1.41q-.15-.33-.39-.773T214.68-3.7q-.285-.472-.555-.893t-.465-.69Zm-3.93-5.535,1.26-.33a12.065,12.065,0,0,1,.352,1.17q.157.63.262,1.23t.15,1.08l-1.35.36a8.643,8.643,0,0,0-.113-1.088q-.1-.607-.24-1.245A12.026,12.026,0,0,0,210.555-11.52Zm4.935-.4,1.515.33q-.18.615-.39,1.26T216.2-9.1q-.21.593-.39,1.043l-1.14-.33q.165-.48.323-1.1t.292-1.267Q215.415-11.4,215.49-11.925Zm5.685-.825h1.68V1.335h-1.68ZM216.69-3.36l7.71-1.38.27,1.665L216.96-1.68Zm.84-7.35.885-1.215q.42.24.878.555t.87.645a4.673,4.673,0,0,1,.652.615l-.93,1.35a4.306,4.306,0,0,0-.622-.645q-.4-.345-.848-.69T217.53-10.71Zm-.675,3.78.84-1.29a10.125,10.125,0,0,1,.93.532q.48.307.915.615a4.751,4.751,0,0,1,.705.593l-.915,1.44a4.794,4.794,0,0,0-.66-.622q-.42-.337-.893-.675A10.5,10.5,0,0,0,216.855-6.93Zm13.2,1.23a10.1,10.1,0,0,1-.4,2.94,9.914,9.914,0,0,1-1.072,2.4A10.122,10.122,0,0,1,227.1,1.5L225.675.87a11.814,11.814,0,0,0,1.357-1.785A8.989,8.989,0,0,0,228-3.082a9.026,9.026,0,0,0,.36-2.617A9.006,9.006,0,0,0,228-8.325a9.166,9.166,0,0,0-.967-2.168,11.042,11.042,0,0,0-1.357-1.778l1.425-.63a10.122,10.122,0,0,1,1.477,1.86,9.914,9.914,0,0,1,1.072,2.4A10.1,10.1,0,0,1,230.055-5.7Z" transform="translate(627 15778.617)" fill="#fff"/>
  </g>
</svg>
