<svg xmlns="http://www.w3.org/2000/svg" width="1094.45" height="616.232" viewBox="0 0 1094.45 616.232">
  <g id="info_pc" transform="translate(-410 -24052.551)">
    <g id="_白" transform="translate(410.01 24069)">
      <g id="グループ_556" data-name="グループ 556" transform="translate(-0.01)">
        <g id="グループ_554" data-name="グループ 554" transform="translate(0.013)">
          <path id="パス_3822" data-name="パス 3822" d="M0,112.775V100.844H4.362c1.651,0,2.469-.872,2.469-2.617V14.548c0-1.745-.819-2.617-2.469-2.617H0V0H32.009q14.253,0,21.54,10.763,7.267,10.77,7.274,29.539V71.439q.141,20.514-7.355,30.921t-22.05,10.4H0ZM29.687,100.4H32.6q4.368,0,6.254-2.912a13.389,13.389,0,0,0,1.892-7.422V22.695a13.289,13.289,0,0,0-1.892-7.489q-1.892-2.838-6.254-2.832H29.687a3.245,3.245,0,0,0-3.127,1.449,7.44,7.44,0,0,0-.805,3.637V95.449a7.1,7.1,0,0,0,.805,3.489,3.245,3.245,0,0,0,3.127,1.449Z" fill="#fff"/>
          <path id="パス_3823" data-name="パス 3823" d="M82.265,105.959q-10.911,0-17.1-8.079t-6.187-23.5V54.154q0-14.414,6.039-22.627t17.1-8.227q10.186,0,15.716,6.979t5.529,19.93V65.2H76.011V85.72c0,3.006.577,5.341,1.745,6.979a6.2,6.2,0,0,0,9.9,0A11.946,11.946,0,0,0,89.4,85.72V74.514h14.119v6.979q0,10.186-5.234,17.313t-16.011,7.126ZM76.011,54.879h11.5V42.948q0-8.878-5.825-8.871c-3.879,0-5.677,2.966-5.677,8.871V54.879Z" transform="translate(20.176 7.97)" fill="#fff"/>
          <path id="パス_3824" data-name="パス 3824" d="M124.573,100.844h4.657c1.449,0,2.188-.819,2.188-2.469V14.266c0-1.557-.725-2.322-2.188-2.322h-4.657V0h33.9V11.931H152.65c-1.449,0-2.188.778-2.188,2.322V96.469q0,4.509,3.637,4.509h3.932q9.321,0,9.166-19.648V67.949h10.334v44.812H124.56V100.83Z" transform="translate(42.609)" fill="#fff"/>
          <path id="パス_3825" data-name="パス 3825" d="M190.483,105.67a13.7,13.7,0,0,1-11.126-5.019q-4.147-5.013-4.147-14.186c0-6.106,1.382-10.965,4.147-14.843a36.79,36.79,0,0,1,10.7-9.891,29.849,29.849,0,0,0,8.8-7.932,17.23,17.23,0,0,0,2.832-9.972v-.148q0-5.234-2.04-7.489a6.285,6.285,0,0,0-4.8-2.255q-4.509,0-5.234,4.214a8.507,8.507,0,0,1,3.489,7.422,7.961,7.961,0,0,1-2.255,5.892,7.6,7.6,0,0,1-5.6,2.255,7.8,7.8,0,0,1-6.469-3.342,14.24,14.24,0,0,1-2.55-8.871,16.564,16.564,0,0,1,2.7-9.233,18.974,18.974,0,0,1,7.274-6.549,22.132,22.132,0,0,1,10.4-2.4q9.019,0,14.629,5.462t5.6,14.91V89.525q0,4.368,4.509,4.362h1.6V104.8c-.966.094-1.892.188-2.765.3a24.434,24.434,0,0,1-2.617.148,17.732,17.732,0,0,1-8.294-1.892,9.3,9.3,0,0,1-4.8-5.972,16.366,16.366,0,0,1-5.972,6.187,15.627,15.627,0,0,1-8,2.107Zm5.529-10.763a5.051,5.051,0,0,0,4.147-1.892,7.633,7.633,0,0,0,1.53-4.952V62.455a36.966,36.966,0,0,1-2.4,3.208c-.819.966-1.624,1.946-2.4,2.912a29.765,29.765,0,0,0-4.442,6.549,21.655,21.655,0,0,0-1.825,9.609q0,10.186,5.382,10.186Z" transform="translate(59.935 7.977)" fill="#fff"/>
          <path id="パス_3826" data-name="パス 3826" d="M0,210.34H4.657c1.449,0,2.188-.778,2.188-2.322V123.763c0-1.557-.725-2.322-2.188-2.322H0V109.51H54.421v44.812H44.087V140.5c.094-6.2-.6-10.992-2.107-14.333s-3.812-5.019-6.912-5.019h-4.8q-4.368,0-4.362,4.362v34.049h1.745c1.449,0,2.4-.456,2.832-1.382a9.083,9.083,0,0,0,.658-3.852v-11.5h7.851v45.4H31.566V177.016a11.848,11.848,0,0,0-.725-4.59c-.483-1.114-1.557-1.678-3.208-1.678H25.889v35.5a3.911,3.911,0,0,0,1.315,3.06,5.054,5.054,0,0,0,3.489,1.168H35.78c3.1,0,5.315-1.624,6.616-4.872s1.919-7.972,1.825-14.186l.148-13.971H54.555v44.812H0V210.327Z" transform="translate(0 37.461)" fill="#fff"/>
          <path id="パス_3827" data-name="パス 3827" d="M80.6,223.733a22.379,22.379,0,0,1-9.743-1.825q-3.785-1.812-5.972-2.979A1.129,1.129,0,0,0,63.5,219a1.645,1.645,0,0,0-.658,1.382v2.188H52.362V177.754H62.549l.148,8.737q.725,11.052,4.362,18.266t9.891,7.207q8.294,0,8.294-11.783a24.75,24.75,0,0,0-4.8-14.629q-4.811-6.764-10.616-13.609a91.309,91.309,0,0,1-13.246-17.9,40.628,40.628,0,0,1-5.086-20.077,29.793,29.793,0,0,1,2.979-13.971,20.428,20.428,0,0,1,7.932-8.509,21.257,21.257,0,0,1,10.763-2.832,20.107,20.107,0,0,1,8.8,1.678,42.352,42.352,0,0,1,5.315,2.979c1.262.577,1.892.148,1.892-1.315V109.8H100.53v44.812H90.2v-8.871q-.584-12.361-3.57-18.843c-1.986-4.322-4.778-6.469-8.361-6.469a7.732,7.732,0,0,0-6.039,2.7q-2.4,2.7-2.4,7.636a23.849,23.849,0,0,0,2.255,10.4A41.249,41.249,0,0,0,77.9,150.12c2.375,2.818,4.872,5.623,7.489,8.442a105.027,105.027,0,0,1,9.166,11.059,53.074,53.074,0,0,1,6.549,12.226,41.265,41.265,0,0,1,2.469,14.7q0,12.522-6.4,19.863a20.98,20.98,0,0,1-16.588,7.355Z" transform="translate(17.614 37.167)" fill="#fff"/>
          <path id="パス_3828" data-name="パス 3828" d="M100.51,210.34h4.362c1.651,0,2.469-.872,2.469-2.617V124.058c0-1.745-.819-2.617-2.469-2.617H100.51V109.51h30.411q8.737,0,14.763,3.785a24.271,24.271,0,0,1,9.166,10.334,33.4,33.4,0,0,1,3.127,14.548V151.7a33.715,33.715,0,0,1-3.127,14.7,24.358,24.358,0,0,1-9.166,10.334q-6.039,3.785-14.763,3.785h-4.952v27.2a2.313,2.313,0,0,0,2.617,2.617h5.825v11.931h-33.9V210.34Zm29.539-41.618q8.435,0,8.442-9.314V130.594a10.494,10.494,0,0,0-2.107-6.979,6.989,6.989,0,0,0-5.6-2.469h-1.6a2.957,2.957,0,0,0-2.55.939,4.352,4.352,0,0,0-.658,2.55v44.087h4.08Z" transform="translate(34.382 37.461)" fill="#fff"/>
          <path id="パス_3829" data-name="パス 3829" d="M148.547,222.271V210.34h2.912c1.355,0,2.134-.819,2.322-2.469l17.608-98.361h16.293l17.46,98.361a6.061,6.061,0,0,0,.725,1.825,1.765,1.765,0,0,0,1.6.658h2.912v11.931H178.65V210.354h5.677c1.839,0,2.617-1.02,2.322-3.06l-1.892-12.079H168.168l-1.745,12.079c-.389,2.04.389,3.06,2.322,3.06h5.677v11.931h-25.9Zm21.245-38.41h13.246l-6.7-41.323-6.549,41.323Z" transform="translate(50.805 37.461)" fill="#fff"/>
          <path id="パス_3830" data-name="パス 3830" d="M204.26,229.469V217.538h4.362c1.651,0,2.469-.872,2.469-2.617V131.255c0-1.745-.819-2.617-2.469-2.617H204.26V116.707h28.09l19.5,72.325-.148-15.42V131.269a2.313,2.313,0,0,0-2.617-2.617h-5.529V116.721h26.2v11.931h-3.342a2.313,2.313,0,0,0-2.617,2.617v98.213H246.187l-23.137-79.008v64.46a2.313,2.313,0,0,0,2.617,2.617h5.677v11.931h-27.07ZM220.848,108.99q-.443-10.186,2.832-15.353c2.188-3.436,4.966-5.167,8.361-5.167A9.8,9.8,0,0,1,237.06,89.7a12.972,12.972,0,0,1,3.852,3.57c1.262,1.449,2.376,2.671,3.342,3.637a4.311,4.311,0,0,0,3.06,1.449c1.449,0,2.5-.846,3.127-2.55a20.946,20.946,0,0,0,1.087-6.469h5.086q.443,10.186-3.127,15.353c-2.375,3.449-5.221,5.167-8.509,5.167a8.785,8.785,0,0,1-4.952-1.449,21.354,21.354,0,0,1-4.214-3.785c-1.074-1.356-2.013-2.469-2.832-3.342a3.8,3.8,0,0,0-2.832-1.315,3.262,3.262,0,0,0-3.127,2.469,20.784,20.784,0,0,0-1.087,6.549h-5.086Z" transform="translate(69.873 30.264)" fill="#fff"/>
          <path id="パス_3831" data-name="パス 3831" d="M260.757,222.271V210.34h2.912c1.356,0,2.134-.819,2.322-2.469L283.6,109.51h16.293l17.46,98.361a6.062,6.062,0,0,0,.725,1.825,1.765,1.765,0,0,0,1.6.658h2.912v11.931H290.86V210.354h5.677c1.839,0,2.617-1.02,2.322-3.06l-1.892-12.079H280.378l-1.745,12.079c-.389,2.04.389,3.06,2.322,3.06h5.677v11.931h-25.9ZM282,183.861h13.246l-6.7-41.323Z" transform="translate(89.19 37.461)" fill="#fff"/>
        </g>
        <g id="グループ_555" data-name="グループ 555" transform="translate(0 345.504)">
          <path id="パス_3832" data-name="パス 3832" d="M23.785,289.573a56.669,56.669,0,0,0-7.529-10.455,32.062,32.062,0,0,1-13,10.643l-3.261-4.6a26.07,26.07,0,0,0,17.152-20.225L3.4,265.08v-5.1h20a44,44,0,0,1-4.415,14.8A62.859,62.859,0,0,1,27.7,284.969l-3.932,4.6Z" transform="translate(0.01 -256.571)" fill="#fff"/>
          <path id="パス_3833" data-name="パス 3833" d="M48.87,290.176c-4.268-6.818-9.287-16.521-12.253-21.393-.564-.939-1.194-1.53-1.879-1.53-.483,0-1.047.416-1.463,1.382-1.315,2.926-3.3,8.616-5.315,13.3l-4.16-4.12c1.839-3.7,4.536-9.743,6.187-12.817a5.307,5.307,0,0,1,4.684-3.221,6.245,6.245,0,0,1,5.06,2.953c2.993,4.389,8.576,14.535,12.777,20.306l-3.637,5.127Zm-6.294-25.7c0-3.114,2.027-5.355,4.6-5.355s4.6,2.241,4.6,5.355-2.027,5.355-4.6,5.355S42.576,267.588,42.576,264.475Zm6.63,0a2.073,2.073,0,1,0-2.027,2.51A2.254,2.254,0,0,0,49.206,264.475Z" transform="translate(8.155 -256.865)" fill="#fff"/>
          <path id="パス_3834" data-name="パス 3834" d="M61.76,291.525l.081-16.561a59.691,59.691,0,0,1-10.146,6.214l-3.7-4.5A41.963,41.963,0,0,0,70.242,257.57l4.872,2.8a61.69,61.69,0,0,1-8.133,10.5c0,3.637.04,10.522.04,20.681l-5.248-.04Z" transform="translate(16.43 -257.396)" fill="#fff"/>
          <path id="パス_3835" data-name="パス 3835" d="M82.207,270.866a35.9,35.9,0,0,0-9.247-7.234l3.489-3.932c2.027,1.007,6.71,3.785,9.287,6.63l-3.516,4.536Zm-8.388,14.307c13.528-2.657,18.655-10.5,20.749-23.191l4.764,2.8c-1.691,8.348-5.127,20.977-22.359,25.325l-3.14-4.939Z" transform="translate(24.971 -256.667)" fill="#fff"/>
          <path id="パス_3836" data-name="パス 3836" d="M113.031,290.221a67.415,67.415,0,0,0-13.676-16.145l4.12-2.845a60.524,60.524,0,0,1,5.878,5.65,23.169,23.169,0,0,0,7.381-11.73l-20.225.228V260.4h26.815A31.254,31.254,0,0,1,112.8,280.585a69.277,69.277,0,0,1,4.576,6.187l-4.348,3.449Z" transform="translate(33.027 -256.427)" fill="#fff"/>
          <path id="パス_3837" data-name="パス 3837" d="M120.73,273.4V268.38h26.144V273.4H120.73Z" transform="translate(41.312 -253.698)" fill="#fff"/>
          <path id="パス_3838" data-name="パス 3838" d="M147.118,287.517c10.267-2.966,12.777-10.079,13.26-18.574h-6.63a21.5,21.5,0,0,1-5.5,8.133l-4.456-3.181c5.127-4.2,7.006-11.126,7.61-16.1l5.127.631a38.171,38.171,0,0,1-1.194,5.65h16.481v4.872h-6.335c-.443,9.14-2.845,18.883-14.83,23.111l-3.516-4.536Z" transform="translate(49.201 -257.32)" fill="#fff"/>
          <path id="パス_3839" data-name="パス 3839" d="M173.228,276.158A60.99,60.99,0,0,0,170.49,265.6l3.932-.98a59.01,59.01,0,0,1,2.7,10.119Zm-.336,9.368c9.7-2.885,13.783-9.247,14.092-21.8l4.724.631c-1.087,12.4-3.892,20.829-15.434,25.03l-3.369-3.852Zm6.777-10.5a57.129,57.129,0,0,0-2.174-10.415l4.08-.792A68.484,68.484,0,0,1,183.79,273.9l-4.12,1.127Z" transform="translate(58.334 -255.288)" fill="#fff"/>
          <path id="パス_3840" data-name="パス 3840" d="M215.294,280.13a81.05,81.05,0,0,0-14.266-7.274v18.7l-5.248-.04V257.69h5.248v9.663a117.9,117.9,0,0,1,16.856,7.569Z" transform="translate(66.985 -257.354)" fill="#fff"/>
          <path id="パス_3841" data-name="パス 3841" d="M218.536,285.787c13.3-3.516,16.937-12.253,17.648-21.2-5.167.107-18.574.3-18.574.3V259.71s22.144-.04,24.386-.04c-.376,15.877-6.106,26.291-19.635,30.64l-3.825-4.536Z" transform="translate(74.453 -256.677)" fill="#fff"/>
          <path id="パス_3842" data-name="パス 3842" d="M242.38,286.863v-4.308h8.348V269.147l-7.3.04V264.96h19.447v4.228l-7.381-.04v13.407h8.536v4.308H242.38Z" transform="translate(82.926 -254.868)" fill="#fff"/>
          <path id="パス_3843" data-name="パス 3843" d="M287.805,289.573a56.67,56.67,0,0,0-7.529-10.455,32.062,32.062,0,0,1-13,10.643l-3.261-4.6a26.07,26.07,0,0,0,17.152-20.225l-13.743.148v-5.1h20a44,44,0,0,1-4.415,14.8,62.857,62.857,0,0,1,8.723,10.186l-3.932,4.6Z" transform="translate(90.325 -256.571)" fill="#fff"/>
          <path id="パス_3844" data-name="パス 3844" d="M289.738,287.744a23.689,23.689,0,0,0,13.823-7.636,58.6,58.6,0,0,0-6.67-4.939l3.033-3.489a62.729,62.729,0,0,1,6.361,4.5,26.608,26.608,0,0,0,3.114-9.408h-8.8a35.753,35.753,0,0,1-8.723,11.018l-3.852-3.637c5.838-3.973,9.623-11.273,10.978-16.709l5.06,1.047c-.416,1.275-.9,2.617-1.423,3.932,3.556,0,10.562-.08,12.213-.08-.98,10.562-4.415,24.949-21.393,29.593l-3.7-4.2Z" transform="translate(98.539 -257.44)" fill="#fff"/>
        </g>
        <rect id="長方形_649" data-name="長方形 649" width="413.36" height="20.628" transform="translate(0.013 290.546)" fill="#fff"/>
      </g>
    </g>
    <path id="パス_4804" data-name="パス 4804" d="M9.4-37.75q1.2.2,2.65.3t2.7.1H31.1q1.3,0,2.7-.1t2.7-.3v6.45q-1.3-.1-2.7-.125t-2.7-.025H14.75q-1.3,0-2.75.025T9.4-31.3ZM3.6-24.95q1.1.15,2.375.225T8.4-24.65H41.15q.8,0,2.175-.075T45.7-24.95v6.5q-.9-.1-2.2-.125T41.15-18.6H8.4q-1.1,0-2.425.05T3.6-18.4Zm25.6,3.5a40.867,40.867,0,0,1-.85,8.725A28.424,28.424,0,0,1,25.9-5.75a17.815,17.815,0,0,1-2.375,3.5,26.9,26.9,0,0,1-3.475,3.4,21.46,21.46,0,0,1-4.2,2.7L10-.4a18.589,18.589,0,0,0,5.1-2.975A19.623,19.623,0,0,0,19.05-7.55,16.871,16.871,0,0,0,21.6-13.9a41.37,41.37,0,0,0,.65-7.55ZM39.5-41.2q.65.9,1.375,2.15t1.4,2.5q.675,1.25,1.175,2.2l-4,1.75q-.8-1.55-1.875-3.525A38.451,38.451,0,0,0,35.5-39.55Zm5.9-2.25q.65.95,1.4,2.225t1.475,2.5Q49-37.5,49.45-36.65l-4,1.75q-.75-1.6-1.875-3.55T41.45-41.8ZM75-25.4a6.038,6.038,0,0,1,3.225.875,6.9,6.9,0,0,1,2.3,2.3A6.038,6.038,0,0,1,81.4-19a6.076,6.076,0,0,1-.875,3.2,6.823,6.823,0,0,1-2.3,2.325A6.038,6.038,0,0,1,75-12.6a6.076,6.076,0,0,1-3.2-.875A6.749,6.749,0,0,1,69.475-15.8,6.076,6.076,0,0,1,68.6-19a6.038,6.038,0,0,1,.875-3.225,6.823,6.823,0,0,1,2.325-2.3A6.076,6.076,0,0,1,75-25.4Zm36.15-12.95a23.773,23.773,0,0,0,2.5.2q1.45.05,2.7.05H135.6q1.15,0,2.75-.05a24.783,24.783,0,0,0,2.65-.2v6.45q-1-.1-2.575-.125T135.5-32.05H116.35q-1.2,0-2.625.05t-2.575.1Zm34.05,14.5q-.25.5-.525,1.1t-.425,1a55.068,55.068,0,0,1-2.875,7.175A28.26,28.26,0,0,1,136.85-7.9a32.94,32.94,0,0,1-8.4,6.825A42.748,42.748,0,0,1,119,2.9l-4.95-5.65a39.179,39.179,0,0,0,10.05-3.5,28.021,28.021,0,0,0,7.25-5.25,19.337,19.337,0,0,0,3.225-4.325A28.861,28.861,0,0,0,136.5-20.15H112.35q-.9,0-2.55.05t-3.25.2v-6.5q1.6.1,3.125.2t2.675.1H137.1a14.378,14.378,0,0,0,2.175-.15,7.118,7.118,0,0,0,1.475-.35ZM175-25.4a6.038,6.038,0,0,1,3.225.875,6.9,6.9,0,0,1,2.3,2.3A6.038,6.038,0,0,1,181.4-19a6.076,6.076,0,0,1-.875,3.2,6.823,6.823,0,0,1-2.3,2.325A6.038,6.038,0,0,1,175-12.6a6.076,6.076,0,0,1-3.2-.875,6.749,6.749,0,0,1-2.325-2.325A6.076,6.076,0,0,1,168.6-19a6.038,6.038,0,0,1,.875-3.225,6.823,6.823,0,0,1,2.325-2.3A6.076,6.076,0,0,1,175-25.4Zm31.95-9.5q1,.1,2.35.2t2.4.1h27.2q1.15,0,2.4-.1t2.3-.2v6.85q-1.1-.1-2.35-.15t-2.35-.05H211.7q-1,0-2.4.05t-2.35.15Zm14.4,30.75v-26.9h7v26.9ZM203.7-8.25q1.2.2,2.5.3t2.45.1H241.6a24.65,24.65,0,0,0,2.55-.125q1.2-.125,2.15-.275V-1q-1.1-.15-2.45-.2t-2.25-.05H208.65q-1.1,0-2.4.05T203.7-1Zm88-25.65q-.3.45-.875,1.4a10.675,10.675,0,0,0-.875,1.75q-1.05,2.35-2.575,5.25t-3.45,5.825A57.637,57.637,0,0,1,279.85-14.2a83.4,83.4,0,0,1-6.175,6.225,67.655,67.655,0,0,1-7.1,5.65A54.44,54.44,0,0,1,258.95,2.1L253.8-3.3a46.515,46.515,0,0,0,7.85-3.9,58.63,58.63,0,0,0,7.05-5.1,58.359,58.359,0,0,0,5.6-5.35,44.947,44.947,0,0,0,3.125-4.05,47.7,47.7,0,0,0,2.625-4.275,21.674,21.674,0,0,0,1.7-3.925H264.8q-1.05,0-2.2.075t-2.175.15q-1.025.075-1.575.125v-7.1q.75.05,1.85.15t2.225.15q1.125.05,1.875.05h17.65a21.1,21.1,0,0,0,3.025-.2,12.994,12.994,0,0,0,2.125-.45ZM280.5-18.35q1.95,1.55,4.15,3.6T289-10.5q2.15,2.2,3.975,4.225T296.05-2.75l-5.7,4.95q-1.85-2.55-4.225-5.3t-5-5.475Q278.5-11.3,275.8-13.75Zm59.55-17.6a2.712,2.712,0,0,0,.85,2.025,2.837,2.837,0,0,0,2.05.825,2.837,2.837,0,0,0,2.05-.825,2.712,2.712,0,0,0,.85-2.025A2.794,2.794,0,0,0,345-38a2.794,2.794,0,0,0-2.05-.85,2.794,2.794,0,0,0-2.05.85A2.794,2.794,0,0,0,340.05-35.95Zm-3.1,0a5.77,5.77,0,0,1,.825-3.025,6.179,6.179,0,0,1,2.175-2.175,5.774,5.774,0,0,1,3-.8,5.774,5.774,0,0,1,3,.8,6.179,6.179,0,0,1,2.175,2.175,5.769,5.769,0,0,1,.825,3.025,5.551,5.551,0,0,1-.825,2.95,6.465,6.465,0,0,1-2.175,2.175,5.64,5.64,0,0,1-3,.825,5.64,5.64,0,0,1-3-.825A6.465,6.465,0,0,1,337.775-33,5.551,5.551,0,0,1,336.95-35.95ZM309.6-15.55q.85-2.1,1.625-4.425t1.375-4.8q.6-2.475,1.075-4.925a45.185,45.185,0,0,0,.675-4.85l7.3,1.5q-.2.7-.45,1.65t-.45,1.85q-.2.9-.3,1.5-.25,1.3-.7,3.15t-1.05,3.925q-.6,2.075-1.225,4.15T316.2-13q-.9,2.4-2.125,5t-2.6,5Q310.1-.6,308.8,1.3l-7-2.95a53.389,53.389,0,0,0,4.475-6.85A54.756,54.756,0,0,0,309.6-15.55Zm24.7-1.05q-.75-2-1.65-4.25t-1.9-4.5q-1-2.25-1.95-4.25t-1.75-3.45l6.65-2.15q.75,1.45,1.75,3.5t2,4.325q1,2.275,1.95,4.525t1.7,4.05q.65,1.65,1.425,3.9t1.6,4.675q.825,2.425,1.55,4.725T346.9-1.35l-7.4,2.4q-.65-2.95-1.5-6t-1.775-6Q335.3-13.9,334.3-16.6Zm20.3-6.55,2.3.125q1.4.075,2.925.125t2.825.05H389.5q1.75,0,3.3-.125t2.55-.175v7.85l-2.55-.15q-1.7-.1-3.3-.1H362.65q-2.15,0-4.4.075t-3.65.175Zm53.9-10.8q1.35.15,2.975.225t2.875.075h20.7q1.5,0,3-.1t2.55-.2v7.25l-2.65-.125q-1.6-.075-2.9-.075H414.4q-1.45,0-3.05.05t-2.85.15ZM404.3-9.5q1.5.1,3.125.2t3.125.1h28.7q1.3,0,2.775-.075T444.75-9.5v7.65q-1.3-.15-2.85-.225t-2.65-.075h-28.7q-1.5,0-3.175.075T404.3-1.85ZM470-31.75q.15.85.375,1.825t.425,1.975q.45,1.45,1.075,3.75t1.375,5.05q.75,2.75,1.525,5.575t1.525,5.4q.75,2.575,1.3,4.55T478.45-.6a6.2,6.2,0,0,1,.4,1.2q.2.8.475,1.6t.475,1.3L473,5.2q-.15-1.05-.35-2.2A15.163,15.163,0,0,0,472.1.8q-.3-1.1-.85-3.175T470-7.1q-.7-2.65-1.475-5.5t-1.475-5.575q-.7-2.725-1.325-4.95T464.7-26.6a13.351,13.351,0,0,0-.625-1.9q-.375-.9-.775-1.65Zm24,7.7a36.42,36.42,0,0,1-2.025,3.75Q490.7-18.2,489.2-16t-3,4.175Q484.7-9.85,483.35-8.4l-5.5-2.75a31.57,31.57,0,0,0,2.75-2.8q1.45-1.65,2.725-3.325A19.054,19.054,0,0,0,485.2-20.15q-.55.1-2.075.4T479.45-19q-2.15.45-4.675.975T469.7-16.95q-2.55.55-4.85,1.025t-4.05.85q-1.75.375-2.65.575l-1.55-6q1.2-.1,2.3-.25t2.3-.35l2.125-.35q1.525-.25,3.65-.65t4.575-.875q2.45-.475,4.95-.95t4.7-.9q2.2-.425,3.85-.75t2.4-.525a8.784,8.784,0,0,0,1.35-.325A8.571,8.571,0,0,0,490-26.9ZM41.7,32.1q-.3.45-.875,1.4a10.676,10.676,0,0,0-.875,1.75Q38.9,37.6,37.375,40.5t-3.45,5.825A57.636,57.636,0,0,1,29.85,51.8a83.4,83.4,0,0,1-6.175,6.225,67.653,67.653,0,0,1-7.1,5.65A54.44,54.44,0,0,1,8.95,68.1L3.8,62.7a46.515,46.515,0,0,0,7.85-3.9,58.632,58.632,0,0,0,7.05-5.1,58.36,58.36,0,0,0,5.6-5.35,44.953,44.953,0,0,0,3.125-4.05,47.7,47.7,0,0,0,2.625-4.275,21.675,21.675,0,0,0,1.7-3.925H14.8q-1.05,0-2.2.075t-2.175.15Q9.4,36.4,8.85,36.45v-7.1q.75.05,1.85.15t2.225.15q1.125.05,1.875.05H32.45a21.1,21.1,0,0,0,3.025-.2,12.994,12.994,0,0,0,2.125-.45ZM30.5,47.65q1.95,1.55,4.15,3.6T39,55.5q2.15,2.2,3.975,4.225T46.05,63.25l-5.7,4.95q-1.85-2.55-4.225-5.3t-5-5.475Q28.5,54.7,25.8,52.25ZM82.65,35.4a3.158,3.158,0,0,0,3.15,3.15,3.092,3.092,0,0,0,2.275-.925A3.033,3.033,0,0,0,89,35.4a3.159,3.159,0,0,0-3.2-3.2,3.033,3.033,0,0,0-2.225.925A3.092,3.092,0,0,0,82.65,35.4Zm-3.3,0a6.261,6.261,0,0,1,.875-3.3,6.749,6.749,0,0,1,2.325-2.325A6.167,6.167,0,0,1,85.8,28.9a6.261,6.261,0,0,1,3.3.875A6.749,6.749,0,0,1,91.425,32.1a6.519,6.519,0,0,1,0,6.525,6.681,6.681,0,0,1-2.325,2.35,6.261,6.261,0,0,1-3.3.875,6.167,6.167,0,0,1-3.25-.875,6.681,6.681,0,0,1-2.325-2.35A6.206,6.206,0,0,1,79.35,35.4ZM48.25,51.75q1.15-.95,2.05-1.8t2.1-2q.85-.9,1.95-2.15T56.725,43Q58,41.45,59.35,39.825T62,36.65a7.222,7.222,0,0,1,4.55-2.925q2.35-.275,5.25,2.525,1.7,1.55,3.475,3.35t3.5,3.6Q80.5,45,82,46.65q1.7,1.75,3.825,4.05t4.35,4.7L94.3,59.85l-5.5,5.9q-1.65-2.1-3.55-4.4t-3.7-4.475Q79.75,54.7,78.25,53q-1.05-1.3-2.375-2.775L73.25,47.3q-1.3-1.45-2.4-2.6T69.1,42.85a3.053,3.053,0,0,0-2.125-1.125A3.288,3.288,0,0,0,65,43.15q-.7.95-1.7,2.25t-2.05,2.75q-1.05,1.45-2.025,2.8T57.5,53.3q-.85,1.2-1.7,2.425T54.25,57.95Zm51.35-5.2a87.5,87.5,0,0,0,12.225-4.075A72.725,72.725,0,0,0,121.45,37.6a54.55,54.55,0,0,0,5.225-3.675q2.625-2.075,4.95-4.275a41.946,41.946,0,0,0,3.925-4.2l5.4,5.15q-2.3,2.25-5.025,4.55t-5.675,4.4q-2.95,2.1-5.85,3.85-2.85,1.65-6.375,3.4T110.6,50.1q-3.9,1.55-7.85,2.75Zm20.8-5.75,7.1-1.65v22.5q0,1.1.05,2.4t.15,2.425a11.928,11.928,0,0,0,.25,1.725h-7.9q.1-.6.175-1.725t.125-2.425q.05-1.3.05-2.4ZM158.55,28q1.3.9,3.05,2.2t3.625,2.825Q167.1,34.55,168.75,36a34.88,34.88,0,0,1,2.7,2.6l-5.1,5.2q-.95-1.05-2.5-2.5t-3.35-3q-1.8-1.55-3.55-2.95T153.85,33ZM152.3,61.3a52.953,52.953,0,0,0,7.35-1.55,51.246,51.246,0,0,0,6.4-2.3,58.192,58.192,0,0,0,5.4-2.7,48.353,48.353,0,0,0,7.8-5.8,49.717,49.717,0,0,0,6.2-6.775,38.322,38.322,0,0,0,4.2-6.875l3.9,7.05a46.555,46.555,0,0,1-4.675,6.7,53.805,53.805,0,0,1-6.275,6.375,52.265,52.265,0,0,1-7.55,5.425,56.7,56.7,0,0,1-5.5,2.925,56.235,56.235,0,0,1-6.225,2.45A46.929,46.929,0,0,1,156.5,67.9Zm91.85-26.8q-.55.6-.975,1.1a7.543,7.543,0,0,0-.725,1q-1.5,2.4-3.55,5.2t-4.55,5.65q-2.5,2.85-5.275,5.5a56.366,56.366,0,0,1-5.725,4.8L218.4,53.1a39.418,39.418,0,0,0,4.725-3.775q2.225-2.075,4.15-4.225t3.425-4.2q1.5-2.05,2.5-3.75H206.75q-1,0-2.125.05t-2.125.15l-1.5.15v-7q.65.05,1.675.2t2.125.2q1.1.05,1.95.05H234.5a15.658,15.658,0,0,0,4.65-.55Zm-26.4,23.95q-1.1-1.1-2.525-2.425t-2.95-2.675q-1.525-1.35-2.95-2.525T206.75,48.85l5.3-4.25q1,.75,2.375,1.85t2.925,2.4q1.55,1.3,3.15,2.7t3.05,2.75q1.65,1.6,3.425,3.45t3.4,3.6Q232,63.1,233.15,64.6l-5.85,4.65q-1.05-1.4-2.675-3.275T221.2,62.1Q219.4,60.1,217.75,58.45Zm33.35-15.6,2.3.125q1.4.075,2.925.125t2.825.05H286q1.75,0,3.3-.125t2.55-.175V50.7l-2.55-.15q-1.7-.1-3.3-.1H259.15q-2.15,0-4.4.075t-3.65.175Zm67.85-16q-.45.95-.9,2.1t-.75,1.95q-.45,1.25-1.075,2.8t-1.3,3.125Q314.25,38.4,313.55,39.7a40.834,40.834,0,0,1-2.375,4.075,50.892,50.892,0,0,1-3.025,4.15,25.953,25.953,0,0,1-3.3,3.425l-6.25-3.8a16.943,16.943,0,0,0,2.575-2.25q1.225-1.3,2.35-2.7t2.075-2.775q.95-1.375,1.65-2.575a24.934,24.934,0,0,0,1.725-3.55q.725-1.85,1.175-3.25a18.378,18.378,0,0,0,.725-2.625A16.655,16.655,0,0,0,311.2,25.3Zm-7.9,7.7h26.4q1,0,2.5-.075a23.751,23.751,0,0,0,2.7-.275v6.85q-1.4-.15-2.875-.175t-2.325-.025H310.5Zm19.5,3.6a50.082,50.082,0,0,1-1.15,10.175,35.452,35.452,0,0,1-2.975,8.375,30.264,30.264,0,0,1-4.725,6.775,31.209,31.209,0,0,1-6.4,5.275l-6.75-4.55a20.87,20.87,0,0,0,2.6-1.275,15.532,15.532,0,0,0,2.15-1.475,26.51,26.51,0,0,0,3.975-3.775,24.465,24.465,0,0,0,3.25-4.95,28.233,28.233,0,0,0,2.25-6.425,38.527,38.527,0,0,0,.875-8.15Zm41.2-1.85q.35.8.925,2.275t1.225,3.15q.65,1.675,1.15,3.175t.8,2.35l-6,2.1a20.864,20.864,0,0,0-.7-2.4q-.5-1.45-1.1-3.075t-1.2-3.125q-.6-1.5-1.05-2.5Zm18.45,3.65q-.4,1.2-.675,2.05T389,43.6a47.927,47.927,0,0,1-2.6,7.575,33.43,33.43,0,0,1-4.2,7.075,37.248,37.248,0,0,1-7.925,7.625,39.274,39.274,0,0,1-8.825,4.775L360.2,65.3a33.891,33.891,0,0,0,5.8-2.225,37.362,37.362,0,0,0,5.9-3.575,26.113,26.113,0,0,0,4.9-4.65,25.889,25.889,0,0,0,3.025-4.925,35.94,35.94,0,0,0,2.2-5.95A37.021,37.021,0,0,0,383.2,37.7Zm-30.05-1q.5.95,1.125,2.45t1.275,3.15q.65,1.65,1.275,3.2t.975,2.6l-6.1,2.3q-.3-1-.875-2.6t-1.275-3.375q-.7-1.775-1.325-3.275a22.934,22.934,0,0,0-1.075-2.3ZM412.2,61.2V32.45q0-1.3-.125-3a26.241,26.241,0,0,0-.375-3h7.8q-.15,1.3-.3,2.875t-.15,3.125V61.2q0,.7.05,1.975t.2,2.625q.15,1.35.2,2.4h-7.8q.2-1.5.35-3.5T412.2,61.2Zm5.35-21.8q2.5.65,5.6,1.675t6.25,2.175q3.15,1.15,5.925,2.275T439.95,47.6l-2.85,6.9q-2.1-1.1-4.65-2.225T427.275,50.1q-2.625-1.05-5.15-1.95t-4.575-1.6Zm73.4-6.7a9.583,9.583,0,0,0-.625,1.675q-.275.975-.475,1.825-.4,1.8-1.05,4.1t-1.55,4.75a44.156,44.156,0,0,1-2.125,4.85,32.248,32.248,0,0,1-2.775,4.5,38.222,38.222,0,0,1-5.25,5.575,39.392,39.392,0,0,1-6.7,4.7,45.324,45.324,0,0,1-8.15,3.525l-5.45-5.95a42.115,42.115,0,0,0,8.575-2.975,32.082,32.082,0,0,0,6.325-4,30.96,30.96,0,0,0,4.7-4.775,24.458,24.458,0,0,0,2.825-4.55,36.289,36.289,0,0,0,1.95-4.95,29.992,29.992,0,0,0,1.075-4.6h-23.3q-1.7,0-3.325.05T453,36.6V29.55q.8.05,1.85.15t2.2.175q1.15.075,1.95.075h23.1q.75,0,1.85-.075A10.987,10.987,0,0,0,486,29.55Zm15.4,6.2a15.551,15.551,0,0,0,2,.2q1.15.05,1.95.05h22.9q.9,0,1.95-.05a16.728,16.728,0,0,0,1.95-.2v6.3q-.95-.1-2-.15T533.2,45H510.3q-.8,0-1.95.05t-2,.15ZM518.1,64.5V42.35h6.55V64.5Zm-14.3-3.7q.95.1,2.05.2t2.05.1h27.65a15.92,15.92,0,0,0,2.025-.125q.975-.125,1.775-.175v6.55a14.251,14.251,0,0,0-1.975-.2q-1.175-.05-1.825-.05H507.9q-.9,0-2,.05a20.412,20.412,0,0,0-2.1.2Zm84.4-28.7q-.3.45-.875,1.4a10.675,10.675,0,0,0-.875,1.75q-1.05,2.35-2.575,5.25t-3.45,5.825A57.632,57.632,0,0,1,576.35,51.8a83.4,83.4,0,0,1-6.175,6.225,67.652,67.652,0,0,1-7.1,5.65A54.442,54.442,0,0,1,555.45,68.1l-5.15-5.4a46.517,46.517,0,0,0,7.85-3.9A60.373,60.373,0,0,0,570.8,48.35a44.947,44.947,0,0,0,3.125-4.05,47.7,47.7,0,0,0,2.625-4.275,21.674,21.674,0,0,0,1.7-3.925H561.3q-1.05,0-2.2.075t-2.175.15q-1.025.075-1.575.125v-7.1q.75.05,1.85.15t2.225.15q1.125.05,1.875.05h17.65a21.1,21.1,0,0,0,3.025-.2,12.993,12.993,0,0,0,2.125-.45ZM577,47.65q1.95,1.55,4.15,3.6t4.35,4.25q2.15,2.2,3.975,4.225t3.075,3.525l-5.7,4.95q-1.85-2.55-4.225-5.3t-5-5.475Q575,54.7,572.3,52.25Zm40.95-5.05q2.3,1.3,5.025,3.075T628.5,49.35q2.8,1.9,5.275,3.7t4.175,3.2L633.2,61.9q-1.65-1.5-4.075-3.475t-5.225-4.05q-2.8-2.075-5.525-3.975T613.5,47.15Zm23.5-8.5a14.719,14.719,0,0,0-.9,1.65,14.971,14.971,0,0,0-.75,1.9,51.255,51.255,0,0,1-2.025,5.125,56.481,56.481,0,0,1-3.025,5.75,50.708,50.708,0,0,1-4,5.725,54.111,54.111,0,0,1-8.525,8.35,45.616,45.616,0,0,1-12.175,6.7l-5.8-5.05a44.49,44.49,0,0,0,9.1-3.8,39.926,39.926,0,0,0,6.675-4.7,47.689,47.689,0,0,0,4.925-5,34.97,34.97,0,0,0,3.225-4.375,43.541,43.541,0,0,0,2.65-4.85A23.214,23.214,0,0,0,632.4,37.2H615.5l2.3-5.7H632a18.736,18.736,0,0,0,2.375-.15,11.707,11.707,0,0,0,1.975-.4Zm-16.5-7.7q-.9,1.3-1.775,2.8t-1.325,2.3a55.022,55.022,0,0,1-4.3,6.375,66.132,66.132,0,0,1-5.825,6.575,50.932,50.932,0,0,1-6.825,5.7L599.5,46a43.445,43.445,0,0,0,7.475-5.775,47.262,47.262,0,0,0,5.125-5.85,55.173,55.173,0,0,0,3.3-5.025,16.561,16.561,0,0,0,1.275-2.425A20.821,20.821,0,0,0,617.7,24.15Z" transform="translate(863 24096)" fill="#fff"/>
    <path id="パス_4803" data-name="パス 4803" d="M8.757-43.974q1.26.126,2.961.252t3.024.126H49.014q1.449,0,3.024-.126t2.9-.252v8.631q-1.386-.126-2.961-.189T49.014-35.6H14.742q-1.26,0-3.024.063t-2.961.189ZM26.9-5.229V-39.123h8.82V-5.229ZM4.662-10.4q1.512.252,3.15.378t3.087.126H52.416a31.06,31.06,0,0,0,3.213-.157q1.512-.158,2.709-.347V-1.26q-1.386-.189-3.087-.252t-2.835-.063H10.9q-1.386,0-3.024.063T4.662-1.26Zm70.182-37.17q1.512.252,3.339.378t3.4.126h20.6q1.638,0,3.4-.126t3.4-.378v8.127q-1.638-.126-3.4-.157t-3.4-.032h-20.6q-1.638,0-3.465.032t-3.276.157ZM67.536-31.437q1.386.189,2.993.283t3.055.095h41.265q1.008,0,2.741-.095t2.993-.283v8.19q-1.134-.126-2.772-.157t-2.961-.032H73.584q-1.386,0-3.055.063t-2.993.189Zm32.256,4.41a51.492,51.492,0,0,1-1.071,10.993,35.814,35.814,0,0,1-3.087,8.789,22.447,22.447,0,0,1-2.993,4.41,33.888,33.888,0,0,1-4.378,4.284,27.04,27.04,0,0,1-5.292,3.4L75.6-.5a23.423,23.423,0,0,0,6.426-3.749A24.725,24.725,0,0,0,87-9.513a21.257,21.257,0,0,0,3.213-8,52.126,52.126,0,0,0,.819-9.513ZM112.77-51.912q.819,1.134,1.732,2.709t1.764,3.15q.851,1.575,1.481,2.772l-5.04,2.2q-1.008-1.953-2.363-4.442a48.447,48.447,0,0,0-2.615-4.315Zm7.434-2.835q.819,1.2,1.764,2.8t1.858,3.15q.914,1.543,1.481,2.615l-5.04,2.2q-.945-2.016-2.362-4.473t-2.677-4.221Zm8.127,36.792a63.949,63.949,0,0,0,8.348-2.426,84.976,84.976,0,0,0,7.969-3.339q3.717-1.8,6.237-3.244a62.4,62.4,0,0,0,6.079-4.252q2.993-2.363,5.512-4.757a37.833,37.833,0,0,0,4.1-4.473l6.237,6.111a43.446,43.446,0,0,1-4.819,4.568q-2.993,2.489-6.458,4.977t-6.93,4.5q-2.142,1.323-4.914,2.677t-5.827,2.646q-3.056,1.292-6.111,2.425t-5.7,2.016Zm21.8-4.095,8.568-1.638V-1.26q0,1.071.032,2.457t.158,2.552q.126,1.166.252,1.8h-9.324a11.3,11.3,0,0,0,.158-1.8q.031-1.165.094-2.552t.063-2.457Zm77.553-28.413q-.189,1.449-.284,3.15T227.3-44.1q.063,2.646.126,5.733t.158,6.552q.095,3.465.158,7.087l.126,7.245q.063,3.623.126,7.119t.126,6.709a5.969,5.969,0,0,1-1.7,4.693q-1.764,1.67-5.355,1.67-2.835,0-5.544-.095T210.1,2.331l-.693-8.19q2.142.378,4.473.567t3.906.189a2.057,2.057,0,0,0,1.7-.63,3.23,3.23,0,0,0,.5-2.016v-4.945q0-2.8-.032-5.985t-.094-6.552q-.063-3.37-.126-6.71t-.158-6.426q-.094-3.087-.22-5.733-.126-2.079-.284-3.623t-.346-2.741ZM191.709-40.005q1.386.189,3.37.315t3.622.126h36.54q1.512,0,3.465-.157t3.087-.346v8.379q-1.512-.063-3.181-.126t-2.93-.063H198.891q-1.7,0-3.591.063t-3.591.189ZM188.37-10.017a81.4,81.4,0,0,0,9.387-5.229,79.553,79.553,0,0,0,8.19-6.048,73.281,73.281,0,0,0,6.584-6.268,39.114,39.114,0,0,0,4.567-5.891l4.1.063.063,6.678a44.289,44.289,0,0,1-4.851,6.048q-2.961,3.15-6.552,6.3A85.967,85.967,0,0,1,202.23-8.41a79.39,79.39,0,0,1-8.064,4.945Zm74.4-37.863q1.638,1.134,3.843,2.772t4.568,3.56q2.362,1.922,4.441,3.748a43.954,43.954,0,0,1,3.4,3.276L272.6-27.972q-1.2-1.323-3.15-3.15T265.23-34.9q-2.268-1.953-4.473-3.717t-3.906-2.961ZM254.9-5.922a66.72,66.72,0,0,0,9.261-1.953,64.57,64.57,0,0,0,8.064-2.9,73.325,73.325,0,0,0,6.8-3.4,60.925,60.925,0,0,0,9.828-7.308,62.641,62.641,0,0,0,7.812-8.537,48.288,48.288,0,0,0,5.292-8.663l4.914,8.883a58.654,58.654,0,0,1-5.891,8.442,67.8,67.8,0,0,1-7.906,8.032,65.854,65.854,0,0,1-9.513,6.836,71.436,71.436,0,0,1-6.93,3.685A70.855,70.855,0,0,1,268.789.283a59.131,59.131,0,0,1-8.6,2.11ZM330.372-53.55l8.253,1.953a92.63,92.63,0,0,1-5.166,12.883,79.234,79.234,0,0,1-6.741,11.309,53.019,53.019,0,0,1-7.938,8.883,18.371,18.371,0,0,0-1.922-1.89q-1.229-1.071-2.551-2.11a27.3,27.3,0,0,0-2.331-1.67,40.143,40.143,0,0,0,7.781-7.781,59.27,59.27,0,0,0,6.174-10.049A72.383,72.383,0,0,0,330.372-53.55Zm18.4,26.4a49.293,49.293,0,0,0,5.386,10.584,44.335,44.335,0,0,0,7.938,8.978A37.88,37.88,0,0,0,372.2-1.323,21.289,21.289,0,0,0,370.251.63q-1.071,1.2-2.016,2.488T366.66,5.481a43.14,43.14,0,0,1-10.71-7.465A52.036,52.036,0,0,1,347.6-12.348a70.685,70.685,0,0,1-6.142-12.663ZM330.183-43.974h19.908v7.623H326.466Zm17.073,0h1.512l1.386-.378,5.544,2.52a79.4,79.4,0,0,1-8.442,21.294,65.681,65.681,0,0,1-12.82,15.876A62.172,62.172,0,0,1,318.591,5.733,18.919,18.919,0,0,0,316.984,3.4q-1.039-1.323-2.2-2.552a16.351,16.351,0,0,0-2.111-1.922,58.719,58.719,0,0,0,15.309-9.1,55.386,55.386,0,0,0,11.907-13.734,60.531,60.531,0,0,0,7.371-18.364Zm34.965-6.615h7.623v18.27q0,4.095-.252,9.072a101.291,101.291,0,0,1-1.04,10.143,64.605,64.605,0,0,1-2.331,9.986,39.514,39.514,0,0,1-4,8.789A14.758,14.758,0,0,0,380.3,4.253q-1.229-.788-2.52-1.449a22.388,22.388,0,0,0-2.3-1.039,31.749,31.749,0,0,0,3.748-8,55.319,55.319,0,0,0,1.984-8.914q.63-4.567.819-8.977t.189-8.19Zm4.221,0h43.911v16.128H386.442v-6.111H422.73v-3.906H386.442Zm2.079,18.837h43.533v5.985H388.521Zm3.024,19.593h37.422v5.985H391.545ZM387.261-1.827H433.44V4.158H387.261Zm19.152-15.057h7.308V2.268h-7.308Zm-16.191-4.095q4.473-.126,10.238-.284t12.222-.378q6.458-.221,12.82-.41l-.189,5.481q-6.174.252-12.474.535t-12.033.5q-5.733.221-10.269.41Zm11.529-9.45,7.623,2.52q-2.016,3.024-4.126,5.985a63.747,63.747,0,0,1-3.937,5.04l-5.8-2.331q1.071-1.512,2.236-3.465t2.237-4Q401.058-28.728,401.751-30.429Zm12.411,6.237,5.859-3.465q2.142,1.449,4.536,3.276t4.5,3.686a39.148,39.148,0,0,1,3.5,3.434l-6.3,3.969a30.41,30.41,0,0,0-3.213-3.5q-2.016-1.922-4.347-3.875T414.162-24.192ZM450.2-4.851q5.04-.189,11.686-.473T476-5.953q7.466-.347,14.773-.725L490.644.189q-7.056.5-14.238,1.04t-13.734.945q-6.552.41-11.781.787Zm15.75-30.429,8.631,1.764q-1.071,4.284-2.362,8.694t-2.677,8.663q-1.386,4.253-2.8,8.1t-2.741,6.93l-7.182-1.827q1.323-3.213,2.615-7.182t2.552-8.285q1.26-4.316,2.268-8.631T465.948-35.28ZM477.54-18.144l7.119-3.024q2.646,3.591,5.355,7.78t4.914,8.253a48.468,48.468,0,0,1,3.339,7.4L490.455,5.8a46.253,46.253,0,0,0-2.992-7.339q-2.048-4.127-4.63-8.505T477.54-18.144ZM447.426-45.486h49.455v7.245H447.426Zm-3.654,0h7.623v15.939q0,3.78-.283,8.348t-.977,9.387a60.384,60.384,0,0,1-2.079,9.293A33.7,33.7,0,0,1,444.4,5.544a20.763,20.763,0,0,0-1.89-1.481q-1.2-.851-2.457-1.638a11.62,11.62,0,0,0-2.142-1.1,31.879,31.879,0,0,0,3.213-7.308,52.813,52.813,0,0,0,1.764-8.127q.567-4.158.725-8.127t.158-7.308Zm22.365-8.064h7.875v11.592h-7.875ZM520.821-28.1h39.942v6.363H520.821Zm6.867,9.324h25.893v5.985H527.688Zm2.394-6.993,6.489,1.638a37.7,37.7,0,0,1-6.331,9.985,42.556,42.556,0,0,1-8.474,7.529q-.567-.63-1.48-1.543T518.4-9.891a20.266,20.266,0,0,0-1.732-1.323,31.288,31.288,0,0,0,7.969-6.205A27.914,27.914,0,0,0,530.082-25.767Zm22.365,6.993h6.993l-.031.976a11.578,11.578,0,0,1-.158,1.67q-.378,6.111-.913,10.049A44.9,44.9,0,0,1,557.172.032,7.81,7.81,0,0,1,555.66,3.15a5.1,5.1,0,0,1-1.921,1.512,9.463,9.463,0,0,1-2.3.63q-1.071.126-2.74.189a35.629,35.629,0,0,1-3.622-.063,15.6,15.6,0,0,0-.5-3.056,9.278,9.278,0,0,0-1.2-2.867q1.512.126,2.709.157t1.827.032a3.6,3.6,0,0,0,1.039-.126,1.741,1.741,0,0,0,.787-.567,6.206,6.206,0,0,0,1.039-2.425,41.118,41.118,0,0,0,.882-5.261q.41-3.465.788-9.009ZM533.106-38.745v3.024H549.36v-3.024Zm0-7.938v2.961H549.36v-2.961Zm-6.741-5.229h29.988v21.42H526.365Zm-23.94,11.655H521.64v7.119H502.425Zm6.363-12.474h7.056v39.186h-7.056Zm-7.812,40.446q2.457-.882,5.7-2.205t6.9-2.866q3.654-1.544,7.245-3.118l1.638,6.489q-4.725,2.457-9.639,4.914T503.811-4.6ZM545.2-17.514l5.1,2.772a43.1,43.1,0,0,1-3.213,7.717A53.134,53.134,0,0,1,542.43.315a30.075,30.075,0,0,1-5.418,5.607,19.07,19.07,0,0,0-2.457-2.268A18.875,18.875,0,0,0,531.594,1.7a25.618,25.618,0,0,0,5.733-5.04,40.274,40.274,0,0,0,4.693-6.8A39.682,39.682,0,0,0,545.2-17.514Zm-9.513.063,4.914,2.9a38.271,38.271,0,0,1-4.127,6.615A54.235,54.235,0,0,1,530.9-1.7a37.682,37.682,0,0,1-6.048,4.788A20.65,20.65,0,0,0,522.617.693a17.471,17.471,0,0,0-2.677-2.079,32.338,32.338,0,0,0,6.142-4.158,42.08,42.08,0,0,0,5.576-5.7A33.121,33.121,0,0,0,535.689-17.451Zm56.073.731a29.613,29.613,0,0,1,1.188-8.624,28.566,28.566,0,0,1,3.168-7.04,31.585,31.585,0,0,1,4.312-5.456l4.18,1.848a32.389,32.389,0,0,0-3.982,5.214,26.884,26.884,0,0,0-2.838,6.358,26.416,26.416,0,0,0-1.056,7.7,26.477,26.477,0,0,0,1.056,7.678,26.363,26.363,0,0,0,2.838,6.358,34.652,34.652,0,0,0,3.982,5.236L600.43,4.4a31.585,31.585,0,0,1-4.312-5.456A28.566,28.566,0,0,1,592.95-8.1,29.613,29.613,0,0,1,591.762-16.72ZM620.406-37.4l5.764,1.364a64.7,64.7,0,0,1-3.608,9,55.342,55.342,0,0,1-4.708,7.9,37.026,37.026,0,0,1-5.544,6.2,12.824,12.824,0,0,0-1.342-1.32q-.858-.748-1.782-1.474a19.082,19.082,0,0,0-1.628-1.166,28.036,28.036,0,0,0,5.434-5.434,41.394,41.394,0,0,0,4.312-7.018A50.558,50.558,0,0,0,620.406-37.4Zm12.848,18.436a34.426,34.426,0,0,0,3.762,7.392A30.961,30.961,0,0,0,642.56-5.3a26.454,26.454,0,0,0,7.062,4.378A14.87,14.87,0,0,0,648.258.44q-.748.836-1.408,1.738t-1.1,1.65a30.13,30.13,0,0,1-7.48-5.214,36.343,36.343,0,0,1-5.83-7.238,49.37,49.37,0,0,1-4.29-8.844Zm-12.98-11.748h13.9v5.324h-16.5Zm11.924,0h1.056l.968-.264,3.872,1.76a55.457,55.457,0,0,1-5.9,14.872,45.87,45.87,0,0,1-8.954,11.088A43.421,43.421,0,0,1,612.178,4a13.208,13.208,0,0,0-1.122-1.628q-.726-.924-1.54-1.782a11.418,11.418,0,0,0-1.474-1.342,41.009,41.009,0,0,0,10.692-6.358A38.681,38.681,0,0,0,627.05-16.7,42.276,42.276,0,0,0,632.2-29.524Zm24.42-4.62h5.324v12.76q0,2.86-.176,6.336a70.761,70.761,0,0,1-.726,7.084,45.115,45.115,0,0,1-1.628,6.974,27.6,27.6,0,0,1-2.794,6.138,10.308,10.308,0,0,0-1.342-.99q-.858-.55-1.76-1.012a15.644,15.644,0,0,0-1.606-.726,22.173,22.173,0,0,0,2.618-5.588,38.637,38.637,0,0,0,1.386-6.226q.44-3.19.572-6.27t.132-5.72Zm2.948,0h30.668v11.264H659.566v-4.268H684.91v-2.728H659.566Zm1.452,13.156h30.4V-18h-30.4ZM663.13-8.492h26.136v4.18H663.13Zm-2.992,7.216H692.39V2.9H660.138Zm13.376-10.516h5.1V1.584h-5.1Zm-11.308-2.86,7.15-.2q4.026-.11,8.536-.264t8.954-.286l-.132,3.828Q682.4-11.4,678-11.2t-8.4.352q-4,.154-7.172.286Zm8.052-6.6,5.324,1.76q-1.408,2.112-2.882,4.18a44.522,44.522,0,0,1-2.75,3.52L665.9-13.42q.748-1.056,1.562-2.42t1.562-2.794Q669.774-20.064,670.258-21.252Zm8.668,4.356,4.092-2.42q1.5,1.012,3.168,2.288t3.146,2.574a27.344,27.344,0,0,1,2.442,2.4l-4.4,2.772a21.239,21.239,0,0,0-2.244-2.442q-1.408-1.342-3.036-2.706T678.926-16.9Zm18.128-8.624h39.16v5.456h-39.16Zm22.616,2.2a42.92,42.92,0,0,0,3.652,9.372,29.514,29.514,0,0,0,5.786,7.612,26.017,26.017,0,0,0,8.074,5.148A12.182,12.182,0,0,0,735.8.264q-.726.88-1.408,1.826t-1.122,1.694a29.359,29.359,0,0,1-8.69-6.116,34.08,34.08,0,0,1-6.094-8.734,62.806,62.806,0,0,1-4.136-11.022ZM713.6-37.356h5.764q-.044,3.344-.2,7.062t-.682,7.546a47.543,47.543,0,0,1-1.694,7.59,32.463,32.463,0,0,1-3.256,7.216A29.247,29.247,0,0,1,708.164-1.5a33.42,33.42,0,0,1-7.986,5.28,16.087,16.087,0,0,0-1.716-2.332A13.564,13.564,0,0,0,696.218-.66a30.1,30.1,0,0,0,7.524-4.686,25.492,25.492,0,0,0,4.95-5.764,27.191,27.191,0,0,0,2.926-6.468,37.786,37.786,0,0,0,1.386-6.8q.374-3.432.462-6.732T713.6-37.356ZM750.69-20.24V-4h-5.06V-15.356H740V-20.24Zm0,14.124a7.73,7.73,0,0,0,3.63,3.256,15.637,15.637,0,0,0,5.654,1.144q1.98.088,4.752.11t5.83-.022q3.058-.044,6.006-.154t5.236-.33a10.774,10.774,0,0,0-.638,1.518q-.33.946-.594,1.914t-.44,1.716q-2.024.132-4.664.176t-5.456.066q-2.816.022-5.434,0t-4.642-.11a20.6,20.6,0,0,1-6.71-1.276,11.219,11.219,0,0,1-4.73-3.652Q746.95-.44,745.344.858T741.89,3.564l-2.464-5.28q1.584-.88,3.344-2.024t3.344-2.376ZM740.658-33.088l3.608-3.388a33.731,33.731,0,0,1,2.882,2.134q1.474,1.21,2.794,2.42a14.707,14.707,0,0,1,2.068,2.266l-3.96,3.784a14.678,14.678,0,0,0-1.892-2.332q-1.232-1.276-2.684-2.574T740.658-33.088Zm17.776,4.268,3.388-2.816q1.936.66,4.268,1.606t4.51,1.958q2.178,1.012,3.63,1.848l-3.608,3.168a29.226,29.226,0,0,0-3.41-1.892q-2.09-1.012-4.422-2.046T758.434-28.82Zm-3.96,2.464h22.4v3.828H759.4V-3.564h-4.928Zm19.932,0h5.016V-8.1a6.815,6.815,0,0,1-.374,2.53,2.825,2.825,0,0,1-1.43,1.43,6.375,6.375,0,0,1-2.486.638q-1.474.11-3.454.11a17.036,17.036,0,0,0-.55-2.134,19.644,19.644,0,0,0-.77-2.046q1.012.044,2.024.044h1.364a.7.7,0,0,0,.506-.154.7.7,0,0,0,.154-.506ZM754.87-35.9h20.944v4H754.87ZM757.2-20.152h18.92v3.7H757.2Zm0,6.16h18.92v3.828H757.2Zm7.26-10.56h4.708V-3.74h-4.708Zm9.46-11.352h1.232l1.012-.264,3.124,2.508q-1.54,1.452-3.454,2.948a47.256,47.256,0,0,1-3.982,2.794,40.932,40.932,0,0,1-4.092,2.266,12.934,12.934,0,0,0-1.254-1.54q-.814-.88-1.342-1.408a27.181,27.181,0,0,0,3.366-1.914,35.94,35.94,0,0,0,3.124-2.31,19.424,19.424,0,0,0,2.266-2.156ZM800.234-21.3l6.292,1.54q-1.056,2.552-2.31,5.236t-2.574,5.28q-1.32,2.6-2.618,4.95t-2.53,4.246l-4.928-1.54q1.188-2.024,2.42-4.466t2.4-5.06q1.166-2.618,2.156-5.236T800.234-21.3ZM786.506-3.212q3.08-.132,6.952-.286t8.184-.352q4.312-.2,8.778-.418t8.822-.44L819.066.484q-5.632.352-11.4.7t-11.022.638q-5.258.286-9.482.55Zm22.264-8.4,5.1-2.332q1.936,2.376,3.872,5.1T821.332-3.5a51.924,51.924,0,0,1,2.706,4.774l-5.5,2.9A38.179,38.179,0,0,0,816.03-.726q-1.628-2.75-3.52-5.61T808.77-11.616Zm-13.2-24.772,6.028,1.672a52.5,52.5,0,0,1-3.366,6.82,61.258,61.258,0,0,1-4.158,6.226,41.016,41.016,0,0,1-4.444,4.994,9.863,9.863,0,0,0-1.474-1.342q-.946-.726-1.936-1.452t-1.694-1.166a29.535,29.535,0,0,0,4.378-4.312A39.685,39.685,0,0,0,792.71-30.4,39.76,39.76,0,0,0,795.57-36.388ZM813.3-36.3a41.4,41.4,0,0,0,2.31,4,50.042,50.042,0,0,0,2.948,4.07q1.606,2,3.234,3.784t3.124,3.19a16.124,16.124,0,0,0-1.54,1.342q-.836.814-1.628,1.672a12.146,12.146,0,0,0-1.276,1.606q-1.584-1.672-3.256-3.762t-3.322-4.4q-1.65-2.31-3.168-4.686t-2.75-4.664Zm22.88,12.232h24.6v2.992h-24.6Zm2.112-4.532H858.93v2.86H838.294Zm7.7-1.848h4.8v8.14h-4.8Zm-.484,18.392h4.62v8.712h-4.62Zm4.84-.836a14.954,14.954,0,0,0,2.948,2.618A22.015,22.015,0,0,0,857.28-8.1a30.127,30.127,0,0,0,4.466,1.5,12.022,12.022,0,0,0-1.452,1.562q-.792.99-1.276,1.738a25.206,25.206,0,0,1-4.642-2,23.936,23.936,0,0,1-4.158-2.9,22.35,22.35,0,0,1-3.212-3.41Zm-2.068-1.8,3.96,1.408a23.835,23.835,0,0,1-4.026,3.652,38.333,38.333,0,0,1-4.994,3.08,47.805,47.805,0,0,1-5.236,2.332,9.245,9.245,0,0,0-.792-1.078q-.528-.638-1.056-1.254a11.025,11.025,0,0,0-.968-1.012,44.561,44.561,0,0,0,4.994-1.826,34.28,34.28,0,0,0,4.62-2.42A16.026,16.026,0,0,0,848.282-14.7Zm9.592,1.188,3.168,2.024a26.3,26.3,0,0,1-3.014,2.112Q856.422-8.4,855.1-7.7l-2.6-1.8q.836-.528,1.848-1.232t1.936-1.43Q857.214-12.892,857.874-13.508Zm-15.048-3.564v2.2h11.352v-2.2Zm-4.4-2.684H858.8v7.568H838.426Zm-8.712-15.928h37.708V3.96h-5.148V-30.976H834.686V3.96h-4.972Zm3.168,33.308h32.164V2.376H832.882ZM894.394-37.4l5.764,1.364a64.7,64.7,0,0,1-3.608,9,55.342,55.342,0,0,1-4.708,7.9,37.026,37.026,0,0,1-5.544,6.2,12.824,12.824,0,0,0-1.342-1.32Q884.1-15,883.174-15.73a19.082,19.082,0,0,0-1.628-1.166,28.036,28.036,0,0,0,5.434-5.434,41.394,41.394,0,0,0,4.312-7.018A50.558,50.558,0,0,0,894.394-37.4Zm12.848,18.436A34.426,34.426,0,0,0,911-11.572a30.965,30.965,0,0,0,5.544,6.27A26.455,26.455,0,0,0,923.61-.924,14.877,14.877,0,0,0,922.246.44q-.748.836-1.408,1.738t-1.1,1.65a30.13,30.13,0,0,1-7.48-5.214,36.343,36.343,0,0,1-5.83-7.238,49.37,49.37,0,0,1-4.29-8.844Zm-12.98-11.748h13.9v5.324h-16.5Zm11.924,0h1.056l.968-.264,3.872,1.76a55.459,55.459,0,0,1-5.9,14.872,45.872,45.872,0,0,1-8.954,11.088A43.421,43.421,0,0,1,886.166,4a13.208,13.208,0,0,0-1.122-1.628q-.726-.924-1.54-1.782A11.418,11.418,0,0,0,882.03-.748a41.009,41.009,0,0,0,10.692-6.358,38.681,38.681,0,0,0,8.316-9.592,42.276,42.276,0,0,0,5.148-12.826Zm24.42-4.62h5.324v12.76q0,2.86-.176,6.336a70.761,70.761,0,0,1-.726,7.084A45.115,45.115,0,0,1,933.4-2.178a27.6,27.6,0,0,1-2.794,6.138,10.308,10.308,0,0,0-1.342-.99q-.858-.55-1.76-1.012a15.644,15.644,0,0,0-1.606-.726,22.173,22.173,0,0,0,2.618-5.588,38.637,38.637,0,0,0,1.386-6.226q.44-3.19.572-6.27t.132-5.72Zm2.948,0h30.668v11.264H933.554v-4.268H958.9v-2.728H933.554Zm1.452,13.156h30.4V-18h-30.4Zm2.112,13.684h26.136v4.18H937.118Zm-2.992,7.216h32.252V2.9H934.126ZM947.5-11.792h5.1V1.584h-5.1Zm-11.308-2.86,7.15-.2q4.026-.11,8.536-.264t8.954-.286l-.132,3.828q-4.312.176-8.712.374t-8.4.352q-4,.154-7.172.286Zm8.052-6.6,5.324,1.76q-1.408,2.112-2.882,4.18a44.522,44.522,0,0,1-2.75,3.52L939.89-13.42q.748-1.056,1.562-2.42t1.562-2.794Q943.762-20.064,944.246-21.252Zm8.668,4.356,4.092-2.42q1.5,1.012,3.168,2.288t3.146,2.574a27.344,27.344,0,0,1,2.442,2.4l-4.4,2.772a21.239,21.239,0,0,0-2.244-2.442q-1.408-1.342-3.036-2.706T952.914-16.9ZM978.082-3.388q3.52-.132,8.162-.33t9.856-.44q5.214-.242,10.318-.506l-.088,4.8q-4.928.352-9.944.726t-9.592.66q-4.576.286-8.228.55Zm11-21.252,6.028,1.232q-.748,2.992-1.65,6.072t-1.87,6.05q-.968,2.97-1.958,5.654t-1.914,4.84L982.7-2.068q.924-2.244,1.826-5.016t1.782-5.786q.88-3.014,1.584-6.028T989.082-24.64Zm8.1,11.968,4.972-2.112q1.848,2.508,3.74,5.434t3.432,5.764a33.851,33.851,0,0,1,2.332,5.17L1006.2,4.048a32.309,32.309,0,0,0-2.09-5.126q-1.43-2.882-3.234-5.94T997.178-12.672Zm-21.032-19.1h34.54v5.06h-34.54Zm-2.552,0h5.324v11.132q0,2.64-.2,5.83t-.682,6.556a42.175,42.175,0,0,1-1.452,6.49,23.534,23.534,0,0,1-2.552,5.632,14.508,14.508,0,0,0-1.32-1.034q-.836-.594-1.716-1.144a8.116,8.116,0,0,0-1.5-.77,22.266,22.266,0,0,0,2.244-5.1,36.886,36.886,0,0,0,1.232-5.676q.4-2.9.506-5.676t.11-5.1Zm15.62-5.632h5.5v8.1h-5.5Zm38.192,17.776h27.9v4.444h-27.9Zm4.8,6.512h18.084v4.18H1032.2ZM1033.874-18l4.532,1.144a26.332,26.332,0,0,1-4.422,6.974,29.722,29.722,0,0,1-5.918,5.258q-.4-.44-1.034-1.078t-1.32-1.21a14.149,14.149,0,0,0-1.21-.924,21.852,21.852,0,0,0,5.566-4.334A19.5,19.5,0,0,0,1033.874-18Zm15.62,4.884h4.884s-.007.227-.022.682a8.082,8.082,0,0,1-.11,1.166q-.264,4.268-.638,7.018a31.366,31.366,0,0,1-.814,4.268,5.456,5.456,0,0,1-1.056,2.178,3.566,3.566,0,0,1-1.342,1.056,6.608,6.608,0,0,1-1.606.44q-.748.088-1.914.132a24.884,24.884,0,0,1-2.53-.044,10.9,10.9,0,0,0-.352-2.134,6.477,6.477,0,0,0-.836-2q1.056.088,1.892.11t1.276.022a2.515,2.515,0,0,0,.726-.088,1.216,1.216,0,0,0,.55-.4,4.333,4.333,0,0,0,.726-1.694,28.725,28.725,0,0,0,.616-3.674q.286-2.42.55-6.292ZM1035.986-27.06v2.112h11.352V-27.06Zm0-5.544v2.068h11.352V-32.6Zm-4.708-3.652h20.944V-21.3h-20.944Zm-16.72,8.14h13.42v4.972h-13.42ZM1019-36.828h4.928V-9.46H1019ZM1013.546-8.58q1.716-.616,3.982-1.54t4.818-2q2.552-1.078,5.06-2.178l1.144,4.532q-3.3,1.716-6.732,3.432t-6.292,3.124Zm30.888-3.652L1048-10.3a30.1,30.1,0,0,1-2.244,5.39A37.114,37.114,0,0,1,1042.5.22a21.01,21.01,0,0,1-3.784,3.916A13.326,13.326,0,0,0,1037,2.552a13.181,13.181,0,0,0-2.068-1.364,17.888,17.888,0,0,0,4-3.52,28.127,28.127,0,0,0,3.278-4.752A27.714,27.714,0,0,0,1044.434-12.232Zm-6.644.044,3.432,2.024a26.734,26.734,0,0,1-2.882,4.62,37.88,37.88,0,0,1-3.894,4.356,26.323,26.323,0,0,1-4.224,3.344A14.435,14.435,0,0,0,1028.66.484a12.207,12.207,0,0,0-1.87-1.452,22.581,22.581,0,0,0,4.29-2.9,29.389,29.389,0,0,0,3.894-3.982A23.131,23.131,0,0,0,1037.79-12.188Zm33.616-4.532a29.613,29.613,0,0,1-1.188,8.624,29.082,29.082,0,0,1-3.146,7.04,29.689,29.689,0,0,1-4.334,5.456l-4.18-1.848a34.653,34.653,0,0,0,3.982-5.236,26.365,26.365,0,0,0,2.838-6.358,26.479,26.479,0,0,0,1.056-7.678,26.418,26.418,0,0,0-1.056-7.7,26.886,26.886,0,0,0-2.838-6.358,32.389,32.389,0,0,0-3.982-5.214l4.18-1.848a29.689,29.689,0,0,1,4.334,5.456,29.082,29.082,0,0,1,3.146,7.04A29.613,29.613,0,0,1,1071.406-16.72Z" transform="translate(409 24588)" fill="#fff"/>
    <path id="パス_4802" data-name="パス 4802" d="M9.847-34.142H22.059V-28.9H9.847Zm9.675,0h5.332q0,2.064.172,4.666a46.192,46.192,0,0,0,.731,5.547,39.481,39.481,0,0,0,1.677,6.042,33.055,33.055,0,0,0,2.988,6.128,31.225,31.225,0,0,0,4.709,5.826,35.805,35.805,0,0,0,6.794,5.16A14.98,14.98,0,0,0,40.549.473q-.817.817-1.569,1.7a19.471,19.471,0,0,0-1.225,1.569A34.913,34.913,0,0,1,30.745-1.87a34.882,34.882,0,0,1-4.988-6.622,41.368,41.368,0,0,1-3.268-7.1A49.174,49.174,0,0,1,20.6-22.6a56.69,56.69,0,0,1-.86-6.385Q19.522-31.949,19.522-34.142Zm-1.849,9.46,5.891,1.075A57.065,57.065,0,0,1,19.651-12.04a39.943,39.943,0,0,1-5.869,9.159A32.88,32.88,0,0,1,5.891,3.784,16.219,16.219,0,0,0,4.558,2.429Q3.7,1.634,2.773.839A19.465,19.465,0,0,0,1.161-.43,27.028,27.028,0,0,0,11.911-10,42.644,42.644,0,0,0,17.673-24.682Zm39.818,5.5H84.753v4.343H57.491Zm4.687,6.364H79.851v4.085H62.178Zm1.634-4.773,4.429,1.118A25.733,25.733,0,0,1,63.92-9.653a29.046,29.046,0,0,1-5.784,5.138q-.387-.43-1.011-1.054t-1.29-1.183a13.829,13.829,0,0,0-1.182-.9,21.355,21.355,0,0,0,5.439-4.235A19.053,19.053,0,0,0,63.812-17.587Zm15.265,4.773H83.85l-.021.667a7.908,7.908,0,0,1-.108,1.139q-.258,4.171-.623,6.859A30.647,30.647,0,0,1,82.3.022,5.331,5.331,0,0,1,81.27,2.15a3.484,3.484,0,0,1-1.312,1.032,6.458,6.458,0,0,1-1.569.43q-.731.086-1.87.129A24.318,24.318,0,0,1,74.046,3.7,10.65,10.65,0,0,0,73.7,1.613a6.331,6.331,0,0,0-.817-1.957q1.032.086,1.849.108t1.247.022a2.458,2.458,0,0,0,.71-.086,1.188,1.188,0,0,0,.537-.387,4.236,4.236,0,0,0,.71-1.655,28.066,28.066,0,0,0,.6-3.591q.279-2.365.537-6.149Zm-13.2-13.631v2.064H76.97v-2.064Zm0-5.418v2.021H76.97v-2.021Zm-4.6-3.569H81.743v14.62H61.275Zm-16.34,7.955H58.05v4.859H44.935Zm4.343-8.514h4.816V-9.245H49.278ZM43.946-8.385q1.677-.6,3.892-1.505t4.708-1.957q2.494-1.054,4.945-2.128l1.118,4.429Q55.384-7.869,52.03-6.192T45.881-3.139Zm30.186-3.569,3.483,1.892a29.417,29.417,0,0,1-2.193,5.268A36.266,36.266,0,0,1,72.24.215a20.528,20.528,0,0,1-3.7,3.827,13.019,13.019,0,0,0-1.677-1.548,12.883,12.883,0,0,0-2.021-1.333,17.485,17.485,0,0,0,3.913-3.44,27.488,27.488,0,0,0,3.2-4.644A27.082,27.082,0,0,0,74.132-11.954Zm-6.493.043,3.354,1.978a26.121,26.121,0,0,1-2.816,4.515,37.018,37.018,0,0,1-3.805,4.257,25.72,25.72,0,0,1-4.128,3.268A14.094,14.094,0,0,0,58.716.473,11.925,11.925,0,0,0,56.889-.946a22.072,22.072,0,0,0,4.193-2.838,28.724,28.724,0,0,0,3.806-3.891A22.606,22.606,0,0,0,67.639-11.911ZM94.17-36.335H98.9V3.741H94.17ZM87.634-22.188h17.63v4.816H87.634Zm5.59,2.537L96.1-18.232q-.559,2.15-1.29,4.536T93.181-8.944q-.9,2.365-1.892,4.451A23.133,23.133,0,0,1,89.182-.86a13.407,13.407,0,0,0-.623-1.785q-.408-.967-.86-1.914T86.86-6.192a23.681,23.681,0,0,0,2.516-3.935q1.225-2.343,2.257-4.859A36.8,36.8,0,0,0,93.224-19.651Zm5.633,2.494q.344.344,1.01,1.075t1.483,1.656q.817.924,1.57,1.849t1.376,1.655a13.286,13.286,0,0,1,.882,1.118l-3.139,4.042q-.43-.946-1.118-2.214t-1.5-2.623q-.817-1.354-1.591-2.559t-1.333-1.978ZM87.591-33.024,91.2-33.97a34.583,34.583,0,0,1,1.01,3.354q.452,1.806.753,3.526t.43,3.1l-3.87,1.032A24.78,24.78,0,0,0,89.2-26.08q-.279-1.741-.688-3.569A34.481,34.481,0,0,0,87.591-33.024Zm14.147-1.161,4.343.946q-.516,1.763-1.118,3.612t-1.2,3.547q-.6,1.7-1.118,2.989l-3.268-.946q.473-1.376.924-3.16t.839-3.634Q101.523-32.68,101.738-34.185Zm16.3-2.365h4.816V3.827h-4.816ZM105.178-9.632l22.1-3.956.774,4.773-22.1,4Zm2.408-21.07,2.537-3.483q1.2.688,2.515,1.591t2.494,1.849A13.4,13.4,0,0,1,117-28.982l-2.666,3.87a12.346,12.346,0,0,0-1.785-1.849q-1.139-.989-2.429-1.978T107.586-30.7Zm-1.935,10.836,2.408-3.7a29.031,29.031,0,0,1,2.666,1.526q1.376.882,2.623,1.763a13.621,13.621,0,0,1,2.021,1.7l-2.623,4.128a13.743,13.743,0,0,0-1.892-1.785q-1.2-.968-2.559-1.935A30.088,30.088,0,0,0,105.651-19.866ZM150.5-22.188a3.984,3.984,0,0,1-2.9-1.161,3.825,3.825,0,0,1-1.182-2.838,3.909,3.909,0,0,1,1.182-2.945,4.024,4.024,0,0,1,2.9-1.139,4.024,4.024,0,0,1,2.9,1.139,3.909,3.909,0,0,1,1.183,2.945,3.825,3.825,0,0,1-1.183,2.838A3.984,3.984,0,0,1,150.5-22.188Zm0,20.511a3.984,3.984,0,0,1-2.9-1.161,3.825,3.825,0,0,1-1.182-2.838A3.909,3.909,0,0,1,147.6-8.622a4.024,4.024,0,0,1,2.9-1.139,4.024,4.024,0,0,1,2.9,1.139,3.909,3.909,0,0,1,1.183,2.945A3.825,3.825,0,0,1,153.4-2.838,3.984,3.984,0,0,1,150.5-1.677ZM182.1-36.55l5.074,1.505a35.259,35.259,0,0,1-2.752,4.644,36.815,36.815,0,0,1-3.419,4.214,37.393,37.393,0,0,1-3.633,3.4,9.506,9.506,0,0,0-1.2-1.161Q175.4-24.6,174.58-25.2t-1.419-.989a25.4,25.4,0,0,0,5.16-4.558A23.451,23.451,0,0,0,182.1-36.55Zm-.344,4.558h29.627v4.515H180.514Zm-7.654,10.019h38.872v4.6H174.107Zm.688,10.062h37.539v4.6H174.795ZM187.566-30.4h4.3V-9.5h-4.3Zm-7.654,0h4.6V-9.46h-4.6Zm15.136,0h4.3V-9.46h-4.3Zm7.568,0h4.73V-9.46h-4.73ZM186.276-4.9l4.773-.516q.43,1.935.753,4.214a35.109,35.109,0,0,1,.365,3.87l-5.074.731q0-1.032-.107-2.451t-.28-2.967Q186.534-3.569,186.276-4.9Zm8.557.129,4.816-.817q.559,1.247,1.075,2.709t.9,2.838a21.242,21.242,0,0,1,.559,2.494l-5.16.989a32.22,32.22,0,0,0-.839-3.913Q195.564-2.795,194.833-4.773Zm8.514-.258,4.945-1.548q1.032,1.333,2.064,2.881t1.978,3.075a21.044,21.044,0,0,1,1.462,2.73L208.507,3.87A28.068,28.068,0,0,0,207.2,1.161Q206.357-.387,205.346-2T203.347-5.031ZM178.536-6.407l4.988,1.247a27.254,27.254,0,0,1-2.021,4.9,19.425,19.425,0,0,1-2.881,4.171l-4.945-2.021a16.264,16.264,0,0,0,2.795-3.655A22.14,22.14,0,0,0,178.536-6.407ZM223.17-36.335h4.73V3.741h-4.73Zm-6.536,14.147h17.63v4.816h-17.63Zm5.59,2.537,2.881,1.419q-.559,2.15-1.29,4.536t-1.634,4.752q-.9,2.365-1.892,4.451A23.134,23.134,0,0,1,218.182-.86a13.41,13.41,0,0,0-.624-1.785q-.409-.967-.86-1.914t-.839-1.634a23.681,23.681,0,0,0,2.516-3.935q1.226-2.343,2.257-4.859A36.794,36.794,0,0,0,222.224-19.651Zm5.633,2.494q.344.344,1.01,1.075t1.484,1.656q.817.924,1.57,1.849t1.376,1.655a13.283,13.283,0,0,1,.881,1.118l-3.139,4.042q-.43-.946-1.118-2.214T228.416-10.6q-.817-1.354-1.591-2.559t-1.333-1.978ZM216.591-33.024l3.612-.946a34.585,34.585,0,0,1,1.01,3.354q.451,1.806.753,3.526t.43,3.1l-3.87,1.032a24.783,24.783,0,0,0-.322-3.118q-.28-1.741-.688-3.569A34.485,34.485,0,0,0,216.591-33.024Zm14.147-1.161,4.343.946q-.516,1.763-1.118,3.612t-1.2,3.547q-.6,1.7-1.118,2.989l-3.268-.946q.473-1.376.924-3.16t.839-3.634Q230.523-32.68,230.738-34.185Zm16.3-2.365h4.816V3.827h-4.816ZM234.178-9.632l22.1-3.956.774,4.773-22.1,4Zm2.408-21.07,2.537-3.483q1.2.688,2.516,1.591t2.494,1.849A13.4,13.4,0,0,1,246-28.982l-2.666,3.87a12.347,12.347,0,0,0-1.785-1.849q-1.14-.989-2.43-1.978T236.586-30.7Zm-1.935,10.836,2.408-3.7a29.032,29.032,0,0,1,2.666,1.526q1.376.882,2.623,1.763a13.621,13.621,0,0,1,2.021,1.7l-2.623,4.128a13.743,13.743,0,0,0-1.892-1.785q-1.2-.968-2.559-1.935A30.088,30.088,0,0,0,234.651-19.866Zm51.858,3.526a28.939,28.939,0,0,1,1.161-8.428,27.917,27.917,0,0,1,3.1-6.88,30.868,30.868,0,0,1,4.214-5.332l4.085,1.806a31.655,31.655,0,0,0-3.892,5.1,26.277,26.277,0,0,0-2.773,6.214,25.818,25.818,0,0,0-1.032,7.525,25.877,25.877,0,0,0,1.032,7.5,25.768,25.768,0,0,0,2.773,6.214,33.868,33.868,0,0,0,3.892,5.117L294.98,4.3a30.868,30.868,0,0,1-4.214-5.332,27.917,27.917,0,0,1-3.1-6.88A28.939,28.939,0,0,1,286.509-16.34ZM325.08-29.025h13.8v4.687h-13.8Zm.344-7.568,5.031.774a63.417,63.417,0,0,1-2.687,10.578,28.37,28.37,0,0,1-4.321,8.213,12.443,12.443,0,0,0-1.247-.946q-.817-.559-1.634-1.1a9.466,9.466,0,0,0-1.419-.8,21.712,21.712,0,0,0,4.042-7.288A49.071,49.071,0,0,0,325.424-36.593Zm5.977,9.417h2.494V-20a25.146,25.146,0,0,0,.237,3.1,28.187,28.187,0,0,0,.839,4A28.6,28.6,0,0,0,336.6-8.536a22.759,22.759,0,0,0,2.6,4.257,18.14,18.14,0,0,0,3.763,3.634q-.43.559-1.054,1.376t-1.182,1.677q-.559.86-.946,1.5a14.446,14.446,0,0,1-2.9-2.623,21.951,21.951,0,0,1-2.236-3.182,25.747,25.747,0,0,1-1.634-3.354,29.761,29.761,0,0,1-1.075-3.182,24.358,24.358,0,0,1-.581-2.623,18,18,0,0,1-.924,3.311,30.379,30.379,0,0,1-1.871,4.064A23.184,23.184,0,0,1,325.682.43a19.516,19.516,0,0,1-4,3.483,16.13,16.13,0,0,0-.839-1.44q-.538-.839-1.118-1.613a11.8,11.8,0,0,0-1.053-1.247,19.759,19.759,0,0,0,4.3-3.676,21.755,21.755,0,0,0,2.9-4.257,25.15,25.15,0,0,0,1.785-4.408,27.95,27.95,0,0,0,.9-4.085A24.231,24.231,0,0,0,328.821-20v-7.181Zm6.235-1.849h.774l.774-.172,3.483.817q-.344,2.107-.839,4.278t-1.075,4.15a31.216,31.216,0,0,1-1.225,3.483l-4.128-1.29a25.15,25.15,0,0,0,.924-3.139q.409-1.763.753-3.7t.559-3.612Zm-26.875.688h4.6v4.988h-4.6Zm-5.418,3.354h4.6V-.989h-4.6Zm2.8,5.59h9.933v3.44h-9.933ZM302.247-2.408q1.935-.43,4.408-1.053T311.9-4.838q2.773-.752,5.525-1.484l.6,4.085Q314.373-.989,310.7.172t-6.772,2.15Zm11.008-6.235,4.171-1.462q.731,1.419,1.462,3.031t1.333,3.117a21.342,21.342,0,0,1,.9,2.709L316.7.516a24.628,24.628,0,0,0-.817-2.752q-.559-1.591-1.225-3.268T313.255-8.643Zm-5.117-16.34h12.126v14.749H308.138V-13.8h7.568v-7.611h-7.568Zm1.72-11.567h2.8v.989h1.5v1.333q-.946,1.634-2.279,3.591a35.664,35.664,0,0,1-3.16,3.956,35.081,35.081,0,0,1-4.236,3.892,10.133,10.133,0,0,0-.817-1.247q-.516-.688-1.1-1.333a7.105,7.105,0,0,0-1.053-.989,24.955,24.955,0,0,0,5.139-4.967A26.782,26.782,0,0,0,309.858-36.55Zm1.333,0h3.526q1.29,1.161,2.666,2.537t2.666,2.73a25.424,25.424,0,0,1,2.107,2.472l-3.526,3.354q-.688-1.032-1.806-2.451t-2.387-2.817a32.3,32.3,0,0,0-2.43-2.429h-.817Zm54.137,4.429a33.98,33.98,0,0,1-4.6,4.343,54.859,54.859,0,0,1-6.02,4.15A59.4,59.4,0,0,1,348-20.167a14.8,14.8,0,0,0-.817-1.4q-.516-.8-1.075-1.548a11.824,11.824,0,0,0-1.118-1.312,44.213,44.213,0,0,0,6.923-3.4,48.633,48.633,0,0,0,6.106-4.322,29.4,29.4,0,0,0,4.472-4.536h5.2a33.717,33.717,0,0,0,3.978,3.849,46.239,46.239,0,0,0,4.536,3.289,43.753,43.753,0,0,0,4.88,2.688,42.489,42.489,0,0,0,5.053,2,17.825,17.825,0,0,0-1.763,2.193q-.86,1.247-1.505,2.365a61.315,61.315,0,0,1-6.407-3.247,58.133,58.133,0,0,1-6.235-4.149A36.2,36.2,0,0,1,365.328-32.121Zm-9.46,13.674h18.92v3.7h-18.92Zm6.88-9.546h5.332v5.805h-5.332ZM348.171-1.29q2.451-.215,5.526-.452t6.471-.516q3.4-.28,6.751-.581l.086,4.558q-3.182.3-6.428.623t-6.235.6q-2.989.28-5.482.494Zm18.662-8.643a16.111,16.111,0,0,0,7.03,6.214A35.157,35.157,0,0,0,385.28-.645q-.516.559-1.118,1.354t-1.118,1.634q-.516.839-.86,1.527a35.389,35.389,0,0,1-8.514-2.408,23.425,23.425,0,0,1-6.493-4.15,23.012,23.012,0,0,1-4.687-6.084Zm12.685-.9,3.741,3.1q-1.634,1.118-3.483,2.215t-3.7,2.021q-1.849.925-3.483,1.656l-3.053-2.795q1.591-.774,3.4-1.827t3.569-2.193A31.972,31.972,0,0,0,379.518-10.836Zm-23.65-13.889h22.4v16.34h-22.4v-4h17.157v-8.3H355.868Zm-3.225,0h5.117V-.688l-5.117.516ZM408.5-21.844a5.193,5.193,0,0,1,2.773.753,5.933,5.933,0,0,1,1.978,1.978A5.193,5.193,0,0,1,414-16.34a5.225,5.225,0,0,1-.753,2.752,5.868,5.868,0,0,1-1.978,2,5.193,5.193,0,0,1-2.773.752,5.225,5.225,0,0,1-2.752-.752,5.8,5.8,0,0,1-2-2A5.225,5.225,0,0,1,403-16.34a5.193,5.193,0,0,1,.753-2.774,5.868,5.868,0,0,1,2-1.978A5.225,5.225,0,0,1,408.5-21.844ZM452.188-36.55l4.687.9A67.951,67.951,0,0,1,454.9-28.7a46.423,46.423,0,0,1-2.666,6.278,30.558,30.558,0,0,1-3.268,5.1,7.525,7.525,0,0,0-1.118-.968q-.731-.537-1.483-1.075t-1.269-.882a21.376,21.376,0,0,0,3.075-4.472,37.7,37.7,0,0,0,2.365-5.611A52.8,52.8,0,0,0,452.188-36.55Zm14.448,6.708h4.9l-.021.452q-.022.452-.022,1.01a6.5,6.5,0,0,1-.043.86q-.3,7.267-.624,12.341t-.688,8.363a40.275,40.275,0,0,1-.839,5.16,8.053,8.053,0,0,1-1.075,2.688,5.63,5.63,0,0,1-1.548,1.548,5.643,5.643,0,0,1-1.849.688,13.1,13.1,0,0,1-2.193.194q-1.29.022-2.709-.064A14.886,14.886,0,0,0,459.477.86a10.4,10.4,0,0,0-.967-2.494q1.2.129,2.236.15t1.634.021a1.778,1.778,0,0,0,.839-.172,2.543,2.543,0,0,0,.71-.645,5.844,5.844,0,0,0,.817-2.171,43.252,43.252,0,0,0,.731-4.751q.344-3.1.624-7.891t.537-11.631Zm-13.158,0h15.351v4.773H451.156Zm3.053,1.548,3.741,1.849a54.864,54.864,0,0,1-2.365,7.546,48.6,48.6,0,0,1-3.5,7.2,25.6,25.6,0,0,1-4.322,5.547,21.925,21.925,0,0,0-1.849-1.526,14.216,14.216,0,0,0-2.15-1.354,18.935,18.935,0,0,0,3.526-3.634,32.771,32.771,0,0,0,2.967-4.773,44.69,44.69,0,0,0,2.322-5.375A52.61,52.61,0,0,0,456.531-28.294Zm5.977.516,4,1.849q-.817,4.171-2.042,8.342a64.535,64.535,0,0,1-2.924,8,44.026,44.026,0,0,1-3.892,7.03,25.153,25.153,0,0,1-4.9,5.4,16.245,16.245,0,0,0-1.914-1.591,17.972,17.972,0,0,0-2.258-1.419,23.879,23.879,0,0,0,5.053-5.009,37.086,37.086,0,0,0,3.977-6.665,55.327,55.327,0,0,0,2.924-7.74A82.027,82.027,0,0,0,462.508-27.778ZM431.161-13.072q2.107-.516,4.794-1.2t5.676-1.527q2.989-.838,5.956-1.655l.645,4.515q-4.042,1.29-8.234,2.558t-7.59,2.258Zm7.7-23.435h4.73V3.87h-4.73Zm-5.676,2.451,4.343.688q-.3,2.838-.731,5.7t-1.032,5.4a32,32,0,0,1-1.376,4.472q-.387-.3-1.075-.752l-1.376-.9a7.6,7.6,0,0,0-1.2-.667,26.979,26.979,0,0,0,1.183-4.021q.494-2.257.817-4.816T433.182-34.056Zm1.2,5.848H447.2v4.9H433.4ZM494.8-34.314h18.7v4.687H494.8Zm-1.505,0h4.73V-18.06q0,2.58-.172,5.5t-.645,5.912A33.371,33.371,0,0,1,495.79-.925,19.619,19.619,0,0,1,493.3,4a12.608,12.608,0,0,0-1.2-.924q-.774-.538-1.57-1.01a15.263,15.263,0,0,0-1.354-.731,17.57,17.57,0,0,0,2.8-6.02,37.771,37.771,0,0,0,1.1-6.837q.236-3.483.236-6.536Zm15.179,10.75h.9l.86-.129,3.053.688a51.321,51.321,0,0,1-2.709,12.212,28.491,28.491,0,0,1-4.988,8.75,24.688,24.688,0,0,1-7.31,5.783q-.344-.6-.839-1.4T496.392.774a8.234,8.234,0,0,0-1.075-1.247,18.2,18.2,0,0,0,6.407-4.73,25.1,25.1,0,0,0,4.429-7.525,39.183,39.183,0,0,0,2.322-9.976Zm-7.439,3.182a43.784,43.784,0,0,0,2.924,8.514A26.511,26.511,0,0,0,508.6-4.924a20.992,20.992,0,0,0,6.622,4.752,11.871,11.871,0,0,0-1.2,1.2q-.645.731-1.225,1.5a11.183,11.183,0,0,0-.924,1.419,24.2,24.2,0,0,1-6.966-5.633,31.214,31.214,0,0,1-4.859-7.934,58.156,58.156,0,0,1-3.182-9.868Zm-4.9-3.182h13.588v4.515H496.134ZM478.5-6.751l4.73,1.118a31.546,31.546,0,0,1-2.344,5.31A22.134,22.134,0,0,1,477.859,4q-.473-.387-1.2-.9T475.15,2.064q-.774-.516-1.333-.817a15.429,15.429,0,0,0,2.774-3.612A21.785,21.785,0,0,0,478.5-6.751Zm5.2,1.591,4-1.72A32.431,32.431,0,0,1,489.663-4a22.883,22.883,0,0,1,1.483,2.8L486.975.817a20.088,20.088,0,0,0-1.376-2.9Q484.653-3.784,483.707-5.16ZM481-23.005v4h4.6v-4Zm0,7.783v4.042h4.6v-4.042Zm0-15.523v3.913h4.6v-3.913Zm-4.6-4.128h13.975V-7.1H476.4ZM532.813-26.4q1.849.172,3.719.279t3.806.108q3.956,0,7.869-.344a56.562,56.562,0,0,0,7.224-1.075v5.375q-3.354.473-7.267.753t-7.826.279q-1.892,0-3.763-.064t-3.763-.194Zm16.34-7.267q-.086.6-.151,1.333t-.107,1.462q-.043.688-.086,1.849t-.043,2.6v3.031q0,2.924.086,5.483t.215,4.73q.129,2.171.237,3.977t.107,3.354a10.163,10.163,0,0,1-.452,3.1,6.585,6.585,0,0,1-1.44,2.494,6.405,6.405,0,0,1-2.6,1.655,11.683,11.683,0,0,1-3.935.581A12.115,12.115,0,0,1,533.931.172a5.962,5.962,0,0,1-2.58-5.2,6.533,6.533,0,0,1,1.161-3.848,7.574,7.574,0,0,1,3.311-2.58,12.777,12.777,0,0,1,5.074-.925,22.157,22.157,0,0,1,5.547.645A21.472,21.472,0,0,1,551-10.019a23.447,23.447,0,0,1,3.677,2.344q1.613,1.268,2.9,2.429L554.614-.731a47.07,47.07,0,0,0-4.773-4,21.114,21.114,0,0,0-4.622-2.58,12.894,12.894,0,0,0-4.752-.9,5.635,5.635,0,0,0-2.945.688,2.15,2.15,0,0,0-1.139,1.935A1.994,1.994,0,0,0,537.543-3.7a6.109,6.109,0,0,0,2.838.6,4.182,4.182,0,0,0,2.107-.452,2.472,2.472,0,0,0,1.1-1.333,6.216,6.216,0,0,0,.323-2.129q0-1.118-.086-2.924t-.193-4.042q-.107-2.236-.193-4.665t-.086-4.752q0-2.451-.022-4.45t-.021-2.989q0-.473-.086-1.333t-.215-1.5Zm-20.984.473q-.129.43-.365,1.2t-.387,1.505q-.151.731-.237,1.118-.215.9-.473,2.43t-.537,3.44q-.28,1.914-.537,3.913t-.387,3.784q-.129,1.785-.129,3.075,0,.645.021,1.4a8.35,8.35,0,0,0,.151,1.4q.3-.774.623-1.5t.667-1.462q.344-.731.645-1.462l2.623,2.15q-.6,1.763-1.226,3.7T527.5-4.859q-.494,1.72-.753,2.881-.086.43-.151,1.032a9.63,9.63,0,0,0-.065.989q0,.344.022.839t.064.924l-4.859.387a41.253,41.253,0,0,1-1.2-5.826,55.44,55.44,0,0,1-.516-7.933q0-2.408.215-5.052t.495-5.1q.28-2.451.58-4.493T521.8-29.5q.129-.9.258-2.043t.172-2.171Zm33.2,1.849h38.356v4.859H561.365Zm11.61,15.523h18.662v4.3H572.975Zm-3.827-7.267h21.715v4.515H574.222v22.4h-5.074Zm20.683,0h5.074V-1.72a8.215,8.215,0,0,1-.452,3.01,3.237,3.237,0,0,1-1.784,1.72,8.972,8.972,0,0,1-3.182.731q-1.892.129-4.515.129a14.288,14.288,0,0,0-.581-2.516,16.818,16.818,0,0,0-.967-2.473l2.236.086q1.118.043,2,.043h1.226a1.339,1.339,0,0,0,.753-.215.778.778,0,0,0,.193-.6ZM574.7-36.55l5.332,1.2a73.1,73.1,0,0,1-3.762,9.568,48.18,48.18,0,0,1-5.418,8.837,33.217,33.217,0,0,1-7.375,7.009q-.387-.559-1.01-1.311t-1.247-1.462a15.475,15.475,0,0,0-1.139-1.183,27.858,27.858,0,0,0,5.181-4.472,35.848,35.848,0,0,0,4.171-5.611,45.334,45.334,0,0,0,3.139-6.235A49.966,49.966,0,0,0,574.7-36.55Zm-1.72,27.821h18.662v4.3H572.975Zm37.2-27.606h4.73V3.741h-4.73Zm-6.536,14.147h17.63v4.816h-17.63Zm5.59,2.537,2.881,1.419q-.559,2.15-1.29,4.536t-1.634,4.752q-.9,2.365-1.892,4.451A23.138,23.138,0,0,1,605.182-.86a13.412,13.412,0,0,0-.624-1.785q-.408-.967-.86-1.914t-.839-1.634a23.675,23.675,0,0,0,2.516-3.935q1.226-2.343,2.258-4.859A36.8,36.8,0,0,0,609.224-19.651Zm5.633,2.494q.344.344,1.01,1.075t1.484,1.656q.817.924,1.569,1.849t1.376,1.655a13.286,13.286,0,0,1,.881,1.118l-3.139,4.042q-.43-.946-1.118-2.214T615.416-10.6q-.817-1.354-1.591-2.559t-1.333-1.978ZM603.591-33.024l3.612-.946a34.568,34.568,0,0,1,1.01,3.354q.451,1.806.753,3.526t.43,3.1l-3.87,1.032a24.783,24.783,0,0,0-.323-3.118q-.28-1.741-.688-3.569A34.485,34.485,0,0,0,603.591-33.024Zm14.147-1.161,4.343.946q-.516,1.763-1.118,3.612t-1.2,3.547q-.6,1.7-1.118,2.989l-3.268-.946q.473-1.376.924-3.16t.839-3.634Q617.523-32.68,617.738-34.185Zm16.3-2.365h4.816V3.827h-4.816ZM621.178-9.632l22.1-3.956.774,4.773-22.1,4Zm2.408-21.07,2.537-3.483q1.2.688,2.516,1.591t2.494,1.849A13.4,13.4,0,0,1,633-28.982l-2.666,3.87a12.343,12.343,0,0,0-1.784-1.849q-1.139-.989-2.43-1.978T623.586-30.7Zm-1.935,10.836,2.408-3.7a29.027,29.027,0,0,1,2.666,1.526q1.376.882,2.623,1.763a13.625,13.625,0,0,1,2.021,1.7l-2.623,4.128a13.743,13.743,0,0,0-1.892-1.785q-1.2-.968-2.559-1.935A30.092,30.092,0,0,0,621.651-19.866Zm37.84,3.526a28.94,28.94,0,0,1-1.161,8.428,28.418,28.418,0,0,1-3.075,6.88A29.018,29.018,0,0,1,651.02,4.3l-4.085-1.806a33.862,33.862,0,0,0,3.891-5.117A25.765,25.765,0,0,0,653.6-8.837a25.875,25.875,0,0,0,1.032-7.5,25.815,25.815,0,0,0-1.032-7.525,26.274,26.274,0,0,0-2.773-6.214,31.65,31.65,0,0,0-3.891-5.1l4.085-1.806a29.018,29.018,0,0,1,4.235,5.332,28.418,28.418,0,0,1,3.075,6.88A28.94,28.94,0,0,1,659.491-16.34ZM688.6,7.783l10.707-42.441h4.171L692.816,7.783Zm44.591-38.356h5.074V3.268h-5.074ZM723.432-15.91l2.967-2.881q1.075.645,2.365,1.462t2.494,1.613q1.2.8,2.021,1.441l-3.1,3.182a17.424,17.424,0,0,0-1.892-1.505q-1.161-.817-2.451-1.72T723.432-15.91Zm-.258,8.17,3.01-2.838q1.075.731,2.408,1.656T731.15-7.1q1.226.9,2,1.591l-3.139,3.225a24.46,24.46,0,0,0-1.935-1.7q-1.2-.967-2.494-1.957T723.174-7.74Zm15.437-8.17,2.924-2.924q1.118.6,2.472,1.419t2.623,1.591a21.448,21.448,0,0,1,2.086,1.419l-3.01,3.268a20.644,20.644,0,0,0-1.957-1.484q-1.225-.838-2.6-1.72T738.611-15.91Zm-.516,8,2.967-2.838q1.118.688,2.516,1.613t2.688,1.784q1.29.86,2.15,1.548l-3.1,3.311a21.284,21.284,0,0,0-2.042-1.655q-1.268-.925-2.645-1.935T738.095-7.912ZM718.272-24.94H750.78v4.816H723.217V3.784h-4.945Zm30.487,0h5.074V-1.634a6.806,6.806,0,0,1-.495,2.881A3.347,3.347,0,0,1,751.6,2.838a9.153,9.153,0,0,1-3.1.688q-1.849.129-4.343.129a12.977,12.977,0,0,0-.667-2.3,15.6,15.6,0,0,0-1.01-2.215q1.075.043,2.15.064t1.956,0q.882-.021,1.182-.021a1.47,1.47,0,0,0,.774-.215.792.792,0,0,0,.215-.645Zm-32.336-9.116h39v5.074h-39Zm65.059,15.738a28.4,28.4,0,0,0,3.526,7.912,20.15,20.15,0,0,0,5.826,5.826,25.443,25.443,0,0,0,8.622,3.462A10.56,10.56,0,0,0,798.188.344q-.667.9-1.29,1.849a16.978,16.978,0,0,0-1.01,1.72,27.422,27.422,0,0,1-9.245-4.386,23.426,23.426,0,0,1-6.17-7.052,43.509,43.509,0,0,1-4.021-9.761ZM761.1-20.468h35.776v5.289H761.1Zm-1.333-13.2h38.27v5.289h-38.27Zm16,1.419h5.5v10.578a43.439,43.439,0,0,1-.387,5.655,24.75,24.75,0,0,1-1.505,5.805,20.331,20.331,0,0,1-3.268,5.482A23.337,23.337,0,0,1,770.452.107a37.354,37.354,0,0,1-8.664,3.849,10.987,10.987,0,0,0-.86-1.548q-.559-.86-1.182-1.7a12.726,12.726,0,0,0-1.182-1.4,32.759,32.759,0,0,0,7.719-3.2,20.406,20.406,0,0,0,5.009-4.063,16.439,16.439,0,0,0,2.838-4.515,20.014,20.014,0,0,0,1.29-4.709,31.848,31.848,0,0,0,.344-4.536Zm35.69,14.878h20.855v4.042H811.453Zm-.6,7.31h22.188v4.214H810.851Zm12.857-6.063h4.558V3.053h-4.558Zm-8.385.215h4.429V-7.7a14.878,14.878,0,0,1-.258,2.537,17.552,17.552,0,0,1-.881,3.117,13.333,13.333,0,0,1-1.742,3.182,11.626,11.626,0,0,1-2.795,2.688,14.15,14.15,0,0,0-1.548-1.57,16.437,16.437,0,0,0-1.763-1.4,8.66,8.66,0,0,0,2.817-2.709,10.211,10.211,0,0,0,1.376-3.182,12.3,12.3,0,0,0,.366-2.666Zm-8.944-13.115h10.793v3.354H806.379Zm19.952,0h10.836v3.354H826.331Zm8.815-5.848h5.074V-2.15a9.536,9.536,0,0,1-.409,3.118A3.249,3.249,0,0,1,838.2,2.752a7.422,7.422,0,0,1-2.881.817A36.972,36.972,0,0,1,831.1,3.7a13.288,13.288,0,0,0-.323-1.613q-.236-.925-.538-1.871a7.558,7.558,0,0,0-.688-1.591q1.462.043,2.838.064t1.892-.021a.865.865,0,0,0,.667-.215.938.938,0,0,0,.194-.645Zm-28.294,0H820.44v15.265H806.852v-3.7h8.772v-7.912h-8.772Zm30.96,0v3.655h-9.675v8.041h9.675v3.7H823.235V-34.873Zm-34.013,0h5.031V3.87H803.8Zm64.887-1.376H873.8v8.987h-5.117ZM870.707-18.4h4.9V.172h-4.9ZM859.14-35h4.687v5.117h15.222V-35h4.945v9.46H859.14Zm3.1,9.073,4.9,1.419a35.375,35.375,0,0,1-2.516,4.988,43.162,43.162,0,0,1-3.182,4.579,31.237,31.237,0,0,1-3.461,3.719,14.487,14.487,0,0,0-1.1-1.161q-.709-.688-1.44-1.354t-1.29-1.1a23.622,23.622,0,0,0,4.644-4.924A29.614,29.614,0,0,0,862.236-25.929Zm-1.892,4.644h24.08v3.956H865.332V3.741h-4.988Zm12.04-4.343,5.332,1.2q-.86,1.763-1.763,3.462t-1.634,2.9l-3.956-1.161q.387-.9.774-2.042t.731-2.3Q872.212-24.725,872.384-25.628ZM863.1-14.706H883.22v3.741H863.1Zm0,6.407H883.22v3.741H863.1Zm-.043,6.493H884.94v4H863.053Zm-9.46-34.572,4.859,1.548a71.8,71.8,0,0,1-3.268,7.289,71.641,71.641,0,0,1-4.085,6.966,40.964,40.964,0,0,1-4.558,5.741,14.156,14.156,0,0,0-.709-1.655q-.494-1.01-1.054-2.042t-.989-1.677a37.487,37.487,0,0,0,3.762-4.558,50.155,50.155,0,0,0,3.4-5.547A43.39,43.39,0,0,0,853.593-36.378Zm-4.128,11.911,4.9-4.9V3.784h-4.9Z" transform="translate(517 24661)" fill="#fff"/>
    <path id="パス_4801" data-name="パス 4801" d="M17.5-20.65a2.528,2.528,0,0,1-1.855-.77,2.528,2.528,0,0,1-.77-1.855,2.528,2.528,0,0,1,.77-1.855A2.528,2.528,0,0,1,17.5-25.9a2.528,2.528,0,0,1,1.855.77,2.528,2.528,0,0,1,.77,1.855,2.528,2.528,0,0,1-.77,1.855A2.528,2.528,0,0,1,17.5-20.65Zm0,6.335,11.55-11.55,1.015,1.015L18.515-13.3,30.065-1.75,29.05-.735,17.5-12.285,5.915-.7,4.9-1.715,16.485-13.3,4.935-24.85,5.95-25.865ZM10.15-13.3a2.528,2.528,0,0,1-.77,1.855,2.528,2.528,0,0,1-1.855.77,2.528,2.528,0,0,1-1.855-.77A2.528,2.528,0,0,1,4.9-13.3a2.528,2.528,0,0,1,.77-1.855,2.528,2.528,0,0,1,1.855-.77,2.528,2.528,0,0,1,1.855.77A2.528,2.528,0,0,1,10.15-13.3Zm14.7,0a2.528,2.528,0,0,1,.77-1.855,2.528,2.528,0,0,1,1.855-.77,2.528,2.528,0,0,1,1.855.77A2.528,2.528,0,0,1,30.1-13.3a2.528,2.528,0,0,1-.77,1.855,2.528,2.528,0,0,1-1.855.77,2.528,2.528,0,0,1-1.855-.77A2.528,2.528,0,0,1,24.85-13.3ZM17.5-5.95a2.528,2.528,0,0,1,1.855.77,2.528,2.528,0,0,1,.77,1.855,2.528,2.528,0,0,1-.77,1.855A2.528,2.528,0,0,1,17.5-.7a2.528,2.528,0,0,1-1.855-.77,2.528,2.528,0,0,1-.77-1.855,2.528,2.528,0,0,1,.77-1.855A2.528,2.528,0,0,1,17.5-5.95ZM46.795,0V-15.925q0-1.12.07-2.677t.14-2.713H46.83q-.455,1.05-.98,2.1T44.765-17.08L40.74-10.64H54.67v3.92H35.735v-3.5L45.4-25.935H51.59V0ZM56.14,6.335,64.855-28.21H68.25L59.57,6.335ZM72.065,0V-4.2h5.6V-20.545H72.94v-3.22a21.15,21.15,0,0,0,3.377-.857,12.406,12.406,0,0,0,2.643-1.312h3.815V-4.2H87.64V0ZM98.77.49a9.329,9.329,0,0,1-4.183-.875A10.54,10.54,0,0,1,91.665-2.45L94.4-5.565a5.413,5.413,0,0,0,1.82,1.33,5.311,5.311,0,0,0,2.275.525,4.713,4.713,0,0,0,2.135-.507,4.624,4.624,0,0,0,1.768-1.645,9.3,9.3,0,0,0,1.19-3.028,21.022,21.022,0,0,0,.438-4.655,18.316,18.316,0,0,0-.613-5.285,5.918,5.918,0,0,0-1.628-2.817,3.48,3.48,0,0,0-2.31-.858,3.141,3.141,0,0,0-1.75.525,3.557,3.557,0,0,0-1.277,1.575,6.5,6.5,0,0,0-.473,2.66,6.035,6.035,0,0,0,.455,2.5A3.226,3.226,0,0,0,97.7-13.755a3.725,3.725,0,0,0,1.943.49,4.485,4.485,0,0,0,2.24-.665,6.132,6.132,0,0,0,2.1-2.24l.245,3.465A7.024,7.024,0,0,1,102.6-11.06a8.473,8.473,0,0,1-1.978,1.085,5.515,5.515,0,0,1-1.96.385,8.005,8.005,0,0,1-3.815-.893,6.338,6.338,0,0,1-2.642-2.7,9.638,9.638,0,0,1-.963-4.568,9.058,9.058,0,0,1,1.12-4.6A7.881,7.881,0,0,1,95.34-25.34a8.1,8.1,0,0,1,4.06-1.05,8.433,8.433,0,0,1,3.518.752,8.44,8.44,0,0,1,2.975,2.31,11.3,11.3,0,0,1,2.065,3.99,19.717,19.717,0,0,1,.752,5.792,21.831,21.831,0,0,1-.805,6.318,12.454,12.454,0,0,1-2.222,4.357,9.1,9.1,0,0,1-3.2,2.538A8.769,8.769,0,0,1,98.77.49ZM133.7-13.3a23.555,23.555,0,0,1,.945-6.86,22.723,22.723,0,0,1,2.52-5.6,25.125,25.125,0,0,1,3.43-4.34l3.325,1.47a25.764,25.764,0,0,0-3.167,4.148,21.388,21.388,0,0,0-2.258,5.057,21.014,21.014,0,0,0-.84,6.125,21.062,21.062,0,0,0,.84,6.108,20.973,20.973,0,0,0,2.258,5.058A27.565,27.565,0,0,0,143.92,2.03L140.6,3.5a25.125,25.125,0,0,1-3.43-4.34,22.723,22.723,0,0,1-2.52-5.6A23.555,23.555,0,0,1,133.7-13.3Zm29.155-12.425a31.839,31.839,0,0,1-3.622,4.13A46.91,46.91,0,0,1,154.4-17.5,44.8,44.8,0,0,1,148.89-14a11.754,11.754,0,0,0-.717-1.155q-.438-.63-.945-1.225t-.962-1.05a32.473,32.473,0,0,0,5.775-3.552,41.8,41.8,0,0,0,4.952-4.427,26.787,26.787,0,0,0,3.482-4.445h4.375A37.427,37.427,0,0,0,168-26.04a33.376,33.376,0,0,0,3.675,3.36,37.4,37.4,0,0,0,4.025,2.765,30.014,30.014,0,0,0,4.165,2.065,13.007,13.007,0,0,0-1.5,1.82q-.7,1.015-1.295,1.96a45.542,45.542,0,0,1-4.043-2.415,48.421,48.421,0,0,1-3.937-2.923q-1.89-1.558-3.5-3.167A26.763,26.763,0,0,1,162.855-25.725ZM154.1-19.25h17.6v3.675H154.1Zm-4.2,7.14H175.84v3.64H149.9Zm-1.75,10.64H177.9V2.135h-29.75ZM160.58-17.78h4.445V.35H160.58ZM152.11-7.14l3.36-1.4q.665.875,1.313,1.925t1.173,2.065a11.049,11.049,0,0,1,.77,1.82l-3.6,1.61a11.665,11.665,0,0,0-.7-1.873q-.49-1.067-1.085-2.152A22.571,22.571,0,0,0,152.11-7.14Zm17.78-1.365,4.025,1.47q-1.05,1.61-2.17,3.2T169.68-1.12l-3.15-1.33q.6-.84,1.225-1.872t1.19-2.135Q169.5-7.56,169.89-8.505Zm22.4-4.8a23.556,23.556,0,0,1-.945,6.86,23.133,23.133,0,0,1-2.5,5.6,23.618,23.618,0,0,1-3.448,4.34L182.07,2.03a27.565,27.565,0,0,0,3.167-4.165,20.972,20.972,0,0,0,2.258-5.058,21.062,21.062,0,0,0,.84-6.108,21.014,21.014,0,0,0-.84-6.125,21.387,21.387,0,0,0-2.258-5.057,25.764,25.764,0,0,0-3.167-4.148l3.325-1.47a23.618,23.618,0,0,1,3.448,4.34,23.133,23.133,0,0,1,2.5,5.6A23.556,23.556,0,0,1,192.29-13.3Zm36.89-8.19q1.505.14,3.027.228t3.1.087q3.22,0,6.4-.28a46.039,46.039,0,0,0,5.88-.875v4.375q-2.73.385-5.915.612t-6.37.228q-1.54,0-3.062-.052t-3.062-.158Zm13.3-5.915q-.07.49-.122,1.085t-.088,1.19q-.035.56-.07,1.5t-.035,2.118v2.467q0,2.38.07,4.463t.175,3.85q.105,1.767.193,3.237t.088,2.73a8.273,8.273,0,0,1-.368,2.52A5.36,5.36,0,0,1,241.15-.21a5.214,5.214,0,0,1-2.117,1.347,9.509,9.509,0,0,1-3.2.473A9.861,9.861,0,0,1,230.09.14a4.853,4.853,0,0,1-2.1-4.235,5.318,5.318,0,0,1,.945-3.133,6.165,6.165,0,0,1,2.695-2.1,10.4,10.4,0,0,1,4.13-.753,18.035,18.035,0,0,1,4.515.525,17.477,17.477,0,0,1,3.71,1.4,19.083,19.083,0,0,1,2.992,1.907q1.313,1.032,2.363,1.977L246.925-.6A38.319,38.319,0,0,0,243.04-3.85a17.184,17.184,0,0,0-3.762-2.1,10.5,10.5,0,0,0-3.867-.735,4.587,4.587,0,0,0-2.4.56,1.75,1.75,0,0,0-.928,1.575,1.623,1.623,0,0,0,.945,1.54,4.972,4.972,0,0,0,2.31.49,3.4,3.4,0,0,0,1.715-.368,2.013,2.013,0,0,0,.893-1.085A5.06,5.06,0,0,0,238.21-5.7q0-.91-.07-2.38t-.158-3.29q-.088-1.82-.158-3.8t-.07-3.868q0-1.995-.018-3.622T237.72-25.1q0-.385-.07-1.085t-.175-1.225Zm-17.08.385q-.1.35-.3.98t-.315,1.225q-.122.6-.192.91-.175.735-.385,1.978t-.437,2.8q-.227,1.558-.437,3.185t-.315,3.08q-.1,1.452-.1,2.5,0,.525.018,1.138a6.8,6.8,0,0,0,.122,1.137q.245-.63.508-1.225t.542-1.19q.28-.595.525-1.19l2.135,1.75q-.49,1.435-1,3.01t-.91,2.975q-.4,1.4-.613,2.345-.07.35-.122.84a7.844,7.844,0,0,0-.053.8q0,.28.018.683t.053.752l-3.955.315a33.58,33.58,0,0,1-.98-4.742,45.123,45.123,0,0,1-.42-6.457q0-1.96.175-4.113t.4-4.147q.228-1.995.473-3.658t.385-2.677q.1-.735.21-1.663t.14-1.767ZM253.365,0V-4.2h5.6V-20.545H254.24v-3.22a21.15,21.15,0,0,0,3.378-.857,12.407,12.407,0,0,0,2.643-1.312h3.815V-4.2h4.865V0ZM280.84.49A12.626,12.626,0,0,1,277.165,0a11.543,11.543,0,0,1-2.87-1.3,14.319,14.319,0,0,1-2.24-1.75l2.38-3.29a11.6,11.6,0,0,0,1.592,1.33,7.543,7.543,0,0,0,1.89.945,6.879,6.879,0,0,0,2.223.35,4.876,4.876,0,0,0,2.363-.56A4.047,4.047,0,0,0,284.13-5.9a5.209,5.209,0,0,0,.6-2.573,4.726,4.726,0,0,0-1.207-3.465,4.25,4.25,0,0,0-3.168-1.225,5.562,5.562,0,0,0-1.925.3,10.839,10.839,0,0,0-1.96,1.033l-2.345-1.505.7-12.6h13.86v4.34h-9.415l-.49,5.495a8.277,8.277,0,0,1,1.505-.525,6.949,6.949,0,0,1,1.61-.175,9.243,9.243,0,0,1,3.99.857,6.621,6.621,0,0,1,2.9,2.677A8.984,8.984,0,0,1,289.87-8.61a9.1,9.1,0,0,1-1.277,4.918,8.513,8.513,0,0,1-3.325,3.115A9.434,9.434,0,0,1,280.84.49Zm16.66-13.3a3.041,3.041,0,0,1-2.31-.963,3.309,3.309,0,0,1-.91-2.363,3.339,3.339,0,0,1,.91-2.415,3.069,3.069,0,0,1,2.31-.945,3.028,3.028,0,0,1,2.275.945,3.339,3.339,0,0,1,.91,2.415,3.309,3.309,0,0,1-.91,2.363A3,3,0,0,1,297.5-12.81Zm0,13.3a3.015,3.015,0,0,1-2.31-.98,3.371,3.371,0,0,1-.91-2.38,3.339,3.339,0,0,1,.91-2.415,3.069,3.069,0,0,1,2.31-.945,3.028,3.028,0,0,1,2.275.945,3.339,3.339,0,0,1,.91,2.415,3.371,3.371,0,0,1-.91,2.38A2.976,2.976,0,0,1,297.5.49Zm16,0a7.331,7.331,0,0,1-4.6-1.523,9.778,9.778,0,0,1-3.08-4.55,22.123,22.123,0,0,1-1.1-7.508,21.388,21.388,0,0,1,1.1-7.4,9.434,9.434,0,0,1,3.08-4.427,7.5,7.5,0,0,1,4.6-1.47,7.425,7.425,0,0,1,4.62,1.487,9.614,9.614,0,0,1,3.063,4.428,21.236,21.236,0,0,1,1.1,7.385,22.122,22.122,0,0,1-1.1,7.508,9.841,9.841,0,0,1-3.062,4.55A7.311,7.311,0,0,1,313.5.49Zm0-4.025a2.785,2.785,0,0,0,2.03-.875,6.184,6.184,0,0,0,1.365-2.958,26.178,26.178,0,0,0,.49-5.722,25.472,25.472,0,0,0-.49-5.653,5.767,5.767,0,0,0-1.365-2.87,2.873,2.873,0,0,0-2.03-.822,2.854,2.854,0,0,0-1.978.822,5.864,5.864,0,0,0-1.418,2.87,23.828,23.828,0,0,0-.525,5.653,24.487,24.487,0,0,0,.525,5.722,6.287,6.287,0,0,0,1.418,2.958A2.768,2.768,0,0,0,313.5-3.535ZM334.145.49a7.331,7.331,0,0,1-4.6-1.523,9.778,9.778,0,0,1-3.08-4.55,22.123,22.123,0,0,1-1.1-7.508,21.388,21.388,0,0,1,1.1-7.4,9.434,9.434,0,0,1,3.08-4.427,7.5,7.5,0,0,1,4.6-1.47,7.425,7.425,0,0,1,4.62,1.487,9.614,9.614,0,0,1,3.063,4.428,21.237,21.237,0,0,1,1.1,7.385,22.123,22.123,0,0,1-1.1,7.508,9.841,9.841,0,0,1-3.062,4.55A7.311,7.311,0,0,1,334.145.49Zm0-4.025a2.785,2.785,0,0,0,2.03-.875,6.184,6.184,0,0,0,1.365-2.958,26.178,26.178,0,0,0,.49-5.722,25.472,25.472,0,0,0-.49-5.653,5.767,5.767,0,0,0-1.365-2.87,2.873,2.873,0,0,0-2.03-.822,2.854,2.854,0,0,0-1.978.822,5.864,5.864,0,0,0-1.418,2.87,23.828,23.828,0,0,0-.525,5.653,24.487,24.487,0,0,0,.525,5.722,6.287,6.287,0,0,0,1.418,2.958A2.768,2.768,0,0,0,334.145-3.535Zm26.25-8.26a11.2,11.2,0,0,0-2.275-1.855,5.714,5.714,0,0,0-2.94-.665,4.892,4.892,0,0,0-3.132,1.173,9.567,9.567,0,0,0-2.433,3.028l-3.85-2.1A13.14,13.14,0,0,1,350-17.062a9.516,9.516,0,0,1,5.285-1.592,10.306,10.306,0,0,1,4.5.945,12.352,12.352,0,0,1,3.763,2.9,10.962,10.962,0,0,0,2.292,1.855,5.734,5.734,0,0,0,2.923.665,4.892,4.892,0,0,0,3.133-1.172,9.568,9.568,0,0,0,2.432-3.027l3.85,2.1a13.14,13.14,0,0,1-4.235,4.847,9.516,9.516,0,0,1-5.285,1.593,10.337,10.337,0,0,1-4.48-.945A12.273,12.273,0,0,1,360.395-11.8ZM17.5,27.35a2.629,2.629,0,1,1,1.855-.77A2.528,2.528,0,0,1,17.5,27.35Zm0,6.335,11.55-11.55,1.015,1.015L18.515,34.7l11.55,11.55L29.05,47.265,17.5,35.715,5.915,47.3,4.9,46.285,16.485,34.7,4.935,23.15,5.95,22.135ZM10.15,34.7a2.629,2.629,0,0,1-2.625,2.625,2.625,2.625,0,0,1,0-5.25A2.629,2.629,0,0,1,10.15,34.7Zm14.7,0a2.629,2.629,0,1,1,.77,1.855A2.528,2.528,0,0,1,24.85,34.7ZM17.5,42.05a2.629,2.629,0,1,1-1.855.77A2.528,2.528,0,0,1,17.5,42.05ZM44.975,26.055V27.49h14.91V26.055Zm0-3.955v1.4h14.91V22.1ZM40.95,19.37H64.085V30.22H40.95ZM36.82,31.48H68.11v3.325H36.82ZM52.885,36.1H64.33v3.22H52.885Zm-10.675.105h7.945v2.9H42.21Zm0,4.41h7.945v2.9H42.21Zm14.945-1.61a14.47,14.47,0,0,0,4.5,5.53,18.781,18.781,0,0,0,7.228,3.29q-.385.385-.875.962a13.075,13.075,0,0,0-.91,1.208q-.42.63-.7,1.12a19.708,19.708,0,0,1-7.648-4.2,20.286,20.286,0,0,1-4.952-6.965ZM63.07,36.1h.77l.7-.1,2.59.98a21.344,21.344,0,0,1-2.975,6.388,19.766,19.766,0,0,1-4.533,4.655,24.152,24.152,0,0,1-5.757,3.1,11.5,11.5,0,0,0-1.015-1.733,11.3,11.3,0,0,0-1.26-1.557,19.3,19.3,0,0,0,3.868-1.68A17.159,17.159,0,0,0,58.8,43.66a16.643,16.643,0,0,0,2.607-3.185A14.177,14.177,0,0,0,63.07,36.73ZM36.505,45.69q1.785-.1,3.99-.262t4.655-.35q2.45-.193,4.935-.4V48.1q-3.535.315-7.017.647t-6.248.578ZM48.02,32.565h3.99V51.15H48.02Zm-8.435.07H43.4V46.95H39.585ZM89.565,39.6l2.38-2.625A26.794,26.794,0,0,1,94.57,38.1q1.365.665,2.573,1.365t2.082,1.33l-2.415,2.9a22.5,22.5,0,0,0-2.048-1.417q-1.208-.753-2.572-1.47A25.634,25.634,0,0,0,89.565,39.6Zm-3.78,6.265,2.415-2.94q1.715.455,3.535,1.085t3.588,1.33q1.767.7,3.342,1.435t2.8,1.4l-2.45,3.29a34.66,34.66,0,0,0-3.762-2.03q-2.222-1.05-4.708-1.978T85.785,45.865Zm4.3-27.615,4.1.7A41.558,41.558,0,0,1,90.632,25.3a27.26,27.26,0,0,1-5.3,5.757,6.988,6.988,0,0,0-.788-.945q-.507-.525-1.05-1.015a5.26,5.26,0,0,0-1-.735A22.168,22.168,0,0,0,85.89,25.18a24.4,24.4,0,0,0,2.52-3.5A23.112,23.112,0,0,0,90.09,18.25Zm.665,3.36h8.68v3.57H88.97Zm7.56,0h.805l.665-.175,2.59,1.47a26.723,26.723,0,0,1-4.1,7.035,30.27,30.27,0,0,1-5.705,5.442,31.558,31.558,0,0,1-6.545,3.693,8.345,8.345,0,0,0-.7-1.12q-.455-.63-.963-1.243a7.448,7.448,0,0,0-.927-.963,29.824,29.824,0,0,0,6.247-3.132A24.776,24.776,0,0,0,94.9,28.05a18.758,18.758,0,0,0,3.413-5.74Zm-7.98,2.73a22.371,22.371,0,0,0,3.518,4.778,25.6,25.6,0,0,0,4.9,3.99,27.844,27.844,0,0,0,5.792,2.783,10.154,10.154,0,0,0-.927,1q-.507.612-.98,1.243a9.108,9.108,0,0,0-.752,1.155A28.4,28.4,0,0,1,90.86,31.27a31.64,31.64,0,0,1-3.85-5.74ZM76.3,18.285l3.64,1.365q-.7,1.33-1.47,2.765t-1.505,2.73q-.735,1.295-1.4,2.24l-2.8-1.19q.63-1.085,1.295-2.45t1.26-2.8Q75.915,19.51,76.3,18.285Zm4.025,4.165,3.43,1.54q-1.26,1.995-2.765,4.183t-3.01,4.2q-1.505,2.013-2.835,3.518l-2.45-1.365q.98-1.19,2.03-2.678t2.083-3.115Q77.84,27.1,78.75,25.478T80.325,22.45ZM70.91,26.58l2.03-2.87q.91.805,1.872,1.768T76.6,27.4a10.514,10.514,0,0,1,1.242,1.733L75.705,32.39A11.482,11.482,0,0,0,74.5,30.535q-.788-1.015-1.732-2.065T70.91,26.58Zm8.4,4.2,2.765-1.155q.665,1.19,1.3,2.52t1.1,2.607a13.163,13.163,0,0,1,.647,2.292l-2.975,1.33a11.923,11.923,0,0,0-.6-2.345q-.455-1.295-1.033-2.677T79.31,30.78Zm-8.435,2.9q2.415-.07,5.775-.21t6.825-.28L83.44,36.52q-3.255.245-6.458.455t-5.757.385Zm9.17,5.81,2.94-.945q.665,1.505,1.277,3.273t.928,3.1l-3.115,1.12a25.61,25.61,0,0,0-.84-3.167Q80.64,41.035,80.045,39.495Zm-7.63-.665,3.465.63a44.184,44.184,0,0,1-.84,4.97,23.476,23.476,0,0,1-1.295,4.13,7.683,7.683,0,0,0-.945-.542q-.6-.3-1.208-.578a9,9,0,0,0-1.067-.42,16.006,16.006,0,0,0,1.225-3.763A40.107,40.107,0,0,0,72.415,38.83Zm3.92-3.29H80.01V51.15H76.335ZM110.39,20.385h24.43V50.66H130.3V24.62h-15.61V50.73H110.39Zm2.94,11.76h18.83v4.13H113.33Zm0,12.04H132.2V48.42H113.33ZM151.795,48V32.075q0-1.12.07-2.677t.14-2.713h-.175q-.455,1.05-.98,2.1t-1.085,2.135l-4.025,6.44h13.93v3.92H140.735v-3.5l9.66-15.715h6.195V48Zm9.345,6.335,8.715-34.545h3.4l-8.68,34.545ZM175.7,48V45.025q3.535-3.15,6.037-5.845a28.053,28.053,0,0,0,3.833-5.022,8.81,8.81,0,0,0,1.33-4.323,5.029,5.029,0,0,0-.455-2.205,3.31,3.31,0,0,0-1.312-1.452,4.094,4.094,0,0,0-2.117-.507,4.518,4.518,0,0,0-2.573.788,11.645,11.645,0,0,0-2.152,1.872l-2.87-2.765a14.062,14.062,0,0,1,3.727-2.958,9.659,9.659,0,0,1,4.533-1,8.85,8.85,0,0,1,4.288,1,7.119,7.119,0,0,1,2.852,2.782,8.355,8.355,0,0,1,1.015,4.2,10.949,10.949,0,0,1-1.173,4.778,24.877,24.877,0,0,1-3.132,4.847,58.055,58.055,0,0,1-4.34,4.76q1.015-.14,2.188-.227t2.083-.088h5.6V48Zm22.015,0V43.8h5.6V27.455H198.59v-3.22a21.149,21.149,0,0,0,3.378-.857,12.407,12.407,0,0,0,2.643-1.312h3.815V43.8h4.865V48ZM238.7,34.7a23.556,23.556,0,0,1,.945-6.86,22.724,22.724,0,0,1,2.52-5.6,25.125,25.125,0,0,1,3.43-4.34l3.325,1.47a25.764,25.764,0,0,0-3.167,4.148,21.387,21.387,0,0,0-2.258,5.057,21.014,21.014,0,0,0-.84,6.125,20.736,20.736,0,0,0,3.1,11.165,27.564,27.564,0,0,0,3.167,4.165L245.6,51.5a25.125,25.125,0,0,1-3.43-4.34,22.724,22.724,0,0,1-2.52-5.6A23.556,23.556,0,0,1,238.7,34.7Zm17.185-14.315h24.43V50.66H275.8V24.62H260.19V50.73h-4.305Zm2.94,11.76h18.83v4.13h-18.83Zm0,12.04H277.69V48.42H258.825ZM297.29,34.7a23.555,23.555,0,0,1-.945,6.86,23.133,23.133,0,0,1-2.5,5.6,23.617,23.617,0,0,1-3.448,4.34l-3.325-1.47a27.564,27.564,0,0,0,3.167-4.165,20.736,20.736,0,0,0,3.1-11.165,21.014,21.014,0,0,0-.84-6.125,21.387,21.387,0,0,0-2.258-5.057,25.764,25.764,0,0,0-3.167-4.148l3.325-1.47a23.617,23.617,0,0,1,3.448,4.34,23.133,23.133,0,0,1,2.5,5.6A23.555,23.555,0,0,1,297.29,34.7Zm36.89-8.19q1.5.14,3.027.228t3.1.087q3.22,0,6.4-.28a46.039,46.039,0,0,0,5.88-.875v4.375q-2.73.385-5.915.612t-6.37.228q-1.54,0-3.062-.052t-3.062-.158Zm13.3-5.915q-.07.49-.122,1.085t-.087,1.19q-.035.56-.07,1.5t-.035,2.118V28.96q0,2.38.07,4.463t.175,3.85q.1,1.767.193,3.237t.087,2.73a8.273,8.273,0,0,1-.367,2.52,5.361,5.361,0,0,1-1.173,2.03,5.214,5.214,0,0,1-2.117,1.347,9.509,9.509,0,0,1-3.2.472,9.861,9.861,0,0,1-5.74-1.47,4.853,4.853,0,0,1-2.1-4.235,5.318,5.318,0,0,1,.945-3.132,6.165,6.165,0,0,1,2.7-2.1,10.4,10.4,0,0,1,4.13-.753,18.035,18.035,0,0,1,4.515.525,17.476,17.476,0,0,1,3.71,1.4,19.082,19.082,0,0,1,2.993,1.907q1.312,1.033,2.362,1.978L351.925,47.4a38.32,38.32,0,0,0-3.885-3.255,17.185,17.185,0,0,0-3.763-2.1,10.5,10.5,0,0,0-3.867-.735,4.587,4.587,0,0,0-2.4.56,1.75,1.75,0,0,0-.927,1.575,1.623,1.623,0,0,0,.945,1.54,4.972,4.972,0,0,0,2.31.49,3.4,3.4,0,0,0,1.715-.368,2.013,2.013,0,0,0,.893-1.085,5.06,5.06,0,0,0,.262-1.733q0-.91-.07-2.38t-.158-3.29q-.087-1.82-.158-3.8t-.07-3.868q0-1.995-.018-3.622T342.72,22.9q0-.385-.07-1.085t-.175-1.225Zm-17.08.385q-.105.35-.3.98t-.315,1.225q-.122.6-.193.91-.175.735-.385,1.978t-.437,2.8q-.228,1.558-.437,3.185t-.315,3.08q-.1,1.453-.1,2.5,0,.525.017,1.138a6.794,6.794,0,0,0,.122,1.138q.245-.63.508-1.225t.542-1.19q.28-.6.525-1.19l2.135,1.75q-.49,1.435-1,3.01t-.91,2.975q-.4,1.4-.612,2.345-.07.35-.122.84a7.844,7.844,0,0,0-.052.805q0,.28.017.682t.052.753l-3.955.315a33.582,33.582,0,0,1-.98-4.743,45.125,45.125,0,0,1-.42-6.458q0-1.96.175-4.112t.4-4.147q.228-1.995.473-3.658t.385-2.677q.1-.735.21-1.663t.14-1.767Zm41.02,15.225a11.2,11.2,0,0,0-2.275-1.855,5.714,5.714,0,0,0-2.94-.665,4.892,4.892,0,0,0-3.132,1.173,9.567,9.567,0,0,0-2.433,3.028l-3.85-2.1a13.14,13.14,0,0,1,4.235-4.847,9.516,9.516,0,0,1,5.285-1.592,10.306,10.306,0,0,1,4.5.945,12.352,12.352,0,0,1,3.763,2.9,10.962,10.962,0,0,0,2.292,1.855,5.734,5.734,0,0,0,2.923.665,4.892,4.892,0,0,0,3.132-1.173,9.567,9.567,0,0,0,2.433-3.027l3.85,2.1a13.141,13.141,0,0,1-4.235,4.848,9.516,9.516,0,0,1-5.285,1.592,10.337,10.337,0,0,1-4.48-.945A12.273,12.273,0,0,1,371.42,36.205ZM392,48V45.025q3.535-3.15,6.038-5.845a28.052,28.052,0,0,0,3.832-5.022,8.81,8.81,0,0,0,1.33-4.323,5.029,5.029,0,0,0-.455-2.205,3.31,3.31,0,0,0-1.312-1.452,4.094,4.094,0,0,0-2.117-.507,4.518,4.518,0,0,0-2.573.788,11.646,11.646,0,0,0-2.152,1.872l-2.87-2.765a14.062,14.062,0,0,1,3.728-2.958,9.659,9.659,0,0,1,4.532-1,8.85,8.85,0,0,1,4.288,1,7.119,7.119,0,0,1,2.853,2.782,8.355,8.355,0,0,1,1.015,4.2,10.949,10.949,0,0,1-1.173,4.778,24.876,24.876,0,0,1-3.133,4.847,58.054,58.054,0,0,1-4.34,4.76q1.015-.14,2.188-.227t2.083-.088h5.6V48Zm29.47.49a7.331,7.331,0,0,1-4.6-1.523,9.778,9.778,0,0,1-3.08-4.55,22.123,22.123,0,0,1-1.1-7.507,21.388,21.388,0,0,1,1.1-7.4,9.434,9.434,0,0,1,3.08-4.427,7.5,7.5,0,0,1,4.6-1.47,7.425,7.425,0,0,1,4.62,1.487,9.614,9.614,0,0,1,3.063,4.428,21.236,21.236,0,0,1,1.1,7.385,22.122,22.122,0,0,1-1.1,7.507,9.841,9.841,0,0,1-3.062,4.55A7.311,7.311,0,0,1,421.47,48.49Zm0-4.025a2.785,2.785,0,0,0,2.03-.875,6.184,6.184,0,0,0,1.365-2.958,26.178,26.178,0,0,0,.49-5.722,25.472,25.472,0,0,0-.49-5.653,5.767,5.767,0,0,0-1.365-2.87,2.852,2.852,0,0,0-4.008,0,5.864,5.864,0,0,0-1.418,2.87,23.828,23.828,0,0,0-.525,5.653,24.487,24.487,0,0,0,.525,5.722,6.287,6.287,0,0,0,1.418,2.958A2.768,2.768,0,0,0,421.47,44.465ZM437.5,35.19a3.042,3.042,0,0,1-2.31-.963,3.59,3.59,0,0,1,0-4.778,3.069,3.069,0,0,1,2.31-.945,3.028,3.028,0,0,1,2.275.945,3.59,3.59,0,0,1,0,4.778A3,3,0,0,1,437.5,35.19Zm0,13.3a3.015,3.015,0,0,1-2.31-.98,3.613,3.613,0,0,1,0-4.795,3.069,3.069,0,0,1,2.31-.945,3.028,3.028,0,0,1,2.275.945,3.613,3.613,0,0,1,0,4.795A2.976,2.976,0,0,1,437.5,48.49Zm16,0a7.331,7.331,0,0,1-4.6-1.523,9.778,9.778,0,0,1-3.08-4.55,22.123,22.123,0,0,1-1.1-7.507,21.388,21.388,0,0,1,1.1-7.4,9.434,9.434,0,0,1,3.08-4.427,7.5,7.5,0,0,1,4.6-1.47,7.425,7.425,0,0,1,4.62,1.487,9.614,9.614,0,0,1,3.063,4.428,21.236,21.236,0,0,1,1.1,7.385,22.122,22.122,0,0,1-1.1,7.507,9.841,9.841,0,0,1-3.062,4.55A7.311,7.311,0,0,1,453.5,48.49Zm0-4.025a2.785,2.785,0,0,0,2.03-.875,6.184,6.184,0,0,0,1.365-2.958,26.178,26.178,0,0,0,.49-5.722,25.472,25.472,0,0,0-.49-5.653,5.767,5.767,0,0,0-1.365-2.87,2.852,2.852,0,0,0-4.008,0,5.864,5.864,0,0,0-1.418,2.87,23.828,23.828,0,0,0-.525,5.653,24.487,24.487,0,0,0,.525,5.722,6.287,6.287,0,0,0,1.418,2.958A2.768,2.768,0,0,0,453.5,44.465Zm20.65,4.025a7.331,7.331,0,0,1-4.6-1.523,9.778,9.778,0,0,1-3.08-4.55,22.123,22.123,0,0,1-1.1-7.507,21.388,21.388,0,0,1,1.1-7.4,9.434,9.434,0,0,1,3.08-4.427,7.5,7.5,0,0,1,4.6-1.47,7.425,7.425,0,0,1,4.62,1.487,9.614,9.614,0,0,1,3.063,4.428,21.237,21.237,0,0,1,1.1,7.385,22.123,22.123,0,0,1-1.1,7.507,9.841,9.841,0,0,1-3.062,4.55A7.311,7.311,0,0,1,474.145,48.49Zm0-4.025a2.785,2.785,0,0,0,2.03-.875,6.184,6.184,0,0,0,1.365-2.958,26.178,26.178,0,0,0,.49-5.722,25.472,25.472,0,0,0-.49-5.653,5.767,5.767,0,0,0-1.365-2.87,2.852,2.852,0,0,0-4.008,0,5.864,5.864,0,0,0-1.418,2.87,23.828,23.828,0,0,0-.525,5.653,24.487,24.487,0,0,0,.525,5.722,6.287,6.287,0,0,0,1.418,2.958A2.768,2.768,0,0,0,474.145,44.465Zm31.22-24.78q-.07.525-.122,1.173t-.087,1.313q-.035.7-.07,1.873t-.035,2.572v5.25q0,1.47.07,3.273t.193,3.64q.122,1.838.21,3.43t.087,2.642a4.878,4.878,0,0,1-.77,2.678,5.2,5.2,0,0,1-2.293,1.908,9.184,9.184,0,0,1-3.832.7q-4.2,0-6.37-1.54a5.321,5.321,0,0,1-1.138-7.437,6.784,6.784,0,0,1,2.975-2.118,12.573,12.573,0,0,1,4.638-.77,22.55,22.55,0,0,1,5.372.612,23.865,23.865,0,0,1,4.568,1.592,28.249,28.249,0,0,1,3.675,2.065q1.61,1.085,2.73,1.96l-2.52,3.92a30.934,30.934,0,0,0-2.818-2.345,24.486,24.486,0,0,0-3.4-2.1,20.838,20.838,0,0,0-3.885-1.522,15.852,15.852,0,0,0-4.322-.577,5.279,5.279,0,0,0-2.818.63,1.815,1.815,0,0,0-1,1.54,1.718,1.718,0,0,0,.42,1.155,2.539,2.539,0,0,0,1.225.735,7.1,7.1,0,0,0,2.03.245,5.569,5.569,0,0,0,1.628-.21,1.949,1.949,0,0,0,1.068-.77,2.757,2.757,0,0,0,.385-1.575q0-.77-.053-2.205t-.122-3.167q-.07-1.733-.14-3.413t-.07-2.975q0-1.26.018-2.642t.017-2.747q0-1.365.017-2.5t.018-1.872q0-.49-.052-1.208a9.04,9.04,0,0,0-.158-1.208Zm-14.525,3.29q.945.14,2.1.28t2.362.263q1.208.123,2.293.175t1.89.052q3.57,0,7.123-.227t7.367-.858l-.035,4.025q-1.785.245-4.13.455t-4.987.333q-2.643.123-5.3.122-1.085,0-2.677-.087t-3.168-.245q-1.575-.158-2.73-.3Zm-.175,7.56q.84.14,1.995.28t2.362.21q1.208.07,2.293.122t1.785.053q3.255,0,5.9-.14t4.953-.35q2.31-.21,4.445-.49l-.035,4.13q-1.82.21-3.517.35t-3.465.245q-1.768.1-3.8.14t-4.55.035q-1.015,0-2.52-.053t-3.062-.157q-1.557-.1-2.747-.245Zm31.22-6.545q1.05-.035,1.995-.087t1.435-.087q1.085-.07,2.678-.228t3.57-.333q1.977-.175,4.217-.35t4.655-.385q1.82-.175,3.622-.3t3.43-.21q1.628-.087,2.852-.122l.035,4.48q-.945,0-2.17.035t-2.432.122a12.106,12.106,0,0,0-2.152.333,8.787,8.787,0,0,0-2.94,1.417,10.983,10.983,0,0,0-2.363,2.345,11.267,11.267,0,0,0-1.557,2.9,9.2,9.2,0,0,0-.56,3.132,7.085,7.085,0,0,0,.613,3.028,6.662,6.662,0,0,0,1.68,2.24,9.419,9.419,0,0,0,2.5,1.54,14.961,14.961,0,0,0,3.1.928,27.034,27.034,0,0,0,3.448.42l-1.645,4.8a21.783,21.783,0,0,1-4.287-.7,18.128,18.128,0,0,1-3.9-1.54,12.522,12.522,0,0,1-3.167-2.4,10.931,10.931,0,0,1-2.135-3.255,10.341,10.341,0,0,1-.787-4.112,12.949,12.949,0,0,1,.8-4.638,14.805,14.805,0,0,1,2.013-3.71,12.132,12.132,0,0,1,2.4-2.468q-.98.14-2.362.28t-2.975.333q-1.593.192-3.238.4t-3.167.473q-1.523.263-2.747.507ZM545.37,29.8q.455.63.962,1.487t1,1.715q.49.858.84,1.557l-2.66,1.19q-.665-1.47-1.277-2.59a21.071,21.071,0,0,0-1.453-2.275Zm3.92-1.61q.455.63,1,1.452t1.068,1.68q.525.858.875,1.523L549.6,34.1q-.7-1.4-1.348-2.485a24.636,24.636,0,0,0-1.522-2.24Z" transform="translate(863 24418)" fill="#fff"/>
    <g id="グループ_727" data-name="グループ 727" transform="translate(-4 3385)">
      <path id="パス_3908" data-name="パス 3908" d="M214.2,304.38v37.543H210.05V304.38Z" transform="translate(857.598 20552.504)" fill="#fff"/>
      <path id="パス_3909" data-name="パス 3909" d="M271.175,304.38v37.543H267.02V304.38Z" transform="translate(865.658 20552.504)" fill="#fff"/>
      <path id="パス_3911" data-name="パス 3911" d="M433.855,304.38v37.543H429.7V304.38Z" transform="translate(888.673 20552.504)" fill="#fff"/>
      <path id="パス_3912" data-name="パス 3912" d="M488.365,304.38v37.543H484.21V304.38Z" transform="translate(896.385 20552.504)" fill="#fff"/>
      <path id="パス_3951" data-name="パス 3951" d="M329.984,308.565,294.69,288.19v40.762Z" transform="translate(869.573 20550.215)" fill="#fff"/>
      <path id="パス_4800" data-name="パス 4800" d="M29.656,0V-38.28q0-2.9.176-6.864t.352-6.864h-.44Q28.6-49.456,27.28-46.9t-2.728,5.192L14.432-25.7H49.456v9.944H1.848V-24.64L26.136-63.448H41.712V0Zm23.5,15.928L75.064-70.928H83.6L61.776,15.928ZM93.192,0V-10.56h14.08V-49.9H95.392v-8.1a55.487,55.487,0,0,0,8.492-2.288,39.63,39.63,0,0,0,6.644-3.168h9.592V-10.56h12.232V0ZM160.16,1.232a22.962,22.962,0,0,1-10.384-2.2,26.693,26.693,0,0,1-7.3-5.192l6.864-7.832a12.768,12.768,0,0,0,4.444,3.344,12.887,12.887,0,0,0,5.588,1.32,12.235,12.235,0,0,0,7.172-2.244q3.212-2.244,5.1-7.524t1.892-14.344A41.86,41.86,0,0,0,172-46.068q-1.54-4.708-4.092-6.776a8.973,8.973,0,0,0-5.808-2.068,8.307,8.307,0,0,0-4.4,1.232,8.461,8.461,0,0,0-3.212,3.74,14.683,14.683,0,0,0-1.188,6.292A13.25,13.25,0,0,0,154.44-37.8a7.408,7.408,0,0,0,3.256,3.432,10.523,10.523,0,0,0,4.928,1.1,11.145,11.145,0,0,0,5.544-1.672,15.286,15.286,0,0,0,5.28-5.72l.616,8.712a16.642,16.642,0,0,1-4.136,4.224,22.544,22.544,0,0,1-4.972,2.728,13.311,13.311,0,0,1-4.8.968,21,21,0,0,1-9.68-2.156,15.684,15.684,0,0,1-6.644-6.468,22.293,22.293,0,0,1-2.42-11,21.457,21.457,0,0,1,2.816-11.22,19.522,19.522,0,0,1,7.48-7.26A20.919,20.919,0,0,1,161.92-64.68a21.631,21.631,0,0,1,8.844,1.848,21.363,21.363,0,0,1,7.48,5.632,27.146,27.146,0,0,1,5.192,9.68,46.336,46.336,0,0,1,1.892,14.08A53.275,53.275,0,0,1,183.3-17.82a30,30,0,0,1-5.632,10.78,23.083,23.083,0,0,1-8.14,6.248A22.749,22.749,0,0,1,160.16,1.232Z" transform="translate(867 20892)" fill="#fff"/>
      <path id="パス_4799" data-name="パス 4799" d="M20.336-30.135A37.3,37.3,0,0,1,16.093-25.3a54.953,54.953,0,0,1-5.658,4.8,52.479,52.479,0,0,1-6.457,4.1,13.772,13.772,0,0,0-.841-1.353q-.512-.738-1.107-1.435T.9-20.418A38.04,38.04,0,0,0,7.667-24.58a48.968,48.968,0,0,0,5.8-5.187,31.379,31.379,0,0,0,4.08-5.207h5.125a43.845,43.845,0,0,0,3.69,4.469,39.1,39.1,0,0,0,4.305,3.936,43.813,43.813,0,0,0,4.715,3.239,35.159,35.159,0,0,0,4.879,2.419A15.238,15.238,0,0,0,38.5-18.778q-.82,1.189-1.517,2.3a53.349,53.349,0,0,1-4.736-2.829,56.723,56.723,0,0,1-4.612-3.424q-2.214-1.825-4.1-3.711A31.352,31.352,0,0,1,20.336-30.135ZM10.086-22.55H30.709v4.305H10.086Zm-4.92,8.364H35.547v4.264H5.166ZM3.116-1.722h34.85V2.5H3.116ZM17.671-20.828h5.207V.41H17.671ZM7.749-8.364,11.685-10q.779,1.025,1.538,2.255T14.6-5.33A12.943,12.943,0,0,1,15.5-3.2L11.275-1.312a13.664,13.664,0,0,0-.82-2.194q-.574-1.25-1.271-2.521A26.44,26.44,0,0,0,7.749-8.364Zm20.828-1.6,4.715,1.722Q32.062-6.355,30.75-4.49T28.331-1.312L24.641-2.87q.7-.984,1.435-2.193t1.394-2.5Q28.126-8.856,28.577-9.963Z" transform="translate(1082 20890)" fill="#fff"/>
      <path id="パス_4798" data-name="パス 4798" d="M3.827,0V-7.565q8.544-8.188,14.952-14.819a83.593,83.593,0,0,0,9.968-12.1q3.56-5.473,3.56-10.19a12.432,12.432,0,0,0-1.157-5.607,8.245,8.245,0,0,0-3.337-3.56,10.709,10.709,0,0,0-5.385-1.246,11.313,11.313,0,0,0-6.542,2.047,33.08,33.08,0,0,0-5.473,4.717l-7.3-7.12a36.536,36.536,0,0,1,9.479-7.431,24.563,24.563,0,0,1,11.525-2.537,22.831,22.831,0,0,1,10.9,2.492,17.889,17.889,0,0,1,7.253,6.986A20.812,20.812,0,0,1,44.856-45.39a24.023,24.023,0,0,1-3.07,11.3,66.091,66.091,0,0,1-8.1,11.7q-5.029,5.919-10.992,12.149,2.492-.356,5.518-.578t5.34-.222H47.971V0ZM59.808,0V-10.68h14.24V-50.463H62.033v-8.188a56.117,56.117,0,0,0,8.589-2.314,40.08,40.08,0,0,0,6.72-3.2h9.7V-10.68H99.413V0Z" transform="translate(1202 20893)" fill="#fff"/>
      <path id="パス_4797" data-name="パス 4797" d="M6.314-32.349H34.932V3.116H29.643v-30.5H11.357V3.2H6.314ZM9.758-18.573H31.816v4.838H9.758Zm0,14.1h22.1V.492H9.758Z" transform="translate(1332 20890)" fill="#fff"/>
    </g>
    <path id="パス_4796" data-name="パス 4796" d="M4.92,0V-7.2h9.6V-34.02H6.42v-5.52a37.832,37.832,0,0,0,5.79-1.56,27.02,27.02,0,0,0,4.53-2.16h6.54V-7.2h8.34V0Zm35.4,0V-7.2h9.6V-34.02h-8.1v-5.52a37.832,37.832,0,0,0,5.79-1.56,27.021,27.021,0,0,0,4.53-2.16h6.54V-7.2h8.34V0ZM80.58-21.96a5.214,5.214,0,0,1-3.96-1.65,5.673,5.673,0,0,1-1.56-4.05,5.724,5.724,0,0,1,1.56-4.14,5.262,5.262,0,0,1,3.96-1.62,5.191,5.191,0,0,1,3.9,1.62,5.724,5.724,0,0,1,1.56,4.14,5.673,5.673,0,0,1-1.56,4.05A5.145,5.145,0,0,1,80.58-21.96Zm0,22.8A5.169,5.169,0,0,1,76.62-.84a5.778,5.778,0,0,1-1.56-4.08,5.724,5.724,0,0,1,1.56-4.14,5.262,5.262,0,0,1,3.96-1.62,5.191,5.191,0,0,1,3.9,1.62,5.724,5.724,0,0,1,1.56,4.14A5.778,5.778,0,0,1,84.48-.84,5.1,5.1,0,0,1,80.58.84ZM108,.84a12.658,12.658,0,0,1-7.95-2.61A16.6,16.6,0,0,1,94.8-9.42a35.907,35.907,0,0,1-1.86-12.36A35.334,35.334,0,0,1,94.8-34.11a16.01,16.01,0,0,1,5.25-7.47A12.959,12.959,0,0,1,108-44.1a12.959,12.959,0,0,1,7.95,2.52,16.01,16.01,0,0,1,5.25,7.47,35.334,35.334,0,0,1,1.86,12.33A35.907,35.907,0,0,1,121.2-9.42a16.6,16.6,0,0,1-5.25,7.65A12.658,12.658,0,0,1,108,.84Zm0-6.9a4.926,4.926,0,0,0,3.48-1.41,9.821,9.821,0,0,0,2.34-4.86,41.779,41.779,0,0,0,.84-9.45,40.889,40.889,0,0,0-.84-9.42,9.111,9.111,0,0,0-2.34-4.68A5.107,5.107,0,0,0,108-37.2a5.069,5.069,0,0,0-3.39,1.32,9.277,9.277,0,0,0-2.43,4.68,38.257,38.257,0,0,0-.9,9.42,39.089,39.089,0,0,0,.9,9.45,9.993,9.993,0,0,0,2.43,4.86A4.892,4.892,0,0,0,108-6.06ZM143.4.84a12.658,12.658,0,0,1-7.95-2.61,16.6,16.6,0,0,1-5.25-7.65,35.907,35.907,0,0,1-1.86-12.36,35.334,35.334,0,0,1,1.86-12.33,16.01,16.01,0,0,1,5.25-7.47,12.959,12.959,0,0,1,7.95-2.52,12.959,12.959,0,0,1,7.95,2.52,16.01,16.01,0,0,1,5.25,7.47,35.334,35.334,0,0,1,1.86,12.33A35.907,35.907,0,0,1,156.6-9.42a16.6,16.6,0,0,1-5.25,7.65A12.658,12.658,0,0,1,143.4.84Zm0-6.9a4.926,4.926,0,0,0,3.48-1.41,9.821,9.821,0,0,0,2.34-4.86,41.78,41.78,0,0,0,.84-9.45,40.889,40.889,0,0,0-.84-9.42,9.111,9.111,0,0,0-2.34-4.68,5.107,5.107,0,0,0-3.48-1.32,5.069,5.069,0,0,0-3.39,1.32,9.277,9.277,0,0,0-2.43,4.68,38.257,38.257,0,0,0-.9,9.42,39.088,39.088,0,0,0,.9,9.45,9.993,9.993,0,0,0,2.43,4.86A4.892,4.892,0,0,0,143.4-6.06Zm45-14.16a19.206,19.206,0,0,0-3.9-3.18,9.8,9.8,0,0,0-5.04-1.14,8.387,8.387,0,0,0-5.37,2.01,16.4,16.4,0,0,0-4.17,5.19l-6.6-3.6a22.527,22.527,0,0,1,7.26-8.31,16.313,16.313,0,0,1,9.06-2.73,17.667,17.667,0,0,1,7.71,1.62,21.175,21.175,0,0,1,6.45,4.98,18.792,18.792,0,0,0,3.93,3.18,9.83,9.83,0,0,0,5.01,1.14,8.387,8.387,0,0,0,5.37-2.01,16.4,16.4,0,0,0,4.17-5.19l6.6,3.6a22.527,22.527,0,0,1-7.26,8.31,16.314,16.314,0,0,1-9.06,2.73,17.72,17.72,0,0,1-7.68-1.62A21.039,21.039,0,0,1,188.4-20.22ZM223.68,0V-5.1q5.76-5.52,10.08-9.99a56.356,56.356,0,0,0,6.72-8.16,12.793,12.793,0,0,0,2.4-6.87,8.381,8.381,0,0,0-.78-3.78,5.558,5.558,0,0,0-2.25-2.4,7.22,7.22,0,0,0-3.63-.84,7.627,7.627,0,0,0-4.41,1.38,22.3,22.3,0,0,0-3.69,3.18l-4.92-4.8a24.631,24.631,0,0,1,6.39-5.01,16.559,16.559,0,0,1,7.77-1.71,15.392,15.392,0,0,1,7.35,1.68,12.06,12.06,0,0,1,4.89,4.71,14.031,14.031,0,0,1,1.74,7.11,16.2,16.2,0,0,1-2.07,7.62,44.556,44.556,0,0,1-5.46,7.89q-3.39,3.99-7.41,8.19,1.68-.24,3.72-.39t3.6-.15h9.72V0Zm37.74,0V-7.2h9.6V-34.02h-8.1v-5.52a37.832,37.832,0,0,0,5.79-1.56,27.019,27.019,0,0,0,4.53-2.16h6.54V-7.2h8.34V0Zm40.26-21.96a5.214,5.214,0,0,1-3.96-1.65,5.673,5.673,0,0,1-1.56-4.05,5.723,5.723,0,0,1,1.56-4.14,5.262,5.262,0,0,1,3.96-1.62,5.191,5.191,0,0,1,3.9,1.62,5.723,5.723,0,0,1,1.56,4.14,5.673,5.673,0,0,1-1.56,4.05A5.145,5.145,0,0,1,301.68-21.96Zm0,22.8a5.169,5.169,0,0,1-3.96-1.68,5.778,5.778,0,0,1-1.56-4.08,5.723,5.723,0,0,1,1.56-4.14,5.262,5.262,0,0,1,3.96-1.62,5.191,5.191,0,0,1,3.9,1.62,5.723,5.723,0,0,1,1.56,4.14,5.778,5.778,0,0,1-1.56,4.08A5.1,5.1,0,0,1,301.68.84Zm27.42,0a12.658,12.658,0,0,1-7.95-2.61,16.6,16.6,0,0,1-5.25-7.65,35.907,35.907,0,0,1-1.86-12.36,35.335,35.335,0,0,1,1.86-12.33,16.01,16.01,0,0,1,5.25-7.47,12.959,12.959,0,0,1,7.95-2.52,12.959,12.959,0,0,1,7.95,2.52,16.01,16.01,0,0,1,5.25,7.47,35.334,35.334,0,0,1,1.86,12.33A35.907,35.907,0,0,1,342.3-9.42a16.6,16.6,0,0,1-5.25,7.65A12.658,12.658,0,0,1,329.1.84Zm0-6.9a4.926,4.926,0,0,0,3.48-1.41,9.821,9.821,0,0,0,2.34-4.86,41.78,41.78,0,0,0,.84-9.45,40.889,40.889,0,0,0-.84-9.42,9.111,9.111,0,0,0-2.34-4.68,5.107,5.107,0,0,0-3.48-1.32,5.069,5.069,0,0,0-3.39,1.32,9.277,9.277,0,0,0-2.43,4.68,38.257,38.257,0,0,0-.9,9.42,39.088,39.088,0,0,0,.9,9.45,9.993,9.993,0,0,0,2.43,4.86A4.892,4.892,0,0,0,329.1-6.06ZM364.5.84a12.658,12.658,0,0,1-7.95-2.61,16.6,16.6,0,0,1-5.25-7.65,35.907,35.907,0,0,1-1.86-12.36,35.335,35.335,0,0,1,1.86-12.33,16.01,16.01,0,0,1,5.25-7.47,12.959,12.959,0,0,1,7.95-2.52,12.959,12.959,0,0,1,7.95,2.52,16.01,16.01,0,0,1,5.25,7.47,35.334,35.334,0,0,1,1.86,12.33A35.907,35.907,0,0,1,377.7-9.42a16.6,16.6,0,0,1-5.25,7.65A12.658,12.658,0,0,1,364.5.84Zm0-6.9a4.926,4.926,0,0,0,3.48-1.41,9.821,9.821,0,0,0,2.34-4.86,41.78,41.78,0,0,0,.84-9.45,40.889,40.889,0,0,0-.84-9.42,9.111,9.111,0,0,0-2.34-4.68,5.107,5.107,0,0,0-3.48-1.32,5.069,5.069,0,0,0-3.39,1.32,9.277,9.277,0,0,0-2.43,4.68,38.257,38.257,0,0,0-.9,9.42,39.088,39.088,0,0,0,.9,9.45,9.993,9.993,0,0,0,2.43,4.86A4.892,4.892,0,0,0,364.5-6.06Z" transform="translate(863 24355)" fill="#fff"/>
  </g>
</svg>
