<svg id="kyosan_logo04" xmlns="http://www.w3.org/2000/svg" xmlns:xlink="http://www.w3.org/1999/xlink" width="262.89" height="85.771" viewBox="0 0 262.89 85.771">
  <defs>
    <clipPath id="clip-path">
      <rect id="長方形_756" data-name="長方形 756" width="262.89" height="85.772" fill="none"/>
    </clipPath>
  </defs>
  <g id="グループ_680" data-name="グループ 680" clip-path="url(#clip-path)">
    <path id="パス_4349" data-name="パス 4349" d="M328.5,23.131a14.6,14.6,0,0,0,3.6-9.736C332.1,6.259,326.8,0,320.764,0h-17.21V4.29h1.9c.6.01,2.569.264,2.569,3.1V48.812a2.83,2.83,0,0,1-2.651,3.107l-1.82.1v4.185h20.88c7.442,0,13.272-7.458,13.272-16.979,0-7.439-3.784-13.894-9.211-16.1m-10.728-1.176.044-16.977a9.468,9.468,0,0,1,5.7,8.417,9.722,9.722,0,0,1-5.74,8.56m-.078,29.628.064-24.361.883-.824a2.056,2.056,0,0,1,.5-.051h0c5.7,0,9.845,5.418,9.845,12.881,0,7.389-3.919,12.355-9.752,12.355Z" transform="translate(-157.788)" fill="#98002e"/>
    <path id="パス_4350" data-name="パス 4350" d="M35.087,27.812C35.087,13,25.766,0,15.141,0H0V4.29H1.9c.6.01,2.569.264,2.569,3.1V49.728l.676.59C6.075,51.129,7,51.976,8.118,53c.991.908,2.015,1.846,3.034,2.736l.54.474h3.449c10.625,0,19.946-12.958,19.946-27.729Zm-9.527,0v.667c0,10.444-3.028,21.688-11.429,22.841V4.8c8.4,1.161,11.429,12.487,11.429,23.007" transform="translate(0 0)" fill="#b3874b"/>
    <path id="パス_4351" data-name="パス 4351" d="M98.28,16.29h1.9c.475.01,1.581.222,1.581,1.976V50.492a1.747,1.747,0,0,1-1.658,1.98l-1.821.1v4.11h3.607L100.67,58.02c-.764.835-1.339,1.257-1.71,1.257-.005,0-.57-.061-1.526-2.216a55.868,55.868,0,0,1-1.988-5.748c-1.47-4.722-3.266-10.489-6.556-14.07,3.687-2.115,6.076-6.7,6.076-11.909,0-7.436-4.678-13.26-10.65-13.26H70.135V16.29H72.06c.451,0,1.5.195,1.5,1.976V50.492c0,1.691-1.132,1.949-1.611,1.981l-1.817.106v4.106H85.517V52.469h-1.9c-.491-.01-1.632-.222-1.632-1.977V38.744l.647-.672c.97.552,2.013,5.146,2.368,6.712.124.549.243,1.067.357,1.534,1.8,7.221,4.276,17.111,13.031,17.111a6.845,6.845,0,0,0,5.5-2.622l.992-1.389-2.731-2.732H120.88V47.8h-4.062v1.968c0,.023-.067,2.311-1.189,2.311h-5.446V36.714h.669c.9,0,1.172,1.955,1.189,2.439l.068,1.906H116.1V27.7H112.04v1.964a5.423,5.423,0,0,1-.283,1.547c-.326.9-.7.9-.9.9h-.669V16.614h5.446c.9,0,1.168,1.98,1.19,2.5l.068,1.905h3.992V12.074H98.28Zm-10.8,9.044c0,4.506-1.992,7.521-5.493,8.369V16.8c4.507.908,5.493,5.072,5.493,8.539" transform="translate(-36.456 -6.276)" fill="#b3874b"/>
    <path id="パス_4352" data-name="パス 4352" d="M237.6,16.287l1.82-.1v-4.11H227.812L222.063,37.25l-5.789-25.177H205.448v3.882l1.568.3c.477.092,1.183.383,1.183.715V51.789c0,.243-.586.55-1.036.679l-.894,0a1.512,1.512,0,0,1-1.711-1.34L197.08,13.649l-.318-1.576h-6.675l-7.779,39.266a1.6,1.6,0,0,1-1.44,1.132l-1.83.094v4.12h9.929v-3.88l-1.571-.3a1.2,1.2,0,0,1-.718-.359.96.96,0,0,1-.033-.55l2.183-11.249h5l2.326,11.67a2.175,2.175,0,0,1-.978.492l-1.545.319v3.858h21.745V52.807l-1.571-.3c-.517-.1-1.233-.4-1.233-.714V33.558l4.973,21.6.348,1.525h4.2l5.373-23.524V50.492c0,1.695-1.13,1.95-1.611,1.981l-1.816.106v4.107h15.382V52.469h-1.9c-.491-.01-1.632-.222-1.632-1.977V18.266a1.746,1.746,0,0,1,1.711-1.979M189.769,35.8l1.57-7.813,1.547,7.813Z" transform="translate(-93.065 -6.276)" fill="#b3874b"/>
    <path id="パス_4353" data-name="パス 4353" d="M506.982,56.548l-1.343,1.471c-.763.835-1.339,1.257-1.71,1.257-.005,0-.57-.061-1.526-2.216a55.75,55.75,0,0,1-1.988-5.748c-1.47-4.722-3.266-10.489-6.556-14.07,3.687-2.115,6.077-6.7,6.077-11.909,0-7.436-4.679-13.26-10.65-13.26H475.1V16.29h1.925c.451,0,1.5.195,1.5,1.976V50.492c0,1.691-1.132,1.949-1.611,1.981l-1.817.106v4.106h15.382V52.469h-1.9c-.491-.01-1.632-.222-1.632-1.977V38.744l.648-.672c.97.552,2.012,5.146,2.368,6.712.124.549.242,1.067.356,1.534,1.805,7.221,4.276,17.111,13.031,17.111a6.843,6.843,0,0,0,5.5-2.622l.993-1.389ZM492.448,25.334c0,4.506-1.992,7.521-5.494,8.369V16.8c4.508.908,5.494,5.072,5.494,8.539" transform="translate(-246.96 -6.276)" fill="#b3874b"/>
    <path id="パス_4354" data-name="パス 4354" d="M374.518,16.29h1.9c.475.01,1.581.221,1.581,1.976V50.492a1.748,1.748,0,0,1-1.659,1.98l-1.82.1v4.11h22.6V47.8h-4.061v1.968c0,.024-.067,2.311-1.188,2.311h-5.447V36.714h.669c.908,0,1.17,1.927,1.19,2.439l.068,1.906h3.992V27.7h-4.061v1.964a5.426,5.426,0,0,1-.284,1.548c-.325.9-.7.9-.9.9h-.669v-15.5h5.447c.9,0,1.171,2.009,1.19,2.5l.069,1.9h3.99V12.073h-22.6Z" transform="translate(-194.675 -6.276)" fill="#b3874b"/>
    <path id="パス_4355" data-name="パス 4355" d="M424.812,16.29h1.9c.475.01,1.581.221,1.581,1.976V50.492a1.748,1.748,0,0,1-1.659,1.98l-1.82.1v4.11h22.6V47.8H443.35v1.968c0,.023-.067,2.311-1.189,2.311h-5.447V36.714h.669c.9,0,1.173,1.955,1.19,2.439l.069,1.905h3.99V27.7h-4.061v1.964a5.444,5.444,0,0,1-.284,1.548c-.326.9-.7.9-.906.9h-.669v-15.5h5.447c.9,0,1.171,2.009,1.19,2.5l.068,1.905h3.992V12.073h-22.6Z" transform="translate(-220.818 -6.276)" fill="#b3874b"/>
    <rect id="長方形_755" data-name="長方形 755" width="262.89" height="3.815" transform="translate(0 62.35)" fill="#b3874b"/>
    <path id="パス_4356" data-name="パス 4356" d="M292.6,163.879h.13c.065,0,.065.021.13.021s.065-.021.13-.021h1.3c.065,0,.065.021.13.021s.065-.021.13-.021h1.041c.065,0,.065.021.13.021s.065-.021.109-.021h2.863c.064,0,.064.021.13.021s.064-.021.13-.021h.52c.044,0,.065-.022.108-.022a.479.479,0,0,0,.109-.064c.022-.043.065-.064.087-.107v-.128c0-.064.021-.064.021-.128V163.3c0-.064-.021-.064-.021-.128v-.128c0-.064.021-.064.021-.128v-.255c0-.064-.021-.064-.021-.128s.021-.064.021-.128-.021-.064-.021-.128v-.128c0-.064.021-.064.021-.128V161.9a.3.3,0,0,0-.043-.128.2.2,0,0,0-.065-.107.5.5,0,0,0-.109-.064c-.044,0-.065-.021-.108-.021h-5.834c-.065,0-.065.021-.13,0a.266.266,0,0,1,.022-.128v-.128a.262.262,0,0,1,.022-.128.3.3,0,0,1,.043-.128.351.351,0,0,1,.044-.107.468.468,0,0,1,.065-.107.3.3,0,0,1,.043-.128.46.46,0,0,0,.066-.107.378.378,0,0,1,.108-.085c.022-.042.022-.085.065-.106.022-.043.065-.064.087-.107.022-.022.043-.064.087-.085a.362.362,0,0,1,.086-.107c.022-.022.065-.043.087-.085a.382.382,0,0,0,.109-.085c.022-.021.065-.042.086-.085a.384.384,0,0,0,.109-.085.471.471,0,0,1,.109-.064c.021-.021.065-.042.086-.085a.391.391,0,0,0,.109-.085.466.466,0,0,1,.108-.064.491.491,0,0,1,.109-.064c.043-.021.065-.064.086-.085l.13-.064a.48.48,0,0,1,.108-.063l.086-.085a.949.949,0,0,0,.217-.149.476.476,0,0,0,.109-.064l.13-.064.086-.085c.044-.022.087-.022.13-.043a.22.22,0,0,1,.109-.085c.022-.021.065-.042.087-.064l.13-.064a.473.473,0,0,1,.108-.085.463.463,0,0,1,.109-.064c.022-.022.065-.043.087-.064l.13-.064.086-.085a.48.48,0,0,0,.109-.064.448.448,0,0,0,.108-.085c.044-.021.066-.042.108-.064a.465.465,0,0,0,.109-.064c.043-.021.065-.064.108-.085.022-.043.065-.043.109-.085a.5.5,0,0,1,.109-.064l.087-.085a.391.391,0,0,0,.109-.085c.043-.021.065-.064.086-.085a.37.37,0,0,0,.109-.085c.022-.021.065-.042.087-.085a.382.382,0,0,0,.109-.085l.086-.085c.022-.021.065-.043.109-.085l.087-.085.086-.085c.022-.042.065-.063.086-.106.022-.022.044-.064.087-.085a.353.353,0,0,1,.086-.106.445.445,0,0,0,.065-.107c.044-.022.044-.064.065-.107a.463.463,0,0,0,.065-.107c.021-.043.065-.064.086-.107a.427.427,0,0,0,.065-.107c.022-.043.044-.064.065-.107a.294.294,0,0,0,.044-.128c.021-.043.043-.064.065-.107a.292.292,0,0,1,.044-.128.3.3,0,0,1,.043-.128c0-.022,0-.085.022-.107,0-.043.022-.085.022-.128a.269.269,0,0,0,.022-.128c.022-.043.022-.085.044-.128v-.128a.273.273,0,0,1,.021-.128v-.255c0-.043-.021-.085-.021-.128V154.1c0-.043-.022-.085-.022-.128a.26.26,0,0,1-.022-.128.266.266,0,0,0-.022-.128c0-.043-.022-.085-.022-.128-.022-.043-.022-.085-.043-.128,0-.043-.022-.064-.044-.107a.265.265,0,0,0-.022-.128c-.022-.043-.022-.085-.044-.128a.3.3,0,0,1-.043-.128c-.022-.043-.065-.064-.065-.107-.022-.042-.043-.064-.065-.106s-.022-.085-.044-.128-.065-.064-.086-.106a.48.48,0,0,1-.065-.107c-.022-.043-.065-.064-.086-.107s-.044-.064-.066-.107-.064-.064-.086-.085l-.108-.107c-.022-.021-.044-.063-.087-.085-.021-.043-.065-.064-.086-.085a.214.214,0,0,1-.086-.107.443.443,0,0,1-.108-.064.484.484,0,0,1-.109-.063.369.369,0,0,0-.108-.085.378.378,0,0,0-.109-.085c-.044-.021-.065-.042-.108-.063a.49.49,0,0,1-.108-.064c-.044-.021-.087-.021-.13-.042l-.13-.064c-.022,0-.065-.042-.109-.064-.043,0-.086-.021-.13-.021-.043-.022-.065-.043-.108-.064a.284.284,0,0,1-.13-.021.274.274,0,0,0-.13-.022l-.13-.064a.281.281,0,0,1-.13-.021h-.13c-.043-.022-.087-.022-.13-.043h-.13c-.044-.022-.087,0-.13-.022h-.13a.282.282,0,0,0-.13-.021c-.044,0-.087.021-.13.021s-.087-.021-.13-.021a.282.282,0,0,1-.13.021c-.044,0-.086-.021-.13-.021a.281.281,0,0,1-.13.021h-.13a.315.315,0,0,0-.13.043c-.044,0-.086-.021-.13,0h-.13c-.044.022-.065.022-.109.043h-.13a.282.282,0,0,1-.13.021c-.043,0-.087.021-.13.021-.043.022-.087.022-.13.043-.043,0-.087.021-.13.021-.043.021-.065.042-.108.042a.278.278,0,0,1-.13.022,34.592,34.592,0,0,1-.261.085c-.021.022-.065.022-.109.043a.3.3,0,0,1-.13.043c-.043.021-.065.042-.108.064s-.087.022-.13.043a.312.312,0,0,0-.13.042.477.477,0,0,1-.109.064.5.5,0,0,1-.109.064c-.043.021-.065.043-.108.064s-.087.021-.109.042l-.13.064c-.043.021-.065.042-.109.064s-.065.043-.108.064-.065.064-.109.085-.065.042-.108.063a.389.389,0,0,0-.109.085c-.021.021-.065.043-.087.085-.043.021-.086.021-.108.064-.044.021-.065.064-.109.085-.022.021-.065.043-.087.064a.378.378,0,0,1-.109.085c-.022.043-.065.064-.086.107a.163.163,0,0,0-.086.085.378.378,0,0,0-.109.085c-.021.021-.043.064-.086.085a.346.346,0,0,0-.044.107.306.306,0,0,0-.043.128c0,.043.022.085.022.128a.31.31,0,0,0,.086.085.5.5,0,0,0,.109.085c.043.043.043.064.086.107l.087.085a.486.486,0,0,1,.109.085c.044.043.044.064.086.107s.065.042.108.085.043.064.087.107.065.021.108.064a.5.5,0,0,0,.086.107l.087.085c.064.043.043.064.108.107.043.043.065.022.109.064.043.064.022.064.086.107.022.043.065.043.109.064a.145.145,0,0,0,.13.022.238.238,0,0,0,.13-.043.5.5,0,0,0,.108-.064c.043-.043.043-.085.087-.107a.375.375,0,0,1,.086-.107.472.472,0,0,1,.109-.064.163.163,0,0,1,.086-.085c.022-.043.065-.064.086-.107.044-.022.065-.043.108-.064a.472.472,0,0,1,.109-.064.45.45,0,0,1,.108-.085.478.478,0,0,1,.109-.064,57.125,57.125,0,0,1,.217-.128c.044-.022.087-.022.13-.043a.473.473,0,0,1,.109-.064c.043,0,.065-.043.108-.043.043-.021.087-.021.13-.043a.372.372,0,0,1,.109-.042c.044-.022.086-.022.13-.043s.086,0,.13-.021c.044,0,.086-.022.13-.022a.282.282,0,0,1,.13-.021c.044,0,.065-.043.108-.043h.521a.94.94,0,0,1,.13.043h.152a.281.281,0,0,0,.13.021.317.317,0,0,1,.13.043.165.165,0,0,1,.108.043.31.31,0,0,1,.13.042c.044.022.065.064.109.085s.086.021.13.043l.086.085c.044.043.087.064.109.085.022.042.065.064.086.106.044.022.044.064.087.107a.469.469,0,0,1,.064.107c.022.043.044.064.066.107a.3.3,0,0,0,.043.128c0,.043.022.085.022.128.022.043.022.085.044.128,0,.043-.022.085-.022.128v.255c-.022.043-.022.085-.044.128s-.021.085-.043.107l-.066.128c-.022.042-.043.064-.064.107a.447.447,0,0,0-.066.107c-.043.021-.064.063-.086.085a.379.379,0,0,1-.108.085.374.374,0,0,1-.087.107c-.021.021-.043.064-.086.085a.486.486,0,0,1-.109.064c-.022.043-.065.064-.087.107-.043.021-.065.043-.109.064s-.065.042-.108.064-.065.064-.108.085a.479.479,0,0,1-.109.064c-.043.021-.065.042-.108.064-.022.021-.065.043-.109.085-.043.021-.065.043-.109.064s-.086.021-.108.063c-.044.022-.065.043-.108.064s-.065.042-.108.064a64.967,64.967,0,0,1-.218.128.486.486,0,0,0-.108.064l-.13.064c-.044.022-.065.043-.109.064s-.065.043-.108.064a.48.48,0,0,0-.108.064c-.044.022-.065.064-.109.085s-.086.021-.109.043l-.13.064a.387.387,0,0,0-.108.085,67.266,67.266,0,0,0-.217.128.5.5,0,0,1-.109.064c-.044.021-.065.042-.109.064s-.065.042-.109.064-.064.064-.108.085a.472.472,0,0,1-.109.064.377.377,0,0,0-.108.085.5.5,0,0,1-.109.064.458.458,0,0,1-.109.064c-.022.043-.065.064-.086.085-.044.022-.065.064-.109.085-.022.021-.065.043-.108.085-.022.022-.065.043-.087.064a.377.377,0,0,1-.108.085l-.087.085a.377.377,0,0,0-.087.107c-.043.021-.065.064-.086.085a.212.212,0,0,0-.109.085c-.022.022-.065.043-.087.085a.22.22,0,0,0-.087.107l-.086.085c-.022.042-.065.064-.087.107-.021.021-.065.042-.087.085a.375.375,0,0,1-.086.107.469.469,0,0,0-.065.107.487.487,0,0,0-.065.107.46.46,0,0,0-.087.107,102.477,102.477,0,0,1-.13.213.5.5,0,0,0-.065.107.159.159,0,0,1-.044.107l-.065.128c-.022.043-.043.064-.043.107a.3.3,0,0,0-.044.128.433.433,0,0,1-.065.107.3.3,0,0,1-.044.128.266.266,0,0,1-.022.128c-.022.043-.022.085-.043.128,0,.043-.022.064-.043.107,0,.043-.022.085-.022.128a.266.266,0,0,0-.022.128c-.022.042,0,.085-.022.128,0,.042-.022.085-.022.128s-.022.085-.022.128v.128a.268.268,0,0,1-.022.128v.128c-.022.021,0,.064,0,.107,0,.085-.022.085-.022.149v.128c0,.064.022.064.022.128s-.022.064-.022.128v.128c0,.064.022.064.022.128s-.022.064-.022.128.022.064.022.128v.255a.265.265,0,0,0,.022.128c0,.043.043.085.065.107a.478.478,0,0,0,.109.064.277.277,0,0,0,.131.022h.651c.064,0,.064.021.13.021s.064-.021.13-.021h.759Z" transform="translate(-151.046 -78.407)" fill="#b3874b"/>
    <path id="パス_4357" data-name="パス 4357" d="M331.871,159.766a.922.922,0,0,1,.022-.107c.022-.043.022-.085.044-.128V159.4c0-.043.022-.085.022-.128a.3.3,0,0,0,.043-.128c0-.042.022-.085.022-.128v-.128c.022-.043.022-.085.044-.128v-.128a.268.268,0,0,0,.022-.128v-.128c0-.042.022-.085.022-.128v-.128c0-.043.021-.085.021-.128v-.9a.273.273,0,0,0-.021-.128v-.255c0-.043-.022-.085-.022-.128s-.022-.085-.022-.128v-.128a.268.268,0,0,0-.022-.128.262.262,0,0,0-.022-.128.267.267,0,0,0-.022-.128v-.128a.291.291,0,0,0-.043-.128v-.128c-.022-.043-.043-.064-.043-.106a45.035,45.035,0,0,1-.044-.256.306.306,0,0,1-.043-.128.269.269,0,0,1-.022-.128c-.022-.042-.022-.085-.044-.128s-.022-.064-.043-.107a.292.292,0,0,1-.044-.128c-.022-.043-.022-.085-.044-.128,0-.043-.022-.064-.043-.107a.294.294,0,0,1-.044-.128.468.468,0,0,0-.065-.107.3.3,0,0,1-.043-.128c-.022-.043-.022-.085-.043-.128a.437.437,0,0,1-.065-.107c-.022-.043-.044-.064-.065-.107s-.022-.085-.044-.128a.5.5,0,0,1-.065-.107c-.022-.043-.065-.064-.086-.107s-.044-.064-.065-.106-.022-.085-.044-.107c-.043-.043-.065-.085-.086-.107-.022-.043-.065-.064-.086-.107a.476.476,0,0,0-.065-.107c-.022-.042-.065-.064-.087-.085-.043-.042-.043-.085-.065-.128a.379.379,0,0,1-.108-.085c-.022-.022-.044-.064-.087-.085a.357.357,0,0,0-.087-.107c-.021-.022-.065-.043-.086-.085a.376.376,0,0,1-.109-.085l-.086-.085c-.044-.022-.065-.064-.109-.085a.458.458,0,0,0-.109-.064c-.022-.042-.065-.064-.086-.085-.044-.022-.065-.064-.109-.085s-.065-.043-.108-.064-.065-.042-.109-.064-.065-.064-.109-.085-.086-.022-.13-.043a.448.448,0,0,0-.108-.085c-.022-.022-.065-.022-.109-.043s-.087-.021-.13-.042a.484.484,0,0,0-.108-.064.312.312,0,0,0-.13-.043.17.17,0,0,0-.109-.043.313.313,0,0,0-.13-.043c-.043-.021-.086-.021-.13-.042-.043,0-.065-.021-.108-.043a.277.277,0,0,1-.13-.022c-.043,0-.086-.021-.13-.021a.281.281,0,0,0-.13-.021c-.043-.021-.086-.021-.13-.043h-.13a.281.281,0,0,0-.13-.021h-.13c-.044,0-.087-.022-.13-.022a.28.28,0,0,1-.13-.021h-.13c-.044,0-.087.021-.13.021v-.021c-.044,0-.087.021-.13.021s-.087-.021-.13-.021-.087.021-.13.021h-.13a.275.275,0,0,0-.13.022.282.282,0,0,0-.13.021c-.044,0-.086.022-.13.022a1153.883,1153.883,0,0,1-.26.042.279.279,0,0,0-.13.021c-.044,0-.087.022-.13.022a.166.166,0,0,1-.109.043.314.314,0,0,1-.13.042.276.276,0,0,1-.13.022c-.043.021-.065.043-.109.064s-.087.021-.13.043-.065.043-.109.064-.086.021-.13.042a.168.168,0,0,0-.109.043.457.457,0,0,0-.108.085l-.13.064a.49.49,0,0,1-.109.064.456.456,0,0,1-.109.064.48.48,0,0,1-.108.064c-.043.021-.065.042-.109.063a.381.381,0,0,1-.108.085.171.171,0,0,1-.087.085.386.386,0,0,1-.109.085l-.086.085c-.044.022-.065.064-.108.085-.022.021-.044.064-.087.107-.022.021-.065.042-.087.085-.022.021-.065.042-.086.085a.211.211,0,0,0-.087.107c-.022.021-.043.064-.087.106-.022.022-.065.043-.086.085a.38.38,0,0,1-.087.107c-.021.021-.021.064-.043.107a.374.374,0,0,0-.087.107c-.043.021-.043.064-.065.107s-.065.064-.086.106-.022.085-.044.107l-.065.128a.519.519,0,0,0-.065.107c-.022.043-.043.064-.065.107a.3.3,0,0,0-.043.128c-.022.022-.065.064-.065.107a.475.475,0,0,1-.065.107.3.3,0,0,1-.044.128.3.3,0,0,0-.044.128c-.021.022-.021.064-.043.107a.294.294,0,0,1-.044.128c0,.043-.044.085-.044.128-.021.022-.021.085-.021.128a.161.161,0,0,0-.043.106.3.3,0,0,0-.044.128.261.261,0,0,0-.022.128c-.021.043-.021.085-.043.128a.921.921,0,0,1-.022.107c-.022.043-.022.085-.044.128v.128a.3.3,0,0,1-.044.128.273.273,0,0,1-.021.128v.128c0,.043-.022.085-.022.128s-.022.085-.022.128v.128a.266.266,0,0,0-.022.128c0,.043-.022.085-.022.128v.255c0,.043-.022.085-.022.128s.022.085.022.128-.022.085-.022.128v.511c0,.042.022.085.022.128v.128c0,.043.022.085.022.128v.256c0,.042.022.085.022.128s.022.085.022.128.022.085.022.128a.271.271,0,0,0,.021.128.266.266,0,0,0,.022.128v.128a.261.261,0,0,1,.022.128c.022.043.022.085.044.128,0,.043.022.064.022.107.022.043.022.085.043.128a.263.263,0,0,0,.022.128c0,.042.044.085.044.128.022.042.022.085.043.128a.161.161,0,0,0,.021.107c.022.042.022.085.044.128a.3.3,0,0,1,.044.128c.022.043.022.085.043.128.022.022.022.064.044.107l.065.128a.166.166,0,0,1,.043.107.443.443,0,0,0,.065.107.3.3,0,0,1,.043.128l.065.128a.366.366,0,0,0,.044.107c.021.043.065.064.086.106s.044.064.065.107.044.064.065.107.044.064.065.107.065.064.087.107.022.085.065.107a.369.369,0,0,0,.087.107c.021.042.043.064.065.107l.087.085c.022.043.065.064.087.107l.086.085c.022.043.065.064.087.107l.087.085c.043.021.064.064.108.085.022.022.044.064.086.085a.22.22,0,0,0,.109.085l.087.085a.458.458,0,0,1,.108.064c.044.021.065.064.109.085a.219.219,0,0,0,.108.085c.044.021.065.042.109.064s.086.021.109.042c.043.022.086.064.13.085a.474.474,0,0,0,.108.064.17.17,0,0,0,.109.043.452.452,0,0,1,.109.064c.043.021.087.021.13.042a.308.308,0,0,0,.13.043c.043.022.087.022.13.043a.169.169,0,0,0,.108.043.314.314,0,0,0,.13.042.362.362,0,0,0,.109.043.274.274,0,0,0,.13.022.28.28,0,0,0,.13.021.308.308,0,0,1,.13.043h.13a3553.778,3553.778,0,0,0,.26.042.277.277,0,0,1,.13.022h.13c.043,0,.086.021.13.021s.086-.021.13-.021.086.021.13.021h.26c.043-.021.086,0,.13-.021h.26c.044-.022.087-.022.13-.043.044,0,.087-.021.13-.021a.275.275,0,0,0,.13-.022c.044,0,.087-.021.13-.021s.087-.021.13-.021c.044-.022.087-.022.109-.043a.275.275,0,0,0,.13-.022.283.283,0,0,1,.13-.021l.13-.064a.167.167,0,0,0,.109-.043.312.312,0,0,0,.13-.043.365.365,0,0,1,.108-.042.308.308,0,0,1,.13-.043l.13-.064a.478.478,0,0,1,.109-.064.457.457,0,0,1,.108-.064.371.371,0,0,0,.109-.085c.044-.021.087-.021.109-.042a.487.487,0,0,0,.108-.085c.043-.021.065-.064.109-.085a.452.452,0,0,1,.108-.064l.086-.085a.482.482,0,0,0,.109-.064l.108-.107a.325.325,0,0,0,.087-.085l.086-.085a.362.362,0,0,0,.087-.107c.022-.021.065-.042.087-.085a.21.21,0,0,0,.086-.107c.022-.021.044-.064.087-.085.022-.043.065-.064.087-.107.022-.021.043-.064.086-.107.022-.021.022-.064.065-.107a.443.443,0,0,0,.065-.107.475.475,0,0,0,.065-.107.457.457,0,0,0,.065-.107c.021-.042.065-.063.086-.107s.022-.085.044-.128l.086-.085c.022-.043.022-.085.044-.128,0-.042.043-.085.043-.106l.065-.128a.339.339,0,0,0,.043-.107l.065-.128a.355.355,0,0,0,.044-.107c.021-.042.021-.085.043-.128s.022-.085.044-.128a.292.292,0,0,1,.044-.128.918.918,0,0,1,.021-.107.3.3,0,0,0,.044-.128c.022-.043.022-.085.043-.128a.306.306,0,0,1,.043-.128m-2.234-2.535v.512c0,.042-.022.085-.022.128v.255c0,.043-.022.085-.022.128v.256a.266.266,0,0,0-.022.128.267.267,0,0,1-.022.128.262.262,0,0,1-.022.128c0,.043-.022.085-.022.128a.158.158,0,0,0-.022.107.273.273,0,0,0-.021.128c-.022.043-.022.085-.044.128a.263.263,0,0,1-.022.128c0,.043-.022.085-.022.128a.3.3,0,0,0-.043.128c-.022.043-.044.064-.066.107,0,.043-.022.085-.022.128-.022.043-.043.064-.065.107s-.022.085-.044.128a.353.353,0,0,0-.043.106l-.065.128c-.022.042-.044.063-.065.107s-.043.063-.065.106a.459.459,0,0,1-.065.107c-.021.043-.065.064-.086.107a.439.439,0,0,0-.065.107c-.044.021-.065.064-.087.085-.043.043-.043.085-.086.107-.022.043-.065.043-.109.085-.022.021-.043.064-.087.085a.454.454,0,0,1-.109.085c-.022.021-.043.064-.086.085s-.065.043-.109.064a.479.479,0,0,0-.109.063c-.043.022-.087.022-.13.043a.5.5,0,0,0-.109.064.319.319,0,0,0-.13.043c-.043.022-.086.022-.13.043a.377.377,0,0,0-.109.042h-.13c-.044.022-.087.022-.13.043h-.26a.283.283,0,0,1-.13.021c-.044,0-.087-.021-.13-.021s-.087.021-.13,0h-.13a1740.425,1740.425,0,0,1-.26-.043c-.044-.021-.086-.021-.109-.042a.317.317,0,0,0-.13-.043c-.044-.021-.087-.021-.13-.043s-.065-.042-.108-.064a.473.473,0,0,1-.109-.064.316.316,0,0,1-.13-.042.463.463,0,0,0-.109-.085c-.022-.021-.065-.043-.086-.064-.044-.022-.065-.064-.109-.085-.022-.043-.065-.043-.108-.085-.022-.021-.065-.043-.087-.085a.459.459,0,0,1-.086-.107c-.022-.021-.065-.042-.087-.085a.369.369,0,0,0-.087-.107.469.469,0,0,1-.065-.107.475.475,0,0,1-.065-.107.454.454,0,0,0-.065-.106.432.432,0,0,0-.065-.107c-.022-.043-.022-.085-.043-.128s-.043-.064-.065-.106a.3.3,0,0,1-.044-.128c-.022-.021-.022-.085-.044-.107-.021-.043-.021-.085-.043-.128l-.065-.128a.225.225,0,0,0-.022-.107c-.021-.043-.021-.085-.043-.128a.263.263,0,0,0-.022-.128c0-.042-.022-.085-.022-.128-.022-.042-.044-.064-.044-.107-.021-.042,0-.085-.021-.128,0-.042-.022-.085-.022-.128v-.128c-.022-.043-.022-.085-.044-.128v-.128c0-.043-.022-.085-.022-.128s-.022-.085-.022-.128v-.128a.272.272,0,0,0-.021-.128v-.128c0-.043.021-.085,0-.128,0-.043.021-.086,0-.128,0-.043.021-.085.021-.128s-.021-.085-.021-.128v-.128c.021-.042,0-.085,0-.128a.271.271,0,0,0,.021-.128v-.255c.022-.043,0-.085.022-.128a6593.129,6593.129,0,0,0,.043-.255.263.263,0,0,1,.022-.128v-.128c.022-.021.022-.085.022-.107a.273.273,0,0,1,.021-.128.3.3,0,0,1,.044-.128v-.128a.3.3,0,0,0,.044-.128c.022-.043.022-.085.043-.128,0-.043.022-.064.044-.107s.022-.085.044-.128a.266.266,0,0,1,.022-.128.374.374,0,0,0,.043-.107l.065-.128c.022-.043.022-.085.043-.107l.065-.128a.451.451,0,0,0,.065-.107.458.458,0,0,0,.065-.107.487.487,0,0,1,.065-.107c.022-.042.065-.064.087-.106a.48.48,0,0,0,.065-.107.327.327,0,0,0,.087-.085c.043-.043.065-.085.086-.107l.087-.085a.217.217,0,0,0,.108-.085c.043-.022.065-.064.087-.085.043-.021.064-.064.108-.085s.086-.022.109-.064c.044-.021.087-.021.13-.042a.467.467,0,0,1,.109-.085c.021-.021.086-.021.108-.021l.13-.064c.043-.022.086-.022.13-.043.043,0,.065-.021.109-.043a.282.282,0,0,0,.13-.021.277.277,0,0,0,.13-.022h.13a.283.283,0,0,0,.13-.021c.043,0,.086.021.13.021h.26c.043,0,.086.022.13.022h.13c.043.021.086.021.13.043a.167.167,0,0,1,.109.042.274.274,0,0,1,.13.022.3.3,0,0,1,.13.043c.044.021.065.042.109.064s.087.021.13.042a.461.461,0,0,0,.109.064.451.451,0,0,0,.109.085c.022.021.065.043.086.085.044.022.087.022.109.064.044.021.065.064.109.085l.086.085c.022.043.065.064.086.085.044.043.065.085.087.107a.448.448,0,0,0,.065.107c.022.042.065.064.086.106s.044.064.065.107a.473.473,0,0,0,.065.107l.065.128a.443.443,0,0,1,.065.107c.022.021.022.085.043.107,0,.043.044.085.066.128.021.021.021.064.043.107,0,.043.022.085.022.128.022.043.022.085.044.128s.022.085.043.128a.365.365,0,0,0,.043.107c0,.042.022.085.022.128.022.042.022.085.044.128,0,.042.021.085.021.128a.267.267,0,0,1,.022.128.228.228,0,0,0,.022.107c0,.043.022.085.022.128s.022.085.022.128.022.085.022.128v.128a.268.268,0,0,1,.022.128v.255a.266.266,0,0,0,.022.128Z" transform="translate(-166.938 -78.407)" fill="#b3874b"/>
    <path id="パス_4358" data-name="パス 4358" d="M357.631,163.879h.13c.065,0,.065.021.13.021s.065-.021.13-.021h1.3c.065,0,.065.021.13.021s.065-.021.13-.021h1.041c.065,0,.065.021.13.021s.065-.021.109-.021h2.863c.064,0,.064.021.13.021s.064-.021.13-.021h.52c.044,0,.065-.022.109-.022a.479.479,0,0,0,.109-.064c.022-.043.065-.064.087-.107v-.128c0-.064.021-.064.021-.128V163.3c0-.064-.021-.064-.021-.128v-.128c0-.064.021-.064.021-.128v-.255c0-.064-.021-.064-.021-.128s.021-.064.021-.128-.021-.064-.021-.128v-.128c0-.064.021-.064.021-.128V161.9a.3.3,0,0,0-.043-.128.2.2,0,0,0-.065-.107.5.5,0,0,0-.109-.064c-.044,0-.065-.021-.109-.021h-5.834c-.065,0-.065.021-.13,0a.266.266,0,0,1,.022-.128v-.128a.262.262,0,0,1,.022-.128.3.3,0,0,1,.043-.128.352.352,0,0,1,.044-.107.468.468,0,0,1,.065-.107.3.3,0,0,1,.043-.128.444.444,0,0,0,.065-.107.386.386,0,0,1,.109-.085c.022-.042.022-.085.065-.106.022-.043.065-.064.087-.107.022-.022.043-.064.087-.085a.362.362,0,0,1,.086-.107c.022-.022.065-.043.087-.085a.382.382,0,0,0,.109-.085c.022-.021.065-.042.086-.085a.384.384,0,0,0,.109-.085.472.472,0,0,1,.109-.064c.021-.021.065-.042.086-.085a.391.391,0,0,0,.109-.085.466.466,0,0,1,.108-.064.49.49,0,0,1,.109-.064c.043-.021.065-.064.086-.085l.13-.064a.48.48,0,0,1,.108-.063l.086-.085a.948.948,0,0,0,.217-.149.477.477,0,0,0,.109-.064l.13-.064.086-.085c.044-.022.087-.022.13-.043a.22.22,0,0,1,.109-.085c.022-.021.065-.042.087-.064l.13-.064a.474.474,0,0,1,.109-.085.461.461,0,0,1,.109-.064c.022-.022.065-.043.087-.064l.13-.064.086-.085a.48.48,0,0,0,.109-.064.449.449,0,0,0,.108-.085c.044-.021.065-.042.109-.064a.465.465,0,0,0,.109-.064c.043-.021.065-.064.108-.085.022-.043.065-.043.109-.085a.5.5,0,0,1,.109-.064l.087-.085a.392.392,0,0,0,.109-.085c.043-.021.065-.064.086-.085a.37.37,0,0,0,.109-.085c.022-.021.065-.042.087-.085a.382.382,0,0,0,.109-.085l.086-.085c.022-.021.065-.043.108-.085l.087-.085.086-.085c.022-.042.065-.063.086-.106.022-.022.044-.064.087-.085a.352.352,0,0,1,.086-.106.448.448,0,0,0,.065-.107c.044-.022.044-.064.065-.107a.48.48,0,0,0,.065-.107c.021-.043.065-.064.086-.107a.427.427,0,0,0,.065-.107c.022-.043.044-.064.065-.107a.294.294,0,0,0,.044-.128c.021-.043.043-.064.065-.107a.292.292,0,0,1,.044-.128.3.3,0,0,1,.043-.128c0-.022,0-.085.022-.107,0-.043.022-.085.022-.128a.269.269,0,0,0,.022-.128c.022-.043.022-.085.044-.128v-.128a.273.273,0,0,1,.021-.128v-.255c0-.043-.021-.085-.021-.128V154.1c0-.043-.022-.085-.022-.128a.26.26,0,0,1-.022-.128.266.266,0,0,0-.022-.128c0-.043-.022-.085-.022-.128-.022-.043-.022-.085-.043-.128,0-.043-.022-.064-.044-.107a.265.265,0,0,0-.022-.128c-.022-.043-.022-.085-.044-.128a.3.3,0,0,1-.043-.128c-.022-.043-.065-.064-.065-.107-.022-.042-.043-.064-.065-.106s-.022-.085-.044-.128-.065-.064-.086-.106a.462.462,0,0,1-.065-.107c-.022-.043-.065-.064-.086-.107s-.044-.064-.066-.107-.064-.064-.086-.085l-.108-.107c-.022-.021-.044-.063-.087-.085-.021-.043-.065-.064-.086-.085a.214.214,0,0,1-.086-.107.442.442,0,0,1-.108-.064.483.483,0,0,1-.109-.063.369.369,0,0,0-.108-.085.378.378,0,0,0-.109-.085c-.044-.021-.065-.042-.109-.063a.492.492,0,0,1-.108-.064c-.044-.021-.087-.021-.13-.042l-.13-.064c-.022,0-.065-.042-.109-.064-.043,0-.086-.021-.13-.021-.043-.022-.065-.043-.109-.064a.283.283,0,0,1-.13-.021.274.274,0,0,0-.13-.022l-.13-.064a.281.281,0,0,1-.13-.021h-.13c-.043-.022-.087-.022-.13-.043h-.13c-.044-.022-.087,0-.13-.022h-.13a.282.282,0,0,0-.13-.021c-.044,0-.087.021-.13.021s-.087-.021-.13-.021a.282.282,0,0,1-.13.021c-.044,0-.086-.021-.13-.021a.281.281,0,0,1-.13.021h-.13a.315.315,0,0,0-.13.043c-.044,0-.086-.021-.13,0h-.13c-.044.022-.065.022-.109.043h-.13a.282.282,0,0,1-.13.021c-.043,0-.087.021-.13.021-.043.022-.087.022-.13.043-.043,0-.087.021-.13.021-.043.021-.065.042-.108.042a.278.278,0,0,1-.13.022,34.008,34.008,0,0,1-.261.085c-.021.022-.065.022-.108.043a.3.3,0,0,1-.13.043c-.043.021-.065.042-.108.064s-.087.022-.13.043a.312.312,0,0,0-.13.042.478.478,0,0,1-.109.064.5.5,0,0,1-.109.064c-.043.021-.065.043-.108.064s-.087.021-.109.042l-.13.064c-.043.021-.065.042-.108.064s-.065.043-.108.064-.065.064-.109.085-.065.042-.108.063a.393.393,0,0,0-.109.085c-.021.021-.065.043-.087.085-.043.021-.086.021-.108.064-.044.021-.065.064-.108.085-.022.021-.065.043-.087.064a.378.378,0,0,1-.109.085c-.022.043-.065.064-.086.107a.163.163,0,0,0-.086.085.377.377,0,0,0-.109.085c-.021.021-.043.064-.086.085a.346.346,0,0,0-.044.107.307.307,0,0,0-.043.128c0,.043.022.085.022.128a.309.309,0,0,0,.086.085.5.5,0,0,0,.108.085c.043.043.043.064.086.107l.087.085a.485.485,0,0,1,.108.085c.044.043.044.064.086.107s.065.042.109.085.043.064.087.107.065.021.109.064a.5.5,0,0,0,.086.107l.087.085c.065.043.043.064.108.107.043.043.065.022.109.064.043.064.022.064.086.107.022.043.065.043.109.064a.145.145,0,0,0,.13.022.238.238,0,0,0,.13-.043.5.5,0,0,0,.108-.064c.043-.043.043-.085.087-.107a.375.375,0,0,1,.086-.107.473.473,0,0,1,.109-.064.163.163,0,0,1,.086-.085c.022-.043.065-.064.086-.107.044-.022.065-.043.108-.064a.472.472,0,0,1,.109-.064.449.449,0,0,1,.108-.085.478.478,0,0,1,.109-.064.485.485,0,0,1,.108-.064.471.471,0,0,1,.108-.064c.044-.022.087-.022.13-.043a.472.472,0,0,1,.109-.064c.043,0,.065-.043.108-.043.043-.021.087-.021.13-.043a.372.372,0,0,1,.109-.042c.044-.022.086-.022.13-.043s.086,0,.13-.021c.044,0,.086-.022.13-.022a.282.282,0,0,1,.13-.021c.044,0,.065-.043.108-.043h.521a.94.94,0,0,1,.13.043h.152a.281.281,0,0,0,.13.021.317.317,0,0,1,.13.043.165.165,0,0,1,.108.043.31.31,0,0,1,.13.042c.044.022.065.064.109.085s.086.021.13.043l.086.085c.044.043.087.064.109.085.022.042.065.064.086.106.044.022.044.064.087.107a.469.469,0,0,1,.064.107c.022.043.044.064.066.107a.3.3,0,0,0,.043.128c0,.043.022.085.022.128.022.043.022.085.044.128,0,.043-.022.085-.022.128v.255c-.022.043-.022.085-.044.128s-.021.085-.043.107l-.066.128c-.022.042-.043.064-.064.107a.447.447,0,0,0-.066.107c-.043.021-.064.063-.086.085a.379.379,0,0,1-.108.085.374.374,0,0,1-.087.107c-.021.021-.043.064-.086.085a.486.486,0,0,1-.109.064c-.022.043-.065.064-.087.107-.043.021-.065.043-.109.064s-.065.042-.108.064-.065.064-.109.085a.477.477,0,0,1-.108.064c-.043.021-.065.042-.108.064-.022.021-.065.043-.109.085-.043.021-.065.043-.109.064s-.086.021-.108.063c-.044.022-.065.043-.108.064s-.065.042-.108.064a61.093,61.093,0,0,1-.218.128.485.485,0,0,0-.108.064l-.13.064c-.044.022-.065.043-.109.064s-.065.043-.109.064a.481.481,0,0,0-.108.064c-.044.022-.065.064-.109.085s-.086.021-.109.043l-.13.064a.387.387,0,0,0-.108.085,266.171,266.171,0,0,1-.217.128.483.483,0,0,1-.108.064c-.044.021-.065.042-.109.064s-.065.042-.109.064-.064.064-.108.085a.471.471,0,0,1-.109.064.377.377,0,0,0-.108.085.5.5,0,0,1-.109.064.459.459,0,0,1-.109.064c-.022.043-.065.064-.086.085-.044.022-.065.064-.109.085-.022.021-.065.043-.108.085-.022.022-.065.043-.087.064a.377.377,0,0,1-.108.085l-.087.085a.377.377,0,0,0-.087.107c-.043.021-.065.064-.086.085a.212.212,0,0,0-.109.085c-.022.022-.065.043-.087.085a.22.22,0,0,0-.087.107l-.086.085c-.022.042-.065.064-.087.107-.021.021-.065.042-.087.085a.375.375,0,0,1-.086.107.469.469,0,0,0-.065.107.488.488,0,0,0-.065.107.46.46,0,0,0-.087.107,87.508,87.508,0,0,1-.13.213.5.5,0,0,0-.065.107.159.159,0,0,1-.044.107l-.065.128c-.022.043-.043.064-.043.107a.3.3,0,0,0-.044.128.432.432,0,0,1-.065.107.3.3,0,0,1-.044.128.266.266,0,0,1-.022.128c-.022.043-.022.085-.043.128,0,.043-.022.064-.043.107,0,.043-.022.085-.022.128a.265.265,0,0,0-.022.128c-.022.042,0,.085-.022.128,0,.042-.022.085-.022.128s-.022.085-.022.128v.128a.268.268,0,0,1-.022.128v.128c-.022.021,0,.064,0,.107,0,.085-.022.085-.022.149v.128c0,.064.022.064.022.128s-.022.064-.022.128v.128c0,.064.022.064.022.128s-.022.064-.022.128.022.064.022.128v.255a.265.265,0,0,0,.022.128c0,.043.043.085.065.107a.479.479,0,0,0,.109.064.277.277,0,0,0,.131.022h.651c.064,0,.064.021.13.021s.064-.021.13-.021h.759Z" transform="translate(-184.849 -78.407)" fill="#b3874b"/>
    <path id="パス_4359" data-name="パス 4359" d="M397.567,159.766a.922.922,0,0,1,.022-.107c.022-.043.022-.085.044-.128V159.4c0-.043.022-.085.022-.128a.3.3,0,0,0,.043-.128c0-.042.022-.085.022-.128v-.128c.022-.043.022-.085.044-.128v-.128a.267.267,0,0,0,.022-.128v-.128c0-.042.022-.085.022-.128v-.128c0-.043.021-.085.021-.128v-.9a.273.273,0,0,0-.021-.128v-.255c0-.043-.022-.085-.022-.128s-.022-.085-.022-.128v-.128a.269.269,0,0,0-.022-.128.262.262,0,0,0-.022-.128.267.267,0,0,0-.022-.128v-.128a.291.291,0,0,0-.043-.128v-.128c-.022-.043-.043-.064-.043-.106a45.035,45.035,0,0,1-.044-.256.306.306,0,0,1-.043-.128.268.268,0,0,1-.022-.128c-.022-.042-.022-.085-.044-.128s-.022-.064-.043-.107a.292.292,0,0,1-.044-.128c-.022-.043-.022-.085-.044-.128,0-.043-.022-.064-.043-.107a.294.294,0,0,1-.044-.128.468.468,0,0,0-.065-.107.3.3,0,0,1-.043-.128c-.022-.043-.022-.085-.043-.128a.437.437,0,0,1-.065-.107c-.022-.043-.044-.064-.065-.107s-.022-.085-.044-.128a.5.5,0,0,1-.065-.107c-.022-.043-.065-.064-.086-.107s-.044-.064-.065-.106-.022-.085-.044-.107c-.043-.043-.065-.085-.086-.107-.022-.043-.065-.064-.086-.107a.475.475,0,0,0-.065-.107c-.022-.042-.065-.064-.087-.085-.043-.042-.043-.085-.065-.128a.379.379,0,0,1-.108-.085c-.022-.022-.044-.064-.087-.085a.357.357,0,0,0-.087-.107c-.021-.022-.065-.043-.086-.085a.376.376,0,0,1-.109-.085l-.086-.085c-.044-.022-.065-.064-.109-.085a.457.457,0,0,0-.109-.064c-.022-.042-.065-.064-.086-.085-.044-.022-.065-.064-.109-.085s-.065-.043-.109-.064-.065-.042-.109-.064-.065-.064-.109-.085-.086-.022-.13-.043a.447.447,0,0,0-.108-.085c-.022-.022-.065-.022-.108-.043s-.087-.021-.13-.042a.484.484,0,0,0-.108-.064.312.312,0,0,0-.13-.043.17.17,0,0,0-.109-.043.313.313,0,0,0-.13-.043c-.043-.021-.086-.021-.13-.042-.043,0-.065-.021-.109-.043a.277.277,0,0,1-.13-.022c-.043,0-.086-.021-.13-.021a.281.281,0,0,0-.13-.021c-.043-.021-.086-.021-.13-.043h-.13a.281.281,0,0,0-.13-.021h-.13c-.044,0-.087-.022-.13-.022a.28.28,0,0,1-.13-.021h-.13c-.044,0-.087.021-.13.021v-.021c-.044,0-.087.021-.13.021s-.087-.021-.13-.021-.087.021-.13.021h-.13a.275.275,0,0,0-.13.022.282.282,0,0,0-.13.021c-.044,0-.086.022-.13.022a1153.883,1153.883,0,0,1-.26.042.279.279,0,0,0-.13.021c-.044,0-.087.022-.13.022a.166.166,0,0,1-.109.043.314.314,0,0,1-.13.042.276.276,0,0,1-.13.022c-.043.021-.065.043-.109.064s-.087.021-.13.043-.065.043-.109.064-.086.021-.13.042a.168.168,0,0,0-.109.043.457.457,0,0,0-.108.085l-.13.064a.49.49,0,0,1-.109.064.455.455,0,0,1-.109.064.479.479,0,0,1-.108.064c-.043.021-.065.042-.109.063a.381.381,0,0,1-.108.085.171.171,0,0,1-.087.085.385.385,0,0,1-.109.085l-.086.085c-.044.022-.065.064-.108.085-.022.021-.044.064-.087.107-.022.021-.065.042-.087.085-.022.021-.065.042-.086.085a.211.211,0,0,0-.087.107c-.022.021-.043.064-.087.106-.022.022-.065.043-.086.085a.381.381,0,0,1-.087.107c-.021.021-.021.064-.043.107a.374.374,0,0,0-.087.107c-.043.021-.043.064-.065.107s-.065.064-.086.106-.022.085-.044.107l-.065.128a.519.519,0,0,0-.065.107c-.022.043-.043.064-.065.107a.305.305,0,0,0-.043.128c-.022.022-.065.064-.065.107a.475.475,0,0,1-.065.107.3.3,0,0,1-.044.128.3.3,0,0,0-.044.128c-.021.022-.021.064-.043.107a.294.294,0,0,1-.044.128c0,.043-.044.085-.044.128-.021.022-.021.085-.021.128a.161.161,0,0,0-.043.106.3.3,0,0,0-.044.128.261.261,0,0,0-.022.128c-.021.043-.021.085-.043.128a.922.922,0,0,1-.022.107c-.022.043-.022.085-.044.128v.128a.3.3,0,0,1-.044.128.273.273,0,0,1-.021.128v.128c0,.043-.022.085-.022.128s-.022.085-.022.128v.128a.266.266,0,0,0-.022.128c0,.043-.022.085-.022.128v.255c0,.043-.022.085-.022.128s.022.085.022.128-.022.085-.022.128v.511c0,.042.022.085.022.128v.128c0,.043.022.085.022.128v.256c0,.042.022.085.022.128s.022.085.022.128.022.085.022.128a.271.271,0,0,0,.021.128.266.266,0,0,0,.022.128v.128a.26.26,0,0,1,.022.128c.022.043.022.085.044.128,0,.043.022.064.022.107.022.043.022.085.043.128a.264.264,0,0,0,.022.128c0,.042.044.085.044.128.022.042.022.085.043.128a.161.161,0,0,0,.021.107c.022.042.022.085.044.128a.3.3,0,0,1,.044.128c.022.043.022.085.043.128.022.022.022.064.044.107l.065.128a.166.166,0,0,1,.043.107.442.442,0,0,0,.065.107.3.3,0,0,1,.043.128l.065.128a.364.364,0,0,0,.044.107c.021.043.065.064.086.106s.044.064.065.107.044.064.065.107.044.064.065.107.065.064.087.107.022.085.065.107a.369.369,0,0,0,.087.107c.021.042.043.064.065.107l.087.085c.022.043.065.064.087.107l.086.085c.022.043.065.064.087.107l.087.085c.043.021.064.064.108.085.022.022.044.064.086.085a.22.22,0,0,0,.109.085l.087.085a.457.457,0,0,1,.108.064c.044.021.065.064.109.085a.218.218,0,0,0,.108.085c.044.021.065.042.109.064s.086.021.109.042c.043.022.086.064.13.085a.474.474,0,0,0,.108.064.17.17,0,0,0,.109.043.452.452,0,0,1,.108.064c.043.021.087.021.13.042a.308.308,0,0,0,.13.043c.043.022.087.022.13.043a.169.169,0,0,0,.109.043.314.314,0,0,0,.13.042.363.363,0,0,0,.109.043.274.274,0,0,0,.13.022.28.28,0,0,0,.13.021.308.308,0,0,1,.13.043h.13a626727861316.494,626727861316.494,0,0,1,.26.042.277.277,0,0,1,.13.022h.13c.043,0,.086.021.13.021s.086-.021.13-.021.086.021.13.021h.26c.043-.021.086,0,.13-.021h.26c.044-.022.087-.022.13-.043.044,0,.087-.021.13-.021a.275.275,0,0,0,.13-.022c.044,0,.087-.021.13-.021s.087-.021.13-.021c.044-.022.087-.022.109-.043a.275.275,0,0,0,.13-.022.283.283,0,0,1,.13-.021l.13-.064a.168.168,0,0,0,.109-.043.312.312,0,0,0,.13-.043.365.365,0,0,1,.108-.042.308.308,0,0,1,.13-.043l.13-.064a.479.479,0,0,1,.109-.064.457.457,0,0,1,.108-.064.372.372,0,0,0,.109-.085c.044-.021.087-.021.109-.042a.488.488,0,0,0,.109-.085c.043-.021.065-.064.109-.085a.452.452,0,0,1,.109-.064l.086-.085a.483.483,0,0,0,.109-.064l.108-.107a.326.326,0,0,0,.087-.085l.086-.085a.363.363,0,0,0,.087-.107c.022-.021.065-.042.087-.085a.21.21,0,0,0,.086-.107c.022-.021.044-.064.087-.085.022-.043.065-.064.087-.107.022-.021.043-.064.086-.107.022-.021.022-.064.065-.107a.443.443,0,0,0,.065-.107.476.476,0,0,0,.065-.107.459.459,0,0,0,.065-.107c.021-.042.065-.063.086-.107s.022-.085.044-.128l.086-.085c.022-.043.022-.085.044-.128,0-.042.043-.085.043-.106l.065-.128a.338.338,0,0,0,.043-.107l.065-.128a.355.355,0,0,0,.044-.107c.021-.042.021-.085.043-.128s.022-.085.044-.128a.292.292,0,0,1,.044-.128.919.919,0,0,1,.021-.107.3.3,0,0,0,.044-.128c.022-.043.022-.085.043-.128a.306.306,0,0,1,.043-.128m-2.234-2.535v.512c0,.042-.022.085-.022.128v.255c0,.043-.022.085-.022.128v.256a.265.265,0,0,0-.022.128.268.268,0,0,1-.022.128.261.261,0,0,1-.022.128c0,.043-.022.085-.022.128a.158.158,0,0,0-.022.107.273.273,0,0,0-.021.128c-.022.043-.022.085-.044.128a.263.263,0,0,1-.022.128c0,.043-.022.085-.022.128a.3.3,0,0,0-.043.128c-.022.043-.044.064-.066.107,0,.043-.022.085-.022.128-.022.043-.043.064-.065.107s-.022.085-.044.128a.353.353,0,0,0-.043.106l-.065.128c-.022.042-.044.063-.065.107s-.043.063-.065.106a.457.457,0,0,1-.065.107c-.021.043-.065.064-.086.107a.439.439,0,0,0-.065.107c-.044.021-.065.064-.087.085-.043.043-.043.085-.086.107-.022.043-.065.043-.109.085-.022.021-.043.064-.087.085a.454.454,0,0,1-.109.085c-.022.021-.043.064-.086.085s-.065.043-.108.064a.48.48,0,0,0-.109.063c-.043.022-.087.022-.13.043a.5.5,0,0,0-.109.064.319.319,0,0,0-.13.043c-.043.022-.086.022-.13.043a.377.377,0,0,0-.109.042h-.13c-.044.022-.087.022-.13.043h-.26a.283.283,0,0,1-.13.021c-.044,0-.087-.021-.13-.021s-.087.021-.13,0h-.13a1741.617,1741.617,0,0,1-.26-.043c-.044-.021-.086-.021-.109-.042a.317.317,0,0,0-.13-.043c-.044-.021-.087-.021-.13-.043s-.065-.042-.108-.064a.473.473,0,0,1-.109-.064.316.316,0,0,1-.13-.042.463.463,0,0,0-.109-.085c-.022-.021-.065-.043-.086-.064-.044-.022-.065-.064-.109-.085-.022-.043-.065-.043-.109-.085-.022-.021-.065-.043-.087-.085a.46.46,0,0,1-.086-.107c-.022-.021-.065-.042-.087-.085a.37.37,0,0,0-.087-.107.468.468,0,0,1-.065-.107.474.474,0,0,1-.065-.107.454.454,0,0,0-.065-.106.432.432,0,0,0-.065-.107c-.022-.043-.022-.085-.043-.128s-.043-.064-.065-.106a.3.3,0,0,1-.044-.128c-.022-.021-.022-.085-.044-.107-.021-.043-.021-.085-.043-.128l-.065-.128a.225.225,0,0,0-.022-.107c-.021-.043-.021-.085-.043-.128a.263.263,0,0,0-.022-.128c0-.042-.022-.085-.022-.128-.022-.042-.044-.064-.044-.107-.021-.042,0-.085-.021-.128,0-.042-.022-.085-.022-.128v-.128c-.022-.043-.022-.085-.044-.128v-.128c0-.043-.022-.085-.022-.128s-.022-.085-.022-.128v-.128a.272.272,0,0,0-.021-.128v-.128c0-.043.021-.085,0-.128,0-.043.021-.086,0-.128,0-.043.021-.085.021-.128s-.021-.085-.021-.128v-.128c.021-.042,0-.085,0-.128a.271.271,0,0,0,.021-.128v-.255c.022-.043,0-.085.022-.128a6593.129,6593.129,0,0,0,.043-.255.263.263,0,0,1,.022-.128v-.128c.022-.021.022-.085.022-.107a.273.273,0,0,1,.021-.128.3.3,0,0,1,.044-.128v-.128a.3.3,0,0,0,.044-.128c.022-.043.022-.085.043-.128,0-.043.022-.064.044-.107s.022-.085.044-.128a.266.266,0,0,1,.022-.128.375.375,0,0,0,.043-.107l.065-.128c.022-.043.022-.085.043-.107l.065-.128a.451.451,0,0,0,.065-.107.458.458,0,0,0,.065-.107.486.486,0,0,1,.065-.107c.022-.042.065-.064.087-.106a.48.48,0,0,0,.065-.107.327.327,0,0,0,.087-.085c.043-.043.065-.085.086-.107l.087-.085a.217.217,0,0,0,.109-.085c.043-.022.065-.064.087-.085.043-.021.064-.064.108-.085s.086-.022.109-.064c.044-.021.087-.021.13-.042a.467.467,0,0,1,.109-.085c.021-.021.086-.021.108-.021l.13-.064c.043-.022.086-.022.13-.043.043,0,.065-.021.109-.043a.282.282,0,0,0,.13-.021.277.277,0,0,0,.13-.022h.13a.283.283,0,0,0,.13-.021c.043,0,.086.021.13.021h.26c.043,0,.086.022.13.022h.13c.043.021.086.021.13.043a.167.167,0,0,1,.109.042.274.274,0,0,1,.13.022.3.3,0,0,1,.13.043c.044.021.065.042.109.064s.087.021.13.042a.463.463,0,0,0,.109.064.452.452,0,0,0,.108.085c.022.021.065.043.086.085.044.022.087.022.109.064.044.021.065.064.109.085l.086.085c.022.043.065.064.086.085.044.043.065.085.087.107a.448.448,0,0,0,.065.107c.022.042.065.064.086.106s.044.064.065.107a.475.475,0,0,0,.065.107l.065.128a.442.442,0,0,1,.065.107c.022.021.022.085.043.107,0,.043.044.085.066.128.021.021.021.064.043.107,0,.043.022.085.022.128.022.043.022.085.044.128s.022.085.043.128a.366.366,0,0,0,.043.107c0,.042.022.085.022.128.022.042.022.085.044.128,0,.042.021.085.021.128a.267.267,0,0,1,.022.128.228.228,0,0,0,.022.107c0,.043.022.085.022.128s.022.085.022.128.022.085.022.128v.128a.269.269,0,0,1,.022.128v.255a.265.265,0,0,0,.022.128Z" transform="translate(-201.087 -78.407)" fill="#b3874b"/>
    <path id="パス_4360" data-name="パス 4360" d="M146.611,158.81a4.613,4.613,0,0,1-.018.588,4.534,4.534,0,0,1-.1.581,4.325,4.325,0,0,1-.187.558,4.2,4.2,0,0,1-.241.537,4.732,4.732,0,0,1-.355.489,4.159,4.159,0,0,1-.843.857,4.351,4.351,0,0,1-.492.351,4.288,4.288,0,0,1-.556.238,3.391,3.391,0,0,1-1.168.285,4.382,4.382,0,0,1-.461.023,4.491,4.491,0,0,1-.674-.014,5.724,5.724,0,0,1-1.269-.438,4.445,4.445,0,0,1-.6-.312,10.086,10.086,0,0,1-.937-.9,4.446,4.446,0,0,1-.345-.522,4.307,4.307,0,0,1-.283-.558,4.425,4.425,0,0,1-.178-.6,4.5,4.5,0,0,1-.114-.613,4.412,4.412,0,0,1-.031-.688,4.459,4.459,0,0,1,.087-.685.316.316,0,0,1,.14-.169.436.436,0,0,1,.325-.073c.354.011.316.032.707.03.227,0,.478,0,.707.007a4.3,4.3,0,0,1,.707.036c.086.03.033.222.019.312a3.11,3.11,0,0,0-.256.834c0,.044-.038.084-.041.127a1.843,1.843,0,0,0,.506,1.168,2,2,0,0,0,1.1.65,2.073,2.073,0,0,0,.642,0,2.043,2.043,0,0,0,.718-.168,2.066,2.066,0,0,0,.58-.461,2.211,2.211,0,0,0,.41-.62,1.839,1.839,0,0,0,.1-.487,2.2,2.2,0,0,0,.026-.5,2.513,2.513,0,0,0-.146-.609,2.1,2.1,0,0,0-.319-.534,2.492,2.492,0,0,0-.439-.437,4.105,4.105,0,0,0-.522-.34c-.174-.1-.348-.215-.545-.306-.182-.084-.385-.14-.585-.225-.282-.118-.537-.234-.75-.342a5.376,5.376,0,0,1-.564-.345,4.608,4.608,0,0,1-.521-.4,3.867,3.867,0,0,1-.436-.494,3.4,3.4,0,0,1-.363-.549,3.117,3.117,0,0,1-.248-.612,3.166,3.166,0,0,1-.078-.656,3.367,3.367,0,0,1,.033-.659,4,4,0,0,1,.158-.641,3.413,3.413,0,0,1,.288-.6,3.345,3.345,0,0,1,.379-.548,3.41,3.41,0,0,1,.5-.441,3.582,3.582,0,0,1,.557-.366,3.683,3.683,0,0,1,.626-.233,4.1,4.1,0,0,1,1.323-.125,3.975,3.975,0,0,1,.654.127,2.915,2.915,0,0,1,.583.219,3.787,3.787,0,0,1,.544.312,3.893,3.893,0,0,1,.486.4,3.7,3.7,0,0,1,.412.478,3.458,3.458,0,0,1,.3.555,3.4,3.4,0,0,1,.226.587,3.554,3.554,0,0,1,.1.623.189.189,0,0,1-.176.2c-.341.007-.3,0-.683.012-.217,0-.459-.012-.685-.008-.273.006-.523.041-.679.044a.193.193,0,0,1-.179-.172,1.106,1.106,0,0,0-.3-.572,1.634,1.634,0,0,0-.527-.377,1.549,1.549,0,0,0-.587-.026,1.205,1.205,0,0,0-.551.2,1.089,1.089,0,0,0-.389,1.1,1.079,1.079,0,0,0,.358.515,3.044,3.044,0,0,0,.539.329c.166.085.367.171.588.264.169.072.367.129.567.219.176.079.365.158.554.257s.35.2.528.308.319.248.484.375a5.382,5.382,0,0,1,.477.379,5.015,5.015,0,0,1,.41.453,4.481,4.481,0,0,1,.353.5,4.436,4.436,0,0,1,.276.546,4.606,4.606,0,0,1,.2.577,5,5,0,0,1,.135.6,4.306,4.306,0,0,1,.02.589" transform="translate(-71.606 -77.551)" fill="#b3874b"/>
    <path id="パス_4361" data-name="パス 4361" d="M168.161,151.788a6.773,6.773,0,0,0-.018.79c0,.323.007.323.007.645s-.032.323-.032.645.031.322.031.643-.02.322-.02.643-.02.322-.02.644.028.321.028.642-.028.321-.028.642.028.321.028.643-.017.32-.017.641-.01.32-.01.64.015.321.015.643-.014.321-.014.642.025.321.025.642a7,7,0,0,0,.041.788,4.269,4.269,0,0,0,.159.769,4.1,4.1,0,0,1,.194.784.182.182,0,0,1-.2.165c-.068,0-.292.029-.578.029-.178,0-.378-.032-.579-.032-.24,0-.24.022-.479.022-.2,0-.4.014-.579.014-.286,0-.51-.029-.578-.029-.109,0-.217-.068-.217-.167a5.346,5.346,0,0,1,.231-.776,4.83,4.83,0,0,0,.121-.779,7.125,7.125,0,0,0,.076-.785c0-.323-.017-.323-.017-.645s-.012-.323-.012-.646.012-.322.012-.643-.011-.321-.011-.643.013-.322.013-.643.006-.322.006-.643,0-.321,0-.642-.012-.321-.012-.643.019-.32.019-.641.006-.321.006-.641-.022-.321-.022-.642-.005-.32-.005-.641.017-.321.017-.642a6.852,6.852,0,0,0-.031-.789,3.886,3.886,0,0,0-.188-.764,4.206,4.206,0,0,1-.2-.788.223.223,0,0,1,.214-.2c.068,0,.292.024.578.024.177,0,.377-.006.579-.006.24,0,.24.008.479.009.2,0,.4-.016.579-.016.286,0,.511,0,.578,0a.2.2,0,0,1,.206.186,4.93,4.93,0,0,1-.221.777,4.254,4.254,0,0,0-.153.772" transform="translate(-85.934 -77.99)" fill="#b3874b"/>
    <path id="パス_4362" data-name="パス 4362" d="M190.872,151.794a6.946,6.946,0,0,0-.044.789v.645c0,.323.014.323.014.645s-.027.322-.027.644.039.321.039.642-.01.322-.01.644-.024.322-.024.643.027.321.027.642,0,.321,0,.643,0,.32,0,.641,0,.32,0,.641-.027.322-.027.643.027.32.027.642,0,.322,0,.643a6.872,6.872,0,0,0,.041.786,4.642,4.642,0,0,0,.13.778,4.507,4.507,0,0,1,.212.775.172.172,0,0,1-.194.162c-.1,0-.1.011-.2.011-.24,0-.24.03-.48.03s-.24-.012-.479-.012H189.4c-.239,0-.239.008-.479.008s-.24-.013-.479-.013c-.1,0-.1.008-.2.008a.2.2,0,0,1-.2-.194,3.993,3.993,0,0,1,.192-.782,5.092,5.092,0,0,0,.213-.594c0-.215-.028-.432-.045-.646s-.055-.425-.087-.637-.026-.433-.073-.642-.112-.417-.174-.622-.131-.41-.207-.611-.156-.4-.247-.6-.2-.38-.308-.567-.21-.376-.328-.556-.229-.365-.359-.536-.285-.323-.426-.485-.276-.33-.43-.481c-.34-.335-.354-.321-.7-.656v0c-.116-.113-.114-.116-.229-.23s-.1-.127-.219-.24c-.188-.185-.37-.23-.494-.178s-.211.214-.211.477c0,.314.011.314.011.627s-.025.313-.025.627.011.313.011.626.036.312.036.624-.014.313-.014.626-.014.312-.014.625,0,.312,0,.624.007.312.007.625.019.312.019.623-.036.311-.036.623a7.2,7.2,0,0,0,.051.788,4.476,4.476,0,0,0,.147.775,4.979,4.979,0,0,1,.223.774.2.2,0,0,1-.2.182c-.1,0-.1.022-.2.022-.24,0-.24-.032-.479-.032s-.24.024-.479.024-.24-.01-.479-.01-.24.016-.479.016-.24-.031-.479-.031c-.1,0-.1.009-.2.009a.183.183,0,0,1-.19-.181,3.527,3.527,0,0,1,.168-.791,4,4,0,0,0,.174-.764,6.959,6.959,0,0,0,.045-.789c0-.323,0-.322,0-.644s.012-.322.012-.644-.014-.322-.014-.644-.005-.32-.005-.641-.01-.321-.01-.643.013-.32.013-.642.021-.321.021-.642,0-.32,0-.642,0-.32,0-.641-.022-.32-.022-.64.011-.321.011-.642.024-.32.024-.641-.023-.321-.023-.642a7.087,7.087,0,0,0-.069-.786,4.6,4.6,0,0,0-.133-.774,4.514,4.514,0,0,1-.207-.785.207.207,0,0,1,.211-.186c.1,0,.1-.012.2-.012.3,0,.3.036.6.036s.3-.022.6-.022.3-.021.6-.021c.011,0,.011.005.022.005a1.472,1.472,0,0,1,.989.424c.067.072.12.169.2.25.226.242.23.239.455.481s.209.258.435.5.231.236.457.477.23.237.455.478.228.235.452.475c.1.1.226.23.362.375.115.123.231.26.351.388.047.05.085.11.137.158a3.781,3.781,0,0,1,.345.366c.029.036.142.148.145.154.177.215.3-.036.3-.563,0-.355.032-.355.032-.71s-.028-.355-.028-.71a6.976,6.976,0,0,0-.055-.786,4.168,4.168,0,0,0-.157-.768,3.935,3.935,0,0,1-.187-.789.209.209,0,0,1,.206-.194c.1,0,.1.034.2.034.24,0,.24-.041.479-.041s.24.025.48.025.24-.015.479-.015.24-.005.48-.005.24.035.479.035c.1,0,.1-.044.2-.044a.207.207,0,0,1,.194.206,4.084,4.084,0,0,1-.2.779,4.337,4.337,0,0,0-.159.771" transform="translate(-94.147 -77.99)" fill="#b3874b"/>
    <path id="パス_4363" data-name="パス 4363" d="M219.862,152.66a2.907,2.907,0,0,1,.077.673,2.8,2.8,0,0,1-.332,1.306,1.292,1.292,0,0,1-.376.44,1.2,1.2,0,0,1-.539.2,1.359,1.359,0,0,1-.579-.018,1.426,1.426,0,0,1-.509-.279,1.314,1.314,0,0,1-.383-.444,1.386,1.386,0,0,1-.092-.578h0a.327.327,0,0,1,.176-.294.406.406,0,0,0,.242-.374,1.3,1.3,0,0,0-.652-1.129,1.3,1.3,0,0,0-.652-.2c-.307,0-.307,0-.614,0a1.874,1.874,0,0,0-1.932,1.948c0,.318,0,.318,0,.637s-.006.318-.006.636-.012.318-.012.635.018.317.018.634,0,.316,0,.634.021.317.021.634-.018.316-.018.633-.022.316-.022.633a1.836,1.836,0,0,0,.829,1.549,1.909,1.909,0,0,0,.53.284,1.933,1.933,0,0,0,.6.085c.448,0,.448.024.9.024a1.066,1.066,0,0,0,.734-.286.745.745,0,0,1,.784-.2c.381.135.385.125.766.26a.839.839,0,0,1,.417.319.852.852,0,0,1,.155.5.786.786,0,0,1-.191.485,3.372,3.372,0,0,1-.408.459,3.411,3.411,0,0,1-.5.356,3.514,3.514,0,0,1-.546.285,3.078,3.078,0,0,1-1.211.2c-.448,0-.448.03-.9.03a4.326,4.326,0,0,1-.619-.04,4.258,4.258,0,0,1-.6-.167,4.652,4.652,0,0,1-1.126-.5,4.3,4.3,0,0,1-.506-.358,4.766,4.766,0,0,1-.8-.943,4.191,4.191,0,0,1-.3-.54,4.4,4.4,0,0,1-.357-1.183,4.336,4.336,0,0,1-.025-.619c0-.318,0-.318,0-.636s.009-.318.009-.637.01-.317.01-.635,0-.317,0-.634-.033-.317-.033-.635.016-.317.016-.633.009-.317.009-.634,0-.316,0-.634a4.367,4.367,0,0,1,.032-.618,4.175,4.175,0,0,1,.166-.6,4.941,4.941,0,0,1,.848-1.63,4.49,4.49,0,0,1,.459-.416,4.21,4.21,0,0,1,.49-.373,4.391,4.391,0,0,1,.542-.293,6.064,6.064,0,0,1,1.794-.417c.045,0,.045,0,.09,0a4.592,4.592,0,0,1,.6.071,4.653,4.653,0,0,1,.6.074,7.16,7.16,0,0,1,1.1.491,4.233,4.233,0,0,1,.489.348,3.957,3.957,0,0,1,.46.387,3.892,3.892,0,0,1,.387.462,3.713,3.713,0,0,1,.3.613,3.214,3.214,0,0,1,.211.641" transform="translate(-109.822 -77.746)" fill="#b3874b"/>
    <path id="パス_4364" data-name="パス 4364" d="M246.024,151.016c0,.24-.024.24-.024.48s.019.239.019.479-.006.24-.006.479c0,.069,0,.069,0,.136a.186.186,0,0,1-.191.153,2.886,2.886,0,0,1-.6-.145,3.514,3.514,0,0,0-.677-.109c-.222-.019-.464-.012-.691-.012-.284,0-.284-.032-.569-.032h-.568c-.283,0-.283.033-.567.033a.956.956,0,0,0-.69.245.985.985,0,0,0-.281.69c0,.355.02.355.02.709s-.012.354-.012.709c0,.245-.015.245-.015.49a.362.362,0,0,0,.449.334,3.615,3.615,0,0,1,1.079-.179c.242,0,.242-.01.485-.01.158,0,.3.172.388.407a1.64,1.64,0,0,1,.091.571c0,.24-.008.24-.008.48a1.609,1.609,0,0,1-.1.565c-.089.234-.213.382-.371.382-.242,0-.242.028-.485.028a1.462,1.462,0,0,0-.569.118,1.51,1.51,0,0,0-.5.3,1.492,1.492,0,0,0-.447,1.07c0,.425.01.425.01.85a.812.812,0,0,0,.3.621,1.021,1.021,0,0,0,.659.224c.271,0,.271-.008.542-.008s.27.03.542.03.27-.021.54-.021c.23,0,.48-.021.71-.041a4.508,4.508,0,0,0,.707-.083,3.136,3.136,0,0,1,.627-.158c.1,0,.173.054.173.136s.016.075.016.149c0,.24-.03.24-.03.48s.029.24.029.479-.005.226-.005.453a.947.947,0,0,1-.288.672.96.96,0,0,1-.672.3c-.312,0-.312-.034-.624-.034s-.312.023-.625.023-.312-.018-.623-.018-.311.008-.622.008c-.24,0-.24.022-.48.022h-.479c-.24,0-.24-.005-.479-.005s-.239,0-.479,0c-.437,0-.437-.007-.874-.007-.24,0-.24.009-.48.009s-.239-.02-.479-.02c-.1,0-.1-.013-.2-.013s-.2-.058-.2-.158a3.9,3.9,0,0,1,.189-.786,4.144,4.144,0,0,0,.168-.769,6.973,6.973,0,0,0,.048-.789c0-.32.011-.32.011-.639s-.034-.319-.034-.639,0-.319,0-.637.032-.318.032-.637-.006-.318-.006-.636-.03-.318-.03-.637.033-.318.033-.635,0-.318,0-.637-.024-.316-.024-.634-.013-.317-.013-.635.033-.318.033-.636,0-.317,0-.634-.044-.319-.044-.636.016-.317.016-.635c0-.217.007-.443-.006-.645a2.791,2.791,0,0,0-.11-.631,1.971,1.971,0,0,1-.085-.509c0-.1.042-.18.1-.18s.053.014.107.014c.24,0,.24,0,.479,0s.24-.018.48-.018c.265,0,.265.016.53.016s.265-.006.529-.006c.24,0,.24-.02.48-.02s.24.03.479.03.24-.041.479-.041.24.037.479.037c.289,0,.289-.035.579-.035s.29,0,.579,0,.288.028.577.028.288-.006.576-.006a.965.965,0,0,1,.689.259.991.991,0,0,1,.29.689" transform="translate(-123.925 -77.99)" fill="#b3874b"/>
  </g>
</svg>
