<svg id="kyosan_logo06" xmlns="http://www.w3.org/2000/svg" xmlns:xlink="http://www.w3.org/1999/xlink" width="261.431" height="76.342" viewBox="0 0 261.431 76.342">
  <defs>
    <clipPath id="clip-path">
      <rect id="長方形_754" data-name="長方形 754" width="261.431" height="76.342" fill="none"/>
    </clipPath>
  </defs>
  <g id="グループ_678" data-name="グループ 678" transform="translate(0 0)" clip-path="url(#clip-path)">
    <path id="パス_4325" data-name="パス 4325" d="M197.486,74.857a12.945,12.945,0,0,1-25.89-.016V47.033h-3.748V74.841a16.691,16.691,0,0,0,29.638,10.535v6.091h3.748V47.033h-3.748Z" transform="translate(-55.649 -15.594)" fill="#5f5e5e"/>
    <rect id="長方形_753" data-name="長方形 753" width="3.748" height="44.434" transform="translate(177.772 31.439)" fill="#5f5e5e"/>
    <path id="パス_4326" data-name="パス 4326" d="M365.035,47.034v5.831a22.029,22.029,0,1,0,0,32.427v6.175h3.747V47.034ZM349.976,87.786a18.708,18.708,0,1,1,15.059-29.8V80.169a18.668,18.668,0,0,1-15.059,7.618" transform="translate(-108.783 -15.594)" fill="#5f5e5e"/>
    <path id="パス_4327" data-name="パス 4327" d="M118.107,47.033V91.673h3.748V70.125h21.822V66.378H121.855V50.78h24.92V47.033H118.107Z" transform="translate(-39.158 -15.594)" fill="#5f5e5e"/>
    <path id="パス_4328" data-name="パス 4328" d="M241.13,50.78V77.434a10.473,10.473,0,0,1-10.473,10.473h-5.074l-.014,3.795H230.6a14.28,14.28,0,0,0,14.28-14.279V47.033H241.13Z" transform="translate(-74.786 -15.594)" fill="#5f5e5e"/>
    <path id="パス_4329" data-name="パス 4329" d="M316.077,47.033h-3.953L296.958,69.985,281.793,47.033H277.84l17.245,26.1V91.467h3.747V73.132Z" transform="translate(-92.116 -15.594)" fill="#5f5e5e"/>
    <path id="パス_4330" data-name="パス 4330" d="M90.764,55.055c1.344,6.283-5.366,13.043-14.985,15.1s-18.5-1.374-19.844-7.656S61.3,49.455,70.919,47.4s18.5,1.374,19.845,7.656" transform="translate(-18.488 -15.517)" fill="#007cae"/>
    <path id="パス_4331" data-name="パス 4331" d="M28.3,72.111a8.707,8.707,0,0,1-2-5.412c0-4.168,3.287-7.826,8.239-9.913q-1.789-.311-3.655-.477C14.778,54.893.973,62.357.049,72.979s11.385,20.383,27.492,21.8a44.441,44.441,0,0,0,5.807.133,40.485,40.485,0,0,0,34.192-24,29.6,29.6,0,0,1-15.766,7.643C41.8,80.3,32.554,77.526,28.308,72.137Z" transform="translate(0 -18.612)" fill="#007cae"/>
    <path id="パス_4332" data-name="パス 4332" d="M9.143,21.557V19.627l-.048-.047a4.7,4.7,0,0,1-4.46,2.357c-2.069,0-4.562-.94-4.562-4.112V8.291H2.435v8.8c0,2.184,1.181,3.257,2.713,3.257,2.976,0,3.862-2.146,3.862-4.076V8.291h2.362V21.557Z" transform="translate(-0.024 -2.749)" fill="#5f5e5e"/>
    <path id="パス_4333" data-name="パス 4333" d="M26.554,15.354c0-2.156.376-5.631,3.789-5.631,3.648,0,3.838,3.272,3.838,4.973,0,2.914-1.207,5.122-3.784,5.122-1.507,0-3.843-.938-3.843-4.465M24.3,25.6h2.362V19.974h.053a4.292,4.292,0,0,0,3.73,1.774c4.778,0,6.178-4.234,6.178-7.408,0-3.729-2.123-6.62-5.854-6.62a4.793,4.793,0,0,0-4.191,2.258h-.052V8.1H24.3Z" transform="translate(-8.058 -2.559)" fill="#5f5e5e"/>
    <path id="パス_4334" data-name="パス 4334" d="M66.594,8.059v8.624c0,1.039.942,1.039,1.422,1.039h1.129v1.751c-1.151.079-1.826.176-2.064.176-2.338,0-2.849-1.241-2.849-2.84V8.059H61.978V6.207h2.254v-4.2h2.362v4.2h2.8V8.059Z" transform="translate(-20.548 -0.665)" fill="#5f5e5e"/>
    <path id="パス_4335" data-name="パス 4335" d="M166.391,8.059v8.624c0,1.039.94,1.039,1.42,1.039h1.13v1.751c-1.15.079-1.826.176-2.065.176-2.338,0-2.849-1.241-2.849-2.84V8.059h-2.253V6.207h2.253v-4.2h2.364v4.2h2.8V8.059Z" transform="translate(-53.635 -0.665)" fill="#5f5e5e"/>
    <path id="パス_4336" data-name="パス 4336" d="M79.516,14.22c0-1.86.729-5.32,4.265-5.32s4.256,3.46,4.256,5.32-.727,5.324-4.256,5.324-4.265-3.463-4.265-5.324m-2.261,0c0,3.492,2.04,7.142,6.527,7.142s6.523-3.65,6.523-7.142S88.262,7.08,83.782,7.08s-6.527,3.647-6.527,7.139" transform="translate(-25.613 -2.347)" fill="#5f5e5e"/>
    <path id="パス_4337" data-name="パス 4337" d="M116.34,12.04c0-1.751.195-5.115,3.927-5.115,3.491,0,3.879,3.573,3.879,5.791,0,3.63-2.392,4.593-3.935,4.593-2.635,0-3.872-2.269-3.872-5.269M126.21,0h-2.362V7.243l-.057.175A4.792,4.792,0,0,0,119.6,5.16c-3.728,0-5.513,2.892-5.513,6.62,0,3.174,1.062,7.408,5.841,7.408a4.286,4.286,0,0,0,4-2.205h.053v1.825h2.233Z" transform="translate(-37.825 0)" fill="#5f5e5e"/>
    <path id="パス_4338" data-name="パス 4338" d="M213.42,12.04c0-1.751.2-5.115,3.928-5.115,3.491,0,3.877,3.573,3.877,5.791,0,3.63-2.389,4.593-3.933,4.593-2.635,0-3.872-2.269-3.872-5.269M223.289,0h-2.363V7.243l-.055.175A4.789,4.789,0,0,0,216.68,5.16c-3.727,0-5.513,2.892-5.513,6.62,0,3.174,1.061,7.408,5.84,7.408a4.286,4.286,0,0,0,4-2.205h.051v1.825h2.235Z" transform="translate(-70.011 0)" fill="#5f5e5e"/>
    <path id="パス_4339" data-name="パス 4339" d="M148.113,16.479c0,1.777-2.422,3.3-4.626,3.3-1.77,0-2.973-1.041-2.973-2.488,0-1.676,2.275-2.007,3.429-2.16,2.93-.353,3.8-.555,4.17-.832Zm-7.084-4.641c0-1.545.872-2.838,3.557-2.838,2.231,0,3.581,1.037,3.581,2.431A1.447,1.447,0,0,1,146.654,13l-3.892.457c-3.921.457-4.683,3.045-4.683,4.162,0,2.28,2.238,3.828,4.82,3.828a7.257,7.257,0,0,0,5.362-2.157,1.949,1.949,0,0,0,2.2,2.033,4.592,4.592,0,0,0,1.293-.257V19.449a4.627,4.627,0,0,1-.78.1.69.69,0,0,1-.777-.781V11.128c0-3.4-4.078-3.7-5.21-3.7-3.463,0-6.135.88-6.135,4.413Z" transform="translate(-45.779 -2.462)" fill="#5f5e5e"/>
    <path id="パス_4340" data-name="パス 4340" d="M179.356,12.956a4.264,4.264,0,0,1,4.23-4.3c2.876,0,4.074,2.248,4.207,4.3Zm8.041,3.708a3.52,3.52,0,0,1-3.621,2.61c-2.712,0-4.42-1.6-4.42-4.54H189.95c0-4.516-1.987-7.7-6.044-7.7-4.644,0-6.735,2.931-6.735,7.527,0,3.829,2.337,6.642,6.279,6.642a6.311,6.311,0,0,0,3.815-.912,5.677,5.677,0,0,0,2.495-3.626Z" transform="translate(-58.74 -2.331)" fill="#5f5e5e"/>
    <path id="パス_4341" data-name="パス 4341" d="M237.131,13.165a4.265,4.265,0,0,1,4.231-4.3c2.875,0,4.073,2.249,4.209,4.3Zm8.041,3.7a3.513,3.513,0,0,1-3.62,2.611c-2.711,0-4.42-1.6-4.42-4.54h10.6c0-4.515-1.987-7.7-6.045-7.7-4.642,0-6.733,2.933-6.733,7.529,0,3.828,2.335,6.642,6.277,6.642a6.317,6.317,0,0,0,3.817-.911,5.682,5.682,0,0,0,2.494-3.628Z" transform="translate(-77.896 -2.399)" fill="#5f5e5e"/>
    <path id="パス_4342" data-name="パス 4342" d="M267.452,11.063c-.026-.837-.347-2.234-3.324-2.234-.724,0-2.792.231-2.792,1.878,0,1.091.724,1.346,2.548,1.777l2.363.555c2.927.687,3.945,2.037,3.945,3.84,0,2.739-2.39,4.387-5.552,4.387-5.56,0-5.963-3.043-6.043-4.641h2.281c.08,1.038.4,2.713,3.735,2.713,1.689,0,3.216-.633,3.216-2.1,0-1.066-.778-1.761-2.792-2.242l-2.732-.636c-1.959-.455-3.25-1.392-3.25-3.219,0-2.917,2.547-4.237,5.313-4.237,5.019,0,5.37,3.5,5.37,4.16Z" transform="translate(-85.736 -2.289)" fill="#5f5e5e"/>
    <path id="パス_4343" data-name="パス 4343" d="M283.6,18.878h-2.363V5.612H283.6ZM281.241.121H283.6V2.656h-2.363Z" transform="translate(-93.244 -0.04)" fill="#5f5e5e"/>
    <path id="パス_4344" data-name="パス 4344" d="M342.233,18.878h-2.362V5.612h2.362ZM339.872.121h2.362V2.656h-2.362Z" transform="translate(-112.682 -0.04)" fill="#5f5e5e"/>
    <path id="パス_4345" data-name="パス 4345" d="M293,14.413c0-1.7.366-4.971,4.019-4.971,3.408,0,3.783,3.473,3.783,5.63,0,3.527-2.336,4.464-3.836,4.464-2.584,0-3.967-2.207-3.967-5.123M303.059,8h-2.227V9.874h-.051a4.784,4.784,0,0,0-4.187-2.257c-3.735,0-5.856,2.892-5.856,6.62,0,3.172,1.394,7.068,6.174,7.068a4.288,4.288,0,0,0,3.731-1.774v-.1h.053v.9c0,1.932.084,4.019-4,4.019-.566,0-2.737-.15-3.168-1.908H291.17c.741,3.1,3.7,3.611,5.368,3.611,6.493,0,6.521-3.97,6.521-5.874Z" transform="translate(-96.392 -2.525)" fill="#5f5e5e"/>
    <path id="パス_4346" data-name="パス 4346" d="M374.93,14.413c0-1.7.366-4.971,4.019-4.971,3.41,0,3.786,3.473,3.786,5.63,0,3.527-2.335,4.464-3.838,4.464-2.584,0-3.967-2.207-3.967-5.123M384.986,8H382.76V9.874h-.053a4.781,4.781,0,0,0-4.187-2.257c-3.735,0-5.856,2.892-5.856,6.62,0,3.172,1.4,7.068,6.176,7.068a4.293,4.293,0,0,0,3.73-1.774v-.1h.053v.9c0,1.932.083,4.019-4,4.019-.567,0-2.738-.15-3.169-1.908H373.1c.741,3.1,3.7,3.611,5.368,3.611,6.493,0,6.521-3.97,6.521-5.874Z" transform="translate(-123.555 -2.525)" fill="#5f5e5e"/>
    <path id="パス_4347" data-name="パス 4347" d="M327.2,21.323h-2.364V13.154c0-2.306-.7-3.473-3-3.473-1.346,0-3.711.815-3.711,4.414v7.228h-2.36V8.06H318V9.936h.051a5.148,5.148,0,0,1,4.245-2.259c2.171,0,4.91.834,4.91,4.615Z" transform="translate(-104.689 -2.545)" fill="#5f5e5e"/>
    <path id="パス_4348" data-name="パス 4348" d="M361.867,21.323H359.5V13.154c0-2.306-.695-3.473-3-3.473-1.346,0-3.708.815-3.708,4.414v7.228h-2.362V8.06h2.233V9.936h.053a5.138,5.138,0,0,1,4.241-2.259c2.172,0,4.912.834,4.912,4.615Z" transform="translate(-116.182 -2.545)" fill="#5f5e5e"/>
  </g>
</svg>
