<svg id="kyosan_logo01" xmlns="http://www.w3.org/2000/svg" xmlns:xlink="http://www.w3.org/1999/xlink" width="175.936" height="117.291" viewBox="0 0 175.936 117.291">
  <defs>
    <clipPath id="clip-path">
      <rect id="長方形_749" data-name="長方形 749" width="175.936" height="117.291" fill="none"/>
    </clipPath>
  </defs>
  <g id="グループ_672" data-name="グループ 672" clip-path="url(#clip-path)">
    <path id="パス_4263" data-name="パス 4263" d="M160.044,76.662c4.2,4.177,7.351,9.906,6.261,16.245-2.025,9.754-9.966,16.723-19.469,18.729a54.9,54.9,0,0,1-8.955.957H111.341l12.624-50.221,21.323-7.351-10.557,42.09c7.936-.105,13.268-6.116,12.831-11.622s-3.1-8.368-6.591-9.948c.822-.295,12.5-7.742,10.071-15.437-2.57-7.721-14.285-6.692-21.095-4.908A144.714,144.714,0,0,0,111.1,60.943l-12.97,51.65H77.862l10.8-43.052C88.4,69.51,72.55,76.727,72.55,76.727l5.416-21.741c6.243-2.815,32.725-13.514,49.713-16.29,22.886-3.743,37.358,2.812,41.432,14.043s-1.7,19.895-9.067,23.923M49.713,69.15C56.785,64.8,74.676,56.32,75.057,56.138L66.044,92.025c-3.61,15.313-13.592,24.913-26.632,30.354a68.389,68.389,0,0,1-19.542,4.292l5.416-21.582c11.573-.4,17.771-9.426,20.021-18.367L49.681,69.28ZM79.732,37.526,75.7,53.573c-7.984,3.932-17.542,8.742-25.332,12.961l7.279-29.008Z" transform="translate(-9.314 -17.59)" fill="#c00"/>
  </g>
</svg>
