<?xml version="1.0" encoding="UTF-8"?><svg id="_レイヤー_2" xmlns="http://www.w3.org/2000/svg" viewBox="0 0 69.91 70.4"><defs><style>.cls-1{fill:#fff;}.cls-2{fill:#d5b900;}.cls-3{fill:#fded00;}.cls-4{fill:#e50717;}</style></defs><g id="_レイヤー"><g id="Chupa_Chups_Logo"><path class="cls-2" d="m62.2,56.02c-1.65.69-3.47.98-5.34.97l-.08.06c.11,3.28-.97,6.2-2.9,8.65-3.32,3.76-8.06,5.37-12.97,4.08-1.88-.55-3.6-1.46-5.12-2.8-.26-.26-.53-.52-.82-.69-3.37,3.63-8.32,4.98-13.09,3.52-3.91-1.12-7.58-4.93-8.42-8.9-.31-1.12-.39-2.34-.39-3.58l-.09-.06c-5.16.22-9.89-2.78-11.93-7.45-1.36-2.9-1.43-6.93-.14-9.94.55-1.39,1.25-2.75,2.39-3.84l.79-.79v-.07C1.18,32.4-.14,28.83.09,24.82c.37-4.63,3.44-9.07,7.89-10.78.51-.22,1.03-.36,1.55-.55,1.1-.21,2.21-.39,3.39-.38l.06-.09c-.06-4.93,2.49-9.49,7.01-11.69,2.84-1.5,6.84-1.8,9.95-.57,1.79.71,3.46,1.71,4.87,3.24.18.27.37-.09.54-.17,3.43-3.56,8.67-4.8,13.38-3.1,4.28,1.46,7.7,5.91,8.06,10.36.07.6.09,1.22.1,1.85l.07.06c5.24-.17,10.03,2.98,11.98,7.74,1.39,3.18,1.19,7.67-.47,10.71-.6,1.27-1.53,2.41-2.58,3.47v.1c3.93,3.62,5.04,9.35,3.04,14.23-1.1,2.87-3.79,5.62-6.73,6.75"/><path class="cls-4" d="m68.06,45.76c-.13.29-.11.64-.2.94-.72,3.71-3.91,7.26-7.65,8.2-1.64.44-3.48.58-5.27.24l-.08.09c.91,4.6-.99,8.98-4.9,11.55-3.11,2.13-8.03,2.17-11.25.24-1.43-.78-2.76-2.03-3.78-3.41-.24.21-.39.54-.63.8-2.92,3.53-7.54,4.94-11.98,3.47-3.18-.96-6.21-4.02-7.07-7.24-.49-1.61-.58-3.5-.29-5.26l-.07-.08c-4.4.83-8.73-.87-11.23-4.57-2.39-3.33-2.45-8.72-.18-12.11.82-1.24,1.96-2.52,3.27-3.37.05-.03.02-.07.03-.1-3.7-2.56-5.48-6.69-4.76-11.15.57-3.96,3.91-7.75,7.85-8.76,1.49-.48,3.27-.43,4.87-.3l.06-.06c-.83-4.74,1.25-9.26,5.44-11.68,3.15-1.91,7.96-1.89,11.04.1,1.4.79,2.74,2.08,3.63,3.48h.09c2.67-3.9,7.24-5.72,11.92-4.64,3.61.78,6.97,4.04,7.85,7.63.43,1.55.51,3.38.23,5.03.05.12.22.07.32.05,4.52-.72,8.77,1.22,11.16,5.08,1.91,2.95,2.13,7.39.54,10.59-.8,1.74-2.24,3.36-3.89,4.52.21.27.56.43.83.66,3.11,2.54,4.41,6.12,4.06,10.06"/><path class="cls-1" d="m59.71,53.73c-1.63.66-3.38.98-5.32.84l-.06.07c.36,4.49-1.8,8.54-5.8,10.75-2.61,1.45-6.39,1.67-9.21.46-1.63-.6-3.05-1.67-4.34-3.02h-.06c-.86.99-1.86,1.84-2.95,2.47-2.86,1.72-7.01,1.97-10.06.43-2.45-1.07-4.81-3.5-5.68-6.03-.52-1.51-.83-3.15-.68-4.82-.17-.17-.47-.05-.7-.07-3.46.07-6.56-1.24-8.77-3.9-2.5-2.94-3.25-7.25-1.84-10.91.65-1.79,1.73-3.44,3.32-4.76v-.09c-3.52-2.96-4.87-7.62-3.46-12.05.88-3.13,3.88-6.12,7.03-7.08,1.33-.41,2.78-.61,4.23-.51.12-.2.03-.45.05-.67-.08-4.41,2.49-8.45,6.53-10.28,2.95-1.41,7.19-1.25,9.97.47,1.11.65,2.16,1.51,3.02,2.53h.13c1.37-1.57,3.06-2.73,4.88-3.37,3.91-1.4,8.6-.39,11.46,2.65,2.24,2.4,3.25,5.28,3.09,8.55l.09.08c4.62-.28,8.85,2.22,10.76,6.37,1.86,3.77,1.04,9.02-1.84,12.07-.32.37-.72.72-1.07,1.05v.07c3.57,3.01,4.86,7.76,3.38,12.19-.86,2.77-3.33,5.4-6.09,6.51"/><path class="cls-3" d="m59.59,52.3c-1.69,1.01-3.55,1.58-5.6,1.59-.12.01-.28,0-.31.15.09,4.5-2.74,8.63-6.89,10.29-3.48,1.43-8.08.7-10.89-1.71l-.91-.79h-.09c-3.06,3.17-7.78,4.18-11.87,2.5-4.04-1.56-6.94-5.89-6.81-10.2l-.07-.06c-4.38.07-8.33-2.42-10.1-6.39-1.74-3.81-.97-8.92,1.97-11.93l.47-.5v-.1c-1.36-1.3-2.24-2.86-2.8-4.5-.4-1.49-.63-3.11-.41-4.8.43-3.95,3.46-7.78,7.33-9,1.07-.37,2.22-.58,3.45-.54l.09-.08c-.02-4.35,2.42-8.35,6.44-10.14,3.64-1.76,8.39-1.06,11.42,1.53l.96.87h.12c2.98-3.08,7.6-4.15,11.7-2.65.67.29,1.32.54,1.91.97.19,0,.29.2.42.29,3.05,2.11,4.61,5.44,4.66,9l.09.08c3.98,0,7.53,2.13,9.51,5.57,1.32,2.34,1.73,5.31,1.04,8.1-.52,1.91-1.45,3.65-2.95,5.12v.09c3.33,3.2,4.32,8.45,2.31,12.61-.57,1.21-1.41,2.32-2.4,3.31-.55.48-1.18.91-1.79,1.33"/><path class="cls-4" d="m61.16,21.79l-2.92.03c-.15.04-.17.18-.2.3-.09.19-.19.4-.36.53-.27-.61-.88-.89-1.48-.99-2.92,0-4.46,3.13-6.46,4.87h-.06c.02-.28.14-.54.21-.81.33-1.14.66-2.82-.45-3.67-.99-.62-2.15-.09-3.05.36-.08-.18.19-.36.06-.51h-2.77s-.12.09-.12.09l-2.94,6.54-.31.77c-.19.34-.57.58-.92.69-.3.11-.59.1-.85-.09-.24-.26-.2-.58-.13-.9,1.01-2.35,2.1-4.68,3.09-7.05l-.03-.03c-1.02-.03-2.05-.03-3.01,0l-.14.1c-1.08,2.52-2.31,4.97-3.29,7.54l-.23.23c-.3.12-.73.22-1-.03-.14-.15-.16-.39-.11-.59.98-2.38,2.01-4.73,3.09-7.06v-.16c-.98.02-2.01-.07-2.96.02l-.11.07c-1.07,2.33-2.09,4.67-3.12,7.02-.19.45-.69.74-1.14.85-.27.03-.54,0-.71-.21-.25-.35-.09-.81.03-1.18.66-1.63,1.44-3.23,2.09-4.87.14-.62.03-1.33-.51-1.7-.9-.5-1.97-.11-2.77.3-.24.14-.5.29-.75.35.66-1.56,1.33-3.1,2.03-4.64.05-.14.2-.33.1-.45-.97.01-1.96-.04-2.93-.01l-.15.1-1.04,2.32c-.08.22-.23.39-.26.62-1.07,2.33-2.1,4.68-3.14,7.02-1.47,1.6-3.44,3-5.66,2.15-1.11-.61-1.47-1.82-1.41-2.99.3-2.7,1.4-5.1,3.47-6.95.73-.56,1.69-1.11,2.58-.6.27.2.41.51.32.85-.07.76-.8,1.36-1.46,1.68-.13.05-.31.05-.43.19-.06.12-.04.26.03.37.52.74,1.5.96,2.35.74,1.06-.29,1.81-1.33,2.04-2.33.17-.96-.13-1.86-.84-2.5-1.14-1.09-3.11-1.09-4.56-.65-1.61.54-3.12,1.53-4.33,2.92-1.48,1.9-2.48,4.01-2.53,6.53-.03,2.03,1,4.09,2.92,4.93,2.03.8,4.32.18,5.93-1.17h.07c-.04.25-.13.48-.23.7.02.19-.22.29-.16.46.72.08,1.53.02,2.28.03.28,0,.59.02.86-.04,1.04-2.29,2-4.63,3.06-6.92.22-.3.59-.39.94-.42.16.02.29.1.4.23.11.12.08.35.03.51-.61,1.47-1.35,2.88-1.88,4.4-.18.81.04,1.65.75,2.12,1.02.65,2.41.27,3.35-.28.3-.12.53-.41.84-.51.14.2.19.45.35.64,1.25,1.2,3.07.33,4.3-.26.41.58.98.9,1.66.96,1.03.08,1.9-.42,2.76-.9-.29,1.01-.85,1.95-1.22,2.94-.34.75-1.16,1.5-2.05,1.44-.13.01-.2.17-.14.29.31.32.73.49,1.17.58,1.54.27,2.93-.5,3.79-1.74.75-1.14,1.12-2.48,1.81-3.64.42.6,1.06.9,1.8.9,2.42-.11,3.98-2.54,5.7-4.08h.07c-.15.85-.5,1.7-.28,2.6.07.6.61,1.15,1.14,1.4,1.31.5,2.59-.06,3.61-.81l.09.08c.16.44.58.82,1.03.93,1.16.2,2.22-.19,2.98-1.04.03-.07.08-.19,0-.25-.26,0-.54.13-.77-.01-.23-.1-.36-.32-.39-.55.13-.83.51-1.53.85-2.27l2.67-6.05c0-.1.18-.21.04-.31Zm-14.62,4.43c-.5,1.17-1,2.35-1.76,3.39-.28.31-.67.53-1.07.39-.16-.08-.24-.26-.31-.41l.02-.22,2.18-4.87c.29-.27.67-.49,1.07-.34.15.02.28.14.31.29.11.71-.26,1.21-.45,1.77Zm10.25-1.51l-1.47,3.36c-.24.45-.4.94-.58,1.4-.21.42-.65.62-1.1.62-.16-.05-.34-.1-.42-.28-.2-.59.06-1.18.25-1.7.58-1.36,1.01-2.78,2.08-3.89.2-.17.42-.26.7-.21.21.02.41.16.5.34.07.1.09.25.03.37Zm.38,12.66c-1.51.18-2.74,1.19-3.87,2.28-.96.86-1.75,1.89-2.75,2.69l-.03-.02c.22-1.56.91-3.73-.7-4.72-1.14-.55-2.34,0-3.28.66l-.03-.05.2-.52-.03-.03c-1.04-.11-2.03.03-3.06.01l-.09.07c-1.31,2.95-2.64,5.91-3.94,8.86-.22.31-.57.39-.9.5-.27.08-.65.08-.83-.17-.18-.24-.08-.6,0-.85l2.43-5.51,1.23-2.74v-.15c-1.08-.05-2.18.01-3.25,0l-.15.08c-1.21,2.86-2.54,5.62-3.7,8.48-.16.24-.41.44-.68.47-.31.06-.6-.05-.76-.3-.11-.22-.06-.48-.02-.7l2.2-5.06,1.23-2.78v-.16c-1.07-.04-2.19.01-3.25.02l-.11.07c-1.23,2.77-2.48,5.55-3.68,8.33-.02.28-.3.44-.51.61-.39.19-.89.58-1.32.2-.32-.24-.18-.68-.1-.98l1.76-3.98c.32-.81.75-1.57.97-2.43.14-.64.06-1.3-.46-1.71-1.23-.91-2.71-.11-3.79.57-.03.03-.1.04-.15,0,.53-1.33,1.14-2.61,1.7-3.91.16-.36.38-.75.44-1.13-1.12-.05-2.25-.08-3.33.02-1.38,3.13-2.8,6.24-4.18,9.37-.32.74-.63,1.47-1.01,2.18-1.19,1.17-2.54,2.17-4.12,2.42-.55.03-1.18.02-1.66-.2-1.03-.37-1.63-1.5-1.75-2.52-.09-1.57.22-3.04.82-4.33.92-1.87,2.45-4.17,4.66-4.73.47-.09,1-.02,1.28.41.2.3.24.73.12,1.09-.31.76-1.15,1.25-1.89,1.41-.08.09-.1.2-.07.31.45.67,1.23.95,2.06.88,1.06-.02,2.13-.7,2.61-1.68.43-.95.36-2.26-.26-3.08-.86-1.23-2.44-1.5-3.93-1.36-4.01.46-7.67,4.04-8.7,7.84-.63,2.8-.42,6.06,2.08,7.78,2.58,1.29,5.49.22,7.52-1.51l.04.03c-.11.57-.42,1.02-.61,1.54l.04.05c1.09.04,2.2-.01,3.29-.02,1.31-2.76,2.48-5.59,3.74-8.39.14-.23.42-.31.66-.37.25-.02.61-.1.78.16.14.2.07.43.04.65-.32.78-.67,1.54-1,2.32-.58,1.44-1.59,2.78-1.4,4.5.11.6.66,1.27,1.31,1.38,1.52.3,2.82-.49,3.94-1.52h.06c.19.43.33.94.8,1.21.78.48,1.91.43,2.71.03.49-.2.95-.54,1.41-.84.22.37.37.83.79,1.07,1.17.52,2.5.03,3.51-.57.09-.03.2-.15.28-.08-.2.77-.67,1.41-.9,2.16-.06.11-.19.24-.35.19-1.65-.29-3.4-.59-5.1-.39-1.9.11-3.71.44-5.24,1.52-1.32.96-2.01,2.37-1.76,3.98.21,1.27,1.42,2.45,2.63,2.81,3.42,1.26,7.2.44,9.7-2.29.29-.27.46-.61.74-.87.84.07,1.61.29,2.43.41,3.37.55,7.15.61,9.79-1.57.87-.72,1.75-1.55,2.12-2.55-.01-.13-.14-.18-.24-.15-.69.43-1.48.62-2.25.82-3.14.4-6.5.1-9.38-.83l-.09-.09c.5-1.27,1.06-2.51,1.66-3.73h.06c.18.36.51.71.87.92,1.5.78,3.08-.05,4.27-1.05,2.6-2.38,4.67-5.09,7.09-7.6.15-.08.29-.24.48-.22.1.05.19.17.12.28-.5,1.17-.98,2.4-1.15,3.71-.27.93-.2,2.01-.66,2.86-.25.4-.66.69-1.16.63-.29-.04-.54-.19-.66-.46-.15-.39.01-.78.19-1.09.11-.2.38-.29.43-.53-.27-.26-.8-.23-1.13-.11-.69.28-1.23.95-1.25,1.73-.05.66.28,1.21.8,1.64,1.21.77,3.05.78,4.3.06,1.8-.96,2.66-2.76,2.64-4.74.04-1.92-1.12-4.52.74-5.93.18-.18.57-.17.55-.51-.44-.35-1.04-.5-1.66-.47Zm-23.07,19.17c-1.32,1.13-3.01,1.67-4.76,1.2-.6-.17-1.21-.47-1.52-1.03-.19-.37-.13-.87.07-1.2.68-.81,1.72-.82,2.7-.89,1.55,0,3.07.27,4.49.64-.12.52-.59.9-.97,1.28Zm12.95-15.02c-.33,1.07-.77,2.12-1.24,3.13-.44.78-.72,1.75-1.6,2.2-.28.05-.61.07-.8-.17-.14-.15-.24-.33-.16-.55l2.05-4.66c.21-.42.33-.94.84-1.13.24-.14.56-.07.78.07.31.29.18.72.14,1.1Zm-7.18,15.77c-1.04,0-1.87.84-1.87,1.87,0,1.03.84,1.86,1.88,1.86,1.03,0,1.87-.84,1.87-1.87,0-1.03-.84-1.86-1.88-1.86Zm0,3.44c-.88,0-1.59-.7-1.59-1.57,0-.87.71-1.58,1.59-1.58.88,0,1.59.7,1.59,1.57,0,.87-.71,1.58-1.59,1.58Zm.88-2.34c-.3-.57-1.11-.32-1.65-.36l-.03.06-.03,1.97.05.13c.13.02.34.08.43-.03v-.7c.09-.2.37-.13.54-.11.26.13.19.45.24.68,0,.07.05.15.11.18h.35c-.02-.37-.02-.78-.24-1.09.21-.17.3-.46.22-.72Zm-.7.58c-.15-.02-.43.07-.5-.1.04-.17-.08-.35.08-.47.24,0,.55-.04.66.2,0,.16-.07.3-.23.37Z"/></g></g></svg>