<?xml version="1.0" encoding="UTF-8"?><svg id="_レイヤー_2" xmlns="http://www.w3.org/2000/svg" viewBox="0 0 117.12 78.08"><defs><style>.cls-1{fill:#c81528;}.cls-2{fill:none;}</style></defs><g id="_レイヤー"><rect class="cls-2" y="0" width="117.12" height="78.08"/><path class="cls-1" d="m100.34,39.32c2.8,2.78,4.89,6.59,4.17,10.81-1.35,6.49-6.63,11.13-12.96,12.47-.55.12-3.59.64-5.96.64h-17.67l8.4-33.43,14.19-4.89-7.03,28.02c5.28-.07,8.83-4.07,8.54-7.74-.29-3.67-2.06-5.57-4.39-6.62.55-.2,8.32-5.15,6.7-10.28-1.71-5.14-9.51-4.45-14.04-3.27-3.42.72-10.27,2.84-12.55,3.83l-8.63,34.38h-13.49l7.19-28.66c-.17-.02-10.72,4.78-10.72,4.78l3.6-14.47c4.16-1.87,21.78-9,33.09-10.84,15.23-2.49,24.87,1.87,27.58,9.35,2.71,7.48-1.13,13.24-6.04,15.92Zm-73.44-5c4.71-2.89,16.62-8.54,16.87-8.66l-6,23.89c-2.4,10.19-9.05,16.58-17.73,20.21-5.51,2.17-11.71,2.86-13.01,2.86l3.6-14.37c7.7-.26,11.83-6.27,13.33-12.23l2.91-11.61.02-.09Zm19.98-21.05l-2.69,10.68c-5.31,2.62-11.68,5.82-16.86,8.63l4.85-19.31h14.7Z"/></g></svg>