<svg id="kyosan_logo05" xmlns="http://www.w3.org/2000/svg" xmlns:xlink="http://www.w3.org/1999/xlink" width="335.583" height="68.787" viewBox="0 0 335.583 68.787">
  <defs>
    <clipPath id="clip-path">
      <rect id="長方形_752" data-name="長方形 752" width="335.583" height="68.788" fill="none"/>
    </clipPath>
  </defs>
  <g id="グループ_676" data-name="グループ 676" transform="translate(0 0)" clip-path="url(#clip-path)">
    <path id="パス_4282" data-name="パス 4282" d="M12.634,9.505c0-5.113,0-6.037-.056-7.081C12.509,1.309,12.249.775,11.154.56a5.357,5.357,0,0,0-1.1-.11c-.138,0-.264-.065-.264-.2C9.788.06,9.95,0,10.3,0c1.476,0,3.439.091,3.705.091C14.732.091,16.634,0,18.146,0c4.1,0,5.586,1.372,6.114,1.867A5.74,5.74,0,0,1,25.884,5.76c0,4.671-3.406,7.815-8.054,7.815a5.93,5.93,0,0,1-.705-.028c-.163,0-.355-.074-.355-.23,0-.261.193-.3.882-.3a5.451,5.451,0,0,0,5.681-5.338,7,7,0,0,0-1.827-5.057A5.736,5.736,0,0,0,16.995.978a4.127,4.127,0,0,0-1.4.191c-.192.067-.261.3-.261.625V15.283c0,3.145,0,5.742.154,7.115.107.952.293,1.668,1.284,1.814.455.057,1.187.124,1.477.124.2,0,.257.1.257.194,0,.168-.156.265-.523.265-1.789,0-3.868-.1-4.023-.1-.1,0-2.176.1-3.156.1-.366,0-.523-.059-.523-.265,0-.1.057-.194.257-.194a5.74,5.74,0,0,0,.988-.124c.65-.146.807-.862.948-1.814.163-1.373.163-3.97.163-7.115Z" transform="translate(-1.827 0)" fill="#163549"/>
    <path id="パス_4283" data-name="パス 4283" d="M41.09,12.619c0-4.328,0-5.117-.077-6.011-.06-.95-.227-1.409-1.17-1.541-.234-.02-.729-.059-1-.059a.284.284,0,0,1-.222-.23c0-.16.139-.237.461-.237,1.319,0,3.247.076,3.409.076.3,0,2.724-.076,3.62-.076a9.5,9.5,0,0,1,5.373,1.222,4.892,4.892,0,0,1,2,3.813c0,2.053-.865,4.054-3.548,6.356,2.368,2.954,4.358,5.478,6.037,7.219,1.544,1.575,2.5,1.84,3.217,1.936a5.375,5.375,0,0,0,1.018.1.236.236,0,0,1,.252.221c0,.168-.155.237-.675.237H57.974a5.874,5.874,0,0,1-3.074-.556c-1.252-.653-2.3-2.006-3.938-4.1-1.218-1.5-2.493-3.312-3.115-4.071a.449.449,0,0,0-.393-.167l-3.674-.055c-.141,0-.2.055-.2.222v.66c0,2.692,0,4.857.133,6,.1.82.252,1.343,1.144,1.486.394.053,1.017.124,1.287.124.2,0,.229.124.229.221,0,.141-.13.237-.462.237-1.568,0-3.417-.1-3.547-.1-.033,0-1.961.1-2.849.1-.3,0-.464-.07-.464-.237a.216.216,0,0,1,.23-.221,5.109,5.109,0,0,0,.892-.124c.551-.143.613-.666.752-1.486a56.475,56.475,0,0,0,.165-6.028Zm2.49,2.363a.408.408,0,0,0,.2.36,9.772,9.772,0,0,0,3.187.418,3.6,3.6,0,0,0,2.154-.491c.983-.656,1.74-2.127,1.74-4.252,0-3.483-1.9-5.487-4.987-5.487a13.368,13.368,0,0,0-2.066.163.359.359,0,0,0-.228.329Z" transform="translate(-7.211 -0.847)" fill="#163549"/>
    <path id="パス_4284" data-name="パス 4284" d="M72.24,12.569c0-4.328,0-5.116-.076-6.011-.075-.95-.222-1.4-1.178-1.527A7.042,7.042,0,0,0,70,4.958a.266.266,0,0,1-.224-.23c0-.159.124-.237.455-.237,1.322,0,3.176.077,3.341.077.2,0,6.241.021,6.9,0,.551-.038,1.078-.139,1.3-.165a1.958,1.958,0,0,1,.406-.128c.093,0,.128.128.128.255a12.444,12.444,0,0,0-.226,1.306c-.039.267-.115,1.526-.177,1.853-.037.127-.13.285-.255.285-.17,0-.228-.133-.228-.357a3.059,3.059,0,0,0-.181-.983c-.189-.46-.49-.662-2.046-.858-.51-.062-3.855-.1-4.176-.1-.124,0-.159.1-.159.3v7.579c0,.191,0,.293.159.293.357,0,4.176,0,4.823-.068.691-.054,1.116-.089,1.4-.394.212-.19.335-.354.437-.354s.169.064.169.222-.169.629-.243,1.559c-.056.545-.124,1.605-.124,1.794,0,.222-.058.521-.261.521-.13,0-.2-.1-.2-.263a2.649,2.649,0,0,0-.122-.914c-.1-.4-.366-.718-1.484-.856-.788-.094-3.877-.131-4.367-.131-.153,0-.188.1-.188.206V17.5c0,.949-.033,4.195,0,4.75.06,1.867.583,2.233,3.439,2.233a9.609,9.609,0,0,0,2.89-.3A2.133,2.133,0,0,0,82.5,22.247c.068-.329.133-.424.3-.424s.194.23.194.424a24.075,24.075,0,0,1-.394,2.694c-.194.719-.491.719-1.608.719-2.157,0-3.843-.067-5.018-.1-1.218-.064-1.961-.064-2.4-.064-.063,0-.625,0-1.243.037-.565.028-1.208.06-1.67.06-.3,0-.463-.06-.463-.232a.225.225,0,0,1,.229-.227c.257,0,.624-.1.886-.124.558-.111.629-.665.739-1.485A49.655,49.655,0,0,0,72.24,17.5Z" transform="translate(-13.027 -0.798)" fill="#163549"/>
    <path id="パス_4285" data-name="パス 4285" d="M119.839,21.941c.1.991.287,2.5,1.478,2.886a5.933,5.933,0,0,0,1.857.268c.15,0,.242.061.242.193,0,.168-.263.265-.595.265-.646,0-3.866-.059-4.912-.172-.7-.065-.837-.163-.837-.286a.281.281,0,0,1,.216-.236c.159-.032.177-.456.123-.986l-1.374-14.1h-.072L109.007,24.02c-.587,1.2-.737,1.474-1.007,1.474s-.431-.276-.983-1.289c-.751-1.377-2.654-4.959-3.389-6.467-.843-1.767-3.174-6.461-3.668-7.6h-.125l-1.114,12.6c-.039.412-.039.945-.039,1.41a.777.777,0,0,0,.69.782,4.181,4.181,0,0,0,1.109.17c.1,0,.242.1.242.193,0,.206-.2.265-.525.265-1.087,0-2.455-.1-2.692-.1-.266,0-1.642.1-2.431.1-.29,0-.487-.059-.487-.265,0-.094.12-.193.293-.193a4.8,4.8,0,0,0,.844-.1c.956-.169.992-1.182,1.117-2.232l2.1-18.215c.031-.286.169-.488.323-.488a.672.672,0,0,1,.6.429l8.715,17.323,8.409-17.286c.133-.264.259-.466.461-.466s.363.231.42.762Z" transform="translate(-17.659 -0.758)" fill="#163549"/>
    <path id="パス_4286" data-name="パス 4286" d="M142.509,17.546c0,2.679,0,4.883.133,6.029.1.819.2,1.346,1.056,1.485.421.058,1.046.124,1.315.124a.211.211,0,0,1,.218.226c0,.135-.121.233-.448.233-1.615,0-3.474-.1-3.622-.1s-1.957.1-2.851.1c-.29,0-.46-.06-.46-.233a.228.228,0,0,1,.244-.226,4.689,4.689,0,0,0,.88-.124c.559-.139.657-.666.759-1.485.118-1.146.158-3.35.158-6.029v-4.92c0-4.335,0-5.12-.061-6.018-.063-.943-.3-1.379-.922-1.491a4.807,4.807,0,0,0-.887-.1.24.24,0,0,1-.222-.232c0-.163.128-.241.452-.241.954,0,2.752.077,2.911.077s2.006-.077,2.895-.077c.321,0,.449.077.449.241a.276.276,0,0,1-.22.232,3.315,3.315,0,0,0-.725.063c-.791.152-.943.546-1.017,1.531-.034.9-.034,1.683-.034,6.018Z" transform="translate(-25.727 -0.847)" fill="#163549"/>
    <path id="パス_4287" data-name="パス 4287" d="M157.72,12.619c0-4.328,0-5.116-.065-6.011s-.236-1.4-1.185-1.527a6.933,6.933,0,0,0-.976-.072.275.275,0,0,1-.237-.23c0-.159.133-.237.455-.237,1.306,0,3.064.077,3.311.077.274,0,2.071-.077,2.926-.077.325,0,.486.077.486.237a.266.266,0,0,1-.255.23,3.02,3.02,0,0,0-.717.072c-.764.129-.93.612-.992,1.527-.062.895-.062,1.683-.062,6.011v3.9c0,4.04.882,5.711,2.132,6.821a5.633,5.633,0,0,0,4.307,1.511,5.959,5.959,0,0,0,4.449-1.965c1.347-1.6,1.651-3.907,1.651-6.751V12.619c0-4.328-.041-5.116-.077-6.011s-.2-1.4-1.152-1.527a6.826,6.826,0,0,0-.977-.072.228.228,0,0,1-.224-.23c0-.159.121-.237.451-.237,1.282,0,2.943.077,3.121.077s1.568-.077,2.419-.077c.336,0,.458.077.458.237a.246.246,0,0,1-.224.23,3.255,3.255,0,0,0-.736.072c-.771.159-.93.612-1.008,1.527-.05.895-.024,1.683-.024,6.011V15.6c0,3.021-.407,6.4-2.7,8.364A8.715,8.715,0,0,1,166.245,26c-.952,0-3.971-.072-6-1.965-1.413-1.316-2.526-3.254-2.526-7.32Z" transform="translate(-28.987 -0.847)" fill="#163549"/>
    <path id="パス_4288" data-name="パス 4288" d="M213.845,21.941c.083.991.289,2.5,1.473,2.886a5.938,5.938,0,0,0,1.863.268c.134,0,.23.061.23.193,0,.168-.261.265-.591.265-.65,0-3.875-.059-4.913-.172-.694-.065-.829-.163-.829-.286a.252.252,0,0,1,.212-.236c.141-.032.188-.456.12-.986l-1.379-14.1h-.07L203.011,24.02c-.59,1.2-.752,1.474-1.021,1.474-.248,0-.429-.276-.975-1.289-.756-1.377-2.659-4.959-3.379-6.467-.857-1.767-3.18-6.461-3.681-7.6h-.132l-1.1,12.6c-.043.412-.043.945-.043,1.41a.783.783,0,0,0,.7.782,4.115,4.115,0,0,0,1.113.17c.1,0,.234.1.234.193,0,.206-.2.265-.525.265-1.09,0-2.472-.1-2.7-.1-.259,0-1.637.1-2.422.1-.307,0-.493-.059-.493-.265,0-.094.126-.193.3-.193a5.148,5.148,0,0,0,.856-.1c.948-.169.985-1.182,1.109-2.232l2.1-18.215c.027-.286.16-.488.33-.488a.637.637,0,0,1,.58.429l8.732,17.323,8.4-17.286c.132-.264.267-.466.451-.466.2,0,.372.231.446.762Z" transform="translate(-35.208 -0.758)" fill="#163549"/>
    <path id="パス_4289" data-name="パス 4289" d="M271.349,20.266h.136c.881-3.015,3.895-12.525,5.058-16.731a7.433,7.433,0,0,0,.361-2.1c0-.594-.361-.989-1.875-.989-.167,0-.3-.1-.3-.223,0-.167.156-.227.551-.227,1.669,0,3.059.091,3.352.091.22,0,1.645-.091,2.648-.091.3,0,.473.06.473.188,0,.16-.1.262-.3.262a4.23,4.23,0,0,0-1.113.168c-.992.36-1.509,1.735-2.141,3.548-1.444,4.165-4.754,14.59-6.036,18.263-.856,2.432-1.017,2.82-1.383,2.82-.316,0-.521-.421-.981-1.7L263.385,5.311h-.069c-1.181,3.139-5.681,15.155-6.858,18.207-.524,1.373-.689,1.732-1.082,1.732-.321,0-.494-.359-1.146-2.586L248.392,3.212c-.527-1.742-.948-2.233-1.808-2.562A5.4,5.4,0,0,0,245.1.45c-.169,0-.291-.023-.291-.223,0-.167.192-.227.53-.227,1.7,0,3.506.091,3.87.091.3,0,1.723-.091,3.369-.091.463,0,.6.091.6.227,0,.2-.169.223-.32.223a3.16,3.16,0,0,0-1.287.2.841.841,0,0,0-.426.789,25.773,25.773,0,0,0,.621,3.02c.484,2.093,3.908,14.13,4.393,15.872h.083l6.937-18.7c.5-1.345.622-1.5.818-1.5.227,0,.428.42.823,1.544Z" transform="translate(-45.707 0)" fill="#163549"/>
    <path id="パス_4290" data-name="パス 4290" d="M300.494,4.988c.364-.918.5-1.078.69-1.078.3,0,.39.4.688,1.018.525,1.177,5.146,12.692,6.92,16.921,1.057,2.493,1.835,2.854,2.473,3.047a3.746,3.746,0,0,0,1.142.17c.162,0,.357.062.357.227s-.328.232-.661.232c-.414,0-2.559,0-4.559-.06-.55-.037-1.021-.037-1.021-.2,0-.132.07-.132.207-.194a.524.524,0,0,0,.264-.751l-2.609-6.4a.207.207,0,0,0-.24-.168h-6.663a.293.293,0,0,0-.294.233l-1.654,4.45a5.944,5.944,0,0,0-.416,1.883c0,.559.49.751.978.751h.26c.234,0,.307.1.307.227,0,.172-.176.232-.432.232-.7,0-2.271-.1-2.587-.1-.29,0-1.755.1-2.933.1-.355,0-.548-.06-.548-.232a.249.249,0,0,1,.257-.227,7.757,7.757,0,0,0,.856-.067c1.311-.165,1.871-1.155,2.433-2.568ZM303.723,16.6c.124,0,.124-.068.084-.2l-2.85-7.645c-.168-.42-.327-.42-.5,0L297.773,16.4c-.033.127,0,.2.092.2Z" transform="translate(-54.174 -0.73)" fill="#163549"/>
    <path id="パス_4291" data-name="パス 4291" d="M329.384,17.456c0,2.679,0,4.883.142,6.029.089.819.229,1.346,1.1,1.485a12.655,12.655,0,0,0,1.319.124c.2,0,.231.123.231.226,0,.135-.13.233-.467.233-1.566,0-3.407-.1-3.583-.1-.115,0-2.119.1-2.973.1-.325,0-.455-.06-.455-.233a.188.188,0,0,1,.216-.2,3.976,3.976,0,0,0,.866-.128c.587-.134.752-.692.855-1.511.128-1.146.128-3.35.128-6.029V5.736l-4.169.072c-1.8.029-2.489.23-2.925.881a3.917,3.917,0,0,0-.446.892c-.08.227-.173.257-.307.257a.218.218,0,0,1-.194-.23c0-.29.586-2.783.625-3.015.058-.16.185-.53.3-.53a8.838,8.838,0,0,0,1.275.328c.821.1,1.941.139,2.259.139h10.9a14.512,14.512,0,0,0,2.063-.139c.429-.056.7-.123.825-.123s.122.165.122.325c0,.848-.086,2.851-.086,3.184,0,.226-.141.359-.275.359s-.186-.1-.228-.5l-.024-.3c-.11-.848-.732-1.461-3.486-1.533l-3.606-.072Z" transform="translate(-59.506 -0.758)" fill="#163549"/>
    <path id="パス_4292" data-name="パス 4292" d="M352.17,12.569c0-4.328,0-5.116-.067-6.011-.066-.95-.231-1.4-1.183-1.527a7.124,7.124,0,0,0-.977-.072.271.271,0,0,1-.236-.23c0-.159.129-.237.466-.237,1.3,0,3.172.077,3.344.077.2,0,6.227.021,6.883,0,.561-.038,1.084-.139,1.3-.165.145-.03.271-.128.4-.128.1,0,.142.128.142.255,0,.2-.169.529-.237,1.306-.036.267-.1,1.526-.162,1.853-.033.127-.145.285-.255.285-.164,0-.244-.133-.244-.357a3.519,3.519,0,0,0-.143-.983c-.214-.46-.5-.662-2.087-.858-.5-.062-3.834-.1-4.169-.1-.124,0-.165.1-.165.3v7.579c0,.191,0,.293.165.293.368,0,4.169,0,4.824-.068.691-.054,1.116-.089,1.431-.394.176-.19.313-.354.4-.354s.164.064.164.222a14.9,14.9,0,0,0-.224,1.559c-.062.545-.12,1.605-.12,1.794,0,.222-.08.521-.276.521-.129,0-.189-.1-.189-.263a2.4,2.4,0,0,0-.136-.914c-.1-.4-.363-.718-1.476-.856-.782-.094-3.873-.131-4.362-.131a.184.184,0,0,0-.206.206V17.5c0,.949-.029,4.195,0,4.75.071,1.867.6,2.233,3.459,2.233a9.625,9.625,0,0,0,2.886-.3,2.122,2.122,0,0,0,1.3-1.936c.064-.329.138-.424.3-.424s.2.23.2.424a21.822,21.822,0,0,1-.4,2.694c-.182.719-.478.719-1.6.719-2.172,0-3.851-.067-5.031-.1-1.2-.064-1.953-.064-2.381-.064-.081,0-.631,0-1.253.037-.554.028-1.211.06-1.678.06-.285,0-.46-.06-.46-.232a.226.226,0,0,1,.237-.227c.268,0,.625-.1.887-.124.552-.111.621-.665.753-1.485a56.2,56.2,0,0,0,.166-6.029Z" transform="translate(-65.291 -0.798)" fill="#163549"/>
    <path id="パス_4293" data-name="パス 4293" d="M378.434,12.619c0-4.328,0-5.117-.07-6.011-.063-.95-.232-1.409-1.191-1.541-.22-.02-.714-.059-.969-.059a.283.283,0,0,1-.237-.23c0-.16.14-.237.461-.237,1.311,0,3.245.076,3.414.076.285,0,2.715-.076,3.6-.076a9.412,9.412,0,0,1,5.368,1.222,4.888,4.888,0,0,1,2.009,3.813c0,2.053-.846,4.054-3.539,6.356,2.368,2.954,4.363,5.478,6.047,7.219,1.525,1.575,2.493,1.84,3.2,1.936a5.553,5.553,0,0,0,1.022.1.243.243,0,0,1,.26.221c0,.168-.159.237-.68.237h-1.806a5.92,5.92,0,0,1-3.089-.556c-1.244-.653-2.294-2.006-3.932-4.1-1.211-1.5-2.494-3.312-3.121-4.071a.444.444,0,0,0-.379-.167l-3.69-.055c-.136,0-.191.055-.191.222v.66c0,2.692,0,4.857.132,6,.1.82.259,1.343,1.149,1.486.391.053,1.015.124,1.281.124.2,0,.225.124.225.221,0,.141-.141.237-.45.237-1.573,0-3.417-.1-3.548-.1-.037,0-1.971.1-2.845.1-.3,0-.473-.07-.473-.237a.216.216,0,0,1,.224-.221,5.2,5.2,0,0,0,.9-.124c.553-.143.615-.666.747-1.486a54.861,54.861,0,0,0,.17-6.028Zm2.489,2.363a.41.41,0,0,0,.191.36,9.94,9.94,0,0,0,3.183.418,3.664,3.664,0,0,0,2.173-.491c.98-.656,1.727-2.127,1.727-4.252,0-3.483-1.9-5.487-4.979-5.487a13.489,13.489,0,0,0-2.063.163.364.364,0,0,0-.233.329Z" transform="translate(-70.194 -0.847)" fill="#163549"/>
    <line id="線_62" data-name="線 62" x2="335.583" transform="translate(0 44.59)" fill="#163549"/>
    <rect id="長方形_751" data-name="長方形 751" width="335.583" height="0.612" transform="translate(0 44.291)" fill="#163549"/>
    <path id="パス_4294" data-name="パス 4294" d="M29.326,78.185c0,1.053.072,1.148.9,1.167v.285H27.4v-.285c.817-.02.87-.1.87-1.167v-5.41c0-1.056-.05-1.134-.87-1.172V71.32h2.816V71.6c-.839.038-.9.116-.9,1.172v2.281h4.342V72.775c0-1.056-.047-1.134-.9-1.172V71.32h2.822V71.6c-.831.038-.884.116-.884,1.172v5.41c0,1.053.067,1.148.884,1.167v.285H32.77v-.285c.829-.02.9-.114.9-1.167V75.43H29.326Z" transform="translate(-5.117 -13.315)" fill="#163549"/>
    <path id="パス_4295" data-name="パス 4295" d="M43.222,73.714c-.029.66-.065,1.66-.065,2.143V78.2c0,1.069.043,1.16.825,1.18v.257h-2.62v-.257c.786-.02.854-.111.854-1.18V75.133c0-.579-.053-.838-.176-.931-.089-.087-.276-.108-.677-.108v-.251Zm-.574-2.428a.643.643,0,1,1-.664.639.65.65,0,0,1,.664-.639" transform="translate(-7.723 -13.309)" fill="#163549"/>
    <path id="パス_4296" data-name="パス 4296" d="M52.645,74.779a2.093,2.093,0,0,1,.656,1.537,2.019,2.019,0,0,1-2.276,2,4,4,0,0,1-1.013-.134c-.425.231-.593.42-.593.693,0,.423.3.564,1.261.564h.794a5.716,5.716,0,0,1,1.474.113,1.192,1.192,0,0,1,.953,1.24,1.7,1.7,0,0,1-.852,1.42,3.969,3.969,0,0,1-2.031.438,3.7,3.7,0,0,1-1.788-.352,1.142,1.142,0,0,1-.609-1.113c0-.474.089-.6.8-1.053a1.058,1.058,0,0,1-.724-1.013c0-.322.1-.468.553-.775l.436-.3a2.2,2.2,0,0,1-.573-.491,1.966,1.966,0,0,1-.358-1.181,2.024,2.024,0,0,1,.894-1.79,2.709,2.709,0,0,1,1.419-.339,3.345,3.345,0,0,1,.765.076,3.926,3.926,0,0,0,.72.066c.279,0,.635-.013,1.246-.037v.438Zm-3.283,6.3c0,.847.612,1.293,1.771,1.293,1.238,0,1.99-.505,1.99-1.308,0-.485-.263-.733-.867-.839a11.059,11.059,0,0,0-1.317-.049c-.4,0-1.084.019-1.1.029-.316.1-.477.385-.477.873m.612-3.571a1.19,1.19,0,0,0,1.051.552c.83,0,1.287-.608,1.287-1.749,0-1.213-.45-1.827-1.287-1.827-.866,0-1.31.594-1.31,1.739a2.856,2.856,0,0,0,.259,1.284" transform="translate(-9.077 -13.86)" fill="#163549"/>
    <path id="パス_4297" data-name="パス 4297" d="M60.324,74.9a2.158,2.158,0,0,1,2.05-1.231,1.681,1.681,0,0,1,1.66.824,3.269,3.269,0,0,1,.216,1.4v2.294c0,1.063.06,1.157.832,1.18v.254H62.471v-.254c.792-.024.845-.1.845-1.18V75.876a2.812,2.812,0,0,0-.183-1.239,1.027,1.027,0,0,0-1.008-.554,1.536,1.536,0,0,0-1.144.455,2.7,2.7,0,0,0-.542.93,2.742,2.742,0,0,0-.114.869v1.845c0,1.076.063,1.157.828,1.18v.254h-2.6v-.254c.778-.024.842-.1.842-1.18V72.592c0-.971-.045-1.031-.842-1.037V71.3l1.831-.092c-.045.868-.063,1.292-.063,2.292Z" transform="translate(-10.932 -13.294)" fill="#163549"/>
    <path id="パス_4298" data-name="パス 4298" d="M78.782,80.013a2.757,2.757,0,0,1-1.459.468,1.413,1.413,0,0,1-1.069-.468,4.1,4.1,0,0,1-.4-.467,4.2,4.2,0,0,1-1.329.2c-2.353,0-3.918-1.695-3.918-4.252,0-2.655,1.522-4.379,3.891-4.379,2.336,0,3.86,1.667,3.86,4.209a5.41,5.41,0,0,1-.7,2.789,3.168,3.168,0,0,1-.966,1.022c.461.576.823.814,1.241.814a2.029,2.029,0,0,0,.772-.189ZM74.1,77.18a2.14,2.14,0,0,1,1.556.691,5.293,5.293,0,0,1,.7.832,2.6,2.6,0,0,0,.507-.913,6.989,6.989,0,0,0,.343-2.211c0-2.581-1.053-4.151-2.752-4.151a2.3,2.3,0,0,0-2.043,1.21,5.656,5.656,0,0,0-.661,2.86,5.107,5.107,0,0,0,.786,2.938A1.549,1.549,0,0,1,74.1,77.18m-.28.534a.957.957,0,0,0-.842.467,1.876,1.876,0,0,0-.181.523,1.6,1.6,0,0,0,.73.539,2.5,2.5,0,0,0,1,.188,2.994,2.994,0,0,0,1.1-.229c-.625-1.035-1.167-1.488-1.8-1.488" transform="translate(-13.182 -13.278)" fill="#163549"/>
    <path id="パス_4299" data-name="パス 4299" d="M88.7,80.271a7.62,7.62,0,0,1-.073-1.179A2.277,2.277,0,0,1,86.6,80.332a1.529,1.529,0,0,1-1.533-.959,5.081,5.081,0,0,1-.168-1.785V75.692c0-.593-.037-.838-.166-.931-.076-.08-.178-.1-.39-.108h-.207v-.259l1.772-.111c-.047,1.071-.065,1.352-.065,2.133v1a5.3,5.3,0,0,0,.168,1.873.876.876,0,0,0,.919.64,1.7,1.7,0,0,0,1.5-1.113,2.919,2.919,0,0,0,.19-1.354V75.692c0-.606-.02-.826-.168-.922a.523.523,0,0,0-.386-.117h-.211v-.259l1.792-.111c-.044.859-.063,1.618-.063,2.133v2.177c0,1.136.1,1.344.692,1.344h.087v.253Z" transform="translate(-15.708 -13.868)" fill="#163549"/>
    <path id="パス_4300" data-name="パス 4300" d="M101.01,80.16a9.583,9.583,0,0,1-1.183.118c-.35,0-.432-.185-.489-.961a2.552,2.552,0,0,1-.56.494,2.24,2.24,0,0,1-1.487.5,1.765,1.765,0,0,1-1.175-.354,1.654,1.654,0,0,1-.494-1.226c0-.9.563-1.485,1.691-1.733a12.712,12.712,0,0,1,2.025-.281V76a2.276,2.276,0,0,0-.15-1.038.958.958,0,0,0-.951-.453c-.752,0-1.139.342-1.18,1.048-.02.252-.033.33-.124.39a.721.721,0,0,1-.414.09c-.388,0-.557-.09-.557-.335a1.36,1.36,0,0,1,.769-1.109,3.633,3.633,0,0,1,1.692-.353,1.547,1.547,0,0,1,1.864,1.79c0,.033,0,.033-.028,1.157l-.007,1.1,0,.532a3.223,3.223,0,0,0,.11.982c.074.1.216.132.652.132Zm-1.671-3.178a4.939,4.939,0,0,0-1.916.413,1.348,1.348,0,0,0-.773,1.3c0,.719.387,1.226.969,1.226a1.737,1.737,0,0,0,1.456-.842,3.119,3.119,0,0,0,.264-1.57Z" transform="translate(-17.853 -13.86)" fill="#163549"/>
    <path id="パス_4301" data-name="パス 4301" d="M106.045,79.363c.756-.024.8-.118.8-1.18V72.592c0-.565-.04-.827-.161-.931-.094-.078-.256-.094-.643-.107V71.3l1.822-.092c-.04.767-.059,1.688-.059,2.292v4.684c0,1.062.056,1.157.821,1.18v.254h-2.584Z" transform="translate(-19.799 -13.294)" fill="#163549"/>
    <path id="パス_4302" data-name="パス 4302" d="M114.844,73.714c-.032.66-.058,1.66-.058,2.143V78.2c0,1.069.043,1.16.813,1.18v.257h-2.619v-.257c.8-.02.851-.111.851-1.18V75.133c0-.579-.05-.838-.169-.931-.089-.087-.271-.108-.682-.108v-.251Zm-.577-2.428a.643.643,0,1,1-.643.639.64.64,0,0,1,.643-.639" transform="translate(-21.094 -13.309)" fill="#163549"/>
    <path id="パス_4303" data-name="パス 4303" d="M121.73,78.2c0,.681.028.981.143,1.135a.64.64,0,0,0,.566.243,1.278,1.278,0,0,0,.721-.207l.1.3a2.469,2.469,0,0,1-1.152.286,1.257,1.257,0,0,1-1.191-.566c-.131-.226-.159-.476-.159-1.326V74.351h-.729v-.27c.683-.054,1.027-.5,1.2-1.578l.526-.15c-.018.49-.028.929-.028,1.688h1.379v.31H121.73Z" transform="translate(-22.41 -13.508)" fill="#163549"/>
    <path id="パス_4304" data-name="パス 4304" d="M131.714,75.83a1.548,1.548,0,0,0,.138-.62c0-.358-.213-.512-.817-.534v-.258h2.213v.258c-.554.046-.821.33-1.2,1.27l-2.189,5.525a3.012,3.012,0,0,1-.465.821,1.116,1.116,0,0,1-.861.39c-.423,0-.61-.179-.61-.582,0-.262.1-.4.317-.4.042,0,.112,0,.176.006a3.628,3.628,0,0,0,.408.036c.421,0,.605-.189.857-.8l.259-.655-1.739-4.514c-.366-.919-.477-1.048-1.018-1.095v-.258h2.524v.258c-.5.007-.695.12-.695.411a1.83,1.83,0,0,0,.166.658l1.226,3.422Z" transform="translate(-23.746 -13.894)" fill="#163549"/>
    <path id="パス_4305" data-name="パス 4305" d="M158.181,79.686h-.736l-1.686-6.867a2,2,0,0,0-.446-1.014c-.127-.118-.289-.163-.67-.2V71.32h2.951V71.6a1.529,1.529,0,0,0-.647.108.48.48,0,0,0-.265.45,3.272,3.272,0,0,0,.177.847l1.275,5.41,2.035-7h.727l1.88,6.918,1.319-5.013a4.381,4.381,0,0,0,.2-1.037.6.6,0,0,0-.426-.6,1.611,1.611,0,0,0-.564-.079V71.32h2.621V71.6c-.727.079-.976.373-1.335,1.653l-1.775,6.43h-.656l-1.908-7.034Z" transform="translate(-28.872 -13.315)" fill="#163549"/>
    <path id="パス_4306" data-name="パス 4306" d="M177.442,80.16a9.406,9.406,0,0,1-1.178.118c-.346,0-.434-.185-.484-.961a2.372,2.372,0,0,1-.568.494,2.234,2.234,0,0,1-1.492.5,1.678,1.678,0,0,1-1.16-.354,1.63,1.63,0,0,1-.508-1.226c0-.9.582-1.485,1.682-1.733a13.117,13.117,0,0,1,2.045-.281V76a2.25,2.25,0,0,0-.163-1.038.947.947,0,0,0-.947-.453c-.747,0-1.148.342-1.183,1.048-.023.252-.037.33-.123.39a.689.689,0,0,1-.4.09c-.394,0-.573-.09-.573-.335a1.4,1.4,0,0,1,.782-1.109,3.6,3.6,0,0,1,1.679-.353,1.536,1.536,0,0,1,1.867,1.79c0,.033,0,.033-.023,1.157v1.1l-.018.532a2.387,2.387,0,0,0,.128.982c.07.1.212.132.64.132Zm-1.662-3.178a5.025,5.025,0,0,0-1.933.413,1.36,1.36,0,0,0-.762,1.3c0,.719.38,1.226.967,1.226a1.751,1.751,0,0,0,1.46-.842,3.184,3.184,0,0,0,.268-1.57Z" transform="translate(-32.122 -13.86)" fill="#163549"/>
    <path id="パス_4307" data-name="パス 4307" d="M184.181,78.2a2.321,2.321,0,0,0,.146,1.135.675.675,0,0,0,.574.243,1.3,1.3,0,0,0,.721-.207l.1.3a2.514,2.514,0,0,1-1.158.286,1.228,1.228,0,0,1-1.174-.566c-.139-.226-.176-.476-.176-1.326V74.351h-.724v-.27c.69-.054,1.021-.5,1.2-1.578l.537-.15c-.036.49-.043.929-.043,1.688h1.382v.31h-1.382Z" transform="translate(-34.071 -13.508)" fill="#163549"/>
    <path id="パス_4308" data-name="パス 4308" d="M191.243,76.94a4.782,4.782,0,0,0,.26,1.723,1.735,1.735,0,0,0,1.732,1.264,2.1,2.1,0,0,0,1.893-1.291l.261.142a2.494,2.494,0,0,1-2.423,1.553,2.746,2.746,0,0,1-2.772-2.97c0-1.858,1.108-3.133,2.719-3.133a2.218,2.218,0,0,1,2.194,1.454,3.7,3.7,0,0,1,.186,1.257Zm3.051-.3a3.27,3.27,0,0,0-.211-1.28,1.256,1.256,0,0,0-1.187-.849,1.478,1.478,0,0,0-1.32.9,3.036,3.036,0,0,0-.307,1.233Z" transform="translate(-35.51 -13.858)" fill="#163549"/>
    <path id="パス_4309" data-name="パス 4309" d="M202.09,74.263c.015.578.031.733.031.967v.361a1.942,1.942,0,0,1,1.668-1.363.787.787,0,0,1,.871.712c0,.29-.234.476-.593.476-.252,0-.369-.072-.432-.289-.067-.264-.141-.322-.319-.322a1.088,1.088,0,0,0-.86.683,2.9,2.9,0,0,0-.312,1.452v1.807c0,1.076.043,1.16.83,1.18v.256h-2.629v-.256c.766-.02.834-.111.834-1.18V75.672c0-.861-.147-1.029-.784-1.029v-.257Z" transform="translate(-37.405 -13.858)" fill="#163549"/>
    <path id="パス_4310" data-name="パス 4310" d="M225.963,79.36c.391,0,.625-.054.727-.171.121-.139.121-.15.14-1.013v-5.4c-.019-.731-.019-.742-.058-.843-.077-.246-.279-.335-.809-.335V71.32H229.2a5.24,5.24,0,0,1,2.572.472,3.863,3.863,0,0,1,1.78,3.639,4.031,4.031,0,0,1-1.6,3.564,5.413,5.413,0,0,1-3.028.643h-2.956Zm3.089-.069a3.237,3.237,0,0,0,2.519-.916,4.149,4.149,0,0,0,.822-2.758,5.506,5.506,0,0,0-.625-2.736,2.989,2.989,0,0,0-2.8-1.219h-1.1v7.629Z" transform="translate(-42.187 -13.315)" fill="#163549"/>
    <path id="パス_4311" data-name="パス 4311" d="M240.712,76.94a4.635,4.635,0,0,0,.251,1.723,1.728,1.728,0,0,0,1.728,1.264,2.081,2.081,0,0,0,1.895-1.291l.265.142a2.514,2.514,0,0,1-2.429,1.553,2.741,2.741,0,0,1-2.762-2.97c0-1.858,1.1-3.133,2.712-3.133a2.213,2.213,0,0,1,2.193,1.454,3.7,3.7,0,0,1,.186,1.257Zm3.046-.3a3.452,3.452,0,0,0-.22-1.28,1.28,1.28,0,0,0-1.185-.849,1.457,1.457,0,0,0-1.313.9,3.052,3.052,0,0,0-.313,1.233Z" transform="translate(-44.745 -13.858)" fill="#163549"/>
    <path id="パス_4312" data-name="パス 4312" d="M249.851,79.363c.759-.024.814-.118.814-1.18V72.592c0-.565-.042-.827-.156-.931-.094-.078-.264-.094-.658-.107V71.3l1.827-.092c-.044.767-.056,1.688-.056,2.292v4.684c0,1.062.05,1.157.824,1.18v.254h-2.6Z" transform="translate(-46.647 -13.294)" fill="#163549"/>
    <path id="パス_4313" data-name="パス 4313" d="M258.67,73.714c-.046.66-.09,1.66-.09,2.143V78.2c0,1.069.081,1.16.835,1.18v.257H256.8v-.257c.8-.02.86-.111.86-1.18V75.133c0-.579-.047-.838-.171-.931-.1-.087-.285-.108-.69-.108v-.251Zm-.577-2.428a.643.643,0,0,1,0,1.286.643.643,0,1,1,0-1.286" transform="translate(-47.944 -13.309)" fill="#163549"/>
    <path id="パス_4314" data-name="パス 4314" d="M268.056,75.745a2.039,2.039,0,0,0,.143-.608c0-.3-.271-.439-.9-.46v-.26h2.358v.26c-.6.02-.882.285-1.194,1.152L266.8,80.264h-.641L264.335,75.5c-.23-.661-.414-.819-.895-.823v-.26h2.581v.26c-.525,0-.768.135-.768.388a2.516,2.516,0,0,0,.159.606l1.362,3.679Z" transform="translate(-49.184 -13.894)" fill="#163549"/>
    <path id="パス_4315" data-name="パス 4315" d="M275.76,76.94a4.643,4.643,0,0,0,.254,1.723,1.738,1.738,0,0,0,1.725,1.264,2.1,2.1,0,0,0,1.9-1.291l.263.142a2.5,2.5,0,0,1-2.428,1.553,2.738,2.738,0,0,1-2.762-2.97c0-1.858,1.1-3.133,2.712-3.133a2.234,2.234,0,0,1,2.2,1.454,3.486,3.486,0,0,1,.186,1.257Zm3.046-.3a2.734,2.734,0,0,0-.223-1.28,1.233,1.233,0,0,0-1.177-.849,1.472,1.472,0,0,0-1.312.9,3.147,3.147,0,0,0-.307,1.233Z" transform="translate(-51.29 -13.858)" fill="#163549"/>
    <path id="パス_4316" data-name="パス 4316" d="M286.6,74.263c.021.578.043.733.043.967v.361a1.934,1.934,0,0,1,1.67-1.363.8.8,0,0,1,.878.712c0,.29-.242.476-.616.476-.255,0-.355-.072-.425-.289-.058-.264-.142-.322-.314-.322a1.129,1.129,0,0,0-.869.683,2.993,2.993,0,0,0-.308,1.452v1.807c0,1.076.058,1.16.83,1.18v.256h-2.638v-.256c.767-.02.843-.111.843-1.18V75.672c0-.861-.132-1.029-.791-1.029v-.257Z" transform="translate(-53.182 -13.858)" fill="#163549"/>
    <path id="パス_4317" data-name="パス 4317" d="M297.662,75.83a1.484,1.484,0,0,0,.148-.62c0-.358-.235-.512-.821-.534v-.258H299.2v.258c-.537.046-.826.33-1.2,1.27l-2.176,5.525a4.4,4.4,0,0,1-.459.821,1.146,1.146,0,0,1-.887.39c-.394,0-.594-.179-.594-.582,0-.262.1-.4.327-.4.046,0,.084,0,.159.006a3.97,3.97,0,0,0,.408.036c.416,0,.612-.189.864-.8l.252-.655-1.74-4.514c-.356-.919-.475-1.048-1.019-1.095v-.258h2.537v.258c-.5.007-.689.12-.689.411a2.093,2.093,0,0,0,.15.658l1.235,3.422Z" transform="translate(-54.729 -13.894)" fill="#163549"/>
    <path id="パス_4318" data-name="パス 4318" d="M321.359,77.308h.378a2.243,2.243,0,0,0,.485,1.45,2.144,2.144,0,0,0,1.711.664,1.459,1.459,0,0,0,1.662-1.5c0-.908-.416-1.342-2.128-2.167a5.414,5.414,0,0,1-1.656-1.03,1.945,1.945,0,0,1-.493-1.362,2.154,2.154,0,0,1,.713-1.671,2.372,2.372,0,0,1,1.64-.541,4.877,4.877,0,0,1,1.361.191,1.718,1.718,0,0,0,.411.059,2.147,2.147,0,0,0,.7-.175l-.073,2.259h-.375a2.58,2.58,0,0,0-.328-1.206,1.833,1.833,0,0,0-1.654-.809,1.513,1.513,0,0,0-1.217.479,1.724,1.724,0,0,0-.327,1.008c0,.751.381,1.129,1.734,1.775,1.422.672,1.977,1.055,2.293,1.559a2.216,2.216,0,0,1,.323,1.259,1.945,1.945,0,0,1-.645,1.56,2.8,2.8,0,0,1-1.892.625,6.421,6.421,0,0,1-1.524-.185,1.633,1.633,0,0,0-.375-.035,4.166,4.166,0,0,0-.8.117Z" transform="translate(-59.985 -13.284)" fill="#163549"/>
    <path id="パス_4319" data-name="パス 4319" d="M332.956,76.94a4.93,4.93,0,0,0,.266,1.723,1.724,1.724,0,0,0,1.726,1.264,2.043,2.043,0,0,0,1.882-1.291l.272.142a2.486,2.486,0,0,1-2.426,1.553,2.745,2.745,0,0,1-2.761-2.97c0-1.858,1.109-3.133,2.725-3.133a2.217,2.217,0,0,1,2.184,1.454,3.884,3.884,0,0,1,.185,1.257Zm3.056-.3a2.839,2.839,0,0,0-.224-1.28,1.25,1.25,0,0,0-1.181-.849,1.489,1.489,0,0,0-1.318.9,3.263,3.263,0,0,0-.3,1.233Z" transform="translate(-61.969 -13.858)" fill="#163549"/>
    <path id="パス_4320" data-name="パス 4320" d="M343.8,74.263c.019.578.037.733.037.967v.361a1.962,1.962,0,0,1,1.675-1.363.788.788,0,0,1,.866.712c0,.29-.237.476-.611.476a.376.376,0,0,1-.429-.289c-.071-.264-.133-.322-.307-.322-.3,0-.614.247-.856.683a2.832,2.832,0,0,0-.32,1.452v1.807c0,1.076.063,1.16.831,1.18v.256H342.05v-.256c.777-.02.843-.111.843-1.18V75.672c0-.861-.136-1.029-.792-1.029v-.257Z" transform="translate(-63.861 -13.858)" fill="#163549"/>
    <path id="パス_4321" data-name="パス 4321" d="M354.952,75.745a2.141,2.141,0,0,0,.142-.608c0-.3-.268-.439-.886-.46v-.26h2.352v.26c-.6.02-.871.285-1.2,1.152L353.7,80.264h-.65L351.238,75.5c-.239-.661-.423-.819-.918-.823v-.26h2.6v.26c-.532,0-.763.135-.763.388a2.2,2.2,0,0,0,.155.606l1.333,3.679Z" transform="translate(-65.405 -13.894)" fill="#163549"/>
    <path id="パス_4322" data-name="パス 4322" d="M363.259,73.714c-.033.66-.069,1.66-.069,2.143V78.2c0,1.069.066,1.16.828,1.18v.257h-2.611v-.257c.795-.02.844-.111.844-1.18V75.133c0-.579-.045-.838-.163-.931-.1-.087-.281-.108-.682-.108v-.251Zm-.567-2.428a.643.643,0,1,1-.66.639.644.644,0,0,1,.66-.639" transform="translate(-67.475 -13.309)" fill="#163549"/>
    <path id="パス_4323" data-name="パス 4323" d="M373.723,78.711a2.425,2.425,0,0,1-2.354,1.624,2.735,2.735,0,0,1-2.745-2.974,2.824,2.824,0,0,1,2.8-3.133,2.623,2.623,0,0,1,1.706.582,1.4,1.4,0,0,1,.5.913c0,.213-.215.348-.585.348a.638.638,0,0,1-.386-.107c-.059-.073-.059-.094-.094-.4a1.136,1.136,0,0,0-1.2-1.054c-1.044,0-1.661.962-1.661,2.618,0,1.745.714,2.814,1.913,2.814a2,2,0,0,0,1.85-1.4Z" transform="translate(-68.822 -13.858)" fill="#163549"/>
    <path id="パス_4324" data-name="パス 4324" d="M379.875,76.94a4.479,4.479,0,0,0,.261,1.723,1.73,1.73,0,0,0,1.725,1.264,2.083,2.083,0,0,0,1.893-1.291l.266.142a2.48,2.48,0,0,1-2.42,1.553,2.736,2.736,0,0,1-2.764-2.97c0-1.858,1.1-3.133,2.72-3.133a2.215,2.215,0,0,1,2.189,1.454,3.268,3.268,0,0,1,.181,1.257Zm3.059-.3a2.993,2.993,0,0,0-.224-1.28,1.256,1.256,0,0,0-1.184-.849,1.493,1.493,0,0,0-1.317.9,3.555,3.555,0,0,0-.312,1.233Z" transform="translate(-70.729 -13.858)" fill="#163549"/>
  </g>
</svg>
