<svg id="kyosan_logo03" xmlns="http://www.w3.org/2000/svg" xmlns:xlink="http://www.w3.org/1999/xlink" width="400.586" height="47.301" viewBox="0 0 400.586 47.301">
  <defs>
    <clipPath id="clip-path">
      <rect id="長方形_757" data-name="長方形 757" width="400.586" height="47.3" transform="translate(0 0)" fill="none"/>
    </clipPath>
  </defs>
  <path id="パス_4365" data-name="パス 4365" d="M344.647,13.1l.923-4.233H335.312l.41-2.965h-9.414l-.428,2.965H314.244l.475-2.965h-9.5l-.48,2.965H293.885l-.926,4.233h29.655l-.3,1.836H309.219l-.838,4.094h13.258l-.384,2.338H308.05l-3.36,20h8.589l.511-2.99h4.65l-.485,2.99h8.584l.487-2.99h4.848l-.5,2.99h8.584l3.358-20H329.84l.383-2.338h13.093l.826-4.094h-2.137l.266-1.836ZM320.671,24.859l-.383,2.333h-4.631l.4-2.333ZM314.5,34.122l.451-2.667h4.639l-.443,2.667Zm13.238,0,.438-2.667h4.863l-.443,2.667Zm6.4-9.263-.38,2.333h-4.88l.385-2.333Zm-.7-9.925h-2.545L331.2,13.1h2.485Z" fill="#1a1311"/>
  <path id="パス_4366" data-name="パス 4366" d="M306.879,15.014H292.713l-.83,4.015h14.17Z" fill="#1a1311"/>
  <path id="パス_4367" data-name="パス 4367" d="M305.884,21.367H291.713l-.833,4.074h14.176Z" fill="#1a1311"/>
  <g id="グループ_683" data-name="グループ 683">
    <g id="グループ_682" data-name="グループ 682" clip-path="url(#clip-path)">
      <path id="パス_4368" data-name="パス 4368" d="M295.763,28.028l-1.366,8a1.682,1.682,0,0,1-.587,1.03,1.653,1.653,0,0,1-1.112.4h-3.954L287.9,41.37h11.544a3.355,3.355,0,0,0,2.162-.786,3.39,3.39,0,0,0,1.171-1.965l1.935-10.591Z" fill="#1a1311"/>
      <path id="パス_4369" data-name="パス 4369" d="M400.586,5.915H375.667l-1.445,8.447h-2.88l1.49-8.308H348.361l-.841,5.224h3.938l-.528,3.084h-3.945l-.833,4.751h4.007l-.344,2.254h-4.13l-.825,5.328h1.867a10.687,10.687,0,0,1-2.334,2l-.91,5.5c1.04,0,1.958-.029,2.759-.074L344.9,41.355h20.842l2.408-13.049H355.408c.517-.606.987-1.169,1.373-1.611H369.16l1.341-7.582h2.9l-3.824,22.421h8.831l.472-2.83h6.263l-.152.92h9.842l2.078-12.268a3.749,3.749,0,0,0-.349-2.333,3.885,3.885,0,0,0-1.681-1.651l-1.214-.6.119-.02a5.559,5.559,0,0,0,2.948-1.5,5.643,5.643,0,0,0,1.561-2.915Zm-42.039,27.59-.565,2.756h-3.415l.56-2.756Zm2.99-12.138h-2.883l.335-2.254h2.923Zm1.159-7.005h-2.99l.47-3.084h3.03Zm23.416,18.6h-6.258l1.355-8.02h4.264a1.656,1.656,0,0,1,1.278.592,1.724,1.724,0,0,1,.381,1.369Zm2.41-14.4a1.622,1.622,0,0,1-.557.99,1.713,1.713,0,0,1-1.082.388h-4.84l1.372-8.154h6.251Z" fill="#1a1311"/>
      <path id="パス_4370" data-name="パス 4370" d="M33.216,2.124A23.5,23.5,0,0,0,23.492,0c-.315,8.86.477,10.312,2.685,13.431,3.947,4.8,10.1,5.055,13.837,5.219.337-.557.612-1.084.612-1.084l0-.01,3.467,2s-8.216,0-8.734-.029c-6.876-.294-10.662-2.08-13.777-5.507a16.471,16.471,0,0,1-3.97-10.975c0-1.124-.009-1.85-.023-2.308A23.136,23.136,0,0,0,13.065,2.4l-.013.447a18.4,18.4,0,0,0,5.429,13.91c5.869,5.8,13.617,5.8,19.176,5.875.33-.552.653-1.06.653-1.06V21.57l3.471,2.01s-7.4-.045-8.739-.04c-3.25-.363-14.681.93-21.766-9.233A20.419,20.419,0,0,1,8.033,6.328l-.094-.513a23.74,23.74,0,0,0-3.789,4.2c.216.657.475,1.4.475,1.4A24.39,24.39,0,0,0,9,18.461a23.11,23.11,0,0,0,5.355,4.3C20,26.2,27.8,26.565,35.281,26.684c.279-.4.618-1.025.618-1.025V25.65l3.471,2.009s-8.218,0-8.737-.039c-1.736.109-10.353-.389-13.762-1.388a25.449,25.449,0,0,1-9.086-4.045A29.75,29.75,0,0,1,1.227,15.67,23.635,23.635,0,0,0,.054,20.6,29.773,29.773,0,0,0,7,25.988c7.347,4.139,18.915,4.557,20.043,4.636.749.02,5.925.159,5.866.13.337-.557.611-1.095.611-1.095v-.005l3.469,2.005s-11.288-.02-11.809-.06A77.313,77.313,0,0,1,9.128,29.42,42.447,42.447,0,0,1,0,26.052,23.688,23.688,0,0,0,.875,30.4,75.594,75.594,0,0,0,20.4,34.4c1.948.269,10.194.309,10.194.309.334-.553.6-1.025.6-1.025l0-.005,3.466,2.005s-10.563.044-12.645-.005A129.382,129.382,0,0,1,2.162,33.723a24.277,24.277,0,0,0,2.025,3.443,141.834,141.834,0,0,0,19.087,1.652c1.31-.025,4.949.005,4.949.005.337-.558.612-1.09.612-1.09l.005-.005,3.466,2.005s-21.281,0-26.032-.02a23.68,23.68,0,0,0,7.744,5.462,23.57,23.57,0,1,0,19.2-43.051" fill="#003288"/>
      <path id="パス_4371" data-name="パス 4371" d="M59.635,5.91h12.97c6.055,0,9.478,2.835,8.221,8.745-.878,4.125-3.744,7.353-7.263,8l-.025.1c2.554.4,6.229,1.537,4.7,8.791-.894,4.178-3.94,9.84-13.827,9.84H52.088Zm2.116,29.316H64.28c3.378,0,4.982-2.139,5.5-4.622.747-3.482-.734-4.964-3.315-4.964H63.791Zm3.224-15.153h2.282c2.876,0,4.424-1.642,4.956-4.174.4-1.841-.179-3.826-3.215-3.826H66.665Z" fill="#003288"/>
      <path id="パス_4372" data-name="パス 4372" d="M90.649,42.082c-10.982,0-10.951-7.159-8.557-18.432S87.5,5.219,98.485,5.219c11.821,0,10.642,8.591,8.552,18.431s-4.564,18.432-16.388,18.432m1.133-5.567c3.378,0,4.538-3.124,6.608-12.865s2.242-12.869-1.138-12.869c-3.276,0-4.44,3.134-6.511,12.869S88.5,36.515,91.782,36.515" fill="#003288"/>
      <path id="パス_4373" data-name="パス 4373" d="M120.991,5.91h10.432l1.3,35.475h-8.646l.146-6.751H115.73l-2.68,6.751H104.4Zm3.695,6.467h-.1l-6.289,15.79h6.062Z" fill="#003288"/>
      <path id="パス_4374" data-name="パス 4374" d="M145.191,12.671h-7.456l1.438-6.761h23.254l-1.434,6.761h-7.456l-6.1,28.714h-8.35Z" fill="#003288"/>
      <path id="パス_4375" data-name="パス 4375" d="M173.29,5.91H187.3c7.11,0,8.614,4.373,7.58,9.248-1.1,5.159-3.728,7.7-7.8,8.636l-.023.1c5.157.747,4.748,4.075,3.83,8.841-1.335,7.009-1.238,7.7-.149,8.2l-.095.448h-8.994c-.39-1.189-.22-3.179.638-7.2,1.311-6.158.739-7.452-1.892-7.452h-3.183l-3.115,14.656h-8.346Zm5.166,14.959h2.584c3.379,0,4.81-2.537,5.254-4.622.571-2.681-.041-4.472-3.37-4.472h-2.533Z" fill="#003288"/>
      <path id="パス_4376" data-name="パス 4376" d="M208.368,5.91H218.8l1.3,35.475h-8.648l.148-6.751h-8.5l-2.675,6.751h-8.646Zm3.692,6.467h-.1l-6.286,15.79h6.061Z" fill="#003288"/>
      <path id="パス_4377" data-name="パス 4377" d="M241.07,18.232c1.1-5.164.988-7.452-1.793-7.452-3.331,0-4.3,3.179-6.284,12.472-2.236,10.531-2.468,13.262,1.01,13.262,3.08,0,4.179-3.522,5.4-9.039h8.046l-.261,1.239c-1.628,7.656-4.979,13.367-15.315,13.367-10.677,0-9.824-7.994-7.553-18.68,1.935-9.094,4.363-18.183,16.189-18.183,7.351,0,10.7,3.179,8.925,11.522l-.319,1.492Z" fill="#003288"/>
      <path id="パス_4378" data-name="パス 4378" d="M255.514,5.91h20.521l-1.442,6.761H262.425l-1.512,7.1h11.429L270.9,26.53H259.475l-1.721,8.1h12.718l-1.433,6.751H247.971Z" fill="#003288"/>
    </g>
  </g>
</svg>
