<svg id="kyosan_logo02" xmlns="http://www.w3.org/2000/svg" xmlns:xlink="http://www.w3.org/1999/xlink" width="235.729" height="76.34" viewBox="0 0 235.729 76.34">
  <defs>
    <clipPath id="clip-path">
      <rect id="長方形_750" data-name="長方形 750" width="235.729" height="76.34" fill="none"/>
    </clipPath>
  </defs>
  <g id="グループ_674" data-name="グループ 674" transform="translate(0 0)" clip-path="url(#clip-path)">
    <path id="パス_4264" data-name="パス 4264" d="M179.21,21.677q0,7.041-3.4,10.994-3.5,4.123-9.91,4.118a12.194,12.194,0,0,1-9.811-4.219q-3.539-4.053-3.538-10.893,0-6.99,3.488-11.024T165.9,6.62q6.318,0,9.818,4.056,3.483,4.066,3.489,11m-6.647-.014q0-9.115-6.647-9.118t-6.644,9.118q0,9.12,6.644,9.118t6.647-9.118" transform="translate(-43.642 -1.894)" fill="#1a1311"/>
    <path id="パス_4265" data-name="パス 4265" d="M228.5,16.871a12.428,12.428,0,0,1-2.322,7.493,7.321,7.321,0,0,1-5.942,2.844h-7.843v9.322h-6.162V7.041h14.005a7.618,7.618,0,0,1,5.925,2.6,11.256,11.256,0,0,1,2.34,7.232m-6.174.161a5.094,5.094,0,0,0-1.065-3.315,3.718,3.718,0,0,0-2.623-.975h-6.245v8.729h6.245a3.578,3.578,0,0,0,2.623-1.054,5.39,5.39,0,0,0,1.065-3.385" transform="translate(-58.995 -2.014)" fill="#1a1311"/>
    <path id="パス_4266" data-name="パス 4266" d="M272.209,36.521l-18.172.009V7.039l18.172,0v5.252H260.022v6.768h8.442V24.3h-8.442v6.98h12.187Z" transform="translate(-72.673 -2.013)" fill="#1a1311"/>
    <path id="パス_4267" data-name="パス 4267" d="M320.228,36.521h-6.174L302.522,16.266V36.521h-6.13V7.035h7.781l9.919,16.805V7.035h6.135Z" transform="translate(-84.789 -2.013)" fill="#1a1311"/>
    <path id="パス_4268" data-name="パス 4268" d="M169.48,65.8v9.211h-8.245V65.8h-5.507V89.982h5.507V80.2h8.245v9.784h5.551V65.8Z" transform="translate(-44.549 -18.823)" fill="#1a1311"/>
    <path id="パス_4269" data-name="パス 4269" d="M247.146,65.8V79.618c0,3.445-1.1,4.915-3.7,4.915-2.568,0-3.665-1.47-3.665-4.915V65.793h-5.867v14.53c0,3.14.865,5.572,2.577,7.231a10.981,10.981,0,0,0,13.916.041c1.757-1.69,2.649-4.149,2.649-7.312V65.8Z" transform="translate(-66.917 -18.822)" fill="#1a1311"/>
    <path id="パス_4270" data-name="パス 4270" d="M309.06,65.8V89.986h15.082V85.3h-9.794V80.1h6.986V75.4h-6.986c0-.41,0-4.5,0-4.911h9.8V65.8Z" transform="translate(-88.413 -18.823)" fill="#1a1311"/>
    <path id="パス_4271" data-name="パス 4271" d="M211.9,68.823a10.945,10.945,0,0,0-15.733-.022c-1.9,2.2-2.866,5.232-2.866,9.012a13.145,13.145,0,0,0,2.9,8.911,10.783,10.783,0,0,0,15.771.088c1.848-2.159,2.794-5.183,2.794-9,0-3.754-.967-6.778-2.866-8.991M204.049,85.1c-3.531,0-5.025-2.38-5.025-7.284s1.494-7.29,5.025-7.29,5.032,2.385,5.032,7.287-1.494,7.287-5.032,7.287" transform="translate(-55.299 -18.731)" fill="#1a1311"/>
    <path id="パス_4272" data-name="パス 4272" d="M283.666,75.137l-3.249-1.184c-1.8-.591-2.385-1.244-2.385-2.242,0-1.247.737-2.489,3.129-2.489,1.927,0,3.422,1.125,4.518,3l3.969-2.844c-1.4-3.241-4.32-4.83-8.7-4.83-5.444,0-8.383,3.546-8.383,7.474,0,3.108,1.894,5.254,5.6,6.592l3.283,1.272c2.24.841,3.045,1.648,3.045,2.991,0,1.5-1,2.43-3.4,2.43a6.017,6.017,0,0,1-5.137-3.368l-4.044,2.849c1.534,3.38,4.543,5.379,9.105,5.379,5.226,0,9.195-2.667,9.195-7.685,0-3.773-2.872-6.128-6.542-7.346" transform="translate(-77.785 -18.465)" fill="#1a1311"/>
    <path id="パス_4273" data-name="パス 4273" d="M12.5.011V23.687a.215.215,0,0,1-.206.213c-4.012.156-6.794,1.432-8.983,3.79A13.774,13.774,0,0,0,0,36.821c0,.346.01.559.017.6,0,0,.034.412.05.646H12.283a.213.213,0,0,1,.218.213V76.34l76.325-.014V0L12.5.011" transform="translate(0 0)" fill="#1a1311"/>
    <path id="パス_4274" data-name="パス 4274" d="M20.865,3.55a.212.212,0,0,1,.213-.212l22.554,0a.22.22,0,0,1,.151.061.234.234,0,0,1,.06.151V18.253a.213.213,0,0,1-.211.216H21.078a.215.215,0,0,1-.213-.216Z" transform="translate(-5.969 -0.954)" fill="#9ad7f7"/>
    <path id="パス_4275" data-name="パス 4275" d="M20.865,27.207a.216.216,0,0,1,.213-.215h6.727a.213.213,0,0,1,.211.215v24.14a.211.211,0,0,1-.211.214H21.078a.214.214,0,0,1-.213-.214Z" transform="translate(-5.969 -7.722)" fill="#ffd71e"/>
    <path id="パス_4276" data-name="パス 4276" d="M89.593,44.586a.212.212,0,0,1-.212.215H55.392a.214.214,0,0,1-.218-.215V3.545a.214.214,0,0,1,.218-.212l33.989,0a.209.209,0,0,1,.152.06.225.225,0,0,1,.06.149Z" transform="translate(-15.784 -0.952)" fill="#cb000b"/>
    <path id="パス_4277" data-name="パス 4277" d="M116.64,44.589a.214.214,0,0,1-.211.215h-10.71a.218.218,0,0,1-.218-.215V3.555a.219.219,0,0,1,.218-.214h10.71a.215.215,0,0,1,.211.216Z" transform="translate(-30.181 -0.955)" fill="#9ad7f7"/>
    <path id="パス_4278" data-name="パス 4278" d="M31.945,96.65a.214.214,0,0,1-.212.215H21.044A.2.2,0,0,1,20.9,96.8a.192.192,0,0,1-.07-.151V80.212A.213.213,0,0,1,21.044,80H31.733a.211.211,0,0,1,.212.211Z" transform="translate(-5.958 -22.886)" fill="#cb000b"/>
    <path id="パス_4279" data-name="パス 4279" d="M105.72,63.725h10.125L105.5,90.87V63.943a.217.217,0,0,1,.218-.218" transform="translate(-30.181 -18.23)" fill="#ffd71e"/>
    <path id="パス_4280" data-name="パス 4280" d="M116.749,92.722H106.618L116.96,65.565V92.512a.211.211,0,0,1-.211.211" transform="translate(-30.5 -18.756)" fill="#ffd71e"/>
    <path id="パス_4281" data-name="パス 4281" d="M29.634,39.761H43.828v5.681H29.634Zm14.194-1.073H29.634V33.112H43.828Zm-14.194,7.83H43.828v5.315H29.634ZM43.828,32.037H29.634V26.49H43.828Zm35.935,49.3a.21.21,0,0,1-.212.212l-46,.011a.235.235,0,0,1-.152-.062.229.229,0,0,1-.06-.152V63.18H21.023a.214.214,0,0,1-.212-.213V53.275a.213.213,0,0,1,.212-.212h8.405s0,0,.006,0H44.346v0l35.205.006a.21.21,0,0,1,.212.212Z" transform="translate(-5.953 -7.578)" fill="#fff"/>
  </g>
</svg>
