<?xml version="1.0" encoding="UTF-8"?><svg id="_レイヤー_2" xmlns="http://www.w3.org/2000/svg" viewBox="0 0 308 283.32"><defs><style>.cls-1{fill:#fff;}</style></defs><g id="_白"><g><g><path class="cls-1" d="m0,84.03v-8.89h3.25c1.23,0,1.84-.65,1.84-1.95V10.84c0-1.3-.61-1.95-1.84-1.95H0V0h23.85c7.08,0,12.43,2.67,16.05,8.02,3.61,5.35,5.42,12.69,5.42,22.01v23.2c.07,10.19-1.75,17.87-5.48,23.04-3.72,5.17-9.2,7.75-16.43,7.75H0Zm22.12-9.22h2.17c2.17,0,3.72-.72,4.66-2.17.94-1.45,1.41-3.29,1.41-5.53V16.91c0-2.31-.47-4.17-1.41-5.58-.94-1.41-2.49-2.11-4.66-2.11h-2.17c-1.16,0-1.93.36-2.33,1.08-.4.72-.6,1.63-.6,2.71v58.11c0,1.01.2,1.88.6,2.6.4.72,1.17,1.08,2.33,1.08Z"/><path class="cls-1" d="m76.33,84.89c-5.42,0-9.67-2.01-12.74-6.02-3.07-4.01-4.61-9.85-4.61-17.51v-15.07c0-7.16,1.5-12.78,4.5-16.86,3-4.08,7.25-6.13,12.74-6.13,5.06,0,8.96,1.73,11.71,5.2,2.75,3.47,4.12,8.42,4.12,14.85v11.17h-20.38v15.29c0,2.24.43,3.98,1.3,5.2.87,1.23,2.1,1.84,3.69,1.84s2.82-.61,3.69-1.84c.87-1.23,1.3-2.96,1.3-5.2v-8.35h10.52v5.2c0,5.06-1.3,9.36-3.9,12.9-2.6,3.54-6.58,5.31-11.93,5.31Zm-4.66-38.06h8.57v-8.89c0-4.41-1.45-6.61-4.34-6.61s-4.23,2.21-4.23,6.61v8.89Z"/><path class="cls-1" d="m124.57,75.14h3.47c1.08,0,1.63-.61,1.63-1.84V10.63c0-1.16-.54-1.73-1.63-1.73h-3.47V0h25.26v8.89h-4.34c-1.08,0-1.63.58-1.63,1.73v61.26c0,2.24.9,3.36,2.71,3.36h2.93c4.63,0,6.9-4.88,6.83-14.64v-9.97h7.7v33.39h-39.47v-8.89Z"/><path class="cls-1" d="m186.59,84.68c-3.47,0-6.23-1.25-8.29-3.74-2.06-2.49-3.09-6.02-3.09-10.57s1.03-8.17,3.09-11.06c2.06-2.89,4.72-5.35,7.97-7.37,2.96-1.88,5.15-3.85,6.56-5.91,1.41-2.06,2.11-4.54,2.11-7.43v-.11c0-2.6-.51-4.46-1.52-5.58-1.01-1.12-2.21-1.68-3.58-1.68-2.24,0-3.54,1.05-3.9,3.14,1.73,1.23,2.6,3.07,2.6,5.53,0,1.81-.56,3.27-1.68,4.39-1.12,1.12-2.51,1.68-4.17,1.68-1.95,0-3.56-.83-4.82-2.49-1.27-1.66-1.9-3.87-1.9-6.61,0-2.53.67-4.82,2.01-6.88,1.34-2.06,3.14-3.69,5.42-4.88,2.28-1.19,4.86-1.79,7.75-1.79,4.48,0,8.11,1.36,10.9,4.07,2.78,2.71,4.17,6.42,4.17,11.11v34.15c0,2.17,1.12,3.25,3.36,3.25h1.19v8.13c-.72.07-1.41.14-2.06.22-.65.07-1.3.11-1.95.11-2.31,0-4.37-.47-6.18-1.41-1.81-.94-3-2.42-3.58-4.45-1.16,2.02-2.64,3.56-4.45,4.61-1.81,1.05-3.79,1.57-5.96,1.57Zm4.12-8.02c1.3,0,2.33-.47,3.09-1.41.76-.94,1.14-2.17,1.14-3.69v-19.08c-.58.87-1.18,1.66-1.79,2.39-.61.72-1.21,1.45-1.79,2.17-1.3,1.45-2.4,3.07-3.31,4.88-.9,1.81-1.36,4.19-1.36,7.16,0,5.06,1.34,7.59,4.01,7.59Z"/><path class="cls-1" d="m0,184.64h3.47c1.08,0,1.63-.58,1.63-1.73v-62.78c0-1.16-.54-1.73-1.63-1.73H0v-8.89h40.55v33.39h-7.7v-10.3c.07-4.62-.45-8.19-1.57-10.68-1.12-2.49-2.84-3.74-5.15-3.74h-3.58c-2.17,0-3.25,1.08-3.25,3.25v25.37h1.3c1.08,0,1.79-.34,2.11-1.03.33-.69.49-1.64.49-2.87v-8.57h5.85v33.83h-5.53v-8.35c0-1.45-.18-2.58-.54-3.42-.36-.83-1.16-1.25-2.39-1.25h-1.3v26.45c0,.94.33,1.7.98,2.28.65.58,1.52.87,2.6.87h3.79c2.31,0,3.96-1.21,4.93-3.63.98-2.42,1.43-5.94,1.36-10.57l.11-10.41h7.59v33.39H0v-8.89Z"/><path class="cls-1" d="m73.18,194.4c-2.96,0-5.39-.45-7.26-1.36-1.88-.9-3.36-1.64-4.45-2.22-.36-.22-.7-.2-1.03.05-.33.25-.49.6-.49,1.03v1.63h-7.81v-33.39h7.59l.11,6.51c.36,5.49,1.45,10.03,3.25,13.61,1.81,3.58,4.26,5.37,7.37,5.37,4.12,0,6.18-2.93,6.18-8.78,0-3.9-1.19-7.54-3.58-10.9-2.39-3.36-5.02-6.74-7.91-10.14-4.05-4.34-7.34-8.78-9.87-13.34-2.53-4.55-3.79-9.54-3.79-14.96,0-4.12.74-7.59,2.22-10.41,1.48-2.82,3.45-4.93,5.91-6.34,2.46-1.41,5.13-2.11,8.02-2.11,2.67,0,4.86.42,6.56,1.25,1.7.83,3.02,1.57,3.96,2.22.94.43,1.41.11,1.41-.98v-1.63h8.46v33.39h-7.7v-6.61c-.29-6.14-1.18-10.82-2.66-14.04-1.48-3.22-3.56-4.82-6.23-4.82-1.81,0-3.31.67-4.5,2.01-1.19,1.34-1.79,3.24-1.79,5.69,0,2.82.56,5.4,1.68,7.75,1.12,2.35,2.56,4.57,4.34,6.67,1.77,2.1,3.63,4.19,5.58,6.29,2.53,2.67,4.81,5.42,6.83,8.24,2.02,2.82,3.65,5.85,4.88,9.11,1.23,3.25,1.84,6.9,1.84,10.95,0,6.22-1.59,11.15-4.77,14.8-3.18,3.65-7.3,5.48-12.36,5.48Z"/><path class="cls-1" d="m100.51,184.64h3.25c1.23,0,1.84-.65,1.84-1.95v-62.34c0-1.3-.61-1.95-1.84-1.95h-3.25v-8.89h22.66c4.34,0,8,.94,11,2.82,3,1.88,5.28,4.45,6.83,7.7,1.55,3.25,2.33,6.87,2.33,10.84v10.08c0,4.05-.78,7.7-2.33,10.95-1.56,3.25-3.83,5.82-6.83,7.7-3,1.88-6.67,2.82-11,2.82h-3.69v20.27c0,1.3.65,1.95,1.95,1.95h4.34v8.89h-25.26v-8.89Zm22.01-31.01c4.19,0,6.29-2.31,6.29-6.94v-21.47c0-2.24-.53-3.97-1.57-5.2-1.05-1.23-2.44-1.84-4.17-1.84h-1.19c-.94,0-1.57.24-1.9.7-.33.47-.49,1.1-.49,1.9v32.85h3.04Z"/><path class="cls-1" d="m148.54,193.53v-8.89h2.17c1.01,0,1.59-.61,1.73-1.84l13.12-73.29h12.14l13.01,73.29c.14.58.33,1.03.54,1.36.22.33.61.49,1.19.49h2.17v8.89h-23.64v-8.89h4.23c1.37,0,1.95-.76,1.73-2.28l-1.41-9h-12.36l-1.3,9c-.29,1.52.29,2.28,1.73,2.28h4.23v8.89h-19.3Zm15.83-28.62h9.87l-4.99-30.79-4.88,30.79Z"/><path class="cls-1" d="m204.26,193.53v-8.89h3.25c1.23,0,1.84-.65,1.84-1.95v-62.34c0-1.3-.61-1.95-1.84-1.95h-3.25v-8.89h20.93l14.53,53.89-.11-11.49v-31.55c0-1.3-.65-1.95-1.95-1.95h-4.12v-8.89h19.52v8.89h-2.49c-1.3,0-1.95.65-1.95,1.95v73.18h-13.12l-17.24-58.87v48.03c0,1.3.65,1.95,1.95,1.95h4.23v8.89h-20.17Zm12.36-89.77c-.22-5.06.49-8.87,2.11-11.44,1.63-2.56,3.7-3.85,6.23-3.85,1.45,0,2.69.31,3.74.92,1.05.61,2.01,1.5,2.87,2.66.94,1.08,1.77,1.99,2.49,2.71.72.72,1.48,1.08,2.28,1.08,1.08,0,1.86-.63,2.33-1.9.47-1.26.74-2.87.81-4.82h3.79c.22,5.06-.56,8.87-2.33,11.44-1.77,2.57-3.89,3.85-6.34,3.85-1.37,0-2.6-.36-3.69-1.08-1.08-.72-2.13-1.66-3.14-2.82-.8-1.01-1.5-1.84-2.11-2.49-.61-.65-1.32-.98-2.11-.98-1.08,0-1.86.61-2.33,1.84-.47,1.23-.74,2.86-.81,4.88h-3.79Z"/><path class="cls-1" d="m260.75,193.53v-8.89h2.17c1.01,0,1.59-.61,1.73-1.84l13.12-73.29h12.14l13.01,73.29c.14.58.33,1.03.54,1.36.22.33.61.49,1.19.49h2.17v8.89h-23.64v-8.89h4.23c1.37,0,1.95-.76,1.73-2.28l-1.41-9h-12.36l-1.3,9c-.29,1.52.29,2.28,1.73,2.28h4.23v8.89h-19.3Zm15.83-28.62h9.87l-4.99-30.79-4.88,30.79Z"/></g><g><path class="cls-1" d="m17.72,282.03c-2.01-3.52-3.82-5.81-5.61-7.79-2.88,3.99-6.56,6.59-9.69,7.93l-2.43-3.43c8.4-2.99,11.83-9.88,12.78-15.07l-10.24.11v-3.8h14.9c-.61,4.52-1.7,7.95-3.29,11.03,2.04,1.9,4.47,4.61,6.5,7.59l-2.93,3.43Z"/><path class="cls-1" d="m42.48,282.26c-3.18-5.08-6.92-12.31-9.13-15.94-.42-.7-.89-1.14-1.4-1.14-.36,0-.78.31-1.09,1.03-.98,2.18-2.46,6.42-3.96,9.91l-3.1-3.07c1.37-2.76,3.38-7.26,4.61-9.55.95-1.81,2.34-2.4,3.49-2.4,1.23,0,2.71.64,3.77,2.2,2.23,3.27,6.39,10.83,9.52,15.13l-2.71,3.82Zm-4.69-19.15c0-2.32,1.51-3.99,3.43-3.99s3.43,1.67,3.43,3.99-1.51,3.99-3.43,3.99-3.43-1.67-3.43-3.99Zm4.94,0c0-1.09-.67-1.87-1.51-1.87s-1.51.78-1.51,1.87.67,1.87,1.51,1.87,1.51-.78,1.51-1.87Z"/><path class="cls-1" d="m58.25,282.87l.06-12.34c-2.54,1.93-5.05,3.41-7.56,4.63l-2.76-3.35c7.45-2.85,13.2-7.96,16.58-14.24l3.63,2.09c-1.87,3.04-4.02,5.72-6.06,7.82,0,2.71.03,7.84.03,15.41l-3.91-.03Z"/><path class="cls-1" d="m79.85,268.02c-1.81-2.21-5.14-4.44-6.89-5.39l2.6-2.93c1.51.75,5,2.82,6.92,4.94l-2.62,3.38Zm-6.25,10.66c10.08-1.98,13.9-7.82,15.46-17.28l3.55,2.09c-1.26,6.22-3.82,15.63-16.66,18.87l-2.34-3.68Z"/><path class="cls-1" d="m108.82,282.62c-2.93-4.88-6.89-9.27-10.19-12.03l3.07-2.12c1.31,1.06,2.68,2.4,4.38,4.21,2.85-2.4,4.8-5.81,5.5-8.74l-15.07.17v-3.71h19.98c-.61,6.59-4.24,11.89-7.84,15.04,1.23,1.56,2.54,3.18,3.41,4.61l-3.24,2.57Z"/><path class="cls-1" d="m120.73,272.12v-3.74h19.48v3.74h-19.48Z"/><path class="cls-1" d="m146.27,279.94c7.65-2.21,9.52-7.51,9.88-13.84h-4.94c-.95,2.34-2.37,4.58-4.1,6.06l-3.32-2.37c3.82-3.13,5.22-8.29,5.67-12l3.82.47c-.17,1.4-.5,2.82-.89,4.21h12.28v3.63h-4.72c-.33,6.81-2.12,14.07-11.05,17.22l-2.62-3.38Z"/><path class="cls-1" d="m172.53,272.99c-.42-2.6-1.17-5.47-2.04-7.87l2.93-.73c.84,2.21,1.59,5.11,2.01,7.54l-2.9,1.06Zm-.25,6.98c7.23-2.15,10.27-6.89,10.5-16.24l3.52.47c-.81,9.24-2.9,15.52-11.5,18.65l-2.51-2.87Zm5.05-7.82c-.22-2.26-.89-5.47-1.62-7.76l3.04-.59c.7,2.32,1.37,5.3,1.65,7.51l-3.07.84Z"/><path class="cls-1" d="m210.32,274.41c-3.38-2.29-7.48-4.13-10.63-5.42v13.93l-3.91-.03v-25.2h3.91v7.2c2.79,1,8.96,3.49,12.56,5.64l-1.93,3.88Z"/><path class="cls-1" d="m218.3,279.13c9.91-2.62,12.62-9.13,13.15-15.8-3.85.08-13.84.22-13.84.22v-3.85s16.5-.03,18.17-.03c-.28,11.83-4.55,19.59-14.63,22.83l-2.85-3.38Z"/><path class="cls-1" d="m242.38,281.28v-3.21h6.22v-9.99l-5.44.03v-3.15h14.49v3.15l-5.5-.03v9.99h6.36v3.21h-16.13Z"/><path class="cls-1" d="m281.74,282.03c-2.01-3.52-3.82-5.81-5.61-7.79-2.88,3.99-6.56,6.59-9.69,7.93l-2.43-3.43c8.4-2.99,11.83-9.88,12.78-15.07l-10.24.11v-3.8h14.9c-.61,4.52-1.7,7.95-3.29,11.03,2.04,1.9,4.47,4.61,6.5,7.59l-2.93,3.43Z"/><path class="cls-1" d="m289.3,280.02c4.69-.89,8.01-3.07,10.3-5.69-1.56-1.4-3.27-2.54-4.97-3.68l2.26-2.6c1.28.81,3.01,1.93,4.74,3.35,1.34-2.4,2.04-4.88,2.32-7.01h-6.56c-1.54,2.96-3.85,6.08-6.5,8.21l-2.87-2.71c4.35-2.96,7.17-8.4,8.18-12.45l3.77.78c-.31.95-.67,1.95-1.06,2.93,2.65,0,7.87-.06,9.1-.06-.73,7.87-3.29,18.59-15.94,22.05l-2.76-3.13Z"/></g><rect class="cls-1" y="216.49" width="308" height="15.37"/></g></g></svg>