<?xml version="1.0" encoding="UTF-8"?><svg id="_レイヤー_2" xmlns="http://www.w3.org/2000/svg" xmlns:xlink="http://www.w3.org/1999/xlink" viewBox="0 0 476 100"><defs><style>.cls-1{fill:#fff;}.cls-2{clip-path:url(#clippath);}.cls-3{fill:none;}.cls-4{fill:#7d00be;fill-rule:evenodd;}</style><clipPath id="clippath"><rect class="cls-3" x="43" y="14.01" width="390" height="74.59"/></clipPath></defs><g id="_デザイン"><rect class="cls-1" width="476" height="100" rx="15" ry="15"/><g class="cls-2"><path class="cls-3" d="m27.49.84h420.06v93.35H27.49V.84Z"/><path class="cls-4" d="m88.14,48.54c0-5.5,3.23-9.85,7.65-9.85s7.53,4.35,7.53,9.85-3.12,9.85-7.53,9.85-7.64-4.35-7.64-9.85h0Zm118.01-4.48c1.66-8.13,12.63-8.6,14.17,0h-14.17Zm-148.79.15v-13.45h5.37c3.71,0,6.71,3.01,6.72,6.72,0,3.71-3.01,6.72-6.72,6.73h-5.37Zm45.83,21.7v-1.54c-2.37,1.52-4.5,2.39-7.41,2.39-8.95,0-15.75-8.17-15.75-18.21s6.8-18.22,15.75-18.22c2.91,0,5.04.88,7.41,2.39v-1.54h7.86v34.72h-7.86Zm56.33.85c-8.35,0-14.07-6.81-14.07-15.18v-20.4h7.87v20.4c0,3.83,2.63,7.06,6.44,7.06s6.45-3.23,6.45-7.06v-20.4h7.87v34.72h-7.86v-1.29s-2.82,2.14-6.69,2.14Zm86.67-36.43c8.36,0,14.07,6.81,14.07,15.18v20.4h-7.86v-20.4c0-3.83-2.63-7.06-6.45-7.06s-6.44,3.23-6.44,7.06v20.4h-7.87V31.18h7.86v1.29s2.82-2.14,6.69-2.14h0Zm-183.46-7.8c8.24,0,14.94,6.7,14.94,14.95,0,4.84-2.35,9.38-6.28,12.19l12.17,16.24h-10.3l-10.07-13.45h-5.82v13.45h-8.23V22.52h13.6Zm118.34,31.88v-14.98h-4.16v-8.24h4.16v-8.65h7.87v8.65h6.73v8.24h-6.73v14.86c0,3.28,2.43,4.26,3.71,4.26.94-.01,1.86-.31,2.63-.85l5.19,6.91c-2.48,1.47-5.51,2.18-7.7,2.18-5.87,0-11.7-4.63-11.7-12.38Zm-57.43-2.76v14.26h-8.1V19.66h8.1v23.62l9.44-12.1h11.03l-13.49,16.28,15.65,18.44h-11.02l-11.6-14.26h0Zm89.81-21.34c8.95,0,17,8.2,15.06,20.68h-22.66c1.03,7.93,9.99,11.96,15.36,4.02l6.95,4.02c-4.47,6.35-9.78,7.77-13.93,7.77-8.22,0-16.42-7.49-16.42-18.24s6.53-18.24,15.64-18.24h0Zm-111.92,52.31l-10.17-10.19h127.74s-117.56,10.19-117.56,10.19Zm209.11-42.12c.8,0,3.53,0,3.53,3.68,0,3.11-1.98,3.59-3.53,3.59h-12.44c-.42,4.43-1.41,8.78-5.28,13.22-1.7,1.94-5.98,5.95-8.86,5.95-2.45,0-4.05-2.27-4.05-4.06,0-1.61.85-2.22,2.73-3.44,3.2-2.13,7.02-5.19,7.91-11.66h-14.74c-1.65,0-3.53-.57-3.53-3.59,0-3.68,2.78-3.68,3.53-3.68h14.98v-4.58c-3.35.56-8.1,1.41-10.6,1.41-2.97,0-3.72-2.46-3.72-3.92,0-2.78,2.07-3.02,4.24-3.25,7.26-.8,12.72-1.7,17.85-3.3,4.15-1.32,4.62-1.46,5.33-1.46,2.35,0,3.53,2.36,3.53,3.96,0,1.75-1.32,2.5-3.53,3.26-1.46.52-3.77,1.18-5.61,1.65v6.23h12.25Zm43.91-6.37c3.11,0,3.68,2.12,3.68,3.63s-.61,3.63-3.68,3.63h-8.53c-.19,9.77-2.83,15.15-5.89,19.02-1.93,2.5-6.45,6.94-9.28,6.94-2.12,0-4.05-1.89-4.05-4.11,0-1.27.52-1.89,2.5-3.4,5.98-4.53,8.76-9.72,8.95-18.45h-9.14c-2.92,4.81-5.32,8.78-7.96,8.78-2.03,0-4.01-1.65-4.01-3.73,0-1.13.38-1.65,1.98-3.77,3.82-5.01,6.12-9.39,8.29-14.92.47-1.13,1.04-2.64,3.25-2.64.61,0,4.19.28,4.19,3.21,0,1.42-1.32,4.29-1.98,5.81,0,0,21.67,0,21.67,0Zm16.72,11.75c0,1.89-1.98,3.07-3.63,3.07-1.51,0-1.79-.48-3.44-3.64-.33-.66-1.79-3.02-2.36-4.06-.28-.56-.42-1.13-.42-1.46,0-2.17,2.59-3.02,3.63-3.02,1.6,0,2.12.9,3.35,2.97,2.45,4.11,2.87,5.24,2.87,6.14h0Zm2.31-2.74c-.64-1.33-1.33-2.64-2.07-3.92-.23-.42-.56-1.13-.56-1.75,0-1.89,1.98-2.97,3.58-2.97s2.22.85,3.68,3.54c.85,1.51,2.36,4.44,2.36,5.71,0,2.17-2.17,3.12-3.54,3.12-1.65,0-2.03-.71-3.44-3.73h0Zm16.39-7.55c1.84,0,3.68.99,3.68,3.02,0,2.17-1.93,11.85-7.21,18.55-5.84,7.36-14.04,10.1-15.68,10.1s-3.21-1.79-3.21-3.68c0-1.7.66-2.03,3.68-3.4,4.48-1.98,12.86-6.32,15.31-20.06.57-3.16,1.04-4.53,3.44-4.53h0Zm33.6,10.91c1.7,1.13,2.73,2.12,2.73,3.64,0,2.07-1.6,4.29-3.77,4.29-1.22,0-2.07-.52-4.62-2.22-3.25-2.12-7.92-4.63-11.02-6v17.61c0,1.09-.05,3.82-3.86,3.82s-3.91-2.36-3.91-3.82V28.59c0-1.13,0-3.83,3.91-3.83s3.86,2.64,3.86,3.83v9.2c5.75,2.55,11.45,5.19,16.68,8.69h0Z"/></g></g></svg>