<svg xmlns="http://www.w3.org/2000/svg" width="1100" height="641.277" viewBox="0 0 1100 641.277">
  <g id="spain_info" transform="translate(-410.5 -6156.723)">
    <text id="スペインマーケットフェスタ事務局" transform="translate(487 6209.723)" fill="#fff" font-size="60" font-family="HiraginoSans-W7, Hiragino Sans"><tspan x="0" y="0">スペインマーケットフェスタ事務局</tspan></text>
    <g id="出店者募集_詳細" transform="translate(263.8 6069.744)">
      <g id="グループ_583" data-name="グループ 583" transform="translate(273.2 233.98)">
        <path id="パス_4030" data-name="パス 4030" d="M385.45,240.818V237.77h19.872v3.048Zm11.629,5.786v11.77h-3.387V246.6H385.45v-3.048h19.872V246.6Z" transform="translate(-68.606 -227.072)" fill="#fff"/>
        <path id="パス_4031" data-name="パス 4031" d="M413.59,258.473v6.605H408v-6.605H395.13v-4.46l12.194-19.843h6.266v20.182h4.149v4.121Zm-6.21-17.783-7.706,12.533-1.186,1.44,1.186-.282H408V241.65l.226-2.794Z" transform="translate(-50.963 -233.634)" fill="#fff"/>
        <path id="パス_4032" data-name="パス 4032" d="M414.869,266.017c-8.5,0-10.839-8.242-10.839-14.593,0-3.246.282-17.444,11.347-17.444a9.277,9.277,0,0,1,6.6,2.6c1.694,1.609,2.2,2.964,2.766,5.758h-5.589a3.8,3.8,0,0,0-3.9-3.641c-4.516,0-5.222,5.419-5.7,9.569a7.075,7.075,0,0,1,6.295-3.3c5.166,0,9.343,4.29,9.343,9.992C425.2,260,421.643,266.017,414.869,266.017Zm0-16.428c-3.359,0-5.081,2.964-5.081,5.843,0,3.218,2,5.561,4.883,5.561,2.569,0,4.77-2,4.77-5.589C419.442,252.1,417.663,249.589,414.869,249.589Z" transform="translate(-34.741 -233.98)" fill="#fff"/>
        <path id="パス_4033" data-name="パス 4033" d="M421.183,265.078V243.569H412.8v-4.008h2.456A6.931,6.931,0,0,0,422,234.17h4.573v30.908Z" transform="translate(-18.756 -233.634)" fill="#fff"/>
        <path id="パス_4034" data-name="パス 4034" d="M421.37,244.2v-5h10.585v5Z" transform="translate(-3.136 -224.466)" fill="#fff"/>
        <path id="パス_4035" data-name="パス 4035" d="M438.524,266.017c-9.823,0-10.754-11.517-10.754-15.5,0-5.081.875-16.541,10.754-16.541a9.146,9.146,0,0,1,8.129,4.516c2.117,3.387,2.625,7.48,2.625,11.46C449.279,253.88,448.658,266.017,438.524,266.017Zm-.085-27.465c-2.823,0-4.855,2.061-4.855,11.432-.056,9.766,2.2,11.46,4.94,11.46,3.077,0,4.911-2.371,4.911-11.46C443.436,240.19,441.234,238.553,438.44,238.553Z" transform="translate(8.529 -233.98)" fill="#fff"/>
        <path id="パス_4036" data-name="パス 4036" d="M447.164,266.017c-9.823,0-10.754-11.517-10.754-15.5,0-5.081.875-16.541,10.754-16.541a9.146,9.146,0,0,1,8.129,4.516c2.117,3.387,2.625,7.48,2.625,11.46C457.919,253.88,457.3,266.017,447.164,266.017Zm-.085-27.465c-2.823,0-4.855,2.061-4.855,11.432-.028,9.766,2.2,11.46,4.94,11.46,3.077,0,4.911-2.371,4.911-11.46C452.076,240.19,449.874,238.553,447.08,238.553Z" transform="translate(24.277 -233.98)" fill="#fff"/>
        <path id="パス_4037" data-name="パス 4037" d="M455.8,266.017c-9.823,0-10.754-11.517-10.754-15.5,0-5.081.875-16.541,10.754-16.541a9.146,9.146,0,0,1,8.129,4.516c2.117,3.387,2.625,7.48,2.625,11.46C466.559,253.88,465.938,266.017,455.8,266.017Zm-.085-27.465c-2.823,0-4.855,2.061-4.855,11.432-.057,9.766,2.2,11.46,4.94,11.46,3.077,0,4.911-2.371,4.911-11.46C460.716,240.19,458.514,238.553,455.72,238.553Z" transform="translate(40.025 -233.98)" fill="#fff"/>
        <path id="パス_4038" data-name="パス 4038" d="M464.24,265.653c-6.182,0-10.077-3.9-10.5-8.976h5.532a4.66,4.66,0,0,0,4.827,4.149c2.992,0,5-2.286,5-5.7,0-4.347-3.133-5.871-5.335-5.871a3.927,3.927,0,0,0-3.98,2.766l-5.194-.48,2.2-17.359h17.105v4.573H460.6l-.762,6.1-.48,2.2a6.818,6.818,0,0,1,5.758-2.512,9.83,9.83,0,0,1,9.823,10.218C474.938,259.527,472.031,265.653,464.24,265.653Z" transform="translate(55.864 -233.615)" fill="#fff"/>
        <path id="パス_4039" data-name="パス 4039" d="M317.442,291.258V289.79H304.062v2.089h-5.024V280.9a71.994,71.994,0,0,1-8.383,4.036l-3.585-3.754a42.186,42.186,0,0,0,15.581-8.1,31.454,31.454,0,0,0-4.883-4.4,47.875,47.875,0,0,1-5.307,4.432l-3.9-3.331c7.4-5.053,9.992-8.553,13.041-15.158l3.98,1.242c.339.113,1.27.508,1.27.931a.521.521,0,0,1-.141.339c-.113.141-1.016.31-1.1.48-.169.226-.677,1.411-.819,1.637h9.992l2.484,2.766a48.3,48.3,0,0,1-10.331,13.238h15.5v16.033h-5Zm-14.988-28.029a23.476,23.476,0,0,1-1.863,2.4,36.153,36.153,0,0,1,5.335,4.319,30.434,30.434,0,0,0,4.742-6.718Zm14.988,16H304.062v6.577h13.379Z" transform="translate(-247.92 -196.36)" fill="#fff"/>
        <path id="パス_4040" data-name="パス 4040" d="M323.451,266.549v6.266h10.02v18.771h-5.25V289.5H313.035v2.089h-5.194V272.816h10.105v-6.266h-15.5v-4.573h15.5V254.92l5.42.31c.423.028.96.085.96.565,0,.169,0,.282-.423.621-.423.367-.48.423-.48.565V262h15.412v4.573H323.451Zm4.77,10.839H313.035v7.537h15.186Z" transform="translate(-219.887 -195.813)" fill="#fff"/>
        <path id="パス_4041" data-name="パス 4041" d="M347.584,269.384a67.238,67.238,0,0,1,6.238,6.125l-3.359,2.964c-.508-.565-1.186-1.355-2.794-2.964-2.286.282-4.827.508-6.69.677.593.085,1.157.169,1.157.565,0,.254-.339.423-.593.593v2.145H350.6v3.754h-9.061v3.274h13.238v3.98h-30v-3.98h11.714v-3.274h-9.258V279.49h9.258V276.5c-2.484.169-6.1.367-6.351.367-.2,0-1.383.056-1.694.085-.141.028-.762.593-.988.593-.536,0-.677-.423-.706-.847l-.536-3.754c1.637.113,3.133.113,5,.113a23.892,23.892,0,0,0,2-3.669h-7.4a72.789,72.789,0,0,1-.536,8.92,45.679,45.679,0,0,1-3.246,12.674l-4.8-1.44c2.992-6.351,3.9-13.408,3.9-20.408,0-4.178-.169-10.077-.593-14H353.6v9H325.877v1.694h29.384v3.557h-7.678Zm1.016-10.726H325.821v2.061H348.6Zm-6.041,12.194,1.3-1.468h-5.5a34.144,34.144,0,0,1-2.061,3.585c5.165-.113,6.379-.226,8.327-.367C343.943,272.009,343.858,271.953,342.559,270.852Z" transform="translate(-192.93 -195.431)" fill="#fff"/>
        <path id="パス_4042" data-name="パス 4042" d="M353.939,264.22v4.008h11.883v14.847c0,3.867-2.371,4.8-7.819,4.855l-1.835-4.742a22.471,22.471,0,0,0,2.456.085c1.863,0,2.173-.31,2.173-1.637V272.66h-6.859v19.7h-5.25v-19.7h-7.057v15.327h-5.081V268.228h12.137V264.22H333.08v-4.488h15.609V254.99l5.476.4c.226,0,.536.085.536.367a.663.663,0,0,1-.2.48c-.508.508-.565.593-.565.706v2.794h15.525v4.488H353.939Z" transform="translate(-164.059 -195.686)" fill="#fff"/>
        <path id="パス_4043" data-name="パス 4043" d="M381.489,290.592a36.657,36.657,0,0,1-12.137-9v9.823H364.3v-9.992a38.091,38.091,0,0,1-12.392,9.371l-3.7-3.387c4.6-1.637,7.762-3.472,12.73-8.694h-7.678V264.736H364.3v-2.23h-15.44V258.47H364.3v-3.5l5.109.339c.508.056.649.254.649.423a.672.672,0,0,1-.254.367c-.4.31-.48.367-.48.593v1.778h15.44v4.036h-15.44v2.23H380.5v13.972h-8.214c2.794,2.879,5.674,5,12.533,8.242ZM364.3,267.9h-6.21v1.948h6.21Zm0,5.335h-6.21v2.032h6.21Zm11.347-5.335h-6.294v1.948h6.294Zm0,5.335h-6.294v2.032h6.294Z" transform="translate(-136.482 -195.722)" fill="#fff"/>
        <path id="パス_4044" data-name="パス 4044" d="M369.2,289.04v1.242H364.15V255.45H398.3v4.488h-29.13V284.58H398.5v4.488H369.2Zm22.44-5.73a104.44,104.44,0,0,0-7.339-7.621,50.262,50.262,0,0,1-9.907,7.621l-3.472-3.613a33.213,33.213,0,0,0,9.908-7.2,61.813,61.813,0,0,0-9.569-7.2l2.71-3.669a83.809,83.809,0,0,1,10.021,7.311,35.039,35.039,0,0,0,5.165-8.3l4.488,2.315a.824.824,0,0,1,.48.649c0,.367-.4.423-.649.48-.762.113-.819.226-1.186.847a42.117,42.117,0,0,1-4.714,7.113,90.446,90.446,0,0,1,7.593,7.593Z" transform="translate(-107.429 -194.847)" fill="#fff"/>
        <path id="パス_4045" data-name="パス 4045" d="M412.089,290.592a36.657,36.657,0,0,1-12.137-9v9.823H394.9v-9.992a38.091,38.091,0,0,1-12.392,9.371l-3.7-3.387c4.6-1.637,7.762-3.472,12.73-8.694h-7.706V264.736h11.037v-2.23h-15.44V258.47h15.44v-3.5l5.109.339c.508.056.649.254.649.423a.672.672,0,0,1-.254.367c-.4.31-.48.367-.48.593v1.778h15.44v4.036H399.9v2.23h11.178v13.972h-8.214c2.794,2.879,5.674,5,12.533,8.242ZM394.9,267.9h-6.21v1.948h6.21Zm0,5.335h-6.21v2.032h6.21Zm11.347-5.335h-6.295v1.948h6.295Zm0,5.335h-6.295v2.032h6.295Z" transform="translate(-80.708 -195.722)" fill="#fff"/>
        <path id="パス_4046" data-name="パス 4046" d="M428.446,276.736a21.421,21.421,0,0,1-3.3,6.774,35.65,35.65,0,0,1,6.294,4.149l-3.161,4.008a36.24,36.24,0,0,0-6.436-4.657c-2.343,1.778-5,3.557-11.234,4.742l-3.557-4.573a18.645,18.645,0,0,0,10.416-2.625c-1.44-.677-2.173-.96-3.218-1.355a17.02,17.02,0,0,1-1.073,1.552l-4.6-1.524a45.161,45.161,0,0,0,3.952-6.52H408.97v-2.456l-2.032,2.23a7.534,7.534,0,0,1-1.637-1.552v16.71h-4.6V278.034a17.959,17.959,0,0,1-2.682,4.008l-4.488-2.54a24.379,24.379,0,0,0,6.407-13.577H395.59v-4.8H400.7V254.86l4.347.254c.875.028,1.186.254,1.186.565,0,.2-.113.282-.282.367-.593.423-.649.48-.649.677v4.4h3.952a17.419,17.419,0,0,0-1.863-2.964l4.516-2.173a31.217,31.217,0,0,1,4.714,9.879l-4.46,1.778a45.648,45.648,0,0,0-2.625-5.928v4.206H405.3v.79a21.655,21.655,0,0,0,3.952,5.674h5.42a43.648,43.648,0,0,0,1.835-4.573l4.149,1.016c.423.085,1.016.4,1.016.9a.412.412,0,0,1-.113.339c-.113.085-.677.282-.762.367a14.511,14.511,0,0,0-.875,1.948h12.109v4.262h-3.585Zm-10.529-10.98a41.26,41.26,0,0,0-2.653-9.569l4.855-1.1a32.359,32.359,0,0,1,2.625,9.569Zm-.085,10.98c-.734,1.411-.762,1.44-1.524,2.879a32.265,32.265,0,0,1,4.742,1.863,13.225,13.225,0,0,0,2.4-4.742Zm14.932-17.783c-.508.169-.508.226-.621.423a73.35,73.35,0,0,1-6.153,11.488l-4.319-2.343a86.612,86.612,0,0,0,6.1-12.815l4.488,1.75c.339.113,1.016.48,1.016.96C433.273,258.642,433.1,258.783,432.765,258.953Z" transform="translate(-53.879 -195.923)" fill="#fff"/>
        <path id="パス_4047" data-name="パス 4047" d="M417.453,287.06V265.551H409.07v-4.008h2.456a6.933,6.933,0,0,0,6.746-5.363h4.573v30.908h-5.391Z" transform="translate(-25.555 -193.517)" fill="#fff"/>
        <path id="パス_4048" data-name="パス 4048" d="M417.63,267.2v-5h10.585v5Z" transform="translate(-9.953 -182.544)" fill="#fff"/>
        <path id="パス_4049" data-name="パス 4049" d="M431.113,287.06V265.551H422.73v-4.008h2.456a6.9,6.9,0,0,0,6.718-5.363h4.573v30.908h-5.363Z" transform="translate(-0.657 -193.517)" fill="#fff"/>
        <path id="パス_4050" data-name="パス 4050" d="M441.934,288.017c-9.823,0-10.754-11.516-10.754-15.5,0-5.081.875-16.541,10.754-16.541a9.146,9.146,0,0,1,8.129,4.516c2.117,3.387,2.625,7.508,2.625,11.488C452.689,275.88,452.039,288.017,441.934,288.017Zm-.085-27.464c-2.823,0-4.855,2.061-4.855,11.432-.028,9.766,2.2,11.46,4.94,11.46,3.077,0,4.911-2.371,4.911-11.46C446.846,262.19,444.644,260.553,441.85,260.553Z" transform="translate(14.744 -193.881)" fill="#fff"/>
        <path id="パス_4051" data-name="パス 4051" d="M439.94,267.2v-5h10.585v5Z" transform="translate(30.711 -182.544)" fill="#fff"/>
        <path id="パス_4052" data-name="パス 4052" d="M454.676,288.035a9.555,9.555,0,0,1-6.577-2.6c-1.694-1.609-2.23-2.964-2.738-5.786h5.589a3.781,3.781,0,0,0,3.867,3.669c4.573,0,5.25-5.448,5.758-9.6a7.208,7.208,0,0,1-6.323,3.331c-5.194,0-9.343-4.319-9.343-10.02,0-5.053,3.557-11.065,10.274-11.065,8.553,0,10.9,8.214,10.9,14.593C466.052,273.809,465.713,288.035,454.676,288.035Zm.762-27.013c-2.625,0-4.8,1.948-4.8,5.589,0,3.274,1.778,5.758,4.516,5.758,3.387,0,5.137-2.964,5.137-5.843C460.293,263.309,458.318,261.023,455.438,261.023Z" transform="translate(39.77 -193.9)" fill="#fff"/>
        <path id="パス_4053" data-name="パス 4053" d="M491.8,290.253a47.257,47.257,0,0,1-11.516-10.359v11.883h-5.165V280.034a44.875,44.875,0,0,1-11.686,10.613l-3.98-3.923A34.943,34.943,0,0,0,473,276.619h-9.654v-3.98h-3.133v-9.315h6.351a47.764,47.764,0,0,0-3.415-4.827l4.149-2.54a46.073,46.073,0,0,1,3.98,5.758l-3.048,1.609H482.37a49.157,49.157,0,0,0,4.573-8.214l3.867,1.581c.339.113,1.27.536,1.27,1.073,0,.621-.508.677-1.27.706-1.1,1.807-1.694,2.682-3.161,4.855h7.621v9.23h-3.133v4.065h-9.908A35.254,35.254,0,0,0,496,286.3Zm-1.27-22.807H464.9v4.911h10.218v-3.641l4.573.028c.367,0,1.468.056,1.468.508,0,.31-.226.508-.48.762a1.051,1.051,0,0,0-.423.762v1.581H490.5v-4.911Zm-14.4-4.234a68.254,68.254,0,0,0-3.472-6.69l4.262-1.722a60.876,60.876,0,0,1,3.613,6.859Z" transform="translate(66.271 -196.032)" fill="#fff"/>
        <path id="パス_4054" data-name="パス 4054" d="M502.351,266.9c-1.609,4.262-3.416,9.089-7.452,14.311a37.976,37.976,0,0,1-12.533,10.331l-4.629-3.726a34.076,34.076,0,0,0,14.057-11.093,36.681,36.681,0,0,0,5.307-10.387H474.52v-4.911h23.964a2.377,2.377,0,0,0,1.383-.677l4.206,3.811A5.834,5.834,0,0,0,502.351,266.9Zm2.823-4.827a4.037,4.037,0,1,1,3.98-4.065A4,4,0,0,1,505.174,262.073Zm0-6.436a2.386,2.386,0,1,0,2.343,2.371A2.356,2.356,0,0,0,505.174,255.637Z" transform="translate(93.739 -197.49)" fill="#fff"/>
        <path id="パス_4055" data-name="パス 4055" d="M515.566,270.4c-1.609,3.811-3.161,7.649-6.972,11.771a31.816,31.816,0,0,1-11.771,7.791l-3.952-3.641a27.808,27.808,0,0,0,11.855-7.508,24.266,24.266,0,0,0,5.391-8.976H488.13v-4.657h23.993a4.99,4.99,0,0,0,2.089-.819L517.627,268A7.6,7.6,0,0,0,515.566,270.4Zm-23.2-9.907v-4.8h20.1v4.8Z" transform="translate(118.545 -194.41)" fill="#fff"/>
        <path id="パス_4056" data-name="パス 4056" d="M526.366,270.988c-.508,12.279-3.415,16.428-11.46,21.283l-3.472-3.3c7.452-4.121,10.105-8.158,10.246-17.98h-7.988v9.484H508.64v-9.484h-7.96v-4.8h7.96v-8.129l4.657.508c.988.113,1.27.226,1.27.593,0,.226-.875.847-.875,1.073v5.984h7.988c0-3.867,0-6.323-.085-8.75l4.319.593q1.355.169,1.355.677c0,.113,0,.226-.367.48a.909.909,0,0,0-.48.988v6.041h7.057v4.8h-7.113Zm4.516-12.956a23.152,23.152,0,0,1,4.234,3.133l-1.778,2.23a26.123,26.123,0,0,0-4.29-3.133Zm2.625-3.782a21.043,21.043,0,0,1,4.262,3.048l-1.778,2.23a22.545,22.545,0,0,0-4.234-3.133Z" transform="translate(141.419 -197.035)" fill="#fff"/>
        <path id="パス_4057" data-name="パス 4057" d="M529.51,290.354c-12.448,0-14-2.117-14-6.661v-26l4.658.677c.847.113,1.27.423,1.27.677,0,.226-.254.423-.424.593-.48.339-.508.48-.508.565v10.218a42.654,42.654,0,0,0,9.992-2.71,35.819,35.819,0,0,0,7.057-3.415l3.528,3.528c.028.028.621.621.621.96,0,.056,0,.339-.367.339-.113,0-.932-.169-1.157-.169-.2,0-5.25,2.117-6.266,2.456a91.82,91.82,0,0,1-13.408,3.669v6.69c0,2.456.254,3.754,7.339,3.754a89.372,89.372,0,0,0,13.972-1.186v5.5C539.757,289.987,535.184,290.354,529.51,290.354Zm11.347-27.3a26.777,26.777,0,0,0-4.008-3.528l2.117-1.891a24.833,24.833,0,0,1,4.065,3.528Zm4.036-3.359a20.635,20.635,0,0,0-4.008-3.5l2.173-1.919a24.936,24.936,0,0,1,4.008,3.472Z" transform="translate(168.45 -196.98)" fill="#fff"/>
        <path id="パス_4058" data-name="パス 4058" d="M541.766,258.359c-.31.254-.31.339-.31.536,0,7.932,0,8.553-.226,10.416-1.016,8.75-6.041,12.9-9.145,15.355l-4.714-3.415c4.065-2.371,9.061-5.956,9.061-16.513a61.163,61.163,0,0,0-.48-7.988l5.109.339c.762.028,1.242.169,1.242.621C542.358,257.907,542.274,257.935,541.766,258.359Zm7.847,26.392-3.585-2.794V256.27l4.911.593c.367.028,1.185.113,1.185.565,0,.169-.085.282-.48.621,0,.028-.508.48-.508.508v18.488c3.641-2,8.468-6.718,11.178-10.839l2.879,4.29C561.044,276.057,554.693,281.9,549.613,284.751Z" transform="translate(190.066 -193.353)" fill="#fff"/>
        <path id="パス_4059" data-name="パス 4059" d="M551.636,288.035a9.556,9.556,0,0,1-6.577-2.6c-1.694-1.609-2.23-2.964-2.738-5.786h5.589a3.781,3.781,0,0,0,3.867,3.669c4.573,0,5.25-5.448,5.758-9.6a7.208,7.208,0,0,1-6.323,3.331c-5.194,0-9.343-4.319-9.343-10.02,0-5.053,3.557-11.065,10.274-11.065,8.553,0,10.9,8.214,10.9,14.593C563.012,273.809,562.673,288.035,551.636,288.035Zm.762-27.013c-2.625,0-4.8,1.948-4.8,5.589,0,3.274,1.778,5.758,4.516,5.758,3.387,0,5.137-2.964,5.137-5.843C557.253,263.309,555.278,261.023,552.4,261.023Z" transform="translate(216.495 -193.9)" fill="#fff"/>
        <path id="パス_4060" data-name="パス 4060" d="M556.95,261.015V269h14.706v4.827H556.95v13.238h-5.73V256.16h21.932v4.827h-16.2Z" transform="translate(233.537 -193.553)" fill="#fff"/>
        <path id="パス_4061" data-name="パス 4061" d="M334.085,295.9h-6.041l2.315,5.984a2.215,2.215,0,0,1,.226,1.016c0,.508-.226.9-.96,1.073l-10.275,1.75c-1.016.113-1.581-.452-1.581-1.581,0-2.484.339-7.9,3.048-9.992,4.742-3.669,10.952-5.645,22.92-5.645s18.178,1.976,22.92,5.645c2.71,2.089,3.048,7.508,3.048,9.992,0,1.129-.565,1.694-1.581,1.581l-10.275-1.75c-.734-.169-.96-.565-.96-1.073a2.214,2.214,0,0,1,.226-1.016l2.315-5.984h-6.041v3.613c0,3.952,2.54,6.887,6.718,10.952,3.9,3.782,5.194,8.468,5.194,13.436,0,1.807-.677,2.653-2.6,2.653H324.77c-1.919,0-2.6-.847-2.6-2.653,0-4.968,1.3-9.654,5.194-13.436,4.178-4.065,6.718-7,6.718-10.952V295.9Zm19.138,18.065a9.484,9.484,0,1,0-9.484,9.484A9.469,9.469,0,0,0,353.223,313.96ZM348.537,295.9h-9.6v5.42h9.6Z" transform="translate(-191.964 -134.608)" fill="#fff"/>
        <path id="パス_4062" data-name="パス 4062" d="M364,344.133c-19.646,0-21.509-23.033-21.509-30.993,0-10.162,1.778-33.11,21.509-33.11a18.281,18.281,0,0,1,16.259,9.061c4.234,6.774,5.25,14.988,5.25,22.948C385.507,319.83,384.237,344.133,364,344.133Zm-.169-54.957c-5.673,0-9.738,4.149-9.738,22.864-.085,19.561,4.4,22.948,9.908,22.948,6.182,0,9.823-4.742,9.823-22.948C373.822,292.478,369.418,289.175,363.829,289.175Z" transform="translate(-146.908 -150.046)" fill="#fff"/>
        <path id="パス_4063" data-name="パス 4063" d="M376.927,342.236V299.219H360.16v-8.045h4.911a13.813,13.813,0,0,0,13.464-10.754h9.145v61.816Z" transform="translate(-114.701 -149.335)" fill="#fff"/>
        <path id="パス_4064" data-name="パス 4064" d="M374.02,342.947c1.524-11.008,5.335-17.613,19.307-27.86,9.061-6.605,11.771-9.992,11.771-15.412,0-5.843-4.065-10.246-9.654-10.246-8.553,0-8.807,8.891-8.891,13.464H375.8c.169-5.5.847-22.864,19.984-22.864,12.7,0,20.916,8.807,20.916,19.646,0,9.908-7.028,15.5-15.073,21.085-8.3,5.758-10.416,8.129-13.041,13.295h28.622v8.891H374.02Z" transform="translate(-89.439 -150.046)" fill="#fff"/>
        <path id="パス_4065" data-name="パス 4065" d="M412.839,344.133c-19.646,0-21.509-23.033-21.509-30.993,0-10.162,1.778-33.11,21.509-33.11a18.281,18.281,0,0,1,16.259,9.061c4.234,6.774,5.25,14.988,5.25,22.948C434.347,319.83,433.077,344.133,412.839,344.133Zm-.169-54.957c-5.674,0-9.738,4.149-9.738,22.864-.085,19.561,4.4,22.948,9.908,22.948,6.182,0,9.823-4.742,9.823-22.948C422.661,292.478,418.258,289.175,412.669,289.175Z" transform="translate(-57.889 -150.046)" fill="#fff"/>
        <path id="パス_4066" data-name="パス 4066" d="M408.85,300.472V290.48h21.17v9.992Z" transform="translate(-25.956 -131)" fill="#fff"/>
        <path id="パス_4067" data-name="パス 4067" d="M439.751,343.422c-12.363,0-20.154-7.791-21-17.952h11.093a9.3,9.3,0,0,0,9.654,8.3c6.012,0,9.992-4.573,9.992-11.432,0-8.722-6.266-11.771-10.67-11.771a7.874,7.874,0,0,0-7.96,5.5l-10.416-.931,4.4-34.719h34.211v9.145H432.468l-1.524,12.194-.931,4.4c1.439-1.694,4.4-5,11.516-5,9.145,0,19.646,6.859,19.646,20.408C461.174,331.143,455.332,343.422,439.751,343.422Z" transform="translate(-7.911 -149.335)" fill="#fff"/>
        <path id="パス_4068" data-name="パス 4068" d="M453.1,342.236V299.219H436.33v-8.045h4.911a13.813,13.813,0,0,0,13.464-10.754h9.145v61.816Z" transform="translate(24.131 -149.335)" fill="#fff"/>
        <path id="パス_4069" data-name="パス 4069" d="M471.911,343.422c-12.363,0-20.154-7.791-21-17.952H462a9.3,9.3,0,0,0,9.654,8.3c6.012,0,9.992-4.573,9.992-11.432,0-8.722-6.266-11.771-10.67-11.771a7.874,7.874,0,0,0-7.96,5.5l-10.416-.931,4.4-34.719h34.211v9.145H464.628L463.1,301.759l-.931,4.4c1.44-1.694,4.4-5,11.516-5,9.145,0,19.646,6.859,19.646,20.408C493.335,331.143,487.492,343.422,471.911,343.422Z" transform="translate(50.706 -149.335)" fill="#fff"/>
        <path id="パス_4070" data-name="パス 4070" d="M468.34,300.472V290.48h21.17v9.992Z" transform="translate(82.475 -131)" fill="#fff"/>
        <path id="パス_4071" data-name="パス 4071" d="M506.467,314.461c-4.827,12.025-5.589,20.408-6.351,27.775H488.345c.423-5.674.931-12.533,5.843-25.4,5.758-15.242,11.347-20.662,17.7-26.759l-3.811.423H477.76V280.42h45.219V290.5C517.814,295.578,511.547,301.675,506.467,314.461Z" transform="translate(99.644 -149.336)" fill="#fff"/>
        <path id="パス_4072" data-name="パス 4072" d="M495.4,342.947c1.524-11.008,5.335-17.613,19.307-27.86,9.061-6.605,11.771-9.992,11.771-15.412,0-5.843-4.065-10.246-9.654-10.246-8.553,0-8.807,8.891-8.891,13.464H497.178c.169-5.5.847-22.864,19.984-22.864,12.7,0,20.916,8.807,20.916,19.646,0,9.908-7.028,15.5-15.073,21.085-8.3,5.758-10.416,8.129-13.041,13.295h28.622v8.891H495.4Z" transform="translate(131.796 -150.046)" fill="#fff"/>
        <path id="パス_4073" data-name="パス 4073" d="M512.68,342.947c1.524-11.008,5.335-17.613,19.307-27.86,9.061-6.605,11.771-9.992,11.771-15.412,0-5.843-4.065-10.246-9.653-10.246-8.553,0-8.807,8.891-8.891,13.464H514.458c.169-5.5.847-22.864,19.985-22.864,12.7,0,20.916,8.807,20.916,19.646,0,9.908-7.029,15.5-15.073,21.085-8.3,5.758-10.416,8.129-13.041,13.295h28.622v8.891H512.68Z" transform="translate(163.291 -150.046)" fill="#fff"/>
        <path id="パス_4074" data-name="パス 4074" d="M363.3,381.133c-19.646,0-21.509-23.033-21.509-30.993,0-10.162,1.778-33.11,21.509-33.11a18.281,18.281,0,0,1,16.259,9.061c4.234,6.774,5.25,14.988,5.25,22.948C384.807,356.83,383.537,381.133,363.3,381.133Zm-.169-54.957c-5.673,0-9.738,4.149-9.738,22.864-.085,19.561,4.4,22.948,9.908,22.948,6.182,0,9.823-4.742,9.823-22.948C373.122,329.478,368.718,326.175,363.129,326.175Z" transform="translate(-148.183 -82.608)" fill="#fff"/>
        <path id="パス_4075" data-name="パス 4075" d="M376.227,379.236V336.219H359.46v-8.045h4.911a13.813,13.813,0,0,0,13.464-10.754h9.145v61.816Z" transform="translate(-115.977 -81.897)" fill="#fff"/>
        <path id="パス_4076" data-name="パス 4076" d="M373.32,379.947c1.524-11.008,5.335-17.613,19.307-27.86,9.061-6.605,11.771-9.992,11.771-15.412,0-5.843-4.065-10.246-9.654-10.246-8.553,0-8.807,8.891-8.891,13.464H375.1c.169-5.5.847-22.864,19.984-22.864,12.7,0,20.916,8.807,20.916,19.646,0,9.908-7.028,15.5-15.073,21.085-8.3,5.758-10.416,8.129-13.041,13.295h28.622v8.891H373.32Z" transform="translate(-90.715 -82.608)" fill="#fff"/>
        <path id="パス_4077" data-name="パス 4077" d="M412.139,381.133c-19.646,0-21.509-23.033-21.509-30.993,0-10.162,1.778-33.11,21.509-33.11a18.281,18.281,0,0,1,16.259,9.061c4.234,6.774,5.25,14.988,5.25,22.948C433.647,356.83,432.377,381.133,412.139,381.133Zm-.169-54.957c-5.674,0-9.738,4.149-9.738,22.864-.085,19.561,4.4,22.948,9.908,22.948,6.182,0,9.823-4.742,9.823-22.948C421.962,329.478,417.558,326.175,411.969,326.175Z" transform="translate(-59.165 -82.608)" fill="#fff"/>
        <path id="パス_4078" data-name="パス 4078" d="M408.15,339.472V329.48h21.17v9.992Z" transform="translate(-27.232 -59.916)" fill="#fff"/>
        <path id="パス_4079" data-name="パス 4079" d="M417.93,379.947c1.524-11.008,5.335-17.613,19.307-27.86,9.061-6.605,11.771-9.992,11.771-15.412,0-5.843-4.065-10.246-9.654-10.246-8.553,0-8.807,8.891-8.891,13.464H419.708c.169-5.5.847-22.864,19.984-22.864,12.7,0,20.916,8.807,20.916,19.646,0,9.908-7.028,15.5-15.073,21.085-8.3,5.758-10.416,8.129-13.041,13.295h28.622v8.891H417.93Z" transform="translate(-9.406 -82.608)" fill="#fff"/>
        <path id="パス_4080" data-name="パス 4080" d="M457.349,381.133c-19.646,0-21.509-23.033-21.509-30.993,0-10.162,1.778-33.11,21.509-33.11a18.281,18.281,0,0,1,16.259,9.061c4.234,6.774,5.25,14.988,5.25,22.948C478.857,356.83,477.587,381.133,457.349,381.133Zm-.169-54.957c-5.674,0-9.738,4.149-9.738,22.864-.085,19.561,4.4,22.948,9.908,22.948,6.182,0,9.823-4.742,9.823-22.948C467.172,329.478,462.768,326.175,457.179,326.175Z" transform="translate(23.238 -82.608)" fill="#fff"/>
        <path id="パス_4081" data-name="パス 4081" d="M475.518,381.133c-17.021,0-21.678-16.513-21.678-29.215,0-6.52.593-34.888,22.694-34.888a18.772,18.772,0,0,1,13.21,5.165c3.387,3.218,4.4,5.928,5.5,11.516H484.071a7.623,7.623,0,0,0-7.791-7.282c-9.061,0-10.416,10.839-11.432,19.138,3.218-5.589,9.23-6.6,12.617-6.6,10.331,0,18.714,8.553,18.714,19.984C496.18,369.108,489.067,381.133,475.518,381.133Zm0-32.856c-6.69,0-10.162,5.928-10.162,11.686,0,6.436,3.98,11.093,9.738,11.093,5.166,0,9.569-3.98,9.569-11.178C484.663,353.273,481.107,348.277,475.518,348.277Z" transform="translate(56.046 -82.608)" fill="#fff"/>
        <path id="パス_4082" data-name="パス 4082" d="M471.24,339.472V329.48h21.17v9.992Z" transform="translate(87.76 -59.916)" fill="#fff"/>
        <path id="パス_4083" data-name="パス 4083" d="M498.207,379.236V336.219H481.44v-8.045h4.911a13.813,13.813,0,0,0,13.464-10.754h9.145v61.816Z" transform="translate(106.351 -81.897)" fill="#fff"/>
        <path id="パス_4084" data-name="パス 4084" d="M523.647,351.461c-4.827,12.025-5.589,20.408-6.351,27.775H505.525c.423-5.674.932-12.533,5.843-25.4,5.758-15.242,11.347-20.662,17.7-26.759l-3.811.423H494.94V317.42h45.219V327.5C534.994,332.578,528.727,338.675,523.647,351.461Z" transform="translate(130.957 -81.897)" fill="#fff"/>
        <path id="パス_4085" data-name="パス 4085" d="M534.119,381.133c-19.646,0-21.509-23.033-21.509-30.993,0-10.162,1.778-33.11,21.509-33.11a18.281,18.281,0,0,1,16.259,9.061c4.234,6.774,5.25,14.988,5.25,22.948C555.627,356.83,554.357,381.133,534.119,381.133Zm-.169-54.957c-5.674,0-9.738,4.149-9.738,22.864-.085,19.561,4.4,22.948,9.908,22.948,6.182,0,9.823-4.742,9.823-22.948C543.942,329.478,539.538,326.175,533.949,326.175Z" transform="translate(163.164 -82.608)" fill="#fff"/>
        <path id="パス_4086" data-name="パス 4086" d="M280.991,390.727a30.183,30.183,0,0,1,0-40.477l3.218,2.823a26.226,26.226,0,0,0,0,34.8Z" transform="translate(-273.2 -22.059)" fill="#fff"/>
        <path id="パス_4087" data-name="パス 4087" d="M295.16,357v26.081h-5.7V357H278.45V352.17h27.719V357Z" transform="translate(-263.631 -18.559)" fill="#fff"/>
        <path id="パス_4088" data-name="パス 4088" d="M289.89,383.078V352.17h23.372V357h-17.7v7.649h16.343v4.432H295.564v9.145h18.376v4.827H289.89Z" transform="translate(-242.78 -18.559)" fill="#fff"/>
        <path id="パス_4089" data-name="パス 4089" d="M300.44,383.078V352.17h5.7v26.081h17.134v4.827H300.44Z" transform="translate(-223.551 -18.559)" fill="#fff"/>
        <path id="パス_4090" data-name="パス 4090" d="M315.932,365.224a4.742,4.742,0,1,1,4.742-4.742A4.734,4.734,0,0,1,315.932,365.224Z" transform="translate(-203.957 -12.052)" fill="#fff"/>
        <path id="パス_4091" data-name="パス 4091" d="M323.772,357.015V365H338.45v4.827H323.772v13.238h-5.7V352.16H340v4.827h-16.23Z" transform="translate(-191.417 -18.578)" fill="#fff"/>
        <path id="パス_4092" data-name="パス 4092" d="M350.881,383.078l-2.286-6.633H335.611l-2.286,6.633H327.03l11.855-30.908h6.464L357.2,383.078Zm-8.1-23.315-.677-2.71-.706,2.71-4.121,11.883h9.654Z" transform="translate(-175.086 -18.559)" fill="#fff"/>
        <path id="パス_4093" data-name="パス 4093" d="M359.607,383.078l-7.057-12.194-7.057,12.194H338.55l10.444-16.569-9.258-14.339h6.718l6.1,10.246,6.1-10.246h6.69l-9.23,14.339,10.416,16.569Z" transform="translate(-154.089 -18.559)" fill="#fff"/>
        <path id="パス_4094" data-name="パス 4094" d="M381.647,376.356a20.309,20.309,0,0,1-9.879,7.452l-3.133-4.375a14.124,14.124,0,0,0,7.621-4.516A13.348,13.348,0,0,0,379.3,366.5a9.913,9.913,0,0,0-3.048-7.4,10.774,10.774,0,0,0-7.2-2.823c-1.355,10.077-3.839,16-5.25,18.827-1.27,2.625-3.218,6.182-5.42,6.182-1.524,0-8.468-3.811-8.468-11.4a18.249,18.249,0,0,1,18.658-17.952c8.807,0,15.75,5.984,15.75,15.412A15.761,15.761,0,0,1,381.647,376.356Zm-22.779-16.315a13.957,13.957,0,0,0-4.234,9.4c0,3.415,1.948,5.194,2.71,5.194,2.2,0,5.843-11.065,6.69-17.642A12.577,12.577,0,0,0,358.868,360.041Z" transform="translate(-133.365 -18.979)" fill="#fff"/>
        <path id="パス_4095" data-name="パス 4095" d="M397.021,387.427a36.584,36.584,0,0,1-14.593-4.4,35.719,35.719,0,0,1-7.452,3.077,33.357,33.357,0,0,1-7.96,1.524l-2.286-4.093a34.132,34.132,0,0,0,13.633-3.133,25.512,25.512,0,0,1-4.855-4.855l2.286-2.089h-4.742v-3.98h20.859l2.117,2.23a28.684,28.684,0,0,1-7.48,8.637,37.565,37.565,0,0,0,12.42,3.049ZM395.3,371.62v-4.742H369.105V371.7h-4.319v-8.722h6.266a12.987,12.987,0,0,0-2.71-3.331l3.3-2.2c-.762,0-1.609,0-2.456-.028L367.3,353.3c1.3.085,2.936.226,5.532.226,7.452,0,16.456-1.44,20.1-2.6l3.161,3.218c.169.169.677.706.677,1.1,0,.169-.113.254-.282.254s-.875-.169-1.073-.169a11.566,11.566,0,0,0-1.722.311,124.985,124.985,0,0,1-12.617,1.44,20.783,20.783,0,0,1,3.161,4.6l-1.524,1.3h4.036a24.3,24.3,0,0,0,3.331-6.718l4.29,1.5c.113.028.847.339.847.677,0,.31-.423.339-.508.339-.423.085-.48.085-.649.254-.593.847-1.835,2.456-3.133,3.98h8.666v8.637H395.3ZM377.263,359l2.653-1.863c-3.585.254-5.5.282-7.875.282a25.348,25.348,0,0,1,3.359,4.488l-1.242,1.073h5.815A11.978,11.978,0,0,0,377.263,359Zm.113,14.452a20.447,20.447,0,0,0,4.94,4.6,19.947,19.947,0,0,0,4.742-4.6Z" transform="translate(-106.372 -20.82)" fill="#fff"/>
        <path id="パス_4096" data-name="パス 4096" d="M393.481,353.713c-.508.085-.593.113-.677.282a46.547,46.547,0,0,1-2.738,5.928c.677.339.96.48.96.762,0,.226-.113.339-.423.508-.423.339-.48.4-.48.508v25.912h-5V368.08a15.951,15.951,0,0,1-1.948,2.456l-4.008-3.415a37.312,37.312,0,0,0,9.117-16.23l4.742,1.553c.339.113,1.073.339,1.073.819C394.074,353.543,393.9,353.628,393.481,353.713Zm18.94,11.262v18.347c0,3.133-1.552,4.573-4.488,4.573h-3.472l-1.778-5.137c.367.056,2.23.226,2.653.226,1.27,0,1.863-.169,1.863-1.948V364.975H392.662v-4.686H407.2v-9.315l5.024.339c.677.056,1.073.169,1.073.508,0,.169-.113.282-.423.536-.339.31-.48.48-.48.649v7.283H417.3v4.686h-4.883Zm-12.956,13.916a30.354,30.354,0,0,0-5.081-8.581l4.657-2.936a44.866,44.866,0,0,1,5.109,8.891Z" transform="translate(-80.052 -20.892)" fill="#fff"/>
        <path id="パス_4097" data-name="パス 4097" d="M403.056,380.641v-1.383H399.3v3.048H395.04V354.418H407.4v26.251h-4.347Zm0-22.073H399.3v6.012h3.754Zm0,10.246H399.3v6.238h3.754Zm23.654-1.806v4.065h4.516v3.98H426.71v8.468c0,3.331-1.835,4.121-7.2,4.149l-2.061-5.053a25.683,25.683,0,0,0,2.794.169c.931,0,1.722-.169,1.722-1.5v-6.266H408.9v-3.98h13.069v-4.065H408.814V363h8.242v-3.415H410V355.6h7.057V350.89l5.194.254c.282,0,.565.113.565.48a.823.823,0,0,1-.423.593c-.423.339-.508.339-.508.565V355.6h7.762v3.98h-7.762V363h9.541v3.98H426.71ZM415,383.125a26.874,26.874,0,0,0-4.911-4.657l2.682-3.133a30.627,30.627,0,0,1,5,4.573Z" transform="translate(-51.127 -20.892)" fill="#fff"/>
        <path id="パス_4098" data-name="パス 4098" d="M415.213,364.79v22.045H410.64V351.27H426.5v13.52Zm6.746-10.162h-6.746v1.919h6.746Zm0,4.77h-6.746v2.089h6.746Zm1.976,22.412v1.5h-4.347V367.218h17.021v14.593Zm8.3-11.319h-8.3v2.286h8.3Zm0,5.589h-8.3v2.4h8.3Zm8.722,10.839h-2.032l-2.286-4.657a21.432,21.432,0,0,0,2.456.169c.762,0,1.524-.169,1.524-1.637v-16H429.1V351.27h16.089v30.654C445.189,385.65,444.06,386.92,440.955,386.92Zm-.339-32.291H433.7v1.919h6.916Zm0,4.77H433.7v2.089h6.916Z" transform="translate(-22.693 -20.2)" fill="#fff"/>
        <path id="パス_4099" data-name="パス 4099" d="M429.42,352.68,447.6,366.088,429.42,379.552Z" transform="translate(11.537 -17.63)" fill="#fff"/>
        <path id="パス_4100" data-name="パス 4100" d="M461.407,374.014v12.307H456.1V374.014H440.66V369.47H456.1V355.723H442.325v-4.4h33.053v4.4h-14V369.47h15.355v4.544Zm-12.363-6.182a37.7,37.7,0,0,0-4.121-8.807l4.234-1.863a28.735,28.735,0,0,1,4.008,8.976Zm23.71-8.214c-.706.282-.847.367-.96.677a47.51,47.51,0,0,1-3.387,7.96l-4.149-1.75c1.355-3.048,2.625-6.238,3.754-9.428l4.234,1.411c.282.085.79.282.79.677A.5.5,0,0,1,472.754,359.619Z" transform="translate(32.023 -20.109)" fill="#fff"/>
        <path id="パス_4101" data-name="パス 4101" d="M477.6,384.4v-2.2h-16v2.4H456.54V351.8h26v32.6H477.6Zm0-27.944h-16V364.5h16Zm0,12.448h-16V377.6h16Z" transform="translate(60.967 -19.234)" fill="#fff"/>
        <path id="パス_4102" data-name="パス 4102" d="M476.643,383.06V361.551H468.26v-4.008h2.456a6.9,6.9,0,0,0,6.718-5.363h4.573v30.908h-5.363Z" transform="translate(82.329 -18.541)" fill="#fff"/>
        <path id="パス_4103" data-name="パス 4103" d="M487.454,384.017c-9.823,0-10.754-11.516-10.754-15.5,0-5.081.875-16.541,10.754-16.541a9.146,9.146,0,0,1,8.129,4.516c2.117,3.387,2.625,7.508,2.625,11.488C498.209,371.88,497.588,384.017,487.454,384.017Zm-.085-27.464c-2.823,0-4.855,2.061-4.855,11.432-.057,9.766,2.2,11.46,4.94,11.46,3.077,0,4.911-2.371,4.911-11.46C492.366,358.19,490.164,356.553,487.37,356.553Z" transform="translate(97.712 -18.906)" fill="#fff"/>
        <path id="パス_4104" data-name="パス 4104" d="M487.73,359.233V353.39H493.4v5.843Zm0,16.936v-5.843H493.4v5.843Z" transform="translate(117.816 -16.336)" fill="#fff"/>
        <path id="パス_4105" data-name="パス 4105" d="M503.894,384.017c-9.823,0-10.754-11.516-10.754-15.5,0-5.081.875-16.541,10.754-16.541a9.146,9.146,0,0,1,8.129,4.516c2.117,3.387,2.625,7.508,2.625,11.488C514.649,371.88,514.028,384.017,503.894,384.017Zm-.085-27.464c-2.823,0-4.855,2.061-4.855,11.432-.056,9.766,2.2,11.46,4.94,11.46,3.077,0,4.911-2.371,4.911-11.46C508.806,358.19,506.6,356.553,503.81,356.553Z" transform="translate(127.677 -18.906)" fill="#fff"/>
        <path id="パス_4106" data-name="パス 4106" d="M512.534,384.017c-9.823,0-10.754-11.516-10.754-15.5,0-5.081.875-16.541,10.754-16.541a9.147,9.147,0,0,1,8.129,4.516c2.117,3.387,2.625,7.508,2.625,11.488C523.289,371.88,522.64,384.017,512.534,384.017Zm-.085-27.464c-2.823,0-4.855,2.061-4.855,11.432-.028,9.766,2.2,11.46,4.94,11.46,3.077,0,4.911-2.371,4.911-11.46C517.446,358.19,515.244,356.553,512.45,356.553Z" transform="translate(143.424 -18.906)" fill="#fff"/>
        <path id="パス_4107" data-name="パス 4107" d="M545.908,361.114a10.85,10.85,0,0,1-8.411,4.234,9.913,9.913,0,0,1-2.766-.339,40.012,40.012,0,0,1-6.436-2.343c-4.488-2-6.125-2.2-7.4-2.2-3.02,0-4.319,2.6-5.73,5.335l-4.149-2.089c2.371-3.9,4.827-7.762,9.428-7.762,2.625,0,6.605,1.552,9.315,2.71,2.2.96,5.786,2.427,7.9,2.427,3.952,0,5.335-3.415,6.153-5.476l4.065,2.032A14.777,14.777,0,0,1,545.908,361.114Z" transform="translate(160.266 -12.289)" fill="#fff"/>
        <path id="パス_4108" data-name="パス 4108" d="M534.293,383.06V361.551H525.91v-4.008h2.456a6.9,6.9,0,0,0,6.718-5.363h4.573v30.908h-5.363Z" transform="translate(187.405 -18.541)" fill="#fff"/>
        <path id="パス_4109" data-name="パス 4109" d="M545.259,384.017c-8.5,0-10.839-8.242-10.839-14.593,0-3.274.31-17.444,11.347-17.444a9.4,9.4,0,0,1,6.605,2.6c1.694,1.609,2.2,2.964,2.766,5.758h-5.589a3.821,3.821,0,0,0-3.9-3.641c-4.516,0-5.194,5.42-5.7,9.569a7.075,7.075,0,0,1,6.294-3.3c5.166,0,9.371,4.262,9.371,9.992C555.59,378.005,552.033,384.017,545.259,384.017Zm0-16.428c-3.331,0-5.081,2.964-5.081,5.843,0,3.218,2,5.532,4.855,5.532,2.6,0,4.8-2,4.8-5.589C549.832,370.1,548.053,367.589,545.259,367.589Z" transform="translate(202.916 -18.906)" fill="#fff"/>
        <path id="パス_4110" data-name="パス 4110" d="M545.38,359.233V353.39h5.674v5.843Zm0,16.936v-5.843h5.674v5.843Z" transform="translate(222.893 -16.336)" fill="#fff"/>
        <path id="パス_4111" data-name="パス 4111" d="M561.554,384.017c-9.823,0-10.754-11.516-10.754-15.5,0-5.081.875-16.541,10.754-16.541a9.146,9.146,0,0,1,8.129,4.516c2.117,3.387,2.625,7.508,2.625,11.488C572.308,371.88,571.659,384.017,561.554,384.017Zm-.084-27.464c-2.823,0-4.855,2.061-4.855,11.432-.028,9.766,2.2,11.46,4.94,11.46,3.077,0,4.911-2.371,4.911-11.46C566.466,358.19,564.264,356.553,561.47,356.553Z" transform="translate(232.771 -18.906)" fill="#fff"/>
        <path id="パス_4112" data-name="パス 4112" d="M570.194,384.017c-9.823,0-10.754-11.516-10.754-15.5,0-5.081.875-16.541,10.754-16.541a9.146,9.146,0,0,1,8.129,4.516c2.117,3.387,2.625,7.508,2.625,11.488C580.949,371.88,580.3,384.017,570.194,384.017Zm-.085-27.464c-2.823,0-4.855,2.061-4.855,11.432-.028,9.766,2.2,11.46,4.94,11.46,3.077,0,4.911-2.371,4.911-11.46C575.106,358.19,572.9,356.553,570.11,356.553Z" transform="translate(248.519 -18.906)" fill="#fff"/>
        <path id="パス_4113" data-name="パス 4113" d="M571.758,390.709l-3.218-2.823a26.226,26.226,0,0,0,0-34.8l3.218-2.823c2.484,3.048,7.791,9.484,7.791,20.238A29.972,29.972,0,0,1,571.758,390.709Z" transform="translate(265.105 -22.041)" fill="#fff"/>
        <path id="パス_4114" data-name="パス 4114" d="M329.1,412.132h-7.734l-4.347-18.065-.847-6.436-.79,6.436-4.347,18.065H303.3L294.44,381.76H302l4.573,18.065.847,6.266.96-6.266,4.46-18.065h6.718l4.46,18.065.96,6.266.847-6.266L330.4,381.76h7.565Z" transform="translate(-234.487 35.373)" fill="#fff"/>
        <path id="パス_4115" data-name="パス 4115" d="M325.576,413.34c-10.275,0-14.4-7.565-14.4-15.581,0-11.686,8.073-16.259,15.355-16.259a13.536,13.536,0,0,1,9.879,3.782c2.484,2.427,2.992,4.4,3.387,7.79H332.35a5.784,5.784,0,0,0-5.871-5.645c-3.9,0-7.847,3.331-7.847,9.936,0,3.952,1.411,9.936,7.113,9.936,5.363,0,6.21-4.516,6.492-5.984h7.621C339.181,404.138,337.036,413.34,325.576,413.34Z" transform="translate(-203.975 34.899)" fill="#fff"/>
        <path id="パス_4116" data-name="パス 4116" d="M335.429,413.34c-2.145,0-6.661-.4-9.823-3.557-1.75-1.75-2.427-3.274-2.766-7.113h7.452c.226,1.468.847,4.742,5.476,4.742.621,0,4.347,0,4.347-2.992,0-2.089-1.524-2.766-6.323-4.46-6.21-2.258-10.387-3.726-10.387-9.258,0-5.081,4.855-9.2,11.8-9.2,2.54,0,6.153.508,8.863,3.161,1.863,1.863,2.427,3.444,2.766,6.887h-7.452c-.169-2.2-1.129-4.121-4.347-4.121-2.992,0-4.178,1.694-4.178,2.823,0,1.524,1.411,2.032,3.782,2.936,7.565,2.879,7.847,3.048,9.6,4.234a7.827,7.827,0,0,1,3.387,6.492C347.623,409.84,342.034,413.34,335.429,413.34Z" transform="translate(-182.723 34.899)" fill="#fff"/>
        <path id="パス_4117" data-name="パス 4117" d="M365.12,410.742a7.415,7.415,0,0,1-6.1-3.331,9.712,9.712,0,0,1-6.944,3.161c-5.532,0-8.242-4.573-8.242-9.541,0-7.9,6.21-13.831,11.291-13.831,3.274,0,4.855,2.371,5.758,3.669.226-1.073.4-1.863.677-2.936h5.307c-1.863,7.226-3.444,15.468-3.444,16.033,0,1.355,1.129,1.919,2.371,1.919,3.218,0,4.573-4.46,4.573-8.355,0-11.46-8.863-14.565-15.242-14.565-10.444,0-15.638,7.9-15.638,16.033,0,6.605,3.726,16.089,16.089,16.089a21.435,21.435,0,0,0,14.621-5.081l3.218,4.234c-3.5,2.54-8.524,6.153-18.009,6.153-15.694,0-22.13-11.855-22.13-21.4,0-11.178,8.186-21.339,21.452-21.339,11.742,0,20.775,7.79,20.775,19.646C375.507,406.846,369.354,410.742,365.12,410.742Zm-9.71-18.855c-3.331,0-6.1,4.8-6.1,9.484,0,4.008,1.976,4.911,3.557,4.911a6.311,6.311,0,0,0,5.137-3.557c.508-.9.621-1.411,1.581-5.758C359.361,393.41,357.1,391.886,355.41,391.886Z" transform="translate(-163.694 27.9)" fill="#fff"/>
        <path id="パス_4118" data-name="パス 4118" d="M365.741,388.952c-5.25,0-8.129,3.613-8.129,7.339v16.315H350.16V382.234h7.452v2.2l-.565,4.46c3.048-5.476,5.081-7.226,11.291-7.4v7.452Z" transform="translate(-132.928 34.899)" fill="#fff"/>
        <path id="パス_4119" data-name="パス 4119" d="M365.092,399.621c.282,1.524,1.411,7.678,7.4,7.678a5.546,5.546,0,0,0,5.532-3.669h7.508c-.96,2.54-3.557,9.71-13.436,9.71-8.242,0-14.452-5.476-14.452-15.863,0-10.839,6.718-15.976,14.226-15.976a12.958,12.958,0,0,1,11.178,5.758c2.6,3.952,2.879,8.073,3.048,12.363h-21Zm6.831-12.025c-5.532,0-6.492,5.25-6.831,7.17H378.02C377.85,390.024,375.649,387.6,371.923,387.6Z" transform="translate(-119.294 34.899)" fill="#fff"/>
        <path id="パス_4120" data-name="パス 4120" d="M405.378,412.606v-18.46c0-3.557-1.016-6.379-4.686-6.379-4.234,0-5.758,4.008-5.758,6.379v18.46h-7.452v-18.46c0-2.371-.677-6.266-4.855-6.266-3.9,0-5.476,3.782-5.476,5.815v18.912H369.7V382.234h7.452v1.637l-.226,2.71c1.3-2.032,3.161-5.081,8.524-5.081,5.137,0,7.057,2.823,8.524,5.024,1.637-1.919,4.29-5.024,9.654-5.024,6.887,0,9.2,5.137,9.2,11.742v19.363h-7.452Z" transform="translate(-97.313 34.899)" fill="#fff"/>
        <path id="パス_4121" data-name="パス 4121" d="M402.85,413.34c-11.742,0-15.75-8.242-15.75-15.694,0-10.105,7.282-16.146,15.92-16.146,10.105,0,15.863,7.226,15.863,16.033C418.883,405.323,414.141,413.34,402.85,413.34Zm.169-25.912c-4.178,0-8.3,3.274-8.3,9.936,0,5.758,3.161,10.049,8.524,10.049,7,0,8.073-6.21,8.073-9.992C411.318,390.476,407.2,387.428,403.02,387.428Z" transform="translate(-65.599 34.899)" fill="#fff"/>
        <path id="パス_4122" data-name="パス 4122" d="M411.229,393.248v16.767c0,1.355.564,1.976,1.863,1.976h3.218v5.645h-4.573c-5.928,0-7.96-2.371-7.96-7.17V393.248H399.6v-5.984h4.177V378.74h7.452v8.524h5.25v5.984Z" transform="translate(-42.815 29.869)" fill="#fff"/>
        <path id="パス_4123" data-name="パス 4123" d="M414.112,399.621c.282,1.524,1.411,7.678,7.4,7.678a5.546,5.546,0,0,0,5.532-3.669h7.508c-.96,2.54-3.557,9.71-13.436,9.71-8.242,0-14.452-5.476-14.452-15.863,0-10.839,6.718-15.976,14.226-15.976a12.958,12.958,0,0,1,11.178,5.758c2.6,3.952,2.879,8.073,3.048,12.363h-21Zm6.831-12.025c-5.532,0-6.492,5.25-6.831,7.17H427.04C426.87,390.024,424.669,387.6,420.943,387.6Z" transform="translate(-29.947 34.899)" fill="#fff"/>
        <path id="パス_4124" data-name="パス 4124" d="M418.3,392.621V385.96h14.113v6.661Z" transform="translate(-8.731 43.028)" fill="#fff"/>
        <path id="パス_4125" data-name="パス 4125" d="M432.332,399.621c.282,1.524,1.411,7.678,7.4,7.678a5.545,5.545,0,0,0,5.532-3.669h7.508c-.96,2.54-3.557,9.71-13.436,9.71-8.242,0-14.452-5.476-14.452-15.863,0-10.839,6.718-15.976,14.226-15.976a12.958,12.958,0,0,1,11.178,5.758c2.6,3.952,2.879,8.073,3.048,12.363h-21Zm6.831-12.025c-5.532,0-6.492,5.25-6.831,7.17H445.26C445.09,390.024,442.889,387.6,439.163,387.6Z" transform="translate(3.262 34.899)" fill="#fff"/>
        <path id="パス_4126" data-name="パス 4126" d="M453.172,412.132h-7.452L436.18,381.76h7.791l4.573,16.484.9,4.968.9-4.968,4.573-16.484h7.791Z" transform="translate(23.858 35.373)" fill="#fff"/>
        <path id="パス_4127" data-name="パス 4127" d="M454.252,399.621c.282,1.524,1.411,7.678,7.4,7.678a5.545,5.545,0,0,0,5.532-3.669h7.508c-.96,2.54-3.557,9.71-13.436,9.71-8.242,0-14.452-5.476-14.452-15.863,0-10.839,6.718-15.976,14.226-15.976a12.958,12.958,0,0,1,11.178,5.758c2.6,3.952,2.879,8.073,3.049,12.363h-21Zm6.831-12.025c-5.532,0-6.492,5.25-6.831,7.17H467.18C467.01,390.024,464.809,387.6,461.083,387.6Z" transform="translate(43.214 34.899)" fill="#fff"/>
        <path id="パス_4128" data-name="パス 4128" d="M477.87,412.606V393.412c0-3.387-1.411-5.645-5.137-5.645-3.049,0-6.662,1.524-6.662,7.113v17.726H458.62V382.234h7.452v2.54l-.282,2.6c1.186-2.089,3.444-5.871,9.371-5.871,6.436,0,10.161,3.839,10.161,10.726v20.38Z" transform="translate(64.758 34.899)" fill="#fff"/>
        <path id="パス_4129" data-name="パス 4129" d="M481.109,393.248v16.767c0,1.355.565,1.976,1.863,1.976h3.218v5.645h-4.573c-5.928,0-7.96-2.371-7.96-7.17V393.248H469.48v-5.984h4.178V378.74h7.452v8.524h5.25v5.984Z" transform="translate(84.552 29.869)" fill="#fff"/>
        <path id="パス_4130" data-name="パス 4130" d="M477.26,397.55V389.76h7.621v7.791Z" transform="translate(98.733 49.955)" fill="#fff"/>
        <path id="パス_4131" data-name="パス 4131" d="M485.337,426.7H481.78v-6.1h3.049a3.232,3.232,0,0,0,3.5-3.5v-28.34h7.452v29.807C495.78,424.438,492.28,426.7,485.337,426.7Zm2.992-41.437V377.92h7.452v7.339Z" transform="translate(106.971 28.374)" fill="#fff"/>
        <path id="パス_4132" data-name="パス 4132" d="M504.8,413.34a9.337,9.337,0,0,1-6.661-2.653,9.476,9.476,0,0,1-1.976-2.936l.452,5.758v6.661H489.16V382.234h7.452v1.919l-.282,2.427c1.073-1.976,2.823-5.081,8.073-5.081,8.581,0,12.194,7.621,12.194,15.355C516.6,405.041,512.532,413.34,504.8,413.34Zm-1.694-25.46c-4.46,0-6.492,5.137-6.492,9.541,0,3.839.79,9.71,6.153,9.71,4.911,0,6.379-5.984,6.379-10.105C509.144,392.734,507.507,387.879,503.1,387.879Z" transform="translate(120.422 34.899)" fill="#fff"/>
        <path id="パス_4133" data-name="パス 4133" d="M508.268,413.548a24.086,24.086,0,0,1,0-32.348l2.569,2.258a20.983,20.983,0,0,0,0,27.831Z" transform="translate(143.88 34.352)" fill="#fff"/>
        <path id="パス_4134" data-name="パス 4134" d="M506.33,407.72c.621-4.4,2.145-7.028,7.734-11.15,3.613-2.625,4.714-4.008,4.714-6.153a3.877,3.877,0,0,0-3.867-4.093c-3.415,0-3.528,3.557-3.556,5.391h-4.291c.057-2.2.339-9.145,7.988-9.145,5.081,0,8.355,3.528,8.355,7.847,0,3.952-2.823,6.21-6.012,8.44-3.3,2.315-4.149,3.246-5.222,5.307H523.6v3.556Z" transform="translate(151.717 36.85)" fill="#fff"/>
        <path id="パス_4135" data-name="パス 4135" d="M527.863,402.15v5.278H523.4V402.15H513.1v-3.557l9.738-15.863h5.025v16.146h3.3v3.274Zm-4.968-14.226-6.153,10.02-.96,1.157.96-.226H523.4v-10.19l.169-2.23Z" transform="translate(164.057 37.141)" fill="#fff"/>
        <path id="パス_4136" data-name="パス 4136" d="M527.146,405.5v-1.129h-3.02v2.427H520.71v-22.3h9.879v21Zm0-17.642h-3.02v4.8h3.02Zm0,8.186h-3.02v4.968h3.02Zm18.912-1.468v3.246h3.613v3.19h-3.613v6.774c0,2.682-1.468,3.274-5.758,3.331l-1.665-4.036a20.139,20.139,0,0,0,2.23.141c.734,0,1.383-.141,1.383-1.186v-5.024H531.775v-3.19h10.472v-3.246H531.718v-3.19h6.605v-2.738h-5.645v-3.19h5.645V381.7l4.178.2c.226,0,.451.113.451.367a.7.7,0,0,1-.339.48c-.339.282-.4.282-.4.452v2.258H548.4v3.19h-6.182v2.738h7.621v3.19Zm-9.371,12.9a21.921,21.921,0,0,0-3.923-3.726l2.117-2.512a25.823,25.823,0,0,1,4.008,3.641Z" transform="translate(177.927 35.264)" fill="#fff"/>
        <path id="パス_4137" data-name="パス 4137" d="M536.869,392.793v17.642H533.2V382.01h12.7v10.811h-9.033Zm5.363-8.129h-5.391v1.524h5.391Zm0,3.839h-5.391v1.665h5.391Zm1.609,17.9v1.186h-3.5V394.712h13.605V406.4H543.841Zm6.633-9.032h-6.633V399.2h6.633Zm0,4.488h-6.633v1.919h6.633Zm6.972,8.665h-1.637l-1.835-3.726c.565.056,1.3.141,1.976.141.621,0,1.214-.141,1.214-1.327V392.821h-9.2V382.01h12.871v24.5C560.834,409.5,559.931,410.519,557.447,410.519Zm-.282-25.855h-5.5v1.524h5.5Zm0,3.839h-5.5v1.665h5.5Z" transform="translate(200.692 35.829)" fill="#fff"/>
        <path id="パス_4138" data-name="パス 4138" d="M559.643,390.065a40,40,0,0,1-3.1,10.218c1.044,1.694,2.2,3.557,3.754,6.633l-3.557,2.173a47.782,47.782,0,0,0-2.343-4.968,29.192,29.192,0,0,1-6.125,6.944l-3.528-2.315a28.512,28.512,0,0,0,7.424-8.27,31.019,31.019,0,0,0-5.448-6.295l3.02-2.2a24.974,24.974,0,0,1,4.29,4.77,30.7,30.7,0,0,0,1.75-6.718h-9.71v-3.444h6.1v-4.742l4.262.282c.169,0,.452.113.452.367,0,.339-.31.4-.677.79v3.331h6.153v3.444h-2.71Zm3.274,13.21a17.218,17.218,0,0,0-2.71-5.391l3.274-1.835a15.535,15.535,0,0,1,2.907,5.561Zm9.258-9v12.674c0,3.585-1.073,4.008-5.645,4.065l-1.835-3.641c3.5.2,3.754-.028,3.754-1.214V394.3h-7.593v-3.444h7.593V381.71l3.782.2c.282,0,.79.113.79.508a.673.673,0,0,1-.31.508c-.48.4-.536.48-.536.677v7.254h2.907V394.3h-2.908Z" transform="translate(221.726 35.282)" fill="#fff"/>
        <path id="パス_4139" data-name="パス 4139" d="M563.376,388.992a46.3,46.3,0,0,1,.2,4.742c0,10.811-1.242,14.48-2.71,17.67l-3.923-1.214c1.524-3.049,2.851-6.351,2.851-13.944,0-.536-.028-5.786-.536-10.7h11.234V381.71l4.291.282c.96.056,1.044.2,1.044.48,0,.113-.028.282-.4.48-.282.169-.451.226-.451.4v2.2h12.448v3.444H563.376Zm5.815,9.766c-.282.339-.339.4-.367.565-.734,4.911-.96,6.464-2.089,9.23l-3.726-1.411a30.144,30.144,0,0,0,2.089-9.879l3.415.706c.311.057.819.169.819.508A.387.387,0,0,1,569.19,398.759Zm8.948,12.335h-5.928c-1.863,0-2.512-1.581-2.512-3.02V394.186l3.839.169c.677.028,1.214.141,1.214.48,0,.2-.113.282-.508.621a.518.518,0,0,0-.2.4v9.71c0,1.186.2,1.637,1.044,1.637H576.5a1.225,1.225,0,0,0,1.242-1.214c.028-.113.028-2.258.028-2.569l3.726,1.411C581.271,408.186,580.989,411.094,578.138,411.094Zm.2-13.69a24.423,24.423,0,0,0-5.589-5.561l2.879-2.851a36.843,36.843,0,0,1,5.956,5.815Zm5.9,11.516a45.794,45.794,0,0,0-4.093-9.823l3.726-1.976a49.09,49.09,0,0,1,4.4,10.246Z" transform="translate(243.962 35.282)" fill="#fff"/>
        <path id="パス_4140" data-name="パス 4140" d="M572.068,413.548l-2.568-2.258a20.983,20.983,0,0,0,0-27.831l2.568-2.258a24.086,24.086,0,0,1,0,32.348Z" transform="translate(266.855 34.353)" fill="#fff"/>
      </g>
      <path id="パス_4141" data-name="パス 4141" d="M330.553,330.345v34.832a3.9,3.9,0,0,1-3.9,3.9h-5.532a3.9,3.9,0,0,1-3.9-3.9V330.345a3.9,3.9,0,0,1,3.9-3.9h5.532a3.91,3.91,0,0,1,3.9,3.839Zm12.279-2.964h1.581v-2.54h2.258v-1.327h-2.258v-1.44h2.625v-1.327H342.8v6.633Zm4.516,0h1.609l.4-1.524H351.3l.4,1.524h1.665l-2.061-6.633h-1.891Zm2.456-3.331c.169-.649.339-1.44.508-2.117h.028c.169.677.339,1.468.536,2.117l.141.565h-1.355Zm3.613,3.331h1.694l.565-1.3c.141-.339.31-.706.452-1.1h.028c.169.423.339.762.48,1.1l.621,1.3h1.778L357.2,324.05l1.694-3.3H357.2l-.48,1.186a10.638,10.638,0,0,0-.423,1.073h-.028c-.2-.423-.339-.762-.48-1.073l-.536-1.186h-1.778l1.722,3.218Zm16.089,5.7v39.461a2.771,2.771,0,0,1-2.766,2.766h-39.4a2.771,2.771,0,0,1-2.766-2.766v-1.665h2.117a5.674,5.674,0,0,0,5.674-5.674v-34.86h2.4V316.57h26.731l.4.4.4.4,4.8,4.8.4.4.4.4V330.6A2.686,2.686,0,0,1,369.506,333.083Zm-24.642,32.686h-5.137v5.137h5.137Zm0-8.722h-5.137v5.137h5.137Zm0-8.722h-5.137v5.137h5.137Zm8.637,17.444h-5.137v5.137H353.5Zm0-8.722h-5.137v5.137H353.5Zm0-8.722h-5.137v5.137H353.5Zm8.637,17.444H357v5.137h5.137Zm0-8.722H357v5.137h5.137Zm0-8.722H357v5.137h5.137Zm0-13.634H339.727v10.472h22.412Zm4.911-11.8h-5.561V317.3H335.521v12.984h31.19a1.37,1.37,0,0,1,.339.028v-7.424Z" transform="translate(80.252 150.534)" fill="#fff"/>
      <path id="パス_4142" data-name="パス 4142" d="M313.966,381.11H280.828a5.764,5.764,0,0,0-5.758,5.758v21.339a5.764,5.764,0,0,0,5.758,5.758h33.138a5.764,5.764,0,0,0,5.758-5.758V386.868A5.783,5.783,0,0,0,313.966,381.11Zm-8.5,15.638,10.105-8.383v18.488Zm-26.251,10.077V388.336l10.105,8.383Zm2.569-21.593h31.19l-15.609,12.956Zm-.96,24.585a1.4,1.4,0,0,1-.762-.2L291.3,398.385l4.8,3.98a2,2,0,0,0,2.6,0l4.8-3.98,11.234,11.234a1.7,1.7,0,0,1-.762.2Z" transform="translate(3.408 268.168)" fill="#fff"/>
      <g id="グループ_584" data-name="グループ 584" transform="translate(525.941 701.469)">
        <path id="パス_4143" data-name="パス 4143" d="M363.643,421.087l-.9-.9,9.174-9.145-9.174-9.145.9-.9,9.145,9.174,9.145-9.174.9.9-9.174,9.145,9.174,9.145-.9.9-9.145-9.174Zm3.811-10.049a2.357,2.357,0,1,1-2.343-2.343A2.355,2.355,0,0,1,367.454,411.039Zm7.678-7.649a2.343,2.343,0,1,1-2.343-2.371A2.355,2.355,0,0,1,375.132,403.389Zm0,15.327a2.343,2.343,0,1,1-2.343-2.343A2.337,2.337,0,0,1,375.132,418.716Zm7.706-7.678a2.357,2.357,0,1,1-2.371-2.343A2.361,2.361,0,0,1,382.837,411.039Z" transform="translate(-362.74 -397.066)" fill="#fff"/>
        <path id="パス_4144" data-name="パス 4144" d="M396.622,424.214H383.271c-3.952,0-5.109-1.524-5.9-2.569-.762.649-1.468,1.327-2.173,2.032-.423.4-.508.48-.536.9-.028.31-.085.367-.226.367-.282,0-.621-.423-.734-.593l-1.722-2.794a24.28,24.28,0,0,0,4.008-2.4v-5.843h-3.444v-3.274h6.661v8.3c1.157-1.863,2.456-3.98,2.456-10.867,0-1.5-.056-2.823-.282-6.605h15.412v2.851H384.569V406.4h9.964l1.157,1.524a29.959,29.959,0,0,1-3.98,7.565,15.988,15.988,0,0,0,5.391,2.54l-2.54,2.569a17.139,17.139,0,0,1-4.77-2.879,14.755,14.755,0,0,1-5.137,3.415l-2.343-1.948c-.028.056-.282.48-.31.536l-2.794-.931c.282,1.863.819,2.879,6.916,2.879,4.093,0,9.428-.508,12.053-.762Zm-19.533-18.009a21.048,21.048,0,0,0-4.234-3.669l2.4-2.286a21.309,21.309,0,0,1,4.46,3.7Zm8.129,3.1h-.649a24.473,24.473,0,0,1-2.061,9.456,14.88,14.88,0,0,0,5.25-3.3A17.392,17.392,0,0,1,385.218,409.311Zm2.823,0a14.364,14.364,0,0,0,1.581,4.178,12.418,12.418,0,0,0,2.117-4.178Z" transform="translate(-345.899 -398.415)" fill="#fff"/>
        <path id="パス_4145" data-name="パス 4145" d="M391.067,402.147c-.508.2-.508.2-.706.649-.677,1.468-.79,1.665-1.694,3.415.282.169.621.367.621.677a.515.515,0,0,1-.141.31,1.519,1.519,0,0,0-.339.508v16.484h-3.077V410.53a13.69,13.69,0,0,1-1.411,1.75l-2.371-1.806a29.273,29.273,0,0,0,6.012-10.133l2.794.96c.254.113.593.226.593.536C391.349,402.005,391.237,402.09,391.067,402.147Zm-.226,5.024v-2.6H407.5v2.6Zm12.166,16.992v-.875h-7.932v.875h-3.218v-8.581h14.367v8.581Zm-10.021-20.605v-2.6h12.5v2.6Zm0,7.226v-2.6h12.5v2.6Zm0,3.585v-2.6h12.5v2.6Zm10.021,3.811h-7.932v2.512h7.932Z" transform="translate(-327.727 -398.251)" fill="#fff"/>
        <path id="パス_4146" data-name="パス 4146" d="M408.8,422.053a21.276,21.276,0,0,0-5.165-2.794c-.113,2.879-.79,4.008-4.4,4.008-3.9,0-6.323-1.383-6.323-3.669,0-.818.282-4.093,6.633-3.867l.79.028-.056-2.71c-.508.028-2.061.085-2.879.085-2.6,0-3.9-.931-3.9-2.032,0-1.383,1.919-2.71,3.02-3.5l1.609,1.383c-.508.367-.931.677-.931,1.044,0,.4.593.4,1.073.4a19.36,19.36,0,0,0,1.948-.056l-.056-3.528c-3.246.141-4.855.254-7.282.536l-.056-3.048c3.218,0,4.742-.056,7.254-.113l-.085-3.754,3.444.339c.536.056.706.141.706.339,0,.113-.056.141-.367.4a.918.918,0,0,0-.367.508c0,.028-.028.565-.056,2.032,3.613-.169,4.573-.226,7.226-.423l-.113,2.992c-3.133,0-5.758.056-7.17.085v3.331c2.456-.31,3.5-.48,6.1-.96v3.077a60.637,60.637,0,0,1-6.041.706c.056,1.411.056,1.694.141,3.359a23.468,23.468,0,0,1,7.141,3.19Zm-9.767-3.7c-1.835,0-2.738.48-2.738,1.214,0,.96,1.807.96,2.145.96,1.835,0,1.948-.508,1.919-2.089A7.313,7.313,0,0,0,399.03,418.355Z" transform="translate(-307.914 -398.032)" fill="#fff"/>
        <path id="パス_4147" data-name="パス 4147" d="M413.126,407.849c-2.089,2.089-3.444,4.629-3.444,6.774a4.479,4.479,0,0,0,2.032,3.669,8.891,8.891,0,0,0,4.968,1.44l-1.1,3.444a12.669,12.669,0,0,1-6.944-3.133,7.081,7.081,0,0,1-2.089-5.081,10.268,10.268,0,0,1,1.919-5.617,21.05,21.05,0,0,1,3.726-4.29c-3.782.31-7.932.649-10.754,1.044l-.48-3.161c6.1.056,14.847-.621,20.182-2.258v3.274C419.815,404.039,416.71,404.236,413.126,407.849Zm5.9,4.8a12.526,12.526,0,0,0-2.315-2.173l1.157-1.355a12.306,12.306,0,0,1,2.343,2.173Zm2.286-2.569a13.079,13.079,0,0,0-2.343-2.145l1.185-1.355a13.02,13.02,0,0,1,2.343,2.145Z" transform="translate(-293.078 -397.631)" fill="#fff"/>
        <path id="パス_4148" data-name="パス 4148" d="M414.642,421.5l-2.23.875a8.641,8.641,0,0,1-1.044-2.23,24.593,24.593,0,0,1-1.157-7.424,49.94,49.94,0,0,1,.423-5.561,55.636,55.636,0,0,1,1.186-6.436l2.879,1.044c.2.085.734.282.734.508a.334.334,0,0,1-.141.254c-.056.028-.423.169-.48.2-.423.254-1.637,5.363-1.637,9.625a15.525,15.525,0,0,0,.4,3.867c.339-.593.508-.875,1.129-1.976l1.665.9A25.045,25.045,0,0,0,414.642,421.5Zm10.105-.819c-5.137,0-6.21-1.383-6.295-6.153l3.077-.423c.028,2.682.31,3.444,3.161,3.444a23.021,23.021,0,0,0,6.436-.875v3.5A38.562,38.562,0,0,1,424.747,420.686Zm-2.258-14.48c-.226,0-1.524,0-3.02-.141v-3.1a24.87,24.87,0,0,0,3.613.31,19.717,19.717,0,0,0,6.69-1.157v3.274A37.9,37.9,0,0,1,422.488,406.206Z" transform="translate(-276.218 -397.54)" fill="#fff"/>
        <path id="パス_4149" data-name="パス 4149" d="M419.51,416.65a80.839,80.839,0,0,1,7.057-4.319l-.028-3.641a27.7,27.7,0,0,1-4.29.141l-.423-3.19a22.751,22.751,0,0,0,2.766.141c.706,0,1.129-.028,1.948-.085-.028-3.19-.028-3.444-.056-5.278l3.133.423c.79.113.79.31.79.452,0,.113-.423.452-.48.536-.113.169-.2,2.936-.226,3.472a17.914,17.914,0,0,0,4.347-1.468v3.218a24.607,24.607,0,0,1-4.4,1.214l-.028,2.794a15.63,15.63,0,0,1,4.347-.649c4.375,0,6.8,2.907,6.8,6.436,0,3.472-2.258,6.21-5.278,6.21-3.1,0-3.5-1.948-3.9-4.008l2.625-1.044c.339,1.157.565,1.891,1.44,1.891,1.016,0,2.173-1.016,2.173-2.992a3.7,3.7,0,0,0-3.924-3.754,12.651,12.651,0,0,0-4.29.988c-.028,4.488-.028,5-.056,8.44l-2.992,1.186c-1.214-1.3-1.919-2.061-4.488-4.77a11.392,11.392,0,0,0-.847.819Zm7.057-.988A28.948,28.948,0,0,0,424,417.384a23.723,23.723,0,0,0,2.569,2.653Zm14.508-5.024a16.418,16.418,0,0,0-5.561-3.218l1.835-2.484a20.762,20.762,0,0,1,5.561,3.19Z" transform="translate(-259.267 -398.105)" fill="#fff"/>
        <path id="パス_4150" data-name="パス 4150" d="M434.473,420.015v-.931h-2.512v2.032H429.11v-18.6h8.242v17.5h-2.879Zm0-14.678h-2.512v4.008h2.512Zm0,6.8h-2.512v4.149h2.512Zm15.779-1.214v2.71h3.02v2.653h-3.02v5.645c0,2.23-1.214,2.738-4.8,2.766l-1.383-3.359a17.338,17.338,0,0,0,1.863.113c.621,0,1.157-.113,1.157-.988v-4.178h-8.722v-2.653h8.722v-2.71h-8.778v-2.653h5.5v-2.286H439.1v-2.653h4.714V400.2l3.472.169c.2,0,.367.085.367.31a.559.559,0,0,1-.282.4c-.282.226-.339.226-.339.367v1.891H452.2v2.653h-5.165v2.286h6.351v2.653Zm-7.819,10.754a18.239,18.239,0,0,0-3.274-3.1l1.778-2.089a20.048,20.048,0,0,1,3.331,3.048Z" transform="translate(-241.77 -398.506)" fill="#fff"/>
        <path id="パス_4151" data-name="パス 4151" d="M442.568,409.482v14.706H439.52v-23.71H450.1v9Zm4.488-6.774h-4.488v1.27h4.488Zm0,3.19h-4.488v1.383h4.488Zm1.327,14.9v.988h-2.907V411.063h11.347V420.8h-8.44Zm5.532-7.537h-5.532v1.524h5.532Zm0,3.726h-5.532V418.6h5.532Zm5.815,7.226h-1.355l-1.524-3.1a14.422,14.422,0,0,0,1.637.113c.508,0,1.016-.113,1.016-1.1v-10.67h-7.678v-9h10.726v20.436C462.553,423.37,461.791,424.217,459.73,424.217Zm-.226-21.509h-4.6v1.27h4.6Zm0,3.19h-4.6v1.383h4.6Z" transform="translate(-222.796 -398.051)" fill="#fff"/>
        <path id="パス_4152" data-name="パス 4152" d="M463.52,414.292c0,1.1.056,4.6.056,5.561H460.3c.085-1.609.113-2.992.141-4.234-1.073.536-4.008,2-4.008,3.98,0,1.835,2.173,2.2,4.234,2.2a32.636,32.636,0,0,0,7.2-.9v3.19a46.715,46.715,0,0,1-6.718.423c-1.581,0-4.855,0-6.633-1.891a3.859,3.859,0,0,1-1.073-2.766c0-3.5,2.6-4.827,6.831-7a1.956,1.956,0,0,0-2.145-1.863c-2.766,0-4.46,2.569-6.012,5.109l-2.766-1.722a37.535,37.535,0,0,0,5.561-7.762c-1.609.085-2.484.113-3.669.113l-.339-2.935a39.719,39.719,0,0,0,5.391.113,21.88,21.88,0,0,0,1.411-3.754l3.528.621c.085.028.565.085.565.282,0,.169-.113.254-.282.311-.057.028-.621.282-.649.282-.028.028-.734,1.609-.875,1.919a23.831,23.831,0,0,0,5.532-1.44l-.2,3.161a59.431,59.431,0,0,1-6.746,1.073c-.9,1.665-1.129,2.061-1.609,2.794a5.458,5.458,0,0,1,2.427-.593,3.783,3.783,0,0,1,3.839,2.851c3.3-1.552,3.669-1.722,5-2.315l.96,3.218C466.964,413.021,465.609,413.5,463.52,414.292Z" transform="translate(-204.879 -398.598)" fill="#fff"/>
        <path id="パス_4153" data-name="パス 4153" d="M464.38,403.471v18.658c0,1.807-1.242,2.456-4.968,2.427l-1.468-3.613a12.214,12.214,0,0,0,1.919.141c.847,0,1.214-.141,1.214-1.016v-16.6H457.86v-3.048H467.2v3.048H464.38ZM479.99,424.5a16.5,16.5,0,0,1-5.222-3.726l1.383-1.411h-3.867l1.468,1.609a.986.986,0,0,1,.31.593c0,.2-.113.31-.423.31a2.3,2.3,0,0,1-.706-.141,26.816,26.816,0,0,1-5.307,2.992l-2.343-2.512a14.094,14.094,0,0,0,5.5-2.851h-2.512V405.137h3.557a15.556,15.556,0,0,0,.706-1.835h-4.46V400.31h14.17V403.3h-5.9a10.67,10.67,0,0,1-.96,1.835h5.5v14.226h-3.331a13.644,13.644,0,0,0,4.883,2.569Zm-1.976-16.654h-6.746V409.2h6.746Zm0,3.613h-6.746v1.383h6.746Zm0,3.641h-6.746v1.5h6.746Z" transform="translate(-189.368 -398.306)" fill="#fff"/>
        <path id="パス_4154" data-name="パス 4154" d="M492.426,423.457a1.936,1.936,0,0,1-1.835,1.355c-1.355,0-2.794-1.581-3.923-3.133a21.356,21.356,0,0,1-3.387,3.387L481.3,423.2l-1.327,1.581a12.441,12.441,0,0,1-3.867-2.653l1.552-1.778h-4.432l1.637,1.411a.746.746,0,0,1,.282.536c0,.141-.056.226-.339.226a3.182,3.182,0,0,1-.508-.085,21.855,21.855,0,0,1-4.206,2.907l-2.089-2.286a10.483,10.483,0,0,0,4.178-2.71h-4.008v-1.976h4.347v-.931h-3.218v-1.75h3.218v-.9H469.76v-6.238h12v6.238h-2.484v.9h3.3v1.75h-3.3v.931h4.516v1.976h-5.42a9.6,9.6,0,0,0,3.077,2.089,15.578,15.578,0,0,0,3.641-3.585,39.9,39.9,0,0,1-2.2-11.065H468.179v-2.456h5.928v-.988h-4.94v-2.371h4.94v-1.609l3.048.141c.339.028.706.056.706.339,0,.085-.085.169-.254.282-.226.141-.282.169-.282.254v.593h4.742v2.371h-4.742v.988h5.42c-.056-1.891-.056-3.246.028-5.165l3.048.282c.536.056.677.113.677.339a.207.207,0,0,1-.056.169,4.014,4.014,0,0,0-.565.4,23.339,23.339,0,0,0-.254,3.98h6.831v2.456H485.68a32.976,32.976,0,0,0,1.242,7.282,43.107,43.107,0,0,0,1.524-5.871l3.02.988c.169.056.593.2.593.48,0,.113-.056.169-.367.226-.4.085-.4.113-.508.508a35.392,35.392,0,0,1-2.71,7.48c.339.762.9,1.919,1.524,1.919.508,0,.677-1.778.734-2.456l2.4,1.355A13.008,13.008,0,0,1,492.426,423.457Zm-18.065-13.351h-2v.875h2Zm0,2.173h-2v.9h2Zm2.6,2.512h-2.089v.9h2.089Zm0,2.653h-2.089v.932h2.089Zm2.2-7.339H477.1v.875h2.061Zm0,2.173H477.1v.9h2.061Zm9.851-7.028a20.757,20.757,0,0,0-2.173-3.274l2.427-1.44a10.376,10.376,0,0,1,2.343,3.3Z" transform="translate(-170.868 -398.561)" fill="#fff"/>
        <path id="パス_4155" data-name="パス 4155" d="M491.7,407.142v3.952a7.281,7.281,0,0,1,.819,3.444,12.656,12.656,0,0,1-1.44,5.448,19.58,19.58,0,0,1-3.839,5.25l-3.161-1.637a9.006,9.006,0,0,0,4.036-4.629,5.676,5.676,0,0,1-1.524.282,3.554,3.554,0,0,1-2.314-.875,5.051,5.051,0,0,1-1.468-3.924c0-3.105,1.553-5.25,4.432-5.25a3.721,3.721,0,0,1,1.327.226l-.056-2.117c-2.512.141-6.774.4-10.359.847v-3.274c1.919,0,4.347,0,10.275-.282-.028-.875-.028-2.371-.2-4.432l3.133.2c.649.028.819.113.819.4,0,.169-.056.254-.254.423s-.226.226-.226.339v2.907c3.924-.226,4.8-.31,7.678-.536v3.048C497.231,406.944,495.368,407,491.7,407.142Zm-3.133,5.137a1.469,1.469,0,0,0-1.044-.4c-1.129,0-1.919.988-1.919,2.484,0,1.694.9,2.343,1.552,2.343.593,0,1.948-.621,1.948-2.625A2.55,2.55,0,0,0,488.565,412.279Z" transform="translate(-152.386 -398.561)" fill="#fff"/>
        <path id="パス_4156" data-name="パス 4156" d="M496.738,422.994c-3.528,0-5.335-1.778-5.335-3.867a3.953,3.953,0,0,1,4.149-3.754c2.936,0,4.77,2.315,5.561,3.3a4.972,4.972,0,0,0,1.863-3.754c0-2.794-2.738-3.7-4.573-3.7a7.656,7.656,0,0,0-3.218.706c-1.75.931-4.234,3.444-5.815,5.053L487,414.5a55.732,55.732,0,0,0,10.444-10.19,26.355,26.355,0,0,1-6.6.706l-.649-3.161c.677.056,2.286.169,3.161.169a31.989,31.989,0,0,0,8.553-1.411l1.468,2.286a69.778,69.778,0,0,0-6.266,6.04,22.472,22.472,0,0,1,2.738-.169,6.222,6.222,0,0,1,6.266,6.238C506.109,419.691,501.706,422.994,496.738,422.994Zm-1.073-5.137a1.244,1.244,0,0,0-1.411,1.186c0,.988,1.3,1.27,2.315,1.27a8.025,8.025,0,0,0,1.919-.254C498.121,419.409,497.274,417.856,495.666,417.856Z" transform="translate(-136.256 -397.759)" fill="#fff"/>
        <path id="パス_4157" data-name="パス 4157" d="M509.387,412.972a8.509,8.509,0,0,1-.508,1.016h10.275c-.028,2.879-.565,7.028-1.552,8.581-.847,1.327-2.23,1.722-4.488,1.75l-1.129-2.766a18.139,18.139,0,0,1-3.472,2.964l-2.117-1.411a18.607,18.607,0,0,0,6.436-6.774H511.42a15.282,15.282,0,0,1-2.766,3.7,27.78,27.78,0,0,1-4.432,3.5l-2.2-1.552a17.382,17.382,0,0,0,6.718-5.645h-1.3a21.492,21.492,0,0,1-3.782,3.585l-2.23-1.5a16.034,16.034,0,0,0,2.484-1.863c-1.919.734-5.024,1.778-5.843,1.976-1.044.254-1.157.282-1.327.48-.311.339-.4.452-.536.452a.232.232,0,0,1-.2-.2L495.5,416.1c.9-.169,2.145-.48,3.133-.734v-6.577H495.9v-2.907h2.738V400.27l3.274.254c.169.028.367.113.367.31s-.141.31-.31.452c-.141.085-.367.226-.367.423v4.177h2.936v2.907H501.6v5.758c.988-.282,1.919-.565,2.851-.9v2.343a10.844,10.844,0,0,0,2.061-3.02h-2.682v-2.286h15.666v2.286h-10.1Zm-3.472-3.359v-8.891h11.46v8.891Zm8.722-6.492h-5.984v1.186h5.984Zm0,3.19h-5.984v1.214h5.984Zm.847,10.02a16.213,16.213,0,0,1-3.246,4.94,7.625,7.625,0,0,0,1.524.169,1.416,1.416,0,0,0,1.5-.79,10.669,10.669,0,0,0,.9-4.319Z" transform="translate(-120.763 -398.379)" fill="#fff"/>
        <path id="パス_4158" data-name="パス 4158" d="M529.417,412.09a25.445,25.445,0,0,1-5.335-2.907v2.286H512.735v-1.75a25.655,25.655,0,0,1-5.024,2.936l-2.371-2.4c3.585-1.609,8.75-4.686,11.686-10.105l3.3.649c.254.056.4.226.4.311,0,.113-.254.339-.423.452a18.036,18.036,0,0,0,4.46,4.432,22.7,22.7,0,0,0,7.085,3.274Zm-5.786,12.392v-.847H513.413v.96h-3.077V413.642H526.82v10.839Zm0-8.073H513.413v4.319h10.218Zm-5.194-12.5a21.579,21.579,0,0,1-4.234,4.686h9.061A29.782,29.782,0,0,1,518.437,403.9Z" transform="translate(-102.828 -398.598)" fill="#fff"/>
        <path id="パス_4159" data-name="パス 4159" d="M528.578,421.149a4.24,4.24,0,0,1-3.218,1.1,19.847,19.847,0,0,1-2.117-.113l-.677-3.048a8.3,8.3,0,0,0,1.919.226,2.2,2.2,0,0,0,1.948-.79c1.27-1.581,1.5-5.137,1.5-6.492,0-2.173-.536-2.851-2.286-2.851a9.332,9.332,0,0,0-1.524.141c-1.44,5.786-2.794,9.174-5.363,13.069l-2.935-1.327a29.959,29.959,0,0,0,5.109-11.008,25.291,25.291,0,0,0-3.839,1.524l-1.044-3.387c2.145-.339,3.1-.536,5.419-1.044a33.768,33.768,0,0,0,.282-5.363l3.387.48c.367.056.677.2.677.423,0,.113-.028.141-.31.31-.339.226-.339.226-.4.593-.141,1.129-.2,1.637-.423,2.907a11.79,11.79,0,0,1,2.061-.2c3.81,0,4.149,3.359,4.149,5.871C530.893,416.238,529.9,419.879,528.578,421.149Zm5.25-6.379-1.5-2.682c1.016-.141,1.609-.282,1.609-.96,0-.706-1.073-3.02-4.065-6.492l2.286-1.581c1.3,1.552,5.137,6.1,5.137,9.089C537.3,414.29,534.873,414.629,533.828,414.77Zm2.456-9a12.619,12.619,0,0,0-2.23-2.484l1.524-1.129a17.383,17.383,0,0,1,2.174,2.4Zm2.879-1.665a11.21,11.21,0,0,0-2-2.427l1.468-1.073a12.853,12.853,0,0,1,2.2,2.371Z" transform="translate(-83.727 -397.777)" fill="#fff"/>
        <path id="パス_4160" data-name="パス 4160" d="M534.689,422.653c-6.379,0-9.089-1.186-9.089-4.036,0-2.54,1.891-4.234,2.738-5l2.456,2c-.452.367-1.581,1.355-1.581,2.371,0,.79.2,1.581,5,1.581a39.415,39.415,0,0,0,8.722-.9l.2,3.387A68.9,68.9,0,0,1,534.689,422.653Zm.423-12.025-1.948-2.032c.649-.565,1.778-1.581,2.851-2.569-1.214.085-2.2.141-4.347.141-1.693,0-2.512-.028-3.839-.113l-.847-3.1a49.94,49.94,0,0,0,7.113.508,44.844,44.844,0,0,0,6.436-.452l1.27,2.286C539.6,406.846,537.427,408.681,535.112,410.628Zm9.823-3.726a11.635,11.635,0,0,0-2.343-2.512l1.214-1.27a12.079,12.079,0,0,1,2.343,2.512Zm1.5-3.133a11.932,11.932,0,0,0-2.315-2.4l1.214-1.27a13.073,13.073,0,0,1,2.4,2.315Z" transform="translate(-65.901 -398.689)" fill="#fff"/>
        <path id="パス_4161" data-name="パス 4161" d="M549.97,418.117a10.525,10.525,0,0,0-5.984-1.891c-2.427,0-4.347,1.157-4.347,3.105,0,2.653,2.653,2.823,4.46,2.823a14.872,14.872,0,0,0,4.714-.677l.706,3.161a30.737,30.737,0,0,1-5.335.48c-4.714,0-7.649-2.343-7.649-5.871,0-3.726,3.444-5.645,6.549-5.645a10.491,10.491,0,0,1,3.3.536,33.672,33.672,0,0,1-2.992-4.4,55.263,55.263,0,0,1-7.339,2.145l-1.835-2.823a31.348,31.348,0,0,0,7.847-1.722,31.333,31.333,0,0,1-2.061-4.742l2.936-.621c.113-.028.762-.141.762.113,0,.141-.4.734-.4.875a20.971,20.971,0,0,0,1.355,3.3,18.189,18.189,0,0,0,3.9-2.427l1.552,2.625a28.5,28.5,0,0,1-4.149,2.258c2.089,3.5,3.5,5.25,5.673,7Zm1.609-13.746a16.574,16.574,0,0,0-2.653-1.919l1.016-1.411a16.716,16.716,0,0,1,2.738,1.891Zm2.964-1.5a16.632,16.632,0,0,0-2.484-1.919l1.016-1.355a17.047,17.047,0,0,1,2.625,1.891Z" transform="translate(-50.19 -399.6)" fill="#fff"/>
        <path id="パス_4162" data-name="パス 4162" d="M547.868,420.065a3.078,3.078,0,0,1-2.089-.931c-1.976-1.919-2.879-5.222-2.879-10.585a27.49,27.49,0,0,1,.847-7.339l3.1.847c.2.056.649.2.649.536,0,.31-.339.423-.818.593a29.268,29.268,0,0,0-.536,6.295c0,5.5,1.355,6.52,1.919,6.52,1.016,0,2.174-2.992,2.71-4.347l2.343,2.089C551.565,417.073,550.154,420.065,547.868,420.065Zm14.311-5.024a26.249,26.249,0,0,0-4.149-11.46l2.907-1.411a24,24,0,0,1,4.629,12Z" transform="translate(-34.369 -396.665)" fill="#fff"/>
        <path id="パス_4163" data-name="パス 4163" d="M568.566,422.053a21.279,21.279,0,0,0-5.166-2.794c-.113,2.879-.79,4.008-4.4,4.008-3.9,0-6.323-1.383-6.323-3.669,0-.818.282-4.093,6.633-3.867l.79.028-.056-2.71c-.508.028-2.06.085-2.879.085-2.6,0-3.9-.931-3.9-2.032,0-1.383,1.919-2.71,3.02-3.5l1.609,1.383c-.508.367-.932.677-.932,1.044,0,.4.593.4,1.073.4a19.356,19.356,0,0,0,1.948-.056l-.056-3.528c-3.246.141-4.855.254-7.283.536l-.056-3.048c3.218,0,4.742-.056,7.254-.113l-.085-3.754,3.443.339c.536.056.706.141.706.339,0,.113-.056.141-.367.4a.918.918,0,0,0-.367.508c0,.028-.028.565-.057,2.032,3.613-.169,4.573-.226,7.226-.423l-.113,2.992c-3.133,0-5.758.056-7.17.085v3.331c2.456-.31,3.5-.48,6.1-.96v3.077a60.647,60.647,0,0,1-6.041.706c.057,1.411.057,1.694.141,3.359a23.469,23.469,0,0,1,7.141,3.19Zm-9.767-3.7c-1.835,0-2.738.48-2.738,1.214,0,.96,1.807.96,2.145.96,1.835,0,1.948-.508,1.919-2.089A7.314,7.314,0,0,0,558.8,418.355Z" transform="translate(-16.708 -398.032)" fill="#fff"/>
        <path id="パス_4164" data-name="パス 4164" d="M574.149,407.142v3.952a7.282,7.282,0,0,1,.819,3.444,12.657,12.657,0,0,1-1.44,5.448,19.585,19.585,0,0,1-3.839,5.25l-3.161-1.637a9.007,9.007,0,0,0,4.036-4.629,5.677,5.677,0,0,1-1.524.282,3.554,3.554,0,0,1-2.315-.875,5.052,5.052,0,0,1-1.468-3.924c0-3.105,1.553-5.25,4.432-5.25a3.72,3.72,0,0,1,1.327.226l-.057-2.117c-2.512.141-6.774.4-10.359.847v-3.274c1.919,0,4.347,0,10.274-.282-.028-.875-.028-2.371-.2-4.432l3.133.2c.649.028.819.113.819.4,0,.169-.057.254-.254.423s-.226.226-.226.339v2.907c3.924-.226,4.8-.31,7.678-.536v3.048C579.681,406.944,577.818,407,574.149,407.142Zm-3.133,5.137a1.469,1.469,0,0,0-1.044-.4c-1.129,0-1.919.988-1.919,2.484,0,1.694.9,2.343,1.552,2.343.593,0,1.948-.621,1.948-2.625A2.55,2.55,0,0,0,571.016,412.279Z" transform="translate(-2.108 -398.561)" fill="#fff"/>
        <path id="パス_4165" data-name="パス 4165" d="M578.252,410.187a4.361,4.361,0,1,1-4.347-4.347A4.391,4.391,0,0,1,578.252,410.187Zm-7.367,0a3.006,3.006,0,1,0,3.02-2.992A3.018,3.018,0,0,0,570.885,410.187Z" transform="translate(14.169 -388.227)" fill="#fff"/>
      </g>
    </g>
    <line id="線_56" data-name="線 56" x2="1100" transform="translate(410.5 6255.827)" fill="none" stroke="#fff" stroke-width="3"/>
  </g>
</svg>
