<svg xmlns="http://www.w3.org/2000/svg" width="370.5" height="299.029" viewBox="0 0 370.5 299.029">
  <g id="spain_info_sp" transform="translate(-30 -3827.06)">
    <path id="パス_4266" data-name="パス 4266" d="M21.712-1.771a51.322,51.322,0,0,0-7.475-6.371A29.975,29.975,0,0,0,17.71-14.4a3.781,3.781,0,0,1,.759-1.288L16.7-17.526a3.449,3.449,0,0,1-1.932.276l-7.843.138H6.486A17.127,17.127,0,0,1,3.68-17.25l.046,3.5a20.719,20.719,0,0,1,3.22-.207l6.716-.115c-.529,1.173-.92,2-1.219,2.507A21.228,21.228,0,0,1,6.417-4.922,20.782,20.782,0,0,1,1.311-2.116,10.4,10.4,0,0,1,3.519.943,26.462,26.462,0,0,0,12.1-5.474a40.961,40.961,0,0,1,6.831,6.693Zm3.1-2.346c.345-.437.483-.621.828-1.012C27.37-7.222,28.7-8.9,29.762-10.3c.943-1.242.966-1.265,1.311-1.265.276,0,.506.138.874.552a135.154,135.154,0,0,0,10.58,10.9l1.725-3.749a17.1,17.1,0,0,1-2.323-1.909,82.812,82.812,0,0,1-7.245-7.245c-1.817-2.07-2.415-2.461-3.657-2.461a3.187,3.187,0,0,0-1.656.437,7.231,7.231,0,0,0-1.817,1.863c-1.334,1.7-3.5,4.278-4.163,4.945a5.421,5.421,0,0,1-.9.759ZM40-17.112a2.562,2.562,0,0,0-2.553,2.553A2.562,2.562,0,0,0,40-12.006a2.542,2.542,0,0,0,2.53-2.553A2.528,2.528,0,0,0,40-17.112Zm0,1.426a1.124,1.124,0,0,1,1.1,1.127A1.124,1.124,0,0,1,40-13.432a1.129,1.129,0,0,1-1.127-1.127A1.129,1.129,0,0,1,40-15.686Zm21.689-3.151a18.241,18.241,0,0,1-4.255,4.255A33.993,33.993,0,0,1,45.31-8.6a11.386,11.386,0,0,1,1.863,3.128,38.991,38.991,0,0,0,7.866-3.565v6.992A22.515,22.515,0,0,1,54.9,1.288H58.7a28.682,28.682,0,0,1-.115-3.4v-9.062a38.915,38.915,0,0,0,5.382-4.692,7.814,7.814,0,0,1,.874-.828ZM69.6-14.674a24.3,24.3,0,0,1,6.049,4.761l2.323-3.013a32.225,32.225,0,0,0-6.118-4.462ZM70.7.644a8.392,8.392,0,0,1,1.15-.322c.437-.092.437-.092,1.012-.207a29.2,29.2,0,0,0,6.693-2.392c4-2.116,6.716-5.152,8.993-10.074a12.512,12.512,0,0,1-2.921-2.668,19.92,19.92,0,0,1-2.323,4.577,14.289,14.289,0,0,1-6.762,5.635A21.988,21.988,0,0,1,69.69-3.128Zm36.041-14.375c-.023.046-.023.046-.161.276a17.437,17.437,0,0,1-1.564,2.254,31.943,31.943,0,0,1-3.818,3.91,37.207,37.207,0,0,0-4.14-3.841L94.392-9.223a36.272,36.272,0,0,1,4.6,4.508,39.513,39.513,0,0,1,4.439,5.888l2.921-2.3c-1.265-1.679-1.84-2.415-2.9-3.657a33.409,33.409,0,0,0,7.36-8.763,6.813,6.813,0,0,1,1.012-1.426l-1.886-2.116a5.175,5.175,0,0,1-1.748.207H95.68a23.541,23.541,0,0,1-3.565-.161v3.45a33.448,33.448,0,0,1,3.5-.115Zm7.2,6.854c.9-.092,2.208-.138,4.209-.138h11.615c1.794,0,3.312.046,4.232.115v-3.772a30.2,30.2,0,0,1-4.209.161H118.151a28.729,28.729,0,0,1-4.209-.184ZM153.778-11.8c1.242,0,2.392.046,3.266.138v-3.427a21.316,21.316,0,0,1-3.243.161h-9.43a15.983,15.983,0,0,0,.69-1.495c.6-1.449.6-1.449.782-1.817l-3.611-.782a11.172,11.172,0,0,1-1.1,3.335,17.592,17.592,0,0,1-4.83,6.3A8.7,8.7,0,0,1,139.1-7.222a19.282,19.282,0,0,0,3.772-4.577h5.106c-.253,3.841-1.173,6-3.312,7.774a13.254,13.254,0,0,1-4.577,2.484,8.538,8.538,0,0,1,2.277,3.059c4.094-1.84,6.394-3.887,7.774-6.9A17.184,17.184,0,0,0,151.5-11.8Zm8.073-.874a23.837,23.837,0,0,1,2.07,5.75L167-7.866a26.77,26.77,0,0,0-2.277-5.635Zm5.014-.989a27.024,27.024,0,0,1,2.07,5.589l3.013-.92a22.742,22.742,0,0,0-2.231-5.451Zm7.912-.322a12.256,12.256,0,0,1-.414,2.645,12.948,12.948,0,0,1-5.129,7.981,16.349,16.349,0,0,1-4.048,2.116,9.956,9.956,0,0,1,2.185,2.737c3.634-1.84,5.681-3.473,7.314-5.819a21.242,21.242,0,0,0,3.013-7.613,8.135,8.135,0,0,1,.345-1.288Zm16.307,15.2a28.462,28.462,0,0,1-.138-3.2V-8.6a7.89,7.89,0,0,0,.874.414A50.509,50.509,0,0,1,199.525-4l1.886-3.312a55.427,55.427,0,0,0-10.465-4.83v-3.5a20.262,20.262,0,0,1,.138-3.082h-3.749a20.081,20.081,0,0,1,.138,3.082V-2.024a23.771,23.771,0,0,1-.138,3.243Zm30.843-18.538a5.82,5.82,0,0,1-2.093.253H209.3a23.514,23.514,0,0,1-3.611-.161v3.519a26.967,26.967,0,0,1,3.565-.138h10.074a15.321,15.321,0,0,1-6.854,9.591,18.679,18.679,0,0,1-4.945,2.277,10.447,10.447,0,0,1,2.438,3.289,22.925,22.925,0,0,0,8.671-6.049c2.208-2.553,3.565-5.428,4.646-9.706a3.527,3.527,0,0,1,.437-1.15ZM238.395-9.5h2.277a26.345,26.345,0,0,1,3.013.115V-12.42a18.983,18.983,0,0,1-3.013.161h-7.705a22.3,22.3,0,0,1-2.9-.138v3.013c.759-.069,1.587-.115,2.921-.115h2.254v7.13h-3.7a17.066,17.066,0,0,1-2.9-.138V.552a19.627,19.627,0,0,1,2.921-.115h10.4c1.449,0,2.369.046,3.174.115V-2.507a22.87,22.87,0,0,1-3.151.138h-3.588Zm31.717,7.728a51.322,51.322,0,0,0-7.475-6.371A29.975,29.975,0,0,0,266.11-14.4a3.781,3.781,0,0,1,.759-1.288l-1.771-1.84a3.449,3.449,0,0,1-1.932.276l-7.843.138h-.437a17.127,17.127,0,0,1-2.806-.138l.046,3.5a20.719,20.719,0,0,1,3.22-.207l6.716-.115c-.529,1.173-.92,2-1.219,2.507a21.228,21.228,0,0,1-6.026,6.647,20.782,20.782,0,0,1-5.106,2.806A10.4,10.4,0,0,1,251.919.943,26.462,26.462,0,0,0,260.5-5.474a40.959,40.959,0,0,1,6.831,6.693Zm9.131-17.549a13.528,13.528,0,0,1-1.334,3.22,20.187,20.187,0,0,1-5.75,6.6,8.65,8.65,0,0,1,2.783,2.185,24.954,24.954,0,0,0,5.313-6.164l6.739-.069a19.031,19.031,0,0,1-2.254,4.784,31.514,31.514,0,0,0-4.416-2.852l-2.093,2.461a25.258,25.258,0,0,1,4.508,3.082,16.708,16.708,0,0,1-3.634,2.99,26.127,26.127,0,0,1-4.393,2.139,9.794,9.794,0,0,1,2.277,2.9,24.972,24.972,0,0,0,7.8-5.29,25.851,25.851,0,0,0,5.727-10.074c.391-1.15.414-1.2.736-1.564l-1.794-1.771a4.075,4.075,0,0,1-1.725.3l-6.072.046c.23-.414.3-.575.506-.989a8.829,8.829,0,0,1,.6-1.173Zm24.4,12.466h-6.578a15.779,15.779,0,0,1-2.484-.115v2.392a16.473,16.473,0,0,1,2.53-.115h6.532v.828h-5.5a13.381,13.381,0,0,1-2.185-.092V-1.7a21.456,21.456,0,0,1,2.277-.092h5.4v.851c0,.414-.138.506-.92.506a22.216,22.216,0,0,1-2.9-.207,7.021,7.021,0,0,1,.828,2.6c.8.046,1.587.069,2.162.069,3.105,0,3.7-.437,3.7-2.714v-1.1h4.669v.9H314.2a18.63,18.63,0,0,1-.115-2.53V-4.646a15.632,15.632,0,0,1,1.817.115V-7.015a13.294,13.294,0,0,1-1.817.115v-.805a16.141,16.141,0,0,1,.069-2.093c-.644.046-1.012.069-2.415.069h-5.221v-.736h5.29c.713,0,1.334.023,1.817.069a15.009,15.009,0,0,1-.069-1.564v-1.5c0-.713.023-1.1.069-1.633-.575.046-1.035.069-1.955.069h-5.152V-15.8h6.394a22.735,22.735,0,0,1,2.737.138v-2.6a23.714,23.714,0,0,1-2.921.138h-6.21a6.664,6.664,0,0,1,.138-1.357h-3.151a7.266,7.266,0,0,1,.138,1.357h-6a23.458,23.458,0,0,1-2.921-.138v2.6a18.982,18.982,0,0,1,2.737-.138h6.187v.782h-4.9c-.9,0-1.357-.023-2-.069.046.552.069.989.069,1.633v1.5a15.646,15.646,0,0,1-.069,1.564c.529-.046,1.15-.069,1.955-.069h4.945v.736h-5.451a17.034,17.034,0,0,1-2.139-.092V-7.59a18.932,18.932,0,0,1,2.093-.092h5.5Zm2.875,0v-.828h4.669v.828Zm0,2.162h4.669v.828h-4.669Zm-2.875-8.464v.828h-3.979v-.828Zm2.875,0h4.186v.828h-4.186Zm22.31,6.072a15.841,15.841,0,0,1-1.84-.069V-4.37a10.007,10.007,0,0,1,1.656-.092h1.15c-.874,1.909-2.346,3.082-5.152,4.117a10.732,10.732,0,0,1,1.7,2.461c3.542-1.587,5.359-3.45,6.44-6.578h2.461a12.8,12.8,0,0,1-.253,2.438c-.207.9-.437,1.127-1.15,1.127a14.651,14.651,0,0,1-2.6-.3,8.907,8.907,0,0,1,.667,2.806q1.483.138,2.415.138c1.863,0,2.53-.345,3.013-1.587.391-.989.621-2.576.828-5.888.046-.6.046-.621.069-.782.023-.391.023-.391.046-.644a14.175,14.175,0,0,1-1.771.069h-3.151a4.391,4.391,0,0,0,.069-.644,2.019,2.019,0,0,1,.046-.322c.023-.253.023-.253.046-.414.023-.184.023-.184.046-.345l-2.323-.023a13.449,13.449,0,0,0,1.932-1.012,16.162,16.162,0,0,0,4.991,1.978,9.805,9.805,0,0,1,1.242-2.875,15.718,15.718,0,0,1-4.025-.943,9.888,9.888,0,0,0,2.047-3.335,14.372,14.372,0,0,1,1.518.069v-2.783a17.409,17.409,0,0,1-2.507.138h-4.416c.23-.506.414-.966.506-1.173l.138-.345-2.852-.529a7.539,7.539,0,0,1-.69,2.024,12.661,12.661,0,0,1-3.266,4.255,8.671,8.671,0,0,1,2.024,1.84,19.231,19.231,0,0,0,1.679-1.886,9.19,9.19,0,0,0,1.472,1.863,17.446,17.446,0,0,1-3.082,1.15l.046-.115-1.173-1.426a14.733,14.733,0,0,1-1.679.069h-.9l.322-.345c-.3-.3-.391-.414-.6-.621a25.949,25.949,0,0,0,3.151-3.7,5.234,5.234,0,0,1,.506-.644l-1.472-1.587a12.09,12.09,0,0,1-1.978.092H320.3a17.509,17.509,0,0,1-2.139-.092v2.806a16.083,16.083,0,0,1,1.909-.092H323.7a7.573,7.573,0,0,1-1.449,1.656c-.644-.552-.92-.759-1.84-1.449l-1.656,1.656a23.508,23.508,0,0,1,2.76,2.323h-1.932a16.4,16.4,0,0,1-2.024-.092v2.783a10.131,10.131,0,0,1,1.84-.115h1.426a12.3,12.3,0,0,1-3.611,5.2,10.667,10.667,0,0,1,1.127,3.059,14.676,14.676,0,0,0,3.174-4.692l.023,4.37c0,.414-.115.506-.575.506a11.007,11.007,0,0,1-2.07-.23,8.357,8.357,0,0,1,.552,2.829c.736.046,1.334.069,1.84.069,2.208,0,2.875-.529,2.875-2.254l-.023-5.773a6.2,6.2,0,0,1,1.771,1.426,25.512,25.512,0,0,0,1.61-4.209,5.693,5.693,0,0,1,.207-.713,10.558,10.558,0,0,1,.989,1.771c.9-.276,1.2-.368,1.863-.621v.207a12.6,12.6,0,0,1-.092,1.265Zm5.658-7.935a6.665,6.665,0,0,1-1.426,2.024,6.949,6.949,0,0,1-1.7-2.024ZM324.116-9.292h1.15a11.783,11.783,0,0,1-1.127,2.852Zm31.878,3.979a17.076,17.076,0,0,1,.069-1.748,16.269,16.269,0,0,1-1.725.069H348.1c-.851,0-1.288-.023-1.817-.069a12.422,12.422,0,0,1,.069,1.587V-1.38a15.359,15.359,0,0,1-.092,1.794h2.967V-.805h4.508a10.783,10.783,0,0,1,.621,2.6c1.242.069,1.564.069,1.932.069,2.231,0,3.013-.3,3.634-1.38s1.012-3.542,1.2-7.59c.115-2.139.161-2.99.207-3.542a.641.641,0,0,0,.023-.23,17.345,17.345,0,0,1-2.208.092H345.368l.023-1.311h12.144c1.2,0,1.84.023,2.622.069a14.363,14.363,0,0,1-.069-1.978V-16.7c0-.966.023-1.518.069-2.047a23.931,23.931,0,0,1-2.783.115H345.529a27.372,27.372,0,0,1-3.128-.138,15.87,15.87,0,0,1,.138,2.714,71.855,71.855,0,0,1-.552,10.35,12.555,12.555,0,0,1-1.909,5.359,11.635,11.635,0,0,1,2.438,2.576,16.539,16.539,0,0,0,2.047-4.991,34.947,34.947,0,0,0,.69-5.5h12.9a34.819,34.819,0,0,1-.483,6.026c-.23,1.15-.414,1.38-1.2,1.38a3.835,3.835,0,0,1-.437-.023,11.778,11.778,0,0,1-.046-1.518ZM345.414-14.6v-1.449h11.8V-14.6Zm3.818,9.936h3.956v1.495h-3.956Z" transform="translate(34 3846.702)" fill="#fff"/>
    <path id="パス_4263" data-name="パス 4263" d="M0,0H370.5" transform="translate(30 3879.702)" fill="none" stroke="#fff" stroke-width="1"/>
    <g id="出店者募集_詳細" transform="translate(-243.2 3675.722)">
      <g id="グループ_583" data-name="グループ 583" transform="translate(273.2 233.98)">
        <path id="パス_4030" data-name="パス 4030" d="M385.45,239.1V237.77h8.7V239.1Zm5.091,2.533v5.153h-1.483v-5.153H385.45V240.3h8.7v1.335Z" transform="translate(-246.74 -233.087)" fill="#fff"/>
        <path id="パス_4031" data-name="パス 4031" d="M403.212,244.81V247.7h-2.447V244.81H395.13v-1.952l5.338-8.687h2.743v8.835h1.816v1.8Zm-2.719-7.785-3.373,5.487-.519.63.519-.124h3.645v-5.573l.1-1.223Z" transform="translate(-244.458 -233.935)" fill="#fff"/>
        <path id="パス_4032" data-name="パス 4032" d="M408.775,248.005c-3.72,0-4.745-3.608-4.745-6.389,0-1.421.124-7.637,4.968-7.637a4.061,4.061,0,0,1,2.892,1.137,4,4,0,0,1,1.211,2.521h-2.447a1.665,1.665,0,0,0-1.705-1.594c-1.977,0-2.286,2.373-2.5,4.189a3.1,3.1,0,0,1,2.756-1.446,4.188,4.188,0,0,1,4.09,4.374A4.665,4.665,0,0,1,408.775,248.005Zm0-7.192a2.341,2.341,0,0,0-2.224,2.558,2.213,2.213,0,0,0,2.138,2.434,2.177,2.177,0,0,0,2.088-2.447C410.777,241.913,410,240.814,408.775,240.814Z" transform="translate(-242.36 -233.98)" fill="#fff"/>
        <path id="パス_4033" data-name="パス 4033" d="M416.47,247.7v-9.416H412.8V236.53h1.075a3.034,3.034,0,0,0,2.953-2.36h2V247.7Z" transform="translate(-240.293 -233.935)" fill="#fff"/>
        <path id="パス_4034" data-name="パス 4034" d="M421.37,241.387V239.2H426v2.187Z" transform="translate(-238.273 -232.75)" fill="#fff"/>
        <path id="パス_4035" data-name="パス 4035" d="M432.478,248.005c-4.3,0-4.708-5.042-4.708-6.784,0-2.224.383-7.241,4.708-7.241a4,4,0,0,1,3.559,1.977,9.365,9.365,0,0,1,1.149,5.017C437.186,242.692,436.914,248.005,432.478,248.005Zm-.037-12.024c-1.236,0-2.125.9-2.125,5-.025,4.276.964,5.017,2.162,5.017,1.347,0,2.15-1.038,2.15-5.017C434.628,236.7,433.664,235.982,432.441,235.982Z" transform="translate(-236.764 -233.98)" fill="#fff"/>
        <path id="パス_4036" data-name="パス 4036" d="M441.118,248.005c-4.3,0-4.708-5.042-4.708-6.784,0-2.224.383-7.241,4.708-7.241a4,4,0,0,1,3.559,1.977,9.366,9.366,0,0,1,1.149,5.017C445.826,242.692,445.554,248.005,441.118,248.005Zm-.037-12.024c-1.236,0-2.125.9-2.125,5-.012,4.276.964,5.017,2.162,5.017,1.347,0,2.15-1.038,2.15-5.017C443.268,236.7,442.3,235.982,441.081,235.982Z" transform="translate(-234.728 -233.98)" fill="#fff"/>
        <path id="パス_4037" data-name="パス 4037" d="M449.758,248.005c-4.3,0-4.708-5.042-4.708-6.784,0-2.224.383-7.241,4.708-7.241a4,4,0,0,1,3.559,1.977,9.365,9.365,0,0,1,1.149,5.017C454.466,242.692,454.194,248.005,449.758,248.005Zm-.037-12.024c-1.236,0-2.125.9-2.125,5-.025,4.276.964,5.017,2.162,5.017,1.347,0,2.15-1.038,2.15-5.017C451.908,236.7,450.944,235.982,449.721,235.982Z" transform="translate(-232.691 -233.98)" fill="#fff"/>
        <path id="パス_4038" data-name="パス 4038" d="M458.337,247.958a4.278,4.278,0,0,1-4.6-3.93h2.422a2.04,2.04,0,0,0,2.113,1.816,2.228,2.228,0,0,0,2.187-2.5,2.354,2.354,0,0,0-2.336-2.57,1.719,1.719,0,0,0-1.742,1.211l-2.274-.21.964-7.6h7.488v2h-5.82l-.334,2.669-.21.964a2.985,2.985,0,0,1,2.521-1.1,4.3,4.3,0,0,1,4.3,4.473A4.527,4.527,0,0,1,458.337,247.958Z" transform="translate(-230.643 -233.933)" fill="#fff"/>
        <path id="パス_4039" data-name="パス 4039" d="M300.366,270.66v-.643h-5.857v.914h-2.2v-4.807a31.514,31.514,0,0,1-3.67,1.767l-1.569-1.643a18.469,18.469,0,0,0,6.821-3.547,13.771,13.771,0,0,0-2.138-1.928,20.958,20.958,0,0,1-2.323,1.94l-1.705-1.458a13.848,13.848,0,0,0,5.709-6.636l1.742.544c.148.049.556.222.556.408a.228.228,0,0,1-.062.148c-.049.062-.445.136-.482.21-.074.1-.3.618-.358.717H299.2l1.087,1.211a21.146,21.146,0,0,1-4.523,5.8h6.784v7.019h-2.187ZM293.8,258.389a10.287,10.287,0,0,1-.816,1.05,15.828,15.828,0,0,1,2.336,1.891,13.321,13.321,0,0,0,2.076-2.941Zm6.562,7.007h-5.857v2.879h5.857Z" transform="translate(-269.93 -229.115)" fill="#fff"/>
        <path id="パス_4040" data-name="パス 4040" d="M311.644,260.011v2.743h4.387v8.218h-2.3v-.914h-6.648v.914H304.81v-8.218h4.424v-2.743H302.45v-2h6.784V254.92l2.373.136c.185.012.42.037.42.247,0,.074,0,.124-.185.272s-.21.185-.21.247v2.2h6.747v2h-6.735Zm2.088,4.745h-6.648v3.3h6.648Z" transform="translate(-266.305 -229.044)" fill="#fff"/>
        <path id="パス_4041" data-name="パス 4041" d="M330.524,261.37a29.439,29.439,0,0,1,2.731,2.682l-1.471,1.3c-.222-.247-.519-.593-1.223-1.3-1,.124-2.113.222-2.929.3.259.037.507.074.507.247,0,.111-.148.185-.259.26v.939h3.967v1.643H327.88v1.433h5.8v1.742H320.539v-1.742h5.128v-1.433h-4.053v-1.643h4.053v-1.31c-1.087.074-2.669.161-2.78.161-.086,0-.605.025-.741.037-.062.012-.334.259-.432.259-.235,0-.3-.185-.309-.371l-.235-1.643c.717.049,1.372.049,2.187.049a10.46,10.46,0,0,0,.877-1.606H321a31.861,31.861,0,0,1-.235,3.9,20,20,0,0,1-1.421,5.548l-2.1-.63a20.832,20.832,0,0,0,1.705-8.934c0-1.829-.074-4.412-.259-6.129h14.47v3.942H321.021v.741h12.864v1.557h-3.361Zm.445-4.7H321v.9h9.972Zm-2.644,5.338.568-.643h-2.41a14.946,14.946,0,0,1-.9,1.569c2.261-.049,2.793-.1,3.645-.161C328.93,262.52,328.893,262.495,328.324,262.013Z" transform="translate(-262.819 -228.994)" fill="#fff"/>
        <path id="パス_4042" data-name="パス 4042" d="M342.212,259.031v1.755h5.2v6.5c0,1.693-1.038,2.1-3.423,2.125l-.8-2.076a9.841,9.841,0,0,0,1.075.037c.816,0,.951-.136.951-.717v-3.93h-3v8.625h-2.3v-8.625h-3.089v6.71H334.6v-8.65h5.314v-1.755H333.08v-1.965h6.834V254.99l2.4.173c.1,0,.235.037.235.161a.29.29,0,0,1-.087.21c-.222.222-.247.26-.247.309v1.223h6.8v1.965h-6.8Z" transform="translate(-259.085 -229.027)" fill="#fff"/>
        <path id="パス_4043" data-name="パス 4043" d="M362.779,270.565a16.048,16.048,0,0,1-5.314-3.942v4.3h-2.212v-4.375a16.675,16.675,0,0,1-5.425,4.1l-1.619-1.483a12.665,12.665,0,0,0,5.573-3.806h-3.361v-6.117h4.832v-.976h-6.759V256.5h6.759V254.97l2.237.148c.222.025.284.111.284.185a.294.294,0,0,1-.111.161c-.173.136-.21.161-.21.259v.778h6.759v1.767h-6.759v.976h4.893v6.117h-3.6a16.659,16.659,0,0,0,5.487,3.608Zm-7.526-9.935h-2.719v.853h2.719Zm0,2.336h-2.719v.89h2.719Zm4.968-2.336h-2.756v.853h2.756Zm0,2.336h-2.756v.89h2.756Z" transform="translate(-255.518 -229.032)" fill="#fff"/>
        <path id="パス_4044" data-name="パス 4044" d="M366.362,270.155v.544H364.15V255.45H379.1v1.965H366.35V268.2h12.839v1.965H366.362Zm9.824-2.509a45.74,45.74,0,0,0-3.213-3.336,22,22,0,0,1-4.337,3.336l-1.52-1.582a14.54,14.54,0,0,0,4.337-3.151,27.065,27.065,0,0,0-4.189-3.151l1.186-1.606a36.69,36.69,0,0,1,4.387,3.2,15.339,15.339,0,0,0,2.261-3.633l1.965,1.013a.361.361,0,0,1,.21.284c0,.161-.173.185-.284.21-.334.049-.358.1-.519.371a18.431,18.431,0,0,1-2.064,3.114,39.607,39.607,0,0,1,3.324,3.324Z" transform="translate(-251.761 -228.919)" fill="#fff"/>
        <path id="パス_4045" data-name="パス 4045" d="M393.379,270.565a16.048,16.048,0,0,1-5.314-3.942v4.3h-2.212v-4.375a16.676,16.676,0,0,1-5.425,4.1l-1.619-1.483a12.665,12.665,0,0,0,5.573-3.806H381.01v-6.117h4.832v-.976h-6.759V256.5h6.759V254.97l2.237.148c.222.025.284.111.284.185a.294.294,0,0,1-.111.161c-.173.136-.21.161-.21.259v.778H394.8v1.767h-6.759v.976h4.893v6.117h-3.6a16.658,16.658,0,0,0,5.487,3.608Zm-7.526-9.935h-2.719v.853h2.719Zm0,2.336h-2.719v.89h2.719Zm4.968-2.336h-2.756v.853h2.756Zm0,2.336h-2.756v.89h2.756Z" transform="translate(-248.305 -229.032)" fill="#fff"/>
        <path id="パス_4046" data-name="パス 4046" d="M408.816,264.437a9.377,9.377,0,0,1-1.446,2.966,15.61,15.61,0,0,1,2.756,1.817l-1.384,1.755a15.867,15.867,0,0,0-2.817-2.039,10.263,10.263,0,0,1-4.918,2.076l-1.557-2a8.163,8.163,0,0,0,4.56-1.149c-.63-.3-.952-.42-1.409-.593a7.459,7.459,0,0,1-.47.68l-2.014-.667a19.769,19.769,0,0,0,1.73-2.855h-1.557v-1.075l-.89.976a3.3,3.3,0,0,1-.717-.68v7.316h-2.014v-5.956a7.861,7.861,0,0,1-1.174,1.755l-1.965-1.112a10.673,10.673,0,0,0,2.805-5.944h-1.9v-2.1h2.237V254.86l1.9.111c.383.012.519.111.519.247,0,.087-.049.124-.124.161-.259.185-.284.21-.284.3V257.6h1.73a7.625,7.625,0,0,0-.816-1.3l1.977-.952a13.668,13.668,0,0,1,2.064,4.325l-1.952.779a19.982,19.982,0,0,0-1.149-2.6V259.7h-1.854v.346a9.481,9.481,0,0,0,1.73,2.484h2.373a19.108,19.108,0,0,0,.8-2l1.816.445c.185.037.445.173.445.4a.18.18,0,0,1-.049.148c-.049.037-.3.124-.334.161a6.351,6.351,0,0,0-.383.853h5.3V264.4h-1.569Zm-4.609-4.807a18.065,18.065,0,0,0-1.162-4.189l2.125-.482a14.166,14.166,0,0,1,1.149,4.189Zm-.037,4.807c-.321.618-.334.63-.667,1.26a14.124,14.124,0,0,1,2.076.816,5.79,5.79,0,0,0,1.05-2.076Zm6.537-7.785c-.222.074-.222.1-.272.185a32.107,32.107,0,0,1-2.694,5.029l-1.891-1.026a37.915,37.915,0,0,0,2.669-5.61l1.965.766c.148.049.445.21.445.42C410.929,256.516,410.855,256.578,410.707,256.652Z" transform="translate(-244.835 -229.058)" fill="#fff"/>
        <path id="パス_4047" data-name="パス 4047" d="M412.74,269.7v-9.416h-3.67v-1.755h1.075a3.035,3.035,0,0,0,2.953-2.348h2v13.531h-2.36Z" transform="translate(-241.172 -228.747)" fill="#fff"/>
        <path id="パス_4048" data-name="パス 4048" d="M417.63,264.387V262.2h4.634v2.187Z" transform="translate(-239.154 -227.328)" fill="#fff"/>
        <path id="パス_4049" data-name="パス 4049" d="M426.4,269.7v-9.416h-3.67v-1.755h1.075a3.023,3.023,0,0,0,2.941-2.348h2v13.531H426.4Z" transform="translate(-237.952 -228.747)" fill="#fff"/>
        <path id="パス_4050" data-name="パス 4050" d="M435.888,270.005c-4.3,0-4.708-5.042-4.708-6.784,0-2.224.383-7.241,4.708-7.241a4,4,0,0,1,3.559,1.977,9.409,9.409,0,0,1,1.149,5.029C440.6,264.692,440.312,270.005,435.888,270.005Zm-.037-12.024c-1.236,0-2.125.9-2.125,5-.012,4.276.964,5.017,2.163,5.017,1.347,0,2.15-1.038,2.15-5.017C438.038,258.7,437.074,257.982,435.851,257.982Z" transform="translate(-235.961 -228.794)" fill="#fff"/>
        <path id="パス_4051" data-name="パス 4051" d="M439.94,264.387V262.2h4.634v2.187Z" transform="translate(-233.896 -227.328)" fill="#fff"/>
        <path id="パス_4052" data-name="パス 4052" d="M449.186,270.008a4.183,4.183,0,0,1-2.879-1.137,3.873,3.873,0,0,1-1.2-2.533h2.447a1.655,1.655,0,0,0,1.693,1.606c2,0,2.3-2.385,2.521-4.2A3.156,3.156,0,0,1,449,265.2a4.191,4.191,0,0,1-4.09-4.387,4.66,4.66,0,0,1,4.5-4.844c3.744,0,4.77,3.6,4.77,6.389C454.166,263.78,454.017,270.008,449.186,270.008Zm.334-11.826a2.159,2.159,0,0,0-2.1,2.447c0,1.433.778,2.521,1.977,2.521a2.352,2.352,0,0,0,2.249-2.558A2.182,2.182,0,0,0,449.519,258.182Z" transform="translate(-232.724 -228.796)" fill="#fff"/>
        <path id="パス_4053" data-name="パス 4053" d="M473.611,270.321a20.688,20.688,0,0,1-5.042-4.535v5.2h-2.261v-5.141a19.647,19.647,0,0,1-5.116,4.646l-1.742-1.718a15.3,15.3,0,0,0,5.931-4.424h-4.226V262.61h-1.372v-4.078h2.78a20.908,20.908,0,0,0-1.5-2.113l1.817-1.112a20.168,20.168,0,0,1,1.742,2.521l-1.335.7h6.191a21.522,21.522,0,0,0,2-3.6l1.693.692c.148.049.556.235.556.47,0,.272-.222.3-.556.309-.482.791-.741,1.174-1.384,2.125h3.336v4.041H473.76v1.779h-4.337a15.434,15.434,0,0,0,6.03,4.238Zm-.556-9.985h-11.22v2.15h4.473v-1.594l2,.012c.161,0,.643.025.643.222,0,.136-.1.222-.21.334a.461.461,0,0,0-.185.334v.692h4.486v-2.15Zm-6.3-1.854a29.892,29.892,0,0,0-1.52-2.929l1.866-.754a26.647,26.647,0,0,1,1.582,3Z" transform="translate(-229.297 -229.072)" fill="#fff"/>
        <path id="パス_4054" data-name="パス 4054" d="M486.7,259.647a22.177,22.177,0,0,1-3.262,6.265,16.626,16.626,0,0,1-5.487,4.523l-2.027-1.631a14.918,14.918,0,0,0,6.154-4.856,16.059,16.059,0,0,0,2.323-4.547H474.52v-2.15h10.491a1.041,1.041,0,0,0,.606-.3l1.841,1.668A2.554,2.554,0,0,0,486.7,259.647Zm1.236-2.113a1.767,1.767,0,1,1,1.742-1.779A1.752,1.752,0,0,1,487.94,257.534Zm0-2.817a1.044,1.044,0,1,0,1.026,1.038A1.031,1.031,0,0,0,487.94,254.717Z" transform="translate(-225.744 -229.261)" fill="#fff"/>
        <path id="パス_4055" data-name="パス 4055" d="M500.141,262.128a15.786,15.786,0,0,1-3.052,5.153,13.928,13.928,0,0,1-5.153,3.411l-1.73-1.594a12.174,12.174,0,0,0,5.19-3.287,10.623,10.623,0,0,0,2.36-3.93H488.13v-2.039h10.5a2.184,2.184,0,0,0,.914-.358l1.5,1.594A3.324,3.324,0,0,0,500.141,262.128Zm-10.158-4.337v-2.1h8.8v2.1Z" transform="translate(-222.536 -228.862)" fill="#fff"/>
        <path id="パス_4056" data-name="パス 4056" d="M511.925,261.578c-.222,5.375-1.5,7.192-5.017,9.317l-1.52-1.446c3.262-1.8,4.424-3.571,4.486-7.872h-3.5v4.152h-2.212v-4.152H500.68v-2.1h3.485v-3.559l2.039.222c.432.049.556.1.556.259,0,.1-.383.371-.383.47v2.62h3.5c0-1.693,0-2.768-.037-3.831l1.891.259q.593.074.593.3c0,.049,0,.1-.161.21a.4.4,0,0,0-.21.432V259.5h3.089v2.1h-3.114Zm1.977-5.672a10.14,10.14,0,0,1,1.854,1.372l-.779.976a11.436,11.436,0,0,0-1.878-1.372Zm1.149-1.656a9.213,9.213,0,0,1,1.866,1.335l-.779.976a9.874,9.874,0,0,0-1.854-1.372Z" transform="translate(-219.578 -229.202)" fill="#fff"/>
        <path id="パス_4057" data-name="パス 4057" d="M521.639,270.072c-5.449,0-6.129-.927-6.129-2.916V255.775l2.039.3c.371.049.556.185.556.3s-.111.185-.185.26c-.21.148-.222.21-.222.247v4.473a18.672,18.672,0,0,0,4.374-1.186,15.677,15.677,0,0,0,3.089-1.5l1.545,1.545c.012.012.272.272.272.42,0,.025,0,.148-.161.148-.049,0-.408-.074-.507-.074s-2.3.927-2.743,1.075a40.2,40.2,0,0,1-5.87,1.606v2.929c0,1.075.111,1.644,3.213,1.644a39.127,39.127,0,0,0,6.117-.519v2.41C526.125,269.912,524.123,270.072,521.639,270.072Zm4.968-11.949a11.724,11.724,0,0,0-1.755-1.545l.927-.828a10.871,10.871,0,0,1,1.779,1.545Zm1.767-1.47a9.036,9.036,0,0,0-1.755-1.532l.951-.84a10.913,10.913,0,0,1,1.755,1.52Z" transform="translate(-216.082 -229.195)" fill="#fff"/>
        <path id="パス_4058" data-name="パス 4058" d="M533.672,257.184c-.136.111-.136.148-.136.235a35.922,35.922,0,0,1-.1,4.56,9.424,9.424,0,0,1-4,6.722l-2.064-1.5c1.779-1.038,3.967-2.607,3.967-7.229a26.776,26.776,0,0,0-.21-3.5l2.237.148c.334.012.544.074.544.272C533.932,256.987,533.895,257,533.672,257.184Zm3.435,11.554-1.569-1.223V256.27l2.15.259c.161.012.519.049.519.247,0,.074-.037.124-.21.272,0,.012-.222.21-.222.222v8.094a16.473,16.473,0,0,0,4.893-4.745l1.26,1.878A24.937,24.937,0,0,1,537.107,268.738Z" transform="translate(-213.286 -228.726)" fill="#fff"/>
        <path id="パス_4059" data-name="パス 4059" d="M546.146,270.008a4.184,4.184,0,0,1-2.879-1.137,3.874,3.874,0,0,1-1.2-2.533h2.447a1.655,1.655,0,0,0,1.693,1.606c2,0,2.3-2.385,2.521-4.2a3.156,3.156,0,0,1-2.768,1.458,4.191,4.191,0,0,1-4.09-4.387,4.66,4.66,0,0,1,4.5-4.844c3.744,0,4.77,3.6,4.77,6.389C551.125,263.78,550.977,270.008,546.146,270.008Zm.334-11.826a2.159,2.159,0,0,0-2.1,2.447c0,1.433.779,2.521,1.977,2.521a2.352,2.352,0,0,0,2.249-2.558A2.182,2.182,0,0,0,546.479,258.182Z" transform="translate(-209.868 -228.796)" fill="#fff"/>
        <path id="パス_4060" data-name="パス 4060" d="M553.729,258.285v3.5h6.438V263.9h-6.438v5.8H551.22V256.16h9.6v2.113h-7.093Z" transform="translate(-207.664 -228.752)" fill="#fff"/>
        <path id="パス_4061" data-name="パス 4061" d="M324.912,291.738h-2.644l1.013,2.62a.969.969,0,0,1,.1.445c0,.222-.1.4-.42.47l-4.5.766c-.445.049-.692-.2-.692-.692,0-1.087.148-3.46,1.335-4.374,2.076-1.606,4.795-2.471,10.034-2.471s7.958.865,10.034,2.471c1.186.914,1.335,3.287,1.335,4.374,0,.494-.247.741-.692.692l-4.5-.766c-.321-.074-.42-.247-.42-.47a.969.969,0,0,1,.1-.445l1.013-2.62h-2.645v1.582c0,1.73,1.112,3.015,2.941,4.795A7.788,7.788,0,0,1,338.579,304c0,.791-.3,1.162-1.137,1.162H320.834c-.84,0-1.137-.371-1.137-1.162a7.788,7.788,0,0,1,2.274-5.882c1.829-1.779,2.941-3.065,2.941-4.795v-1.582Zm8.378,7.909a4.152,4.152,0,1,0-4.152,4.152A4.145,4.145,0,0,0,333.291,299.646Zm-2.051-7.909h-4.2v2.373h4.2Z" transform="translate(-262.694 -221.128)" fill="#fff"/>
        <path id="パス_4062" data-name="パス 4062" d="M351.906,308.093c-8.6,0-9.416-10.083-9.416-13.568,0-4.449.779-14.5,9.416-14.5A8,8,0,0,1,359.024,284c1.854,2.966,2.3,6.562,2.3,10.046C361.322,297.454,360.766,308.093,351.906,308.093Zm-.074-24.059c-2.484,0-4.263,1.816-4.263,10.009-.037,8.564,1.928,10.046,4.337,10.046,2.706,0,4.3-2.076,4.3-10.046C356.207,285.479,354.279,284.034,351.832,284.034Z" transform="translate(-256.867 -223.125)" fill="#fff"/>
        <path id="パス_4063" data-name="パス 4063" d="M367.5,307.482V288.65h-7.34v-3.522h2.15a6.047,6.047,0,0,0,5.894-4.708h4v27.062Z" transform="translate(-252.702 -223.033)" fill="#fff"/>
        <path id="パス_4064" data-name="パス 4064" d="M374.02,307.574c.667-4.819,2.336-7.711,8.452-12.2,3.967-2.892,5.153-4.374,5.153-6.747a4.243,4.243,0,0,0-4.226-4.486c-3.744,0-3.855,3.893-3.893,5.894H374.8c.074-2.41.371-10.009,8.749-10.009,5.561,0,9.157,3.855,9.157,8.6,0,4.337-3.077,6.784-6.6,9.231-3.633,2.521-4.56,3.559-5.709,5.82h12.53v3.893H374.02Z" transform="translate(-249.434 -223.125)" fill="#fff"/>
        <path id="パス_4065" data-name="パス 4065" d="M400.746,308.093c-8.6,0-9.416-10.083-9.416-13.568,0-4.449.778-14.5,9.416-14.5A8,8,0,0,1,407.864,284c1.854,2.966,2.3,6.562,2.3,10.046C410.162,297.454,409.606,308.093,400.746,308.093Zm-.074-24.059c-2.484,0-4.263,1.816-4.263,10.009-.037,8.564,1.928,10.046,4.337,10.046,2.706,0,4.3-2.076,4.3-10.046C405.046,285.479,403.119,284.034,400.672,284.034Z" transform="translate(-245.354 -223.125)" fill="#fff"/>
        <path id="パス_4066" data-name="パス 4066" d="M408.85,294.854V290.48h9.268v4.374Z" transform="translate(-241.224 -220.662)" fill="#fff"/>
        <path id="パス_4067" data-name="パス 4067" d="M427.944,308c-5.413,0-8.823-3.411-9.194-7.859h4.856a4.071,4.071,0,0,0,4.226,3.633c2.632,0,4.374-2,4.374-5,0-3.818-2.743-5.153-4.671-5.153a3.447,3.447,0,0,0-3.485,2.41l-4.56-.408,1.928-15.2H436.4v4h-11.64l-.667,5.338-.408,1.928a5.951,5.951,0,0,1,5.042-2.187,8.6,8.6,0,0,1,8.6,8.934C437.323,302.626,434.765,308,427.944,308Z" transform="translate(-238.89 -223.033)" fill="#fff"/>
        <path id="パス_4068" data-name="パス 4068" d="M443.67,307.482V288.65h-7.34v-3.522h2.15a6.047,6.047,0,0,0,5.894-4.708h4v27.062Z" transform="translate(-234.747 -223.033)" fill="#fff"/>
        <path id="パス_4069" data-name="パス 4069" d="M460.1,308c-5.413,0-8.823-3.411-9.194-7.859h4.856a4.071,4.071,0,0,0,4.226,3.633c2.632,0,4.374-2,4.374-5,0-3.818-2.743-5.153-4.671-5.153a3.447,3.447,0,0,0-3.485,2.41l-4.56-.408,1.928-15.2h14.977v4h-11.64l-.667,5.338-.408,1.928a5.951,5.951,0,0,1,5.042-2.187,8.6,8.6,0,0,1,8.6,8.934C469.483,302.626,466.925,308,460.1,308Z" transform="translate(-231.31 -223.033)" fill="#fff"/>
        <path id="パス_4070" data-name="パス 4070" d="M468.34,294.854V290.48h9.268v4.374Z" transform="translate(-227.201 -220.662)" fill="#fff"/>
        <path id="パス_4071" data-name="パス 4071" d="M490.327,295.323a39.928,39.928,0,0,0-2.78,12.16h-5.153a34.258,34.258,0,0,1,2.558-11.122c2.521-6.673,4.968-9.046,7.748-11.715l-1.668.185H477.76V280.42h19.8v4.412A27.476,27.476,0,0,0,490.327,295.323Z" transform="translate(-224.981 -223.033)" fill="#fff"/>
        <path id="パス_4072" data-name="パス 4072" d="M495.4,307.574c.667-4.819,2.336-7.711,8.452-12.2,3.967-2.892,5.153-4.374,5.153-6.747a4.243,4.243,0,0,0-4.226-4.486c-3.744,0-3.855,3.893-3.893,5.894h-4.708c.074-2.41.371-10.009,8.749-10.009,5.561,0,9.157,3.855,9.157,8.6,0,4.337-3.077,6.784-6.6,9.231-3.633,2.521-4.56,3.559-5.709,5.82h12.53v3.893H495.4Z" transform="translate(-220.822 -223.125)" fill="#fff"/>
        <path id="パス_4073" data-name="パス 4073" d="M512.68,307.574c.667-4.819,2.335-7.711,8.452-12.2,3.967-2.892,5.153-4.374,5.153-6.747a4.243,4.243,0,0,0-4.226-4.486c-3.744,0-3.855,3.893-3.893,5.894h-4.708c.074-2.41.371-10.009,8.749-10.009,5.561,0,9.157,3.855,9.157,8.6,0,4.337-3.077,6.784-6.6,9.231-3.633,2.521-4.56,3.559-5.709,5.82h12.53v3.893H512.68Z" transform="translate(-216.749 -223.125)" fill="#fff"/>
        <path id="パス_4074" data-name="パス 4074" d="M351.206,345.093c-8.6,0-9.416-10.084-9.416-13.568,0-4.449.779-14.5,9.416-14.5A8,8,0,0,1,358.324,321c1.854,2.966,2.3,6.562,2.3,10.046C360.622,334.454,360.066,345.093,351.206,345.093Zm-.074-24.06c-2.484,0-4.263,1.816-4.263,10.009-.037,8.564,1.928,10.046,4.337,10.046,2.706,0,4.3-2.076,4.3-10.046C355.507,322.48,353.579,321.034,351.132,321.034Z" transform="translate(-257.032 -214.403)" fill="#fff"/>
        <path id="パス_4075" data-name="パス 4075" d="M366.8,344.482V325.65h-7.34v-3.522h2.15a6.047,6.047,0,0,0,5.894-4.708h4v27.062Z" transform="translate(-252.866 -214.311)" fill="#fff"/>
        <path id="パス_4076" data-name="パス 4076" d="M373.32,344.574c.667-4.819,2.336-7.711,8.452-12.2,3.967-2.892,5.153-4.374,5.153-6.747a4.243,4.243,0,0,0-4.226-4.486c-3.744,0-3.855,3.893-3.892,5.894H374.1c.074-2.41.371-10.009,8.749-10.009,5.561,0,9.157,3.855,9.157,8.6,0,4.337-3.077,6.784-6.6,9.231-3.633,2.521-4.56,3.559-5.709,5.82h12.53v3.893H373.32Z" transform="translate(-249.599 -214.403)" fill="#fff"/>
        <path id="パス_4077" data-name="パス 4077" d="M400.046,345.093c-8.6,0-9.416-10.084-9.416-13.568,0-4.449.779-14.5,9.416-14.5A8,8,0,0,1,407.164,321c1.854,2.966,2.3,6.562,2.3,10.046C409.462,334.454,408.906,345.093,400.046,345.093Zm-.074-24.06c-2.484,0-4.263,1.816-4.263,10.009-.037,8.564,1.928,10.046,4.337,10.046,2.706,0,4.3-2.076,4.3-10.046C404.347,322.48,402.419,321.034,399.972,321.034Z" transform="translate(-245.519 -214.403)" fill="#fff"/>
        <path id="パス_4078" data-name="パス 4078" d="M408.15,333.854V329.48h9.268v4.374Z" transform="translate(-241.389 -211.468)" fill="#fff"/>
        <path id="パス_4079" data-name="パス 4079" d="M417.93,344.574c.667-4.819,2.336-7.711,8.452-12.2,3.967-2.892,5.153-4.374,5.153-6.747a4.243,4.243,0,0,0-4.226-4.486c-3.744,0-3.855,3.893-3.893,5.894h-4.708c.074-2.41.371-10.009,8.749-10.009,5.561,0,9.157,3.855,9.157,8.6,0,4.337-3.077,6.784-6.6,9.231-3.633,2.521-4.56,3.559-5.709,5.82h12.53v3.893H417.93Z" transform="translate(-239.084 -214.403)" fill="#fff"/>
        <path id="パス_4080" data-name="パス 4080" d="M445.256,345.093c-8.6,0-9.416-10.084-9.416-13.568,0-4.449.779-14.5,9.416-14.5A8,8,0,0,1,452.374,321c1.854,2.966,2.3,6.562,2.3,10.046C454.672,334.454,454.116,345.093,445.256,345.093Zm-.074-24.06c-2.484,0-4.263,1.816-4.263,10.009-.037,8.564,1.928,10.046,4.337,10.046,2.706,0,4.3-2.076,4.3-10.046C449.556,322.48,447.629,321.034,445.182,321.034Z" transform="translate(-234.862 -214.403)" fill="#fff"/>
        <path id="パス_4081" data-name="パス 4081" d="M463.33,345.093c-7.451,0-9.49-7.229-9.49-12.79,0-2.855.259-15.274,9.935-15.274a8.218,8.218,0,0,1,5.783,2.261c1.483,1.409,1.928,2.6,2.41,5.042h-4.893a3.337,3.337,0,0,0-3.411-3.188c-3.967,0-4.56,4.745-5,8.378a6.213,6.213,0,0,1,5.524-2.892c4.523,0,8.193,3.744,8.193,8.749C472.376,339.829,469.262,345.093,463.33,345.093Zm0-14.384c-2.929,0-4.449,2.6-4.449,5.116,0,2.817,1.742,4.856,4.263,4.856,2.261,0,4.189-1.742,4.189-4.893C467.334,332.9,465.777,330.709,463.33,330.709Z" transform="translate(-230.619 -214.403)" fill="#fff"/>
        <path id="パス_4082" data-name="パス 4082" d="M471.24,333.854V329.48h9.268v4.374Z" transform="translate(-226.517 -211.468)" fill="#fff"/>
        <path id="パス_4083" data-name="パス 4083" d="M488.78,344.482V325.65h-7.34v-3.522h2.15a6.047,6.047,0,0,0,5.894-4.708h4v27.062Z" transform="translate(-224.113 -214.311)" fill="#fff"/>
        <path id="パス_4084" data-name="パス 4084" d="M507.507,332.323a39.931,39.931,0,0,0-2.78,12.159h-5.153a34.261,34.261,0,0,1,2.558-11.121c2.521-6.673,4.968-9.045,7.748-11.715l-1.668.185H494.94V317.42h19.8v4.411A27.477,27.477,0,0,0,507.507,332.323Z" transform="translate(-220.931 -214.311)" fill="#fff"/>
        <path id="パス_4085" data-name="パス 4085" d="M522.026,345.093c-8.6,0-9.416-10.084-9.416-13.568,0-4.449.779-14.5,9.416-14.5A8,8,0,0,1,529.144,321c1.854,2.966,2.3,6.562,2.3,10.046C531.442,334.454,530.886,345.093,522.026,345.093Zm-.074-24.06c-2.484,0-4.263,1.816-4.263,10.009-.037,8.564,1.928,10.046,4.337,10.046,2.706,0,4.3-2.076,4.3-10.046C526.327,322.48,524.4,321.034,521.952,321.034Z" transform="translate(-216.766 -214.403)" fill="#fff"/>
        <path id="パス_4086" data-name="パス 4086" d="M276.611,367.97a13.214,13.214,0,0,1,0-17.72l1.409,1.236a11.481,11.481,0,0,0,0,15.236Z" transform="translate(-273.2 -206.572)" fill="#fff"/>
        <path id="パス_4087" data-name="パス 4087" d="M285.765,354.283V365.7h-2.5V354.283H278.45V352.17h12.135v2.113Z" transform="translate(-271.962 -206.12)" fill="#fff"/>
        <path id="パス_4088" data-name="パス 4088" d="M289.89,365.7V352.17h10.232v2.113h-7.748v3.349h7.155v1.94h-7.155v4h8.045v2.113H289.89Z" transform="translate(-269.266 -206.12)" fill="#fff"/>
        <path id="パス_4089" data-name="パス 4089" d="M300.44,365.7V352.17h2.5v11.418h7.5V365.7h-10Z" transform="translate(-266.779 -206.12)" fill="#fff"/>
        <path id="パス_4090" data-name="パス 4090" d="M313.266,359.892a2.076,2.076,0,1,1,2.076-2.076A2.073,2.073,0,0,1,313.266,359.892Z" transform="translate(-264.245 -205.278)" fill="#fff"/>
        <path id="パス_4091" data-name="パス 4091" d="M320.566,354.285v3.5h6.426V359.9h-6.426v5.8h-2.5V352.16h9.6v2.113h-7.105Z" transform="translate(-262.623 -206.122)" fill="#fff"/>
        <path id="パス_4092" data-name="パス 4092" d="M337.472,365.7l-1-2.9h-5.684l-1,2.9H327.03l5.19-13.531h2.83l5.19,13.531Zm-3.547-10.207-.3-1.186-.309,1.186-1.8,5.2h4.226Z" transform="translate(-260.511 -206.12)" fill="#fff"/>
        <path id="パス_4093" data-name="パス 4093" d="M347.768,365.7l-3.089-5.338L341.59,365.7h-3.04l4.572-7.254-4.053-6.277h2.941l2.669,4.486,2.669-4.486h2.929l-4.041,6.277,4.56,7.254Z" transform="translate(-257.796 -206.12)" fill="#fff"/>
        <path id="パス_4094" data-name="パス 4094" d="M363.81,362.629a8.891,8.891,0,0,1-4.325,3.262l-1.372-1.915A6.183,6.183,0,0,0,361.449,362a5.843,5.843,0,0,0,1.335-3.682,4.34,4.34,0,0,0-1.335-3.238,4.717,4.717,0,0,0-3.151-1.236,26.032,26.032,0,0,1-2.3,8.242c-.556,1.149-1.409,2.706-2.373,2.706a5.277,5.277,0,0,1-3.707-4.992,7.989,7.989,0,0,1,8.168-7.859,6.553,6.553,0,0,1,6.9,6.747A6.9,6.9,0,0,1,363.81,362.629Zm-9.972-7.143a6.11,6.11,0,0,0-1.854,4.115c0,1.5.853,2.274,1.186,2.274.964,0,2.558-4.844,2.929-7.723A5.506,5.506,0,0,0,353.837,355.486Z" transform="translate(-255.115 -206.174)" fill="#fff"/>
        <path id="パス_4095" data-name="パス 4095" d="M378.867,366.908a16.015,16.015,0,0,1-6.389-1.928,15.635,15.635,0,0,1-3.262,1.347,14.608,14.608,0,0,1-3.485.667l-1-1.792a14.942,14.942,0,0,0,5.969-1.372,11.17,11.17,0,0,1-2.125-2.125l1-.914H367.5v-1.742h9.132l.927.976a12.558,12.558,0,0,1-3.275,3.781,16.445,16.445,0,0,0,5.437,1.335Zm-.754-6.92v-2.076H366.645v2.113h-1.891v-3.818H367.5a5.685,5.685,0,0,0-1.186-1.458l1.446-.964c-.334,0-.7,0-1.075-.012l-.828-1.8c.568.037,1.285.1,2.422.1a36.106,36.106,0,0,0,8.8-1.137l1.384,1.409c.074.074.3.309.3.482,0,.074-.049.111-.124.111s-.383-.074-.47-.074a5.062,5.062,0,0,0-.754.136,54.712,54.712,0,0,1-5.524.63,9.1,9.1,0,0,1,1.384,2.014l-.667.568h1.767a10.64,10.64,0,0,0,1.458-2.941l1.878.655c.049.012.371.148.371.3s-.185.148-.222.148c-.185.037-.21.037-.284.111-.259.371-.8,1.075-1.372,1.742h3.794V360h-1.878Zm-7.9-5.524,1.162-.816c-1.569.111-2.41.124-3.448.124a11.1,11.1,0,0,1,1.47,1.965l-.544.47H371.4A5.245,5.245,0,0,0,370.217,354.464Zm.049,6.327a8.951,8.951,0,0,0,2.163,2.014,8.733,8.733,0,0,0,2.076-2.014Z" transform="translate(-251.624 -206.412)" fill="#fff"/>
        <path id="パス_4096" data-name="パス 4096" d="M385.435,352.126c-.222.037-.259.049-.3.124a20.372,20.372,0,0,1-1.2,2.6c.3.148.42.21.42.334,0,.1-.049.148-.185.222-.185.148-.21.173-.21.222v11.344h-2.187v-8.551a6.981,6.981,0,0,1-.853,1.075L379.17,358a16.335,16.335,0,0,0,3.991-7.105l2.076.68c.148.049.47.148.47.358C385.695,352.051,385.62,352.089,385.435,352.126Zm8.292,4.931v8.032a1.748,1.748,0,0,1-1.965,2h-1.52l-.779-2.249c.161.025.976.1,1.162.1.556,0,.816-.074.816-.853v-7.031h-6.364V355h6.364v-4.078l2.2.148c.3.025.47.074.47.222,0,.074-.049.124-.185.235-.148.136-.21.21-.21.284V355h2.15v2.051h-2.138Zm-5.672,6.092a13.288,13.288,0,0,0-2.224-3.757l2.039-1.285A19.641,19.641,0,0,1,390.106,362Z" transform="translate(-248.22 -206.422)" fill="#fff"/>
        <path id="パス_4097" data-name="パス 4097" d="M398.549,363.914v-.606h-1.644v1.335H395.04V352.435h5.412v11.492h-1.9Zm0-9.663h-1.644v2.632h1.644Zm0,4.486h-1.644v2.731h1.644Zm10.355-.791v1.779h1.977v1.742H408.9v3.707c0,1.458-.8,1.8-3.151,1.816l-.9-2.212a11.243,11.243,0,0,0,1.223.074c.408,0,.754-.074.754-.655v-2.743h-5.721v-1.742h5.721v-1.779H401.07v-1.742h3.608v-1.5h-3.089v-1.742h3.089V350.89l2.274.111c.124,0,.247.049.247.21a.36.36,0,0,1-.185.259c-.185.148-.222.148-.222.247v1.236h3.4V354.7h-3.4v1.5h4.177v1.742H408.9ZM403.776,365a11.764,11.764,0,0,0-2.15-2.039l1.174-1.372a13.412,13.412,0,0,1,2.187,2Z" transform="translate(-244.479 -206.422)" fill="#fff"/>
        <path id="パス_4098" data-name="パス 4098" d="M412.642,357.189v9.651h-2V351.27h6.945v5.919Zm2.953-4.449h-2.953v.84H415.6Zm0,2.088h-2.953v.914H415.6Zm.865,9.812v.655h-1.9v-7.044h7.451v6.389Zm3.633-4.955H416.46v1h3.633Zm0,2.447H416.46v1.05h3.633Zm3.818,4.745h-.89l-1-2.039a9.386,9.386,0,0,0,1.075.074c.334,0,.667-.074.667-.717v-7.007h-5.042V351.27h7.044v13.42C425.765,366.321,425.271,366.877,423.912,366.877Zm-.148-14.137h-3.028v.84h3.028Zm0,2.088h-3.028v.914h3.028Z" transform="translate(-240.802 -206.332)" fill="#fff"/>
        <path id="パス_4099" data-name="パス 4099" d="M429.42,352.68l7.958,5.87-7.958,5.894Z" transform="translate(-236.375 -206)" fill="#fff"/>
        <path id="パス_4100" data-name="パス 4100" d="M449.743,361.255v5.388h-2.323v-5.388H440.66v-1.989h6.759v-6.018h-6.03V351.32h14.47v1.928H449.73v6.018h6.722v1.989Zm-5.413-2.706a16.5,16.5,0,0,0-1.8-3.855l1.854-.816a12.581,12.581,0,0,1,1.755,3.93Zm10.38-3.6c-.309.124-.371.161-.42.3a20.8,20.8,0,0,1-1.483,3.485l-1.816-.766c.593-1.335,1.149-2.731,1.643-4.127l1.854.618c.124.037.346.124.346.3A.219.219,0,0,1,454.71,354.953Z" transform="translate(-233.726 -206.32)" fill="#fff"/>
        <path id="パス_4101" data-name="パス 4101" d="M465.758,366.073v-.964h-7.007v1.05H456.54V351.8h11.381v14.273h-2.162Zm0-12.234h-7.007v3.522h7.007Zm0,5.449h-7.007v3.806h7.007Z" transform="translate(-229.983 -206.207)" fill="#fff"/>
        <path id="パス_4102" data-name="パス 4102" d="M471.93,365.7v-9.416h-3.67v-1.755h1.075a3.023,3.023,0,0,0,2.941-2.348h2v13.531H471.93Z" transform="translate(-227.22 -206.118)" fill="#fff"/>
        <path id="パス_4103" data-name="パス 4103" d="M481.408,366.005c-4.3,0-4.708-5.042-4.708-6.784,0-2.224.383-7.241,4.708-7.241a4,4,0,0,1,3.559,1.977,9.409,9.409,0,0,1,1.149,5.029C486.116,360.692,485.844,366.005,481.408,366.005Zm-.037-12.023c-1.236,0-2.125.9-2.125,5-.025,4.276.964,5.017,2.163,5.017,1.347,0,2.15-1.038,2.15-5.017C483.558,354.7,482.594,353.982,481.371,353.982Z" transform="translate(-225.23 -206.165)" fill="#fff"/>
        <path id="パス_4104" data-name="パス 4104" d="M487.73,355.948V353.39h2.484v2.558Zm0,7.414V360.8h2.484v2.558Z" transform="translate(-222.63 -205.832)" fill="#fff"/>
        <path id="パス_4105" data-name="パス 4105" d="M497.848,366.005c-4.3,0-4.708-5.042-4.708-6.784,0-2.224.383-7.241,4.708-7.241a4,4,0,0,1,3.559,1.977,9.409,9.409,0,0,1,1.149,5.029C502.556,360.692,502.284,366.005,497.848,366.005Zm-.037-12.023c-1.236,0-2.125.9-2.125,5-.025,4.276.964,5.017,2.163,5.017,1.347,0,2.15-1.038,2.15-5.017C500,354.7,499.034,353.982,497.811,353.982Z" transform="translate(-221.355 -206.165)" fill="#fff"/>
        <path id="パス_4106" data-name="パス 4106" d="M506.488,366.005c-4.3,0-4.708-5.042-4.708-6.784,0-2.224.383-7.241,4.708-7.241a4,4,0,0,1,3.559,1.977,9.409,9.409,0,0,1,1.149,5.029C511.2,360.692,510.912,366.005,506.488,366.005Zm-.037-12.023c-1.236,0-2.125.9-2.125,5-.012,4.276.964,5.017,2.162,5.017,1.347,0,2.15-1.038,2.15-5.017C508.638,354.7,507.674,353.982,506.451,353.982Z" transform="translate(-219.319 -206.165)" fill="#fff"/>
        <path id="パス_4107" data-name="パス 4107" d="M526.293,358.02a4.75,4.75,0,0,1-3.682,1.854,4.342,4.342,0,0,1-1.211-.148,17.514,17.514,0,0,1-2.818-1.026,7.677,7.677,0,0,0-3.238-.964c-1.322,0-1.891,1.137-2.509,2.336l-1.816-.914c1.038-1.705,2.113-3.4,4.127-3.4a12.7,12.7,0,0,1,4.078,1.186,11.239,11.239,0,0,0,3.46,1.063c1.73,0,2.336-1.5,2.694-2.4l1.779.89A6.471,6.471,0,0,1,526.293,358.02Z" transform="translate(-217.14 -205.309)" fill="#fff"/>
        <path id="パス_4108" data-name="パス 4108" d="M529.58,365.7v-9.416h-3.67v-1.755h1.075a3.023,3.023,0,0,0,2.941-2.348h2v13.531H529.58Z" transform="translate(-213.63 -206.118)" fill="#fff"/>
        <path id="パス_4109" data-name="パス 4109" d="M539.165,366.005c-3.72,0-4.745-3.608-4.745-6.389,0-1.433.136-7.637,4.968-7.637a4.114,4.114,0,0,1,2.892,1.137,4,4,0,0,1,1.211,2.521h-2.447a1.673,1.673,0,0,0-1.705-1.594c-1.977,0-2.274,2.373-2.5,4.189a3.1,3.1,0,0,1,2.756-1.446,4.19,4.19,0,0,1,4.1,4.374A4.684,4.684,0,0,1,539.165,366.005Zm0-7.192a2.349,2.349,0,0,0-2.224,2.558,2.134,2.134,0,1,0,4.226-.025C541.167,359.913,540.388,358.813,539.165,358.813Z" transform="translate(-211.625 -206.165)" fill="#fff"/>
        <path id="パス_4110" data-name="パス 4110" d="M545.38,355.948V353.39h2.484v2.558Zm0,7.414V360.8h2.484v2.558Z" transform="translate(-209.041 -205.832)" fill="#fff"/>
        <path id="パス_4111" data-name="パス 4111" d="M555.508,366.005c-4.3,0-4.708-5.042-4.708-6.784,0-2.224.383-7.241,4.708-7.241a4,4,0,0,1,3.559,1.977,9.409,9.409,0,0,1,1.149,5.029C560.216,360.692,559.932,366.005,555.508,366.005Zm-.037-12.023c-1.236,0-2.125.9-2.125,5-.012,4.276.964,5.017,2.162,5.017,1.347,0,2.15-1.038,2.15-5.017C557.658,354.7,556.694,353.982,555.471,353.982Z" transform="translate(-207.763 -206.165)" fill="#fff"/>
        <path id="パス_4112" data-name="パス 4112" d="M564.148,366.005c-4.3,0-4.708-5.042-4.708-6.784,0-2.224.383-7.241,4.708-7.241a4,4,0,0,1,3.559,1.977,9.409,9.409,0,0,1,1.149,5.029C568.856,360.692,568.572,366.005,564.148,366.005Zm-.037-12.023c-1.236,0-2.125.9-2.125,5-.012,4.276.964,5.017,2.163,5.017,1.347,0,2.15-1.038,2.15-5.017C566.3,354.7,565.334,353.982,564.111,353.982Z" transform="translate(-205.727 -206.165)" fill="#fff"/>
        <path id="パス_4113" data-name="パス 4113" d="M569.949,367.968l-1.409-1.236a11.481,11.481,0,0,0,0-15.236l1.409-1.236a13.31,13.31,0,0,1,3.411,8.86A13.121,13.121,0,0,1,569.949,367.968Z" transform="translate(-203.582 -206.57)" fill="#fff"/>
        <path id="パス_4114" data-name="パス 4114" d="M309.615,395.056h-3.386l-1.9-7.909-.371-2.817-.346,2.817-1.9,7.909H298.32l-3.88-13.3h3.312l2,7.909.371,2.743.42-2.743,1.952-7.909h2.941l1.952,7.909.42,2.743.371-2.743,2-7.909h3.312Z" transform="translate(-268.193 -199.145)" fill="#fff"/>
        <path id="パス_4115" data-name="パス 4115" d="M317.482,395.439c-4.5,0-6.3-3.312-6.3-6.821,0-5.116,3.534-7.118,6.722-7.118a5.926,5.926,0,0,1,4.325,1.656,4.771,4.771,0,0,1,1.483,3.411h-3.262a2.532,2.532,0,0,0-2.57-2.471c-1.705,0-3.435,1.458-3.435,4.35,0,1.73.618,4.35,3.114,4.35a2.787,2.787,0,0,0,2.842-2.62h3.336C323.438,391.41,322.5,395.439,317.482,395.439Z" transform="translate(-264.247 -199.206)" fill="#fff"/>
        <path id="パス_4116" data-name="パス 4116" d="M328.351,395.439a6.159,6.159,0,0,1-4.3-1.557,4.2,4.2,0,0,1-1.211-3.114H326.1a2.166,2.166,0,0,0,2.4,2.076c.272,0,1.9,0,1.9-1.31,0-.914-.667-1.211-2.768-1.952-2.719-.989-4.547-1.631-4.547-4.053,0-2.224,2.125-4.028,5.165-4.028a5.457,5.457,0,0,1,3.88,1.384,4.146,4.146,0,0,1,1.211,3.015h-3.262a1.713,1.713,0,0,0-1.9-1.8c-1.31,0-1.829.741-1.829,1.236,0,.667.618.89,1.656,1.285,3.312,1.26,3.435,1.335,4.2,1.854a3.427,3.427,0,0,1,1.483,2.842C333.69,393.907,331.243,395.439,328.351,395.439Z" transform="translate(-261.499 -199.206)" fill="#fff"/>
        <path id="パス_4117" data-name="パス 4117" d="M347.219,392.143a3.246,3.246,0,0,1-2.669-1.458,4.252,4.252,0,0,1-3.04,1.384c-2.422,0-3.608-2-3.608-4.177,0-3.46,2.719-6.055,4.943-6.055a3.015,3.015,0,0,1,2.521,1.606c.1-.47.173-.816.3-1.285h2.323c-.816,3.163-1.508,6.772-1.508,7.019,0,.593.494.84,1.038.84,1.409,0,2-1.952,2-3.658,0-5.017-3.88-6.376-6.673-6.376-4.572,0-6.846,3.46-6.846,7.019,0,2.892,1.631,7.044,7.044,7.044a9.384,9.384,0,0,0,6.4-2.224l1.409,1.854a12.12,12.12,0,0,1-7.884,2.694c-6.871,0-9.688-5.19-9.688-9.367a9.142,9.142,0,0,1,9.392-9.342c5.141,0,9.095,3.411,9.095,8.6C351.766,390.437,349.073,392.143,347.219,392.143Zm-4.251-8.255c-1.458,0-2.669,2.1-2.669,4.152,0,1.755.865,2.15,1.557,2.15a2.763,2.763,0,0,0,2.249-1.557,8.948,8.948,0,0,0,.692-2.521C344.7,384.555,343.709,383.888,342.968,383.888Z" transform="translate(-259.038 -200.111)" fill="#fff"/>
        <path id="パス_4118" data-name="パス 4118" d="M356.981,384.762a3.284,3.284,0,0,0-3.559,3.213v7.142H350.16v-13.3h3.262v.964l-.247,1.952c1.335-2.4,2.224-3.163,4.943-3.238v3.262Z" transform="translate(-255.059 -199.206)" fill="#fff"/>
        <path id="パス_4119" data-name="パス 4119" d="M360.9,389.433c.124.667.618,3.361,3.238,3.361a2.428,2.428,0,0,0,2.422-1.606h3.287a5.809,5.809,0,0,1-5.882,4.251c-3.608,0-6.327-2.4-6.327-6.945,0-4.745,2.941-6.994,6.228-6.994a5.673,5.673,0,0,1,4.893,2.521,9.9,9.9,0,0,1,1.335,5.412H360.9Zm2.991-5.264c-2.422,0-2.842,2.3-2.991,3.139h5.66C366.488,385.232,365.524,384.169,363.893,384.169Z" transform="translate(-253.296 -199.206)" fill="#fff"/>
        <path id="パス_4120" data-name="パス 4120" d="M385.319,395.118v-8.082c0-1.557-.445-2.793-2.051-2.793a2.652,2.652,0,0,0-2.521,2.793v8.082h-3.262v-8.082c0-1.038-.3-2.743-2.125-2.743a2.529,2.529,0,0,0-2.4,2.546v8.279H369.7v-13.3h3.262v.717l-.1,1.186A3.961,3.961,0,0,1,376.6,381.5a4.031,4.031,0,0,1,3.732,2.2,5.205,5.205,0,0,1,4.226-2.2c3.015,0,4.029,2.249,4.029,5.141v8.477h-3.262Z" transform="translate(-250.453 -199.206)" fill="#fff"/>
        <path id="パス_4121" data-name="パス 4121" d="M394,395.439c-5.141,0-6.9-3.608-6.9-6.871a6.746,6.746,0,0,1,6.969-7.068,6.644,6.644,0,0,1,6.945,7.019C401.014,391.93,398.938,395.439,394,395.439Zm.074-11.344c-1.829,0-3.633,1.433-3.633,4.35,0,2.521,1.384,4.4,3.732,4.4,3.065,0,3.534-2.719,3.534-4.375C397.7,385.43,395.9,384.095,394.069,384.095Z" transform="translate(-246.351 -199.206)" fill="#fff"/>
        <path id="パス_4122" data-name="パス 4122" d="M404.691,385.091v7.34c0,.593.247.865.816.865h1.409v2.471h-2c-2.6,0-3.485-1.038-3.485-3.139v-7.538H399.6v-2.62h1.829V378.74h3.262v3.732h2.3v2.62Z" transform="translate(-243.405 -199.857)" fill="#fff"/>
        <path id="パス_4123" data-name="パス 4123" d="M409.922,389.433c.124.667.618,3.361,3.238,3.361a2.428,2.428,0,0,0,2.422-1.606h3.287a5.809,5.809,0,0,1-5.882,4.251c-3.608,0-6.327-2.4-6.327-6.945,0-4.745,2.941-6.994,6.228-6.994a5.673,5.673,0,0,1,4.893,2.521,9.9,9.9,0,0,1,1.335,5.412h-9.194Zm2.99-5.264c-2.422,0-2.842,2.3-2.99,3.139h5.66C415.508,385.232,414.544,384.169,412.913,384.169Z" transform="translate(-241.74 -199.206)" fill="#fff"/>
        <path id="パス_4124" data-name="パス 4124" d="M418.3,388.876V385.96h6.179v2.916Z" transform="translate(-238.997 -198.155)" fill="#fff"/>
        <path id="パス_4125" data-name="パス 4125" d="M428.142,389.433c.124.667.618,3.361,3.238,3.361a2.428,2.428,0,0,0,2.422-1.606h3.287a5.809,5.809,0,0,1-5.882,4.251c-3.608,0-6.327-2.4-6.327-6.945,0-4.745,2.941-6.994,6.228-6.994A5.673,5.673,0,0,1,436,384.021a9.9,9.9,0,0,1,1.335,5.412h-9.194Zm2.99-5.264c-2.422,0-2.842,2.3-2.99,3.139h5.66C433.728,385.232,432.764,384.169,431.133,384.169Z" transform="translate(-237.445 -199.206)" fill="#fff"/>
        <path id="パス_4126" data-name="パス 4126" d="M443.619,395.056h-3.262l-4.177-13.3h3.411l2,7.217.4,2.175.4-2.175,2-7.217H447.8Z" transform="translate(-234.782 -199.145)" fill="#fff"/>
        <path id="パス_4127" data-name="パス 4127" d="M450.062,389.433c.124.667.618,3.361,3.238,3.361a2.428,2.428,0,0,0,2.422-1.606h3.287a5.809,5.809,0,0,1-5.882,4.251c-3.608,0-6.327-2.4-6.327-6.945,0-4.745,2.941-6.994,6.228-6.994a5.673,5.673,0,0,1,4.893,2.521,9.9,9.9,0,0,1,1.335,5.412h-9.194Zm2.99-5.264c-2.422,0-2.842,2.3-2.99,3.139h5.66C455.648,385.232,454.684,384.169,453.053,384.169Z" transform="translate(-232.279 -199.206)" fill="#fff"/>
        <path id="パス_4128" data-name="パス 4128" d="M467.048,395.118v-8.4c0-1.483-.618-2.471-2.249-2.471-1.335,0-2.916.667-2.916,3.114v7.76H458.62v-13.3h3.262v1.112l-.124,1.137a4.378,4.378,0,0,1,4.1-2.57c2.817,0,4.449,1.681,4.449,4.7v8.922Z" transform="translate(-229.492 -199.206)" fill="#fff"/>
        <path id="パス_4129" data-name="パス 4129" d="M474.571,385.091v7.34c0,.593.247.865.816.865H476.8v2.471h-2c-2.6,0-3.485-1.038-3.485-3.139v-7.538H469.48v-2.62h1.829V378.74h3.262v3.732h2.3v2.62Z" transform="translate(-226.932 -199.857)" fill="#fff"/>
        <path id="パス_4130" data-name="パス 4130" d="M477.26,393.17V389.76H480.6v3.411Z" transform="translate(-225.098 -197.259)" fill="#fff"/>
        <path id="パス_4131" data-name="パス 4131" d="M483.337,399.273H481.78V396.6h1.335a1.415,1.415,0,0,0,1.532-1.532V382.665h3.262v13.049C487.909,398.285,486.377,399.273,483.337,399.273Zm1.31-18.14V377.92h3.262v3.213Z" transform="translate(-224.033 -200.05)" fill="#fff"/>
        <path id="パス_4132" data-name="パス 4132" d="M496.006,395.439a4.088,4.088,0,0,1-2.916-1.162,4.147,4.147,0,0,1-.865-1.285l.2,2.521v2.916H489.16V381.821h3.262v.84l-.124,1.063a3.62,3.62,0,0,1,3.534-2.224c3.757,0,5.338,3.336,5.338,6.722C501.171,391.806,499.392,395.439,496.006,395.439Zm-.741-11.146c-1.952,0-2.842,2.249-2.842,4.177,0,1.681.346,4.251,2.694,4.251,2.15,0,2.793-2.62,2.793-4.424C497.909,386.418,497.192,384.293,495.264,384.293Z" transform="translate(-222.293 -199.206)" fill="#fff"/>
        <path id="パス_4133" data-name="パス 4133" d="M504.761,395.361a10.545,10.545,0,0,1,0-14.161l1.125.989a9.186,9.186,0,0,0,0,12.184Z" transform="translate(-219.26 -199.277)" fill="#fff"/>
        <path id="パス_4134" data-name="パス 4134" d="M506.33,393.58c.272-1.928.939-3.077,3.386-4.881,1.582-1.149,2.064-1.755,2.064-2.694a1.7,1.7,0,0,0-1.693-1.792c-1.5,0-1.545,1.557-1.557,2.36h-1.878c.025-.964.148-4,3.5-4a3.433,3.433,0,0,1,3.658,3.435c0,1.73-1.236,2.719-2.632,3.695a5.677,5.677,0,0,0-2.286,2.323h5v1.557Z" transform="translate(-218.246 -198.954)" fill="#fff"/>
        <path id="パス_4135" data-name="パス 4135" d="M519.563,391.232v2.311H517.61v-2.311H513.1v-1.557l4.263-6.945h2.2V389.8h1.446v1.433ZM517.388,385l-2.694,4.387-.42.507.42-.1h2.916v-4.461l.074-.976Z" transform="translate(-216.65 -198.916)" fill="#fff"/>
        <path id="パス_4136" data-name="パス 4136" d="M523.527,392.117v-.494h-1.322v1.063h-1.5v-9.762h4.325v9.194Zm0-7.723h-1.322v2.1h1.322Zm0,3.584h-1.322v2.175h1.322Zm8.279-.643v1.421h1.582v1.4h-1.582v2.966c0,1.174-.643,1.433-2.521,1.458l-.729-1.767a8.818,8.818,0,0,0,.976.062c.321,0,.606-.062.606-.519v-2.2h-4.585v-1.4h4.585v-1.421h-4.609v-1.4h2.892v-1.2h-2.471v-1.4h2.471V381.7l1.829.086c.1,0,.2.049.2.161a.307.307,0,0,1-.148.21c-.148.124-.173.124-.173.2v.989h2.706v1.4h-2.706v1.2h3.336v1.4Zm-4.1,5.647a9.6,9.6,0,0,0-1.718-1.631l.927-1.1a11.3,11.3,0,0,1,1.755,1.594Z" transform="translate(-214.856 -199.159)" fill="#fff"/>
        <path id="パス_4137" data-name="パス 4137" d="M534.806,386.73v7.723H533.2V382.01h5.561v4.733h-3.954Zm2.348-3.559h-2.36v.667h2.36Zm0,1.681h-2.36v.729h2.36Zm.7,7.834v.519h-1.532v-5.635h5.956v5.116h-4.424Zm2.9-3.954h-2.9v.8h2.9Zm0,1.965h-2.9v.84h2.9Zm3.052,3.794H543.1l-.8-1.631c.247.025.568.062.865.062.272,0,.531-.062.531-.581v-5.6h-4.029V382.01H545.3v10.726C545.3,394.046,544.9,394.491,543.815,394.491Zm-.124-11.319h-2.41v.667h2.41Zm0,1.681h-2.41v.729h2.41Z" transform="translate(-211.912 -199.086)" fill="#fff"/>
        <path id="パス_4138" data-name="パス 4138" d="M551.265,385.368a17.514,17.514,0,0,1-1.359,4.473c.457.741.964,1.557,1.644,2.9l-1.557.952a20.926,20.926,0,0,0-1.026-2.175,12.781,12.781,0,0,1-2.682,3.04l-1.545-1.013a12.482,12.482,0,0,0,3.25-3.621,13.578,13.578,0,0,0-2.385-2.756l1.322-.964a10.932,10.932,0,0,1,1.878,2.088,13.441,13.441,0,0,0,.766-2.941h-4.251v-1.508h2.669v-2.076l1.866.124c.074,0,.2.049.2.161,0,.148-.136.173-.3.346v1.458h2.694v1.508h-1.186Zm1.433,5.783a7.537,7.537,0,0,0-1.186-2.36l1.433-.8a6.8,6.8,0,0,1,1.273,2.434Zm4.053-3.942v5.548c0,1.569-.47,1.755-2.471,1.779l-.8-1.594c1.532.086,1.644-.012,1.644-.531v-5.19H551.8v-1.508h3.324v-4l1.656.087c.124,0,.346.049.346.222a.3.3,0,0,1-.136.222c-.21.173-.235.21-.235.3v3.176h1.273v1.508h-1.273Z" transform="translate(-209.192 -199.157)" fill="#fff"/>
        <path id="パス_4139" data-name="パス 4139" d="M559.757,384.9a20.281,20.281,0,0,1,.086,2.076c0,4.733-.544,6.339-1.186,7.736l-1.718-.531a11.928,11.928,0,0,0,1.248-6.1c0-.235-.012-2.533-.235-4.683h4.918V381.71l1.878.124c.42.025.457.086.457.21,0,.049-.012.124-.173.21-.123.074-.2.1-.2.173v.964h5.449V384.9H559.757Zm2.546,4.276c-.124.148-.148.173-.161.247a14.909,14.909,0,0,1-.914,4.041l-1.631-.618a13.2,13.2,0,0,0,.914-4.325l1.5.309c.136.025.358.074.358.222A.169.169,0,0,1,562.3,389.174Zm3.917,5.4h-2.6c-.815,0-1.1-.692-1.1-1.322v-6.08l1.681.074c.3.012.531.062.531.21,0,.087-.049.124-.222.272a.227.227,0,0,0-.087.173v4.251c0,.519.087.717.457.717h.618a.536.536,0,0,0,.544-.531c.012-.049.012-.989.012-1.125l1.631.618C567.592,393.3,567.468,394.574,566.22,394.574Zm.086-5.993a10.691,10.691,0,0,0-2.447-2.434l1.26-1.248a16.125,16.125,0,0,1,2.607,2.546Zm2.583,5.042a20.049,20.049,0,0,0-1.792-4.3l1.631-.865a21.49,21.49,0,0,1,1.928,4.486Z" transform="translate(-206.316 -199.157)" fill="#fff"/>
        <path id="パス_4140" data-name="パス 4140" d="M570.624,395.361l-1.124-.989a9.186,9.186,0,0,0,0-12.184l1.124-.989a10.544,10.544,0,0,1,0,14.161Z" transform="translate(-203.355 -199.277)" fill="#fff"/>
      </g>
      <path id="パス_4141" data-name="パス 4141" d="M323.063,322.6v15.249a1.709,1.709,0,0,1-1.705,1.705h-2.422a1.709,1.709,0,0,1-1.705-1.705V322.6a1.709,1.709,0,0,1,1.705-1.705h2.422a1.712,1.712,0,0,1,1.705,1.681Zm5.375-1.3h.692v-1.112h.989v-.581h-.989v-.63h1.149V318.4h-1.854v2.9Zm1.977,0h.7l.173-.667h.853l.173.667h.729l-.9-2.9h-.828Zm1.075-1.458c.074-.284.148-.63.222-.927h.012c.074.3.148.643.235.927l.062.247h-.593Zm1.582,1.458h.741l.247-.568c.062-.148.136-.309.2-.482h.012c.074.185.148.334.21.482l.272.568h.779l-.8-1.458.741-1.446h-.741l-.21.519a4.659,4.659,0,0,0-.185.47h-.012c-.086-.185-.148-.334-.21-.47l-.235-.519H333.1l.754,1.409Zm7.044,2.5v17.275a1.213,1.213,0,0,1-1.211,1.211H321.654a1.213,1.213,0,0,1-1.211-1.211v-.729h.927a2.484,2.484,0,0,0,2.484-2.484V322.6h1.05v-6.03h11.7l.173.173.173.173,2.1,2.1.173.173.173.173v3.349A1.176,1.176,0,0,1,340.116,323.8Zm-10.788,14.31h-2.249v2.249h2.249Zm0-3.818h-2.249v2.249h2.249Zm0-3.818h-2.249v2.249h2.249Zm3.781,7.637H330.86v2.249h2.249Zm0-3.818H330.86v2.249h2.249Zm0-3.818H330.86v2.249h2.249Zm3.781,7.637h-2.249v2.249h2.249Zm0-3.818h-2.249v2.249h2.249Zm0-3.818h-2.249v2.249h2.249Zm0-5.969h-9.812v4.585h9.812Zm2.15-5.165h-2.434v-2.447H325.237v5.684h13.655a.6.6,0,0,1,.148.012v-3.25Z" transform="translate(10.379 19.468)" fill="#fff"/>
      <path id="パス_4142" data-name="パス 4142" d="M292.1,381.11H277.591a2.524,2.524,0,0,0-2.521,2.521v9.342a2.524,2.524,0,0,0,2.521,2.521H292.1a2.524,2.524,0,0,0,2.521-2.521v-9.342A2.532,2.532,0,0,0,292.1,381.11Zm-3.72,6.846,4.424-3.67v8.094Zm-11.492,4.412v-8.094l4.424,3.67Zm1.125-9.453h13.655l-6.834,5.672Zm-.42,10.763a.612.612,0,0,1-.334-.087l4.918-4.918,2.1,1.742a.874.874,0,0,0,1.137,0l2.1-1.742,4.918,4.918a.742.742,0,0,1-.334.087Z" transform="translate(0.441 34.682)" fill="#fff"/>
      <g id="グループ_584" data-name="グループ 584" transform="translate(383.847 438.64)">
        <path id="パス_4143" data-name="パス 4143" d="M363.135,409.788l-.4-.4,4.016-4-4.016-4,.4-.4,4,4.016,4-4.016.4.4-4.016,4,4.016,4-.4.4-4-4.016Zm1.668-4.4a1.032,1.032,0,1,1-1.026-1.026A1.031,1.031,0,0,1,364.8,405.389Zm3.361-3.349A1.026,1.026,0,1,1,367.139,401,1.031,1.031,0,0,1,368.165,402.04Zm0,6.71a1.026,1.026,0,1,1-1.026-1.026A1.023,1.023,0,0,1,368.165,408.75Zm3.373-3.361a1.032,1.032,0,1,1-1.038-1.026A1.034,1.034,0,0,1,371.538,405.389Z" transform="translate(-362.74 -399.272)" fill="#fff"/>
        <path id="パス_4144" data-name="パス 4144" d="M382.768,410.741h-5.845a2.707,2.707,0,0,1-2.583-1.125c-.334.284-.643.581-.952.89-.185.173-.222.21-.235.4-.012.136-.037.161-.1.161-.124,0-.272-.185-.321-.259l-.754-1.223a10.631,10.631,0,0,0,1.755-1.05v-2.558h-1.508v-1.433h2.916v3.633c.507-.816,1.075-1.742,1.075-4.758,0-.655-.025-1.236-.124-2.892h6.747v1.248h-5.351v1.174h4.362l.507.667a13.116,13.116,0,0,1-1.742,3.312,7,7,0,0,0,2.36,1.112l-1.112,1.125a7.5,7.5,0,0,1-2.088-1.26,6.459,6.459,0,0,1-2.249,1.5l-1.026-.853c-.012.025-.124.21-.136.235l-1.223-.408c.124.816.358,1.26,3.028,1.26,1.792,0,4.127-.222,5.277-.334Zm-8.551-7.884a9.213,9.213,0,0,0-1.854-1.606l1.05-1a9.329,9.329,0,0,1,1.952,1.619Zm3.559,1.359h-.284a10.714,10.714,0,0,1-.9,4.14,6.514,6.514,0,0,0,2.3-1.446A7.614,7.614,0,0,1,377.776,404.217Zm1.236,0a6.289,6.289,0,0,0,.692,1.829,5.436,5.436,0,0,0,.927-1.829Z" transform="translate(-360.562 -399.447)" fill="#fff"/>
        <path id="パス_4145" data-name="パス 4145" d="M385.941,401.131c-.222.087-.222.087-.309.284-.3.643-.346.729-.741,1.5.124.074.272.161.272.3a.226.226,0,0,1-.062.136.665.665,0,0,0-.148.222v7.217h-1.347V404.8a5.991,5.991,0,0,1-.618.766l-1.038-.791a12.815,12.815,0,0,0,2.632-4.436l1.223.42c.111.049.259.1.259.235C386.065,401.069,386.016,401.106,385.941,401.131Zm-.1,2.2v-1.137h7.291v1.137Zm5.326,7.439v-.383H387.7v.383h-1.409v-3.757h6.29v3.757Zm-4.387-9.021v-1.137h5.474v1.137Zm0,3.163v-1.137h5.474v1.137Zm0,1.569v-1.137h5.474v1.137Zm4.387,1.668H387.7v1.1h3.472Z" transform="translate(-358.212 -399.425)" fill="#fff"/>
        <path id="パス_4146" data-name="パス 4146" d="M399.814,409.913a9.312,9.312,0,0,0-2.261-1.223c-.049,1.26-.346,1.755-1.928,1.755-1.705,0-2.768-.605-2.768-1.606,0-.358.124-1.792,2.9-1.693l.346.012-.025-1.186c-.222.012-.9.037-1.26.037-1.137,0-1.705-.408-1.705-.89,0-.605.84-1.186,1.322-1.532l.7.605c-.222.161-.408.3-.408.457s.259.173.47.173a8.458,8.458,0,0,0,.853-.025l-.025-1.545c-1.421.062-2.125.111-3.188.235l-.025-1.335c1.409,0,2.076-.025,3.176-.049l-.037-1.644,1.508.148c.235.025.309.062.309.148,0,.049-.025.062-.161.173a.4.4,0,0,0-.161.222c0,.012-.012.247-.025.89,1.582-.074,2-.1,3.163-.185l-.049,1.31c-1.372,0-2.521.025-3.139.037v1.458c1.075-.136,1.532-.21,2.669-.42v1.347a26.54,26.54,0,0,1-2.645.309c.025.618.025.741.062,1.471a10.273,10.273,0,0,1,3.126,1.4Zm-4.276-1.619c-.8,0-1.2.21-1.2.531,0,.42.791.42.939.42.8,0,.853-.222.84-.914A3.2,3.2,0,0,0,395.538,408.294Z" transform="translate(-355.649 -399.397)" fill="#fff"/>
        <path id="パス_4147" data-name="パス 4147" d="M406.286,403.819a4.587,4.587,0,0,0-1.508,2.966,1.961,1.961,0,0,0,.89,1.606,3.893,3.893,0,0,0,2.175.63l-.482,1.508a5.546,5.546,0,0,1-3.04-1.372,3.1,3.1,0,0,1-.914-2.224,4.5,4.5,0,0,1,.84-2.459,9.219,9.219,0,0,1,1.631-1.878c-1.656.136-3.472.284-4.708.457l-.21-1.384a34.175,34.175,0,0,0,8.835-.989v1.433A5.035,5.035,0,0,0,406.286,403.819Zm2.583,2.1a5.484,5.484,0,0,0-1.013-.952l.507-.593a5.387,5.387,0,0,1,1.026.952Zm1-1.125a5.724,5.724,0,0,0-1.026-.939l.519-.593a5.7,5.7,0,0,1,1.026.939Z" transform="translate(-353.731 -399.345)" fill="#fff"/>
        <path id="パス_4148" data-name="パス 4148" d="M412.15,409.825l-.976.383a3.782,3.782,0,0,1-.457-.976,10.767,10.767,0,0,1-.507-3.25,21.861,21.861,0,0,1,.185-2.434,24.342,24.342,0,0,1,.519-2.817l1.26.457c.086.037.321.124.321.222a.146.146,0,0,1-.062.111c-.025.012-.185.074-.21.086a11.742,11.742,0,0,0-.717,4.214,6.8,6.8,0,0,0,.173,1.693c.148-.26.222-.383.494-.865l.729.4A10.965,10.965,0,0,0,412.15,409.825Zm4.424-.358c-2.249,0-2.719-.605-2.756-2.694l1.347-.185c.012,1.174.136,1.508,1.384,1.508a10.079,10.079,0,0,0,2.817-.383v1.532A16.88,16.88,0,0,1,416.574,409.466Zm-.989-6.339c-.1,0-.667,0-1.322-.062v-1.359a10.892,10.892,0,0,0,1.582.136,8.632,8.632,0,0,0,2.929-.507v1.433A16.6,16.6,0,0,1,415.585,403.127Z" transform="translate(-351.55 -399.334)" fill="#fff"/>
        <path id="パス_4149" data-name="パス 4149" d="M419.51,407.525a35.4,35.4,0,0,1,3.089-1.891l-.012-1.594a12.124,12.124,0,0,1-1.878.062l-.185-1.4a9.962,9.962,0,0,0,1.211.062c.309,0,.494-.012.853-.037-.012-1.4-.012-1.508-.025-2.311l1.372.185c.346.049.346.136.346.2s-.185.2-.21.235c-.049.074-.086,1.285-.1,1.52a7.845,7.845,0,0,0,1.9-.643v1.409a10.77,10.77,0,0,1-1.928.531l-.012,1.223a6.842,6.842,0,0,1,1.9-.284,2.749,2.749,0,0,1,2.978,2.817,2.5,2.5,0,0,1-2.311,2.719c-1.359,0-1.532-.853-1.705-1.755l1.149-.457c.148.507.247.828.63.828.445,0,.951-.445.951-1.31a1.622,1.622,0,0,0-1.718-1.643,5.538,5.538,0,0,0-1.878.433c-.012,1.965-.012,2.187-.025,3.695l-1.31.519c-.531-.568-.84-.9-1.965-2.088a4.986,4.986,0,0,0-.371.358Zm3.089-.433a12.683,12.683,0,0,0-1.125.754,10.392,10.392,0,0,0,1.125,1.162Zm6.352-2.2a7.187,7.187,0,0,0-2.434-1.409l.8-1.087a9.089,9.089,0,0,1,2.434,1.4Z" transform="translate(-349.358 -399.407)" fill="#fff"/>
        <path id="パス_4150" data-name="パス 4150" d="M431.458,408.875v-.408h-1.1v.89H429.11v-8.143h3.608v7.661h-1.26Zm0-6.426h-1.1V404.2h1.1Zm0,2.978h-1.1v1.817h1.1Zm6.908-.531v1.186h1.322v1.162h-1.322v2.471c0,.976-.531,1.2-2.1,1.211l-.605-1.47a7.593,7.593,0,0,0,.816.049c.272,0,.507-.049.507-.432v-1.829h-3.818v-1.162h3.818V404.9h-3.843v-1.162h2.41v-1h-2.064v-1.162h2.064V400.2l1.52.074c.087,0,.161.037.161.136a.245.245,0,0,1-.124.173c-.124.1-.148.1-.148.161v.828h2.261v1.162h-2.261v1h2.78V404.9Zm-3.423,4.708a7.985,7.985,0,0,0-1.433-1.359l.779-.914a8.778,8.778,0,0,1,1.458,1.335Z" transform="translate(-347.095 -399.458)" fill="#fff"/>
        <path id="パス_4151" data-name="パス 4151" d="M440.854,404.4v6.438H439.52v-10.38h4.634V404.4Zm1.965-2.966h-1.965v.556h1.965Zm0,1.4h-1.965v.606h1.965Zm.581,6.525v.433h-1.273v-4.7h4.968v4.263H443.4Zm2.422-3.3H443.4v.667h2.422Zm0,1.631H443.4v.7h2.422Zm2.546,3.163h-.593l-.667-1.359a6.313,6.313,0,0,0,.717.049c.222,0,.445-.049.445-.482v-4.671h-3.361V400.45h4.7V409.4C449.6,410.484,449.27,410.855,448.368,410.855Zm-.1-9.416h-2.014v.556h2.014Zm0,1.4h-2.014v.606h2.014Z" transform="translate(-344.641 -399.4)" fill="#fff"/>
        <path id="パス_4152" data-name="パス 4152" d="M455.553,406.341c0,.482.025,2.014.025,2.434h-1.433c.037-.7.049-1.31.062-1.854-.47.235-1.755.877-1.755,1.742,0,.8.952.964,1.854.964a14.286,14.286,0,0,0,3.151-.4v1.4a20.453,20.453,0,0,1-2.941.185,4.058,4.058,0,0,1-2.9-.828,1.689,1.689,0,0,1-.47-1.211c0-1.532,1.137-2.113,2.99-3.065a.856.856,0,0,0-.939-.816c-1.211,0-1.952,1.125-2.632,2.237l-1.211-.754a16.434,16.434,0,0,0,2.434-3.4c-.7.037-1.087.049-1.606.049l-.148-1.285a17.388,17.388,0,0,0,2.36.049,9.576,9.576,0,0,0,.618-1.643l1.545.272c.037.012.247.037.247.124s-.049.111-.124.136c-.025.012-.272.124-.284.124s-.321.7-.383.84a10.433,10.433,0,0,0,2.422-.63l-.087,1.384a26.023,26.023,0,0,1-2.953.47c-.4.729-.494.9-.7,1.223a2.389,2.389,0,0,1,1.063-.26,1.656,1.656,0,0,1,1.681,1.248c1.446-.68,1.606-.754,2.187-1.013l.42,1.409C457.061,405.785,456.468,405.995,455.553,406.341Z" transform="translate(-342.324 -399.47)" fill="#fff"/>
        <path id="パス_4153" data-name="パス 4153" d="M460.714,401.694v8.168c0,.791-.544,1.075-2.175,1.063l-.643-1.582a5.346,5.346,0,0,0,.84.062c.371,0,.531-.062.531-.445v-7.266H457.86v-1.335h4.09v1.335h-1.236Zm6.834,9.206a7.223,7.223,0,0,1-2.286-1.631l.606-.618h-1.693l.643.7a.432.432,0,0,1,.136.26c0,.086-.049.136-.185.136a1,1,0,0,1-.309-.062,11.739,11.739,0,0,1-2.323,1.31l-1.026-1.1a6.17,6.17,0,0,0,2.41-1.248h-1.1v-6.228h1.557a6.808,6.808,0,0,0,.309-.8h-1.952v-1.31h6.2v1.31h-2.583a4.673,4.673,0,0,1-.42.8h2.41v6.228h-1.458a5.974,5.974,0,0,0,2.138,1.125Zm-.865-7.291H463.73v.593h2.953Zm0,1.582H463.73v.606h2.953Zm0,1.594H463.73v.655h2.953Z" transform="translate(-340.318 -399.433)" fill="#fff"/>
        <path id="パス_4154" data-name="パス 4154" d="M478.7,410.365a.848.848,0,0,1-.8.593c-.593,0-1.223-.692-1.718-1.372a9.35,9.35,0,0,1-1.483,1.483l-.865-.816-.581.692a5.446,5.446,0,0,1-1.693-1.162l.68-.779H470.3l.717.618a.327.327,0,0,1,.124.235c0,.062-.025.1-.148.1a1.4,1.4,0,0,1-.222-.037,9.57,9.57,0,0,1-1.841,1.273l-.914-1a4.589,4.589,0,0,0,1.829-1.186h-1.755v-.865h1.9v-.408h-1.409v-.766h1.409v-.4h-1.211V403.84h5.252v2.731h-1.087v.4h1.446v.766h-1.446v.408h1.977v.865h-2.373a4.2,4.2,0,0,0,1.347.914,6.82,6.82,0,0,0,1.594-1.569,17.47,17.47,0,0,1-.964-4.844h-6.438v-1.075h2.595V402h-2.163v-1.038h2.163v-.7l1.335.062c.148.012.309.025.309.148,0,.037-.037.074-.111.124-.1.062-.124.074-.124.111v.259h2.076V402h-2.076v.433h2.373c-.025-.828-.025-1.421.012-2.261l1.335.124c.235.025.3.049.3.148a.091.091,0,0,1-.025.074,1.753,1.753,0,0,0-.247.173,10.213,10.213,0,0,0-.111,1.742h2.99v1.075h-2.966a14.435,14.435,0,0,0,.544,3.188,18.876,18.876,0,0,0,.667-2.57l1.322.433c.074.025.259.087.259.21,0,.049-.025.074-.161.1-.173.037-.173.049-.222.222a15.491,15.491,0,0,1-1.186,3.275c.148.334.4.84.667.84.222,0,.3-.779.321-1.075l1.05.593A5.7,5.7,0,0,1,478.7,410.365Zm-7.909-5.845h-.877v.383h.877Zm0,.951h-.877v.4h.877Zm1.137,1.1h-.914v.4h.914Zm0,1.162h-.914v.408h.914Zm.964-3.213h-.9v.383h.9Zm0,.951h-.9v.4h.9Zm4.313-3.077a9.087,9.087,0,0,0-.952-1.433l1.063-.63a4.542,4.542,0,0,1,1.026,1.446Z" transform="translate(-337.925 -399.466)" fill="#fff"/>
        <path id="パス_4155" data-name="パス 4155" d="M484.081,403.222v1.73a3.188,3.188,0,0,1,.358,1.508,5.54,5.54,0,0,1-.63,2.385,8.571,8.571,0,0,1-1.681,2.3l-1.384-.717a3.943,3.943,0,0,0,1.767-2.027,2.484,2.484,0,0,1-.667.124,1.556,1.556,0,0,1-1.013-.383,2.211,2.211,0,0,1-.643-1.718c0-1.359.68-2.3,1.94-2.3a1.629,1.629,0,0,1,.581.1l-.025-.927c-1.1.062-2.966.173-4.535.371v-1.433c.84,0,1.9,0,4.5-.124-.012-.383-.012-1.038-.087-1.94l1.372.086c.284.012.358.049.358.173,0,.074-.025.111-.111.185s-.1.1-.1.148v1.273c1.718-.1,2.1-.136,3.361-.235v1.335C486.5,403.136,485.688,403.16,484.081,403.222Zm-1.372,2.249a.643.643,0,0,0-.457-.173c-.494,0-.84.433-.84,1.087,0,.741.4,1.026.68,1.026.26,0,.853-.272.853-1.149A1.116,1.116,0,0,0,482.71,405.471Z" transform="translate(-335.535 -399.466)" fill="#fff"/>
        <path id="パス_4156" data-name="パス 4156" d="M491.263,410.409c-1.545,0-2.336-.779-2.336-1.693a1.731,1.731,0,0,1,1.817-1.644,3.23,3.23,0,0,1,2.434,1.446,2.177,2.177,0,0,0,.816-1.643c0-1.223-1.2-1.619-2-1.619a3.352,3.352,0,0,0-1.409.309,13.949,13.949,0,0,0-2.546,2.212L487,406.69a24.4,24.4,0,0,0,4.572-4.461,11.537,11.537,0,0,1-2.892.309l-.284-1.384c.3.025,1,.074,1.384.074a14,14,0,0,0,3.744-.618l.643,1a30.546,30.546,0,0,0-2.743,2.644,9.836,9.836,0,0,1,1.2-.074,2.724,2.724,0,0,1,2.743,2.731C495.366,408.963,493.438,410.409,491.263,410.409Zm-.47-2.249a.544.544,0,0,0-.618.519c0,.433.568.556,1.013.556a3.515,3.515,0,0,0,.84-.111C491.869,408.84,491.5,408.16,490.794,408.16Z" transform="translate(-333.449 -399.362)" fill="#fff"/>
        <path id="パス_4157" data-name="パス 4157" d="M501.58,405.831a3.731,3.731,0,0,1-.222.445h4.5a9.408,9.408,0,0,1-.68,3.757c-.371.581-.976.754-1.965.766l-.494-1.211a7.939,7.939,0,0,1-1.52,1.3l-.927-.618a8.146,8.146,0,0,0,2.817-2.966h-.618a6.689,6.689,0,0,1-1.211,1.619,12.161,12.161,0,0,1-1.94,1.532l-.964-.68A7.609,7.609,0,0,0,501.3,407.3h-.568a9.41,9.41,0,0,1-1.656,1.569l-.976-.655a7.017,7.017,0,0,0,1.087-.816c-.84.321-2.2.779-2.558.865-.457.111-.507.124-.581.21-.136.148-.173.2-.235.2a.1.1,0,0,1-.087-.087L495.5,407.2c.4-.074.939-.21,1.372-.321V404h-1.2v-1.273h1.2V400.27l1.433.111c.074.012.161.049.161.136s-.062.136-.136.2c-.062.037-.161.1-.161.185v1.829h1.285V404h-1.285v2.521c.432-.124.84-.247,1.248-.4v1.026a4.746,4.746,0,0,0,.9-1.322h-1.174v-1H506v1H501.58Zm-1.52-1.471v-3.893h5.017v3.893Zm3.818-2.842h-2.62v.519h2.62Zm0,1.4h-2.62v.531h2.62Zm.371,4.387a7.1,7.1,0,0,1-1.421,2.163,3.337,3.337,0,0,0,.667.074.62.62,0,0,0,.655-.346,4.671,4.671,0,0,0,.4-1.891Z" transform="translate(-331.445 -399.442)" fill="#fff"/>
        <path id="パス_4158" data-name="パス 4158" d="M515.881,405.377a11.137,11.137,0,0,1-2.336-1.273v1h-4.968v-.766a11.228,11.228,0,0,1-2.2,1.285l-1.038-1.05a10.709,10.709,0,0,0,5.116-4.424l1.446.284c.111.025.173.1.173.136s-.111.148-.185.2a7.9,7.9,0,0,0,1.952,1.94,9.937,9.937,0,0,0,3.1,1.433Zm-2.533,5.425v-.371h-4.473v.42h-1.347v-4.795h7.217V410.8Zm0-3.534h-4.473v1.891h4.473Zm-2.274-5.474a9.449,9.449,0,0,1-1.854,2.051h3.967A13.038,13.038,0,0,1,511.074,401.794Z" transform="translate(-329.126 -399.47)" fill="#fff"/>
        <path id="パス_4159" data-name="パス 4159" d="M521.405,409.6a1.856,1.856,0,0,1-1.409.482,8.687,8.687,0,0,1-.927-.049l-.3-1.335a3.633,3.633,0,0,0,.84.1.961.961,0,0,0,.853-.346,5.538,5.538,0,0,0,.655-2.842c0-.951-.235-1.248-1-1.248a4.085,4.085,0,0,0-.667.062,16.589,16.589,0,0,1-2.348,5.721l-1.285-.581a13.114,13.114,0,0,0,2.237-4.819,11.071,11.071,0,0,0-1.681.667l-.457-1.483c.939-.148,1.359-.235,2.373-.457a14.789,14.789,0,0,0,.124-2.348l1.483.21c.161.025.3.087.3.185,0,.049-.012.062-.136.136-.148.1-.148.1-.173.26-.062.494-.087.717-.185,1.273a5.16,5.16,0,0,1,.9-.087c1.668,0,1.816,1.471,1.816,2.57C522.419,407.446,521.986,409.04,521.405,409.6Zm2.3-2.793-.655-1.174c.445-.062.7-.124.7-.42a6.946,6.946,0,0,0-1.779-2.842l1-.692c.568.68,2.249,2.669,2.249,3.979C525.224,406.593,524.161,406.741,523.7,406.8Zm1.075-3.942a5.523,5.523,0,0,0-.976-1.087l.667-.494a7.612,7.612,0,0,1,.952,1.05Zm1.26-.729a4.906,4.906,0,0,0-.878-1.063l.643-.47a5.63,5.63,0,0,1,.964,1.038Z" transform="translate(-326.656 -399.364)" fill="#fff"/>
        <path id="パス_4160" data-name="パス 4160" d="M529.579,409.973c-2.793,0-3.979-.519-3.979-1.767a3.034,3.034,0,0,1,1.2-2.187l1.075.877c-.2.161-.692.593-.692,1.038,0,.346.087.692,2.187.692a17.256,17.256,0,0,0,3.818-.4l.086,1.483A30.167,30.167,0,0,1,529.579,409.973Zm.185-5.264-.853-.89c.284-.247.778-.692,1.248-1.124-.531.037-.964.062-1.9.062-.741,0-1.1-.012-1.681-.049l-.371-1.359a21.862,21.862,0,0,0,3.114.222,19.632,19.632,0,0,0,2.818-.2l.556,1C531.729,403.053,530.778,403.857,529.764,404.709Zm4.3-1.631a5.1,5.1,0,0,0-1.026-1.1l.531-.556a5.29,5.29,0,0,1,1.026,1.1Zm.655-1.372a5.222,5.222,0,0,0-1.013-1.05l.531-.556a5.725,5.725,0,0,1,1.05,1.013Z" transform="translate(-324.35 -399.482)" fill="#fff"/>
        <path id="パス_4161" data-name="パス 4161" d="M541.115,407.706a4.608,4.608,0,0,0-2.62-.828c-1.063,0-1.9.507-1.9,1.359,0,1.162,1.162,1.236,1.952,1.236a6.511,6.511,0,0,0,2.064-.3l.309,1.384a13.457,13.457,0,0,1-2.336.21c-2.064,0-3.349-1.026-3.349-2.57a2.647,2.647,0,0,1,2.867-2.471,4.592,4.592,0,0,1,1.446.235,14.75,14.75,0,0,1-1.31-1.928,24.191,24.191,0,0,1-3.213.939l-.8-1.236a13.722,13.722,0,0,0,3.435-.754,13.719,13.719,0,0,1-.9-2.076l1.285-.272c.049-.012.334-.062.334.049,0,.062-.173.321-.173.383a9.183,9.183,0,0,0,.593,1.446,7.962,7.962,0,0,0,1.705-1.063l.68,1.149a12.476,12.476,0,0,1-1.816.989,10.124,10.124,0,0,0,2.484,3.065Zm.7-6.018a7.255,7.255,0,0,0-1.161-.84l.445-.618a7.317,7.317,0,0,1,1.2.828Zm1.3-.655a7.285,7.285,0,0,0-1.088-.84l.445-.593a7.464,7.464,0,0,1,1.149.828Z" transform="translate(-322.318 -399.6)" fill="#fff"/>
        <path id="パス_4162" data-name="パス 4162" d="M545.075,409.465a1.348,1.348,0,0,1-.914-.408c-.865-.84-1.26-2.286-1.26-4.634a12.036,12.036,0,0,1,.371-3.213l1.359.371c.086.025.284.086.284.235s-.148.185-.358.26a12.815,12.815,0,0,0-.235,2.756c0,2.41.593,2.855.84,2.855.445,0,.951-1.31,1.186-1.9l1.026.914C546.694,408.155,546.076,409.465,545.075,409.465Zm6.265-2.2a11.49,11.49,0,0,0-1.816-5.017l1.273-.618a10.506,10.506,0,0,1,2.027,5.252Z" transform="translate(-320.272 -399.22)" fill="#fff"/>
        <path id="パス_4163" data-name="パス 4163" d="M559.584,409.913a9.314,9.314,0,0,0-2.261-1.223c-.049,1.26-.346,1.755-1.928,1.755-1.705,0-2.768-.605-2.768-1.606,0-.358.124-1.792,2.9-1.693l.346.012-.025-1.186c-.222.012-.9.037-1.26.037-1.137,0-1.705-.408-1.705-.89,0-.605.84-1.186,1.322-1.532l.7.605c-.223.161-.408.3-.408.457s.26.173.47.173a8.457,8.457,0,0,0,.853-.025l-.025-1.545c-1.421.062-2.125.111-3.188.235l-.025-1.335c1.409,0,2.076-.025,3.176-.049l-.037-1.644,1.508.148c.235.025.309.062.309.148,0,.049-.025.062-.161.173a.4.4,0,0,0-.161.222c0,.012-.012.247-.025.89,1.582-.074,2-.1,3.164-.185l-.049,1.31c-1.372,0-2.521.025-3.139.037v1.458c1.075-.136,1.532-.21,2.669-.42v1.347a26.543,26.543,0,0,1-2.645.309c.025.618.025.741.062,1.471a10.273,10.273,0,0,1,3.126,1.4Zm-4.276-1.619c-.8,0-1.2.21-1.2.531,0,.42.791.42.939.42.8,0,.853-.222.84-.914A3.2,3.2,0,0,0,555.308,408.294Z" transform="translate(-317.988 -399.397)" fill="#fff"/>
        <path id="パス_4164" data-name="パス 4164" d="M566.531,403.222v1.73a3.188,3.188,0,0,1,.358,1.508,5.54,5.54,0,0,1-.63,2.385,8.574,8.574,0,0,1-1.68,2.3l-1.384-.717a3.943,3.943,0,0,0,1.767-2.027,2.484,2.484,0,0,1-.667.124,1.556,1.556,0,0,1-1.013-.383,2.212,2.212,0,0,1-.643-1.718c0-1.359.68-2.3,1.94-2.3a1.628,1.628,0,0,1,.581.1l-.025-.927c-1.1.062-2.966.173-4.535.371v-1.433c.84,0,1.9,0,4.5-.124-.012-.383-.012-1.038-.086-1.94l1.372.086c.284.012.358.049.358.173,0,.074-.025.111-.111.185s-.1.1-.1.148v1.273c1.718-.1,2.1-.136,3.361-.235v1.335C568.953,403.136,568.138,403.16,566.531,403.222Zm-1.372,2.249a.643.643,0,0,0-.457-.173c-.494,0-.84.433-.84,1.087,0,.741.4,1.026.68,1.026.26,0,.853-.272.853-1.149A1.116,1.116,0,0,0,565.16,405.471Z" transform="translate(-316.1 -399.466)" fill="#fff"/>
        <path id="パス_4165" data-name="パス 4165" d="M573.348,407.743a1.909,1.909,0,1,1-1.9-1.9A1.922,1.922,0,0,1,573.348,407.743Zm-3.225,0a1.316,1.316,0,1,0,1.322-1.31A1.321,1.321,0,0,0,570.123,407.743Z" transform="translate(-313.995 -398.129)" fill="#fff"/>
      </g>
    </g>
  </g>
</svg>
